<svg width="40" height="40" viewBox="0 0 40 40" fill="none" xmlns="http://www.w3.org/2000/svg">
<path d="M20 40C31.0457 40 40 31.0457 40 20C40 8.9543 31.0457 0 20 0C8.9543 0 0 8.9543 0 20C0 31.0457 8.9543 40 20 40Z" fill="#10069F"/>
<path d="M33.953 21.0944C34.5313 21.0944 35.0002 20.6255 35.0002 20.0472C35.0002 19.4688 34.5313 19 33.953 19C33.3746 19 32.9058 19.4688 32.9058 20.0472C32.9058 20.6255 33.3746 21.0944 33.953 21.0944Z" fill="white"/>
<path d="M34.9998 17.5195V23.3986C34.9998 23.9745 34.5311 24.4417 33.9567 24.4417C33.3822 24.4417 32.9136 23.9745 32.9136 23.3986V17.5195C32.9136 17.2817 32.7185 17.0866 32.4793 17.0866C32.3213 17.0866 32.1756 17.1732 32.1 17.312L30.0675 22.8998C30.0565 22.9286 30.0455 22.9561 30.0331 22.9822C29.4779 24.1792 28.7496 24.4362 28.2356 24.4417H28.2191C27.7106 24.4417 26.9864 24.1971 26.4147 23.0303C26.4037 23.007 26.3927 22.9822 26.3831 22.9589L23.7747 16.4297C23.5603 15.8965 23.8214 15.2877 24.356 15.0747C24.8906 14.8617 25.498 15.1214 25.7124 15.656L28.2095 21.9034L30.1596 16.5424C30.1692 16.5135 30.1816 16.486 30.1939 16.4599C30.6048 15.5735 31.5022 15.0005 32.4793 15.0005C33.8687 15.0005 34.9998 16.1301 34.9998 17.5195Z" fill="white"/>
<path d="M19.0088 15C16.3414 15 14.1714 17.17 14.1714 19.8374C14.1714 22.5049 16.3414 24.6735 19.0088 24.6735C21.6763 24.6735 23.8463 22.5035 23.8463 19.8374C23.8463 17.1713 21.6777 15 19.0088 15ZM19.0088 22.5626C17.504 22.5626 16.2823 21.3395 16.2823 19.8374C16.2823 18.3354 17.504 17.1109 19.0088 17.1109C20.5136 17.1109 21.7354 18.334 21.7354 19.8374C21.7354 21.3409 20.5136 22.5626 19.0088 22.5626Z" fill="white"/>
<path d="M14.1331 22.6513C14.5426 23.0608 14.5426 23.7232 14.1331 24.1313C13.9283 24.3347 13.6617 24.4378 13.3937 24.4378C13.1257 24.4378 12.8577 24.3347 12.653 24.1313L9.72028 21.1987L6.78758 24.1313C6.58282 24.3347 6.31621 24.4378 6.04685 24.4378C5.77749 24.4378 5.51089 24.3347 5.30612 24.1313C4.89796 23.7218 4.89796 23.0594 5.30612 22.6513L8.23881 19.7199L5.30612 16.7872C4.89796 16.3777 4.89796 15.7153 5.30612 15.3071C5.71565 14.8976 6.37805 14.8976 6.78621 15.3071L9.7189 18.2398L12.6516 15.3071C13.0598 14.8976 13.7235 14.8976 14.1317 15.3071C14.5412 15.7167 14.5412 16.3791 14.1317 16.7872L11.2004 19.7199L14.1317 22.6513H14.1331Z" fill="white"/>
</svg>
