<svg xmlns="http://www.w3.org/2000/svg" viewBox="0 0 40 40" width="40" height="40">
	<style>
		tspan { white-space:pre }
		.shp0 { fill: #f19620 } 
	</style>
	<g id="Layer_2">
		<g id="Layer_1-2">
			<path id="Layer" class="shp0" d="M29.94 20C29.49 20 29.04 20.03 28.6 20.09C28.15 20.15 27.71 20.25 27.28 20.37C26.85 20.49 26.43 20.64 26.01 20.82C25.6 21 25.2 21.21 24.82 21.44L23.75 20.36C23.57 20.19 23.35 20.07 23.11 20.02C22.87 19.97 22.62 20 22.39 20.09C22.16 20.19 21.97 20.35 21.83 20.56C21.69 20.76 21.62 21 21.62 21.25L21.62 25.4C21.62 25.56 21.65 25.73 21.72 25.88C21.78 26.03 21.87 26.17 21.99 26.28C22.1 26.4 22.24 26.49 22.39 26.55C22.54 26.62 22.71 26.65 22.87 26.65L27 26.65C27.25 26.65 27.49 26.57 27.69 26.44C27.89 26.3 28.05 26.1 28.15 25.88C28.24 25.65 28.27 25.4 28.22 25.16C28.17 24.92 28.05 24.69 27.88 24.52L27.25 23.89C29.83 22.76 32.84 23.37 34.77 25.43C36.7 27.48 37.12 30.53 35.83 33.03C34.54 35.54 31.81 36.95 29.02 36.57C26.22 36.18 23.98 34.08 23.41 31.32C23.3 30.91 23.04 30.56 22.68 30.34C22.32 30.11 21.89 30.03 21.48 30.11C21.06 30.2 20.69 30.43 20.44 30.77C20.2 31.12 20.09 31.54 20.14 31.96C20.91 35.75 23.8 38.75 27.55 39.67C31.3 40.59 35.25 39.27 37.69 36.27C40.13 33.28 40.63 29.14 38.96 25.65C37.3 22.17 33.77 19.95 29.91 19.96L29.94 20Z" />
			<path id="Layer" class="shp0" d="M0 15L0 25L18.3 25L18.3 21.21C18.3 20.38 18.52 19.56 18.95 18.85C19.38 18.14 19.99 17.56 20.72 17.17C21.46 16.78 22.28 16.6 23.11 16.64C23.94 16.69 24.74 16.96 25.43 17.43C25.79 17.3 26.16 17.18 26.53 17.08C26.9 16.98 27.27 16.9 27.65 16.83C28.03 16.76 28.41 16.71 28.79 16.68C29.17 16.65 29.56 16.63 29.94 16.63L29.94 15L0 15Z" />
			<path id="Layer" class="shp0" d="M16.91 32.57C16.84 32.19 16.81 31.8 16.82 31.42C16.84 31.03 16.9 30.65 17 30.28C17.11 29.91 17.25 29.55 17.44 29.21C17.63 28.87 17.85 28.56 18.11 28.27L0 28.27L0 35.34C0 35.94 0.12 36.54 0.35 37.09C0.58 37.65 0.91 38.15 1.34 38.58C1.76 39 2.27 39.34 2.82 39.57C3.37 39.8 3.97 39.92 4.57 39.92L21.17 39.92C20.63 39.45 20.12 38.93 19.66 38.37C19.2 37.82 18.79 37.22 18.43 36.6C18.07 35.97 17.76 35.32 17.5 34.65C17.25 33.97 17.05 33.28 16.91 32.57L16.91 32.57Z" />
			<path id="Layer" fill-rule="evenodd" class="shp0" d="M25.36 0C25.96 0 26.56 0.12 27.11 0.35C27.67 0.58 28.17 0.91 28.6 1.34C29.02 1.76 29.36 2.27 29.59 2.82C29.82 3.37 29.94 3.97 29.94 4.57L29.94 11.64L0 11.64L0 4.57C0 3.97 0.12 3.38 0.35 2.82C0.58 2.27 0.92 1.77 1.34 1.34C1.77 0.92 2.27 0.58 2.82 0.35C3.38 0.12 3.97 0 4.57 0L25.36 0ZM5.82 8.32C6.15 8.32 6.47 8.26 6.78 8.13C7.08 8.01 7.36 7.82 7.59 7.59C7.82 7.36 8.01 7.08 8.13 6.78C8.26 6.47 8.32 6.15 8.32 5.82C8.32 4.81 7.71 3.9 6.78 3.51C5.84 3.12 4.77 3.34 4.05 4.05C3.34 4.77 3.12 5.84 3.51 6.78C3.9 7.71 4.81 8.32 5.82 8.32ZM14.14 8.32C14.47 8.32 14.79 8.25 15.09 8.13C15.4 8 15.67 7.82 15.9 7.58C16.13 7.35 16.32 7.08 16.44 6.77C16.57 6.47 16.63 6.15 16.63 5.82C16.63 4.81 16.02 3.9 15.08 3.51C14.15 3.12 13.07 3.34 12.36 4.06C11.64 4.77 11.43 5.85 11.82 6.78C12.21 7.72 13.13 8.32 14.14 8.32ZM22.45 8.32C22.78 8.33 23.11 8.27 23.42 8.15C23.73 8.02 24.02 7.84 24.25 7.61C24.49 7.38 24.68 7.1 24.81 6.79C24.94 6.48 25 6.15 25 5.82C25 4.81 24.4 3.91 23.47 3.52C22.54 3.13 21.47 3.33 20.75 4.04C20.03 4.74 19.81 5.81 20.18 6.74C20.55 7.68 21.44 8.3 22.45 8.32Z" />
		</g>
	</g>
</svg>