<svg xmlns="http://www.w3.org/2000/svg" viewBox="0 0 48 40" width="48" height="40">
	<style>
		tspan { white-space:pre }
		.shp0 { fill: #f19620 } 
	</style>
	<g id="Layer_2">
		<g id="Layer_1-2">
			<path id="Layer" fill-rule="evenodd" class="shp0" d="M4 14C3.47 14 2.95 13.9 2.47 13.7C1.98 13.49 1.54 13.2 1.17 12.83C0.8 12.46 0.51 12.02 0.3 11.53C0.1 11.05 0 10.53 0 10L0 4C0 3.47 0.1 2.95 0.3 2.47C0.51 1.98 0.8 1.54 1.17 1.17C1.54 0.8 1.98 0.51 2.47 0.3C2.95 0.1 3.47 0 4 0L39.92 0C40.45 0 40.97 0.1 41.45 0.3C41.94 0.51 42.38 0.8 42.75 1.17C43.12 1.54 43.41 1.98 43.62 2.47C43.82 2.95 43.92 3.47 43.92 4L43.92 10C43.92 10.53 43.82 11.05 43.62 11.53C43.41 12.02 43.12 12.46 42.75 12.83C42.38 13.2 41.94 13.49 41.45 13.7C40.97 13.9 40.45 14 39.92 14L4 14ZM35.15 5.15C34.91 5.25 34.69 5.4 34.51 5.59C34.32 5.77 34.17 5.99 34.07 6.23C33.97 6.48 33.92 6.74 33.92 7C33.92 7.81 34.41 8.54 35.15 8.85C35.9 9.16 36.76 8.99 37.33 8.41C37.91 7.84 38.08 6.98 37.77 6.23C37.46 5.49 36.73 5 35.92 5C35.66 5 35.4 5.05 35.15 5.15ZM29.94 5C29.68 5 29.41 5.05 29.17 5.15C28.92 5.25 28.7 5.39 28.51 5.58C28.32 5.76 28.18 5.99 28.07 6.23C27.97 6.47 27.92 6.74 27.92 7C27.92 7.81 28.41 8.54 29.15 8.85C29.9 9.16 30.76 8.99 31.33 8.41C31.91 7.84 32.08 6.98 31.77 6.23C31.46 5.49 30.73 5 29.92 5L29.94 5ZM14 9C14 9.27 14.11 9.52 14.29 9.71C14.48 9.89 14.73 10 15 10C15.27 10 15.52 9.89 15.71 9.71C15.89 9.52 16 9.27 16 9L16 5C16 4.73 15.89 4.48 15.71 4.29C15.52 4.11 15.27 4 15 4C14.73 4 14.48 4.11 14.29 4.29C14.11 4.48 14 4.73 14 5L14 9ZM10 9C10 9.27 10.11 9.52 10.29 9.71C10.48 9.89 10.73 10 11 10C11.27 10 11.52 9.89 11.71 9.71C11.89 9.52 12 9.27 12 9L12 5C12 4.73 11.89 4.48 11.71 4.29C11.52 4.11 11.27 4 11 4C10.73 4 10.48 4.11 10.29 4.29C10.11 4.48 10 4.73 10 5L10 9ZM6 9C6 9.27 6.11 9.52 6.29 9.71C6.48 9.89 6.73 10 7 10C7.27 10 7.52 9.89 7.71 9.71C7.89 9.52 8 9.27 8 9L8 5C8 4.73 7.89 4.48 7.71 4.29C7.52 4.11 7.27 4 7 4C6.73 4 6.48 4.11 6.29 4.29C6.11 4.48 6 4.73 6 5L6 9Z" />
			<path id="Layer" fill-rule="evenodd" class="shp0" d="M30.27 17.82C29.31 18.39 28.43 19.09 27.64 19.89C26.86 20.7 26.19 21.6 25.64 22.57C25.1 23.55 24.68 24.59 24.4 25.68C24.12 26.76 23.99 27.88 24 29C24 29.13 23.97 29.26 23.92 29.38C23.87 29.5 23.8 29.61 23.71 29.71C23.61 29.8 23.5 29.87 23.38 29.92C23.26 29.97 23.13 30 23 30L4 30C3.47 30 2.95 29.9 2.47 29.7C1.98 29.49 1.54 29.2 1.17 28.83C0.8 28.46 0.51 28.02 0.3 27.53C0.1 27.05 0 26.53 0 26L0 20C0 19.47 0.1 18.95 0.3 18.47C0.51 17.98 0.8 17.54 1.17 17.17C1.54 16.8 1.98 16.51 2.47 16.3C2.95 16.1 3.47 16 4 16L29.75 16C29.96 16.01 30.16 16.09 30.32 16.22C30.49 16.35 30.6 16.52 30.66 16.72C30.72 16.92 30.71 17.14 30.64 17.33C30.57 17.53 30.44 17.7 30.27 17.82ZM8 21C8 20.73 7.89 20.48 7.71 20.29C7.52 20.11 7.27 20 7 20C6.73 20 6.48 20.11 6.29 20.29C6.11 20.48 6 20.73 6 21L6 25C6 25.27 6.11 25.52 6.29 25.71C6.48 25.89 6.73 26 7 26C7.27 26 7.52 25.89 7.71 25.71C7.89 25.52 8 25.27 8 25L8 21ZM12 21C12 20.73 11.89 20.48 11.71 20.29C11.52 20.11 11.27 20 11 20C10.73 20 10.48 20.11 10.29 20.29C10.11 20.48 10 20.73 10 21L10 25C10 25.27 10.11 25.52 10.29 25.71C10.48 25.89 10.73 26 11 26C11.27 26 11.52 25.89 11.71 25.71C11.89 25.52 12 25.27 12 25L12 21ZM16 21C16 20.73 15.89 20.48 15.71 20.29C15.52 20.11 15.27 20 15 20C14.73 20 14.48 20.11 14.29 20.29C14.11 20.48 14 20.73 14 21L14 25C14 25.27 14.11 25.52 14.29 25.71C14.48 25.89 14.73 26 15 26C15.27 26 15.52 25.89 15.71 25.71C15.89 25.52 16 25.27 16 25L16 21Z" />
			<path id="Layer" fill-rule="evenodd" class="shp0" d="M41.13 18.84C42.46 19.39 43.68 20.2 44.7 21.22C45.72 22.24 46.53 23.46 47.08 24.79C47.64 26.13 47.92 27.56 47.92 29C47.92 33.45 45.24 37.46 41.13 39.16C37.02 40.87 32.29 39.92 29.14 36.78C26 33.63 25.05 28.9 26.76 24.79C28.46 20.68 32.47 18 36.92 18C38.36 18 39.79 18.28 41.13 18.84ZM41.62 27.65C41.71 27.56 41.79 27.45 41.84 27.33C41.89 27.21 41.92 27.08 41.92 26.95C41.92 26.82 41.9 26.69 41.85 26.57C41.8 26.45 41.73 26.33 41.64 26.24L37.64 22.24C37.55 22.15 37.44 22.07 37.32 22.02C37.2 21.97 37.07 21.95 36.94 21.95C36.8 21.95 36.67 21.97 36.55 22.02C36.43 22.07 36.32 22.15 36.23 22.24L32.23 26.24C32.07 26.43 31.98 26.68 31.99 26.93C32 27.18 32.1 27.42 32.28 27.6C32.46 27.78 32.7 27.88 32.95 27.89C33.2 27.9 33.45 27.81 33.64 27.65L35.92 25.36L35.92 34.97C35.92 35.24 36.03 35.49 36.21 35.68C36.4 35.86 36.65 35.97 36.92 35.97C37.19 35.97 37.44 35.86 37.63 35.68C37.81 35.49 37.92 35.24 37.92 34.97L37.92 25.4L40.21 27.69C40.3 27.78 40.41 27.86 40.53 27.91C40.65 27.96 40.78 27.98 40.92 27.98C41.05 27.98 41.18 27.96 41.3 27.91C41.42 27.86 41.53 27.78 41.62 27.69L41.62 27.65Z" />
		</g>
	</g>
</svg>