<svg xmlns="http://www.w3.org/2000/svg" viewBox="0 0 43 43" width="43" height="43">
	<style>
		tspan { white-space:pre }
		.shp0 { fill: none } 
		.shp1 { fill: #f19620 } 
	</style>
	<g id="Layer_2">
		<g id="Layer_1-2">
			<path id="Layer" class="shp0" d="M35.87 14.57C35.78 14.57 35.69 14.57 35.6 14.58C35.51 14.59 35.42 14.59 35.33 14.61C35.24 14.62 35.15 14.63 35.06 14.65C34.97 14.67 34.88 14.69 34.79 14.71C34.71 14.73 34.62 14.75 34.53 14.75C34.45 14.76 34.36 14.75 34.27 14.74C34.19 14.73 34.1 14.71 34.02 14.68C33.94 14.65 33.86 14.61 33.79 14.56C33.72 14.51 33.65 14.46 33.59 14.39C33.52 14.33 33.47 14.26 33.42 14.19C33.37 14.12 33.33 14.04 33.3 13.95C33.27 13.87 33.24 13.79 33.23 13.7C33.13 12.99 32.89 12.3 32.55 11.67C32.2 11.04 31.74 10.48 31.19 10.01C30.65 9.54 30.02 9.18 29.34 8.93C28.67 8.68 27.95 8.56 27.23 8.57C27.16 8.57 27.09 8.57 27.01 8.57C26.94 8.58 26.87 8.58 26.8 8.58C26.73 8.59 26.66 8.6 26.58 8.6C26.51 8.61 26.44 8.62 26.37 8.63C26.24 8.65 26.11 8.65 25.98 8.63C25.85 8.61 25.72 8.56 25.61 8.5C25.49 8.44 25.38 8.36 25.29 8.26C25.2 8.17 25.13 8.06 25.07 7.94C24.69 7.14 24.2 6.39 23.61 5.73C23.03 5.06 22.35 4.48 21.6 4C20.85 3.52 20.04 3.15 19.19 2.9C18.34 2.64 17.46 2.51 16.57 2.5C15.5 2.51 14.44 2.7 13.43 3.06C12.42 3.42 11.48 3.96 10.65 4.63C9.82 5.31 9.11 6.12 8.55 7.04C7.99 7.95 7.59 8.95 7.37 10C7.35 10.1 7.31 10.2 7.26 10.3C7.22 10.39 7.16 10.48 7.08 10.56C7.01 10.64 6.93 10.71 6.84 10.77C6.76 10.83 6.66 10.88 6.56 10.91C5.55 11.27 4.65 11.89 3.96 12.7C3.26 13.52 2.8 14.5 2.6 15.56C2.41 16.61 2.5 17.7 2.86 18.7C3.22 19.71 3.84 20.61 4.66 21.3L4.66 18.64C4.66 18.48 4.69 18.32 4.76 18.16C4.82 18.01 4.91 17.88 5.03 17.76C5.15 17.65 5.28 17.56 5.43 17.49C5.58 17.43 5.75 17.4 5.91 17.4L36.54 17.4C36.7 17.4 36.87 17.43 37.02 17.49C37.17 17.56 37.3 17.65 37.42 17.76C37.54 17.88 37.63 18.01 37.69 18.16C37.76 18.32 37.79 18.48 37.79 18.64L37.79 22.25C38.59 21.82 39.23 21.14 39.6 20.31C39.97 19.47 40.05 18.54 39.83 17.66C39.61 16.78 39.1 15.99 38.38 15.43C37.66 14.87 36.78 14.57 35.87 14.57L35.87 14.57Z" />
			<path id="Layer" fill-rule="evenodd" class="shp1" d="M40.17 13.66C41.37 14.68 42.16 16.11 42.39 17.67C42.62 19.23 42.29 20.82 41.44 22.16C40.6 23.49 39.3 24.47 37.79 24.93L37.79 28.71L4.66 28.71L4.66 24.28C3.22 23.54 2.02 22.41 1.2 21.02C0.37 19.62 -0.04 18.03 0 16.41C0.05 14.79 0.55 13.22 1.45 11.88C2.35 10.53 3.61 9.47 5.09 8.81C5.43 7.56 5.98 6.37 6.7 5.3C7.43 4.22 8.32 3.27 9.35 2.48C10.38 1.69 11.53 1.08 12.75 0.65C13.98 0.23 15.26 0.01 16.56 0C17.61 0.01 18.65 0.15 19.66 0.43C20.67 0.71 21.64 1.12 22.54 1.65C23.45 2.18 24.28 2.83 25.01 3.57C25.75 4.32 26.38 5.16 26.9 6.07C27.83 6.04 28.77 6.15 29.66 6.42C30.56 6.69 31.4 7.1 32.16 7.63C32.93 8.17 33.6 8.83 34.15 9.59C34.7 10.34 35.12 11.18 35.4 12.07C35.44 12.07 35.48 12.07 35.52 12.06C35.56 12.06 35.6 12.06 35.63 12.06C35.67 12.06 35.71 12.06 35.75 12.06C35.79 12.07 35.83 12.07 35.87 12.07C37.45 12.06 38.98 12.63 40.17 13.66ZM21.55 24.78C22.04 24.78 22.51 24.59 22.86 24.24C23.21 23.89 23.4 23.42 23.4 22.93C23.4 22.44 23.21 21.97 22.86 21.62C22.51 21.27 22.04 21.08 21.55 21.08L9 21.08C8.51 21.08 8.04 21.27 7.69 21.62C7.34 21.97 7.15 22.44 7.15 22.93C7.15 23.42 7.34 23.89 7.69 24.24C8.04 24.59 8.51 24.78 9 24.78L21.55 24.78ZM27.58 24.78C27.82 24.78 28.06 24.73 28.28 24.63C28.5 24.54 28.7 24.4 28.87 24.23C29.04 24.06 29.17 23.85 29.26 23.63C29.35 23.41 29.4 23.17 29.4 22.93C29.4 22.18 28.95 21.51 28.26 21.22C27.57 20.93 26.77 21.09 26.24 21.62C25.71 22.15 25.55 22.95 25.84 23.64C26.13 24.33 26.8 24.78 27.55 24.78L27.58 24.78ZM33.14 24.78C33.38 24.78 33.63 24.73 33.85 24.64C34.08 24.55 34.28 24.41 34.45 24.24C34.63 24.07 34.76 23.87 34.86 23.64C34.95 23.42 35 23.17 35 22.93C35 22.19 34.55 21.51 33.87 21.22C33.18 20.94 32.39 21.09 31.86 21.61C31.32 22.13 31.16 22.92 31.43 23.61C31.7 24.3 32.37 24.76 33.11 24.78L33.14 24.78ZM37.78 22.25C38.58 21.82 39.22 21.14 39.59 20.31C39.96 19.47 40.04 18.54 39.82 17.66C39.6 16.78 39.09 15.99 38.37 15.43C37.65 14.87 36.77 14.57 35.86 14.57C35.77 14.57 35.68 14.57 35.59 14.58C35.5 14.59 35.41 14.59 35.32 14.61C35.23 14.62 35.14 14.63 35.05 14.65C34.96 14.67 34.87 14.69 34.78 14.71C34.7 14.73 34.61 14.75 34.52 14.75C34.44 14.76 34.35 14.75 34.26 14.74C34.18 14.73 34.09 14.71 34.01 14.68C33.93 14.65 33.85 14.61 33.78 14.56C33.71 14.51 33.64 14.46 33.58 14.39C33.51 14.33 33.46 14.26 33.41 14.19C33.36 14.12 33.32 14.04 33.29 13.95C33.26 13.87 33.23 13.79 33.22 13.7C33.12 12.99 32.88 12.3 32.54 11.67C32.19 11.04 31.73 10.48 31.18 10.01C30.64 9.54 30.01 9.18 29.33 8.93C28.66 8.68 27.94 8.56 27.22 8.57C27.15 8.57 27.08 8.57 27 8.57C26.93 8.58 26.86 8.58 26.79 8.58C26.72 8.59 26.65 8.6 26.57 8.6C26.5 8.61 26.43 8.62 26.36 8.63C26.23 8.65 26.1 8.65 25.97 8.63C25.84 8.61 25.71 8.56 25.6 8.5C25.48 8.44 25.37 8.36 25.28 8.26C25.19 8.17 25.12 8.06 25.06 7.94C24.68 7.14 24.19 6.39 23.6 5.73C23.02 5.06 22.34 4.48 21.59 4C20.84 3.52 20.03 3.15 19.18 2.9C18.33 2.64 17.45 2.51 16.56 2.5C15.49 2.51 14.43 2.7 13.42 3.06C12.41 3.43 11.48 3.96 10.65 4.64C9.82 5.31 9.11 6.12 8.55 7.04C7.99 7.95 7.59 8.95 7.37 10C7.35 10.1 7.31 10.2 7.26 10.3C7.22 10.39 7.16 10.48 7.08 10.56C7.01 10.64 6.93 10.71 6.84 10.77C6.76 10.83 6.66 10.88 6.56 10.91C5.55 11.27 4.65 11.89 3.96 12.7C3.26 13.52 2.8 14.5 2.6 15.56C2.41 16.61 2.5 17.7 2.86 18.7C3.22 19.71 3.84 20.61 4.66 21.3L4.66 18.64C4.66 18.48 4.69 18.32 4.76 18.16C4.82 18.01 4.91 17.88 5.03 17.76C5.15 17.65 5.28 17.56 5.43 17.49C5.58 17.43 5.75 17.4 5.91 17.4L36.51 17.4C36.67 17.4 36.84 17.43 36.99 17.49C37.14 17.56 37.27 17.65 37.39 17.76C37.51 17.88 37.6 18.01 37.66 18.16C37.73 18.32 37.76 18.48 37.76 18.64L37.76 22.25L37.78 22.25Z" />
			<path id="Layer" fill-rule="evenodd" class="shp1" d="M37.79 31.22L37.79 41.37C37.79 41.53 37.76 41.7 37.69 41.85C37.63 42 37.54 42.14 37.42 42.25C37.31 42.37 37.17 42.46 37.02 42.52C36.87 42.59 36.7 42.62 36.54 42.62L5.91 42.62C5.75 42.62 5.58 42.59 5.43 42.52C5.28 42.46 5.14 42.37 5.03 42.25C4.91 42.14 4.82 42 4.76 41.85C4.69 41.7 4.66 41.53 4.66 41.37L4.66 31.22L37.79 31.22ZM22.86 38.23C23.21 37.88 23.4 37.41 23.4 36.92C23.4 36.43 23.21 35.96 22.86 35.61C22.51 35.26 22.04 35.07 21.55 35.07L9 35.07C8.51 35.07 8.04 35.26 7.69 35.61C7.34 35.96 7.15 36.43 7.15 36.92C7.15 37.41 7.34 37.88 7.69 38.23C8.04 38.58 8.51 38.77 9 38.77L21.55 38.77C22.04 38.77 22.51 38.58 22.86 38.23ZM27.58 38.77C27.82 38.77 28.06 38.72 28.28 38.62C28.5 38.53 28.7 38.39 28.87 38.22C29.04 38.05 29.17 37.84 29.26 37.62C29.35 37.4 29.4 37.16 29.4 36.92C29.4 36.17 28.95 35.5 28.26 35.21C27.57 34.92 26.77 35.08 26.24 35.61C25.71 36.14 25.55 36.94 25.84 37.63C26.13 38.32 26.8 38.77 27.55 38.77L27.58 38.77ZM33.14 38.77C33.38 38.77 33.63 38.72 33.85 38.63C34.08 38.54 34.28 38.4 34.45 38.23C34.63 38.06 34.76 37.86 34.86 37.63C34.95 37.41 35 37.16 35 36.92C35 36.18 34.55 35.5 33.87 35.21C33.18 34.93 32.39 35.08 31.86 35.6C31.32 36.12 31.16 36.91 31.43 37.6C31.7 38.29 32.37 38.75 33.11 38.77L33.14 38.77Z" />
		</g>
	</g>
</svg>