<svg xmlns="http://www.w3.org/2000/svg" viewBox="0 0 41 41" width="41" height="41">
	<style>
		tspan { white-space:pre }
		.shp0 { fill: #f19620 } 
	</style>
	<g id="Layer_2">
		<g id="Layer_1-2">
			<path id="Layer" class="shp0" d="M24.56 15.87C23.82 15.87 23.22 15.27 23.22 14.53C23.22 13.79 23.82 13.19 24.56 13.19C25.3 13.19 25.9 13.79 25.9 14.53C25.9 15.27 25.3 15.87 24.56 15.87Z" />
			<path id="Layer" class="shp0" d="M32.14 27.24C31.4 27.24 30.8 26.64 30.8 25.9C30.8 25.16 31.4 24.56 32.14 24.56C32.88 24.56 33.48 25.16 33.48 25.9C33.48 26.64 32.88 27.24 32.14 27.24Z" />
			<path id="Layer" fill-rule="evenodd" class="shp0" d="M39.25 0C39.41 0 39.56 0.03 39.7 0.09C39.85 0.15 39.98 0.23 40.09 0.34C40.2 0.45 40.29 0.58 40.35 0.73C40.41 0.87 40.44 1.02 40.44 1.18L40.44 39.25C40.44 39.41 40.41 39.56 40.35 39.71C40.29 39.85 40.2 39.98 40.09 40.09C39.98 40.2 39.85 40.29 39.71 40.35C39.56 40.41 39.41 40.44 39.25 40.44L15.86 40.44L15.86 1.18C15.86 1.02 15.89 0.87 15.95 0.73C16.01 0.58 16.1 0.45 16.21 0.34C16.32 0.23 16.45 0.15 16.6 0.09C16.74 0.03 16.89 0 17.05 0L39.25 0ZM25.75 18C26.47 17.75 27.1 17.27 27.55 16.64C27.99 16.02 28.23 15.27 28.23 14.5C28.23 13.73 27.99 12.98 27.55 12.36C27.1 11.73 26.47 11.25 25.75 11L25.75 7C25.72 6.7 25.59 6.43 25.37 6.23C25.15 6.03 24.86 5.92 24.56 5.92C24.27 5.92 23.98 6.03 23.76 6.23C23.54 6.43 23.41 6.7 23.38 7L23.38 11.05C22.66 11.3 22.03 11.78 21.58 12.41C21.14 13.03 20.9 13.78 20.9 14.55C20.9 15.32 21.14 16.07 21.58 16.69C22.03 17.32 22.66 17.8 23.38 18.05L23.38 33.49C23.41 33.79 23.54 34.06 23.76 34.26C23.98 34.46 24.27 34.57 24.56 34.57C24.86 34.57 25.15 34.46 25.37 34.26C25.59 34.06 25.72 33.79 25.75 33.49L25.75 18ZM33.33 29.39C34.05 29.14 34.68 28.66 35.13 28.03C35.57 27.41 35.81 26.66 35.81 25.89C35.81 25.12 35.57 24.37 35.13 23.75C34.68 23.12 34.05 22.64 33.33 22.39L33.33 7C33.3 6.7 33.17 6.43 32.95 6.23C32.73 6.03 32.44 5.92 32.14 5.92C31.85 5.92 31.56 6.03 31.34 6.23C31.12 6.43 30.99 6.7 30.96 7L30.96 22.42C30.24 22.67 29.61 23.15 29.16 23.78C28.72 24.4 28.48 25.15 28.48 25.92C28.48 26.69 28.72 27.44 29.16 28.06C29.61 28.69 30.24 29.17 30.96 29.42L30.96 33.49C30.99 33.79 31.12 34.06 31.34 34.26C31.56 34.46 31.85 34.57 32.14 34.57C32.44 34.57 32.73 34.46 32.95 34.26C33.17 34.06 33.3 33.79 33.33 33.49L33.33 29.39Z" />
			<path id="Layer" class="shp0" d="M9.57 14.91L9.57 16.91L9.18 17.07L7.76 15.66C7.66 15.57 7.55 15.49 7.43 15.43C7.3 15.37 7.17 15.34 7.04 15.32C6.9 15.31 6.76 15.32 6.63 15.35C6.5 15.38 6.37 15.44 6.26 15.51C6.06 15.65 5.86 15.79 5.66 15.94C5.47 16.09 5.27 16.24 5.08 16.4C4.9 16.56 4.71 16.72 4.53 16.89C4.35 17.05 4.17 17.23 4 17.4C3.82 17.58 3.65 17.76 3.49 17.95C3.32 18.13 3.16 18.32 3 18.51C2.84 18.71 2.69 18.91 2.54 19.11C2.39 19.31 2.25 19.51 2.11 19.72C2.03 19.83 1.98 19.96 1.95 20.09C1.91 20.22 1.9 20.36 1.92 20.49C1.93 20.63 1.97 20.76 2.03 20.88C2.09 21 2.16 21.11 2.26 21.21L3.69 22.63C3.63 22.76 3.58 22.89 3.52 23.03L1.52 23.03C1.38 23.02 1.24 23.04 1.1 23.09C0.96 23.13 0.84 23.2 0.73 23.28C0.62 23.37 0.52 23.48 0.45 23.6C0.38 23.73 0.33 23.86 0.3 24C0.2 24.49 0.12 24.99 0.07 25.49C0.02 25.99 -0.01 26.5 -0.01 27C-0.01 27.5 0.02 28.01 0.07 28.51C0.12 29.01 0.2 29.51 0.3 30C0.33 30.13 0.38 30.26 0.45 30.37C0.52 30.49 0.61 30.59 0.71 30.68C0.82 30.76 0.94 30.83 1.06 30.87C1.19 30.92 1.32 30.94 1.46 30.94L3.46 30.94C3.52 31.08 3.57 31.21 3.63 31.34L2.21 32.68C2.11 32.78 2.04 32.89 1.98 33.01C1.92 33.13 1.88 33.26 1.87 33.4C1.85 33.53 1.86 33.67 1.9 33.8C1.93 33.93 1.98 34.06 2.06 34.17C2.2 34.38 2.35 34.58 2.5 34.78C2.65 34.99 2.81 35.18 2.97 35.38C3.14 35.57 3.3 35.76 3.47 35.95C3.64 36.13 3.82 36.31 4 36.49C4.18 36.67 4.36 36.84 4.54 37C4.73 37.17 4.92 37.33 5.11 37.49C5.3 37.65 5.5 37.8 5.7 37.95C5.9 38.1 6.1 38.24 6.31 38.38C6.42 38.45 6.55 38.51 6.68 38.54C6.82 38.57 6.95 38.58 7.09 38.57C7.22 38.55 7.36 38.51 7.48 38.45C7.6 38.4 7.71 38.32 7.81 38.22L9.18 36.8L9.57 36.96L9.57 38.96C9.57 39.1 9.59 39.23 9.64 39.36C9.69 39.48 9.75 39.6 9.84 39.71C9.93 39.81 10.03 39.9 10.14 39.97C10.26 40.04 10.39 40.09 10.52 40.12C10.77 40.17 11.01 40.21 11.26 40.25C11.51 40.29 11.76 40.32 12.01 40.35C12.26 40.37 12.51 40.39 12.77 40.4C13.02 40.41 13.27 40.42 13.52 40.42L13.52 29.86C12.72 29.91 11.93 29.62 11.35 29.07C10.76 28.52 10.43 27.75 10.43 26.95C10.43 26.14 10.76 25.37 11.35 24.82C11.93 24.27 12.72 23.98 13.52 24.03L13.52 13.46C13.27 13.46 13.02 13.46 12.77 13.47C12.51 13.49 12.26 13.5 12.01 13.53C11.76 13.55 11.51 13.58 11.26 13.62C11.01 13.66 10.77 13.7 10.52 13.75C10.39 13.78 10.26 13.83 10.14 13.9C10.03 13.97 9.93 14.06 9.84 14.16C9.75 14.27 9.69 14.39 9.64 14.51C9.59 14.64 9.57 14.77 9.57 14.91Z" />
		</g>
	</g>
</svg>