<svg xmlns="http://www.w3.org/2000/svg" viewBox="0 0 42 42" width="42" height="42">
	<style>
		tspan { white-space:pre }
		.shp0 { fill: #f19620 } 
	</style>
	<g id="Layer_2">
		<g id="Layer_1-2">
			<path id="Layer" class="shp0" d="M8.67 20.94C8.67 20.56 8.69 20.18 8.73 19.8C8.76 19.42 8.82 19.04 8.89 18.67C8.96 18.29 9.06 17.92 9.16 17.56C9.27 17.19 9.4 16.83 9.54 16.48L3.16 10.1C2.65 10.91 2.2 11.75 1.81 12.62C1.42 13.49 1.09 14.39 0.83 15.3C0.56 16.22 0.36 17.15 0.22 18.09C0.08 19.03 0.01 19.99 0 20.94C0.01 21.89 0.08 22.84 0.22 23.79C0.36 24.73 0.56 25.66 0.83 26.58C1.09 27.49 1.42 28.39 1.81 29.26C2.2 30.13 2.65 30.97 3.16 31.78L9.54 25.4C9.4 25.05 9.27 24.69 9.16 24.32C9.06 23.96 8.97 23.59 8.89 23.21C8.82 22.84 8.76 22.46 8.73 22.08C8.69 21.7 8.67 21.32 8.67 20.94L8.67 20.94Z" />
			<path id="Layer" class="shp0" d="M10.71 27.69L4.58 33.83C4.83 34.15 5.1 34.47 5.37 34.77C5.64 35.08 5.92 35.38 6.21 35.67C6.5 35.96 6.8 36.24 7.11 36.51C7.41 36.78 7.73 37.05 8.05 37.3L14.18 31.16C13.84 30.93 13.51 30.69 13.19 30.43C12.87 30.17 12.56 29.89 12.27 29.6C11.98 29.31 11.7 29 11.44 28.68C11.18 28.36 10.94 28.03 10.71 27.69L10.71 27.69Z" />
			<path id="Layer" class="shp0" d="M31.16 27.69C30.93 28.03 30.69 28.37 30.43 28.69C30.17 29 29.89 29.31 29.6 29.6C29.31 29.89 29 30.17 28.69 30.43C28.37 30.69 28.03 30.93 27.69 31.16L33.83 37.3C34.15 37.05 34.47 36.78 34.77 36.51C35.08 36.24 35.38 35.96 35.67 35.67C35.96 35.38 36.24 35.08 36.51 34.77C36.78 34.47 37.05 34.15 37.3 33.83L31.16 27.69Z" />
			<path id="Layer" class="shp0" d="M33.21 20.94C33.21 21.32 33.19 21.7 33.15 22.08C33.11 22.46 33.06 22.84 32.98 23.21C32.91 23.58 32.82 23.95 32.71 24.32C32.61 24.69 32.48 25.05 32.34 25.4L38.72 31.78C39.23 30.97 39.68 30.13 40.07 29.26C40.46 28.39 40.79 27.49 41.05 26.58C41.32 25.66 41.52 24.73 41.66 23.79C41.8 22.84 41.87 21.89 41.88 20.94C41.87 19.99 41.8 19.03 41.66 18.09C41.52 17.15 41.32 16.22 41.05 15.3C40.79 14.39 40.46 13.49 40.07 12.62C39.68 11.75 39.23 10.91 38.72 10.1L32.34 16.48C32.48 16.83 32.61 17.19 32.71 17.56C32.82 17.92 32.91 18.3 32.98 18.67C33.06 19.04 33.11 19.42 33.15 19.8C33.19 20.18 33.21 20.56 33.21 20.94L33.21 20.94Z" />
			<path id="Layer" class="shp0" d="M25.4 32.34C24.69 32.63 23.96 32.84 23.21 32.99C22.46 33.14 21.7 33.21 20.94 33.21C20.18 33.21 19.42 33.14 18.67 32.99C17.92 32.84 17.19 32.63 16.48 32.34L10.1 38.72C10.91 39.23 11.75 39.68 12.62 40.07C13.49 40.46 14.39 40.79 15.3 41.05C16.22 41.32 17.15 41.52 18.09 41.66C19.03 41.8 19.99 41.87 20.94 41.88C21.89 41.87 22.84 41.8 23.79 41.66C24.73 41.52 25.66 41.32 26.58 41.05C27.49 40.79 28.39 40.46 29.26 40.07C30.13 39.68 30.97 39.23 31.78 38.72L25.4 32.34Z" />
			<path id="Layer" class="shp0" d="M16.48 9.54C17.19 9.25 17.92 9.04 18.67 8.89C19.42 8.74 20.18 8.67 20.94 8.67C21.7 8.67 22.46 8.74 23.21 8.89C23.96 9.04 24.69 9.25 25.4 9.54L31.78 3.16C30.97 2.65 30.13 2.2 29.26 1.81C28.39 1.42 27.49 1.09 26.58 0.83C25.66 0.56 24.73 0.36 23.79 0.22C22.84 0.08 21.89 0.01 20.94 0C19.99 0.01 19.03 0.08 18.09 0.22C17.15 0.36 16.22 0.56 15.3 0.83C14.39 1.09 13.49 1.42 12.62 1.81C11.75 2.2 10.91 2.65 10.1 3.16L16.48 9.54Z" />
			<path id="Layer" class="shp0" d="M10.71 14.18C10.94 13.84 11.19 13.51 11.45 13.19C11.71 12.87 11.99 12.57 12.28 12.28C12.57 11.99 12.87 11.71 13.19 11.45C13.51 11.19 13.84 10.94 14.18 10.71L8.05 4.58C7.73 4.83 7.41 5.1 7.11 5.37C6.8 5.64 6.5 5.92 6.21 6.21C5.92 6.5 5.64 6.8 5.37 7.11C5.1 7.41 4.83 7.73 4.58 8.05L10.71 14.18Z" />
			<path id="Layer" class="shp0" d="M31.16 14.18L37.3 8.05C37.05 7.73 36.78 7.41 36.51 7.11C36.24 6.8 35.96 6.5 35.67 6.21C35.38 5.92 35.08 5.64 34.77 5.37C34.47 5.1 34.15 4.83 33.83 4.58L27.69 10.71C28.03 10.94 28.36 11.18 28.68 11.44C29 11.7 29.31 11.98 29.6 12.27C29.89 12.56 30.17 12.87 30.43 13.19C30.69 13.51 30.93 13.84 31.16 14.18L31.16 14.18Z" />
			<path id="Layer" fill-rule="evenodd" class="shp0" d="M26.76 17.8L26.76 23.36C26.7 24.86 26.06 26.28 24.97 27.33C23.89 28.37 22.44 28.95 20.93 28.95C19.43 28.95 17.98 28.37 16.9 27.33C15.81 26.28 15.17 24.86 15.11 23.36L15.11 17.8L16.7 17.8L16.7 16.93C16.64 15.77 17.06 14.64 17.86 13.8C18.67 12.96 19.77 12.48 20.94 12.48C22.1 12.48 23.2 12.96 24.01 13.8C24.81 14.64 25.23 15.77 25.17 16.93L25.17 17.8L26.76 17.8ZM18.29 17.8L23.59 17.8L23.59 16.93C23.59 16.23 23.31 15.55 22.81 15.06C22.32 14.56 21.64 14.28 20.94 14.28C20.24 14.28 19.56 14.56 19.07 15.06C18.57 15.55 18.29 16.23 18.29 16.93L18.29 17.8ZM23.59 22.36L22.52 21.18L20.44 23.06L19.38 22L18.26 23.13L20.38 25.25L23.59 22.36Z" />
		</g>
	</g>
</svg>