<svg xmlns="http://www.w3.org/2000/svg" viewBox="0 0 43 44" width="43" height="44">
	<style>
		tspan { white-space:pre }
		.shp0 { fill: #f19620 } 
	</style>
	<g id="Layer_2">
		<g id="Layer_1-2">
			<path id="Layer" class="shp0" d="M36.28 12.21L35.8 12.21C35.52 11.31 35.09 10.46 34.53 9.7C33.98 8.93 33.3 8.27 32.53 7.72C31.75 7.18 30.9 6.76 29.99 6.49C29.09 6.22 28.14 6.1 27.2 6.14C26.68 5.22 26.04 4.37 25.29 3.62C24.55 2.86 23.71 2.21 22.8 1.67C21.88 1.13 20.9 0.72 19.88 0.44C18.86 0.15 17.81 0.01 16.75 0C15.44 0.01 14.14 0.23 12.9 0.66C11.66 1.09 10.5 1.71 9.46 2.51C8.42 3.31 7.51 4.27 6.78 5.36C6.05 6.45 5.5 7.65 5.15 8.91C3.65 9.57 2.38 10.65 1.46 12.01C0.55 13.37 0.05 14.96 0 16.59C-0.05 18.23 0.37 19.84 1.2 21.25C2.04 22.66 3.25 23.8 4.71 24.55L4.71 21.38C4.71 20.88 4.81 20.39 5 19.93C5.19 19.47 5.47 19.05 5.82 18.7C6.17 18.35 6.59 18.07 7.05 17.88C7.51 17.69 8 17.59 8.5 17.59L34.43 17.59C34.93 17.59 35.42 17.69 35.88 17.88C36.34 18.07 36.75 18.35 37.1 18.7C37.45 19.06 37.73 19.47 37.92 19.93C38.11 20.39 38.21 20.88 38.21 21.38L38.21 25.22C39.73 24.75 41.02 23.75 41.87 22.41C42.71 21.06 43.05 19.46 42.81 17.89C42.58 16.32 41.79 14.89 40.6 13.85C39.4 12.81 37.87 12.23 36.28 12.22L36.28 12.21Z" />
			<path id="Layer" fill-rule="evenodd" class="shp0" d="M34.43 20.12C34.6 20.12 34.76 20.15 34.91 20.22C35.07 20.28 35.2 20.37 35.32 20.49C35.44 20.61 35.53 20.74 35.59 20.9C35.66 21.05 35.69 21.21 35.69 21.38L35.69 30.3L7.24 30.3L7.24 21.38C7.24 21.21 7.27 21.05 7.33 20.9C7.4 20.74 7.49 20.6 7.61 20.49C7.72 20.37 7.86 20.28 8.02 20.21C8.17 20.15 8.33 20.12 8.5 20.12L34.43 20.12ZM19.03 26.27C19.29 26.03 19.44 25.69 19.44 25.34C19.44 24.98 19.29 24.64 19.03 24.4C18.77 24.16 18.41 24.04 18.06 24.07L11.36 24.07C11.04 24.1 10.75 24.24 10.54 24.48C10.32 24.71 10.2 25.02 10.2 25.34C10.2 25.65 10.32 25.96 10.54 26.19C10.75 26.43 11.04 26.57 11.36 26.6L18.06 26.6C18.41 26.63 18.77 26.51 19.03 26.27ZM26.18 26.59C26.35 26.59 26.51 26.56 26.66 26.49C26.82 26.43 26.95 26.34 27.07 26.22C27.19 26.1 27.28 25.97 27.34 25.81C27.41 25.66 27.44 25.5 27.44 25.33C27.44 24.82 27.13 24.35 26.65 24.16C26.18 23.96 25.63 24.07 25.27 24.44C24.91 24.8 24.8 25.35 25 25.82C25.2 26.3 25.67 26.6 26.18 26.6L26.18 26.59ZM31.57 26.59C31.74 26.59 31.9 26.56 32.05 26.49C32.2 26.43 32.34 26.33 32.46 26.22C32.57 26.1 32.67 25.96 32.73 25.81C32.8 25.66 32.83 25.5 32.83 25.33C32.83 24.82 32.52 24.35 32.04 24.16C31.57 23.96 31.02 24.07 30.66 24.44C30.3 24.8 30.19 25.35 30.39 25.82C30.59 26.3 31.06 26.6 31.57 26.6L31.57 26.59Z" />
			<path id="Layer" fill-rule="evenodd" class="shp0" d="M7.24 32.83L35.69 32.83L35.69 41.83C35.69 42 35.66 42.16 35.59 42.31C35.53 42.47 35.44 42.61 35.32 42.72C35.2 42.84 35.07 42.94 34.91 43C34.76 43.06 34.6 43.1 34.43 43.1L8.5 43.1C8.33 43.1 8.17 43.07 8.02 43C7.86 42.94 7.72 42.85 7.61 42.73C7.49 42.61 7.4 42.47 7.33 42.32C7.27 42.16 7.24 42 7.24 41.83L7.24 32.83ZM31.57 36.36C31.4 36.36 31.24 36.39 31.08 36.46C30.93 36.52 30.79 36.61 30.67 36.73C30.55 36.85 30.46 36.99 30.4 37.14C30.33 37.3 30.3 37.46 30.3 37.63C30.3 38.14 30.61 38.61 31.08 38.8C31.56 39 32.1 38.89 32.47 38.53C32.83 38.16 32.94 37.62 32.74 37.14C32.55 36.67 32.08 36.36 31.57 36.36ZM26.18 36.36C26.01 36.36 25.85 36.39 25.7 36.46C25.54 36.52 25.4 36.61 25.29 36.73C25.17 36.85 25.08 36.99 25.01 37.14C24.95 37.3 24.92 37.46 24.92 37.63C24.92 38.14 25.23 38.61 25.71 38.8C26.18 39 26.73 38.89 27.09 38.52C27.45 38.16 27.56 37.61 27.36 37.14C27.16 36.66 26.69 36.36 26.18 36.36ZM11.36 36.36C11.04 36.39 10.75 36.53 10.54 36.77C10.32 37 10.2 37.31 10.2 37.63C10.2 37.94 10.32 38.25 10.54 38.48C10.75 38.72 11.04 38.86 11.36 38.89L18.06 38.89C18.41 38.92 18.77 38.8 19.03 38.56C19.29 38.32 19.44 37.98 19.44 37.63C19.44 37.27 19.29 36.93 19.03 36.69C18.77 36.45 18.41 36.33 18.06 36.36L11.36 36.36Z" />
		</g>
	</g>
</svg>