<svg xmlns="http://www.w3.org/2000/svg" viewBox="0 0 42 42" width="42" height="42">
	<style>
		tspan { white-space:pre }
		.shp0 { fill: #f19620 } 
	</style>
	<g id="Layer_2">
		<g id="Layer_1-2">
			<path id="Layer" fill-rule="evenodd" class="shp0" d="M38 9.81L3.68 9.81L3.68 0L38 0L38 9.81ZM11 3.68L8.58 3.68L8.58 6.13L11 6.13L11 3.68ZM15.93 3.68L13.48 3.68L13.48 6.13L15.9 6.13L15.93 3.68ZM33.09 3.68L18.39 3.68L18.39 6.13L33.06 6.13L33.09 3.68Z" />
			<path id="Layer" fill-rule="evenodd" class="shp0" d="M38 19.61L3.68 19.61L3.68 12.26L38 12.26L38 19.61ZM11 14.71L8.58 14.71L8.58 17.16L11 17.16L11 14.71ZM15.93 14.71L13.48 14.71L13.48 17.16L15.9 17.16L15.93 14.71ZM33.09 14.71L18.39 14.71L18.39 17.16L33.06 17.16L33.09 14.71Z" />
			<path id="Layer" fill-rule="evenodd" class="shp0" d="M41.3 36.28C41.94 37.5 41.85 38.98 41.06 40.11C40.27 41.24 38.91 41.83 37.54 41.65C36.17 41.46 35.03 40.52 34.57 39.22L27 39.22L27 41.67L14.71 41.67L14.71 39.22L7.14 39.22C6.54 40.91 4.82 41.92 3.05 41.62C1.28 41.32 -0.01 39.79 -0.01 38C-0.01 36.2 1.28 34.67 3.05 34.37C4.82 34.07 6.54 35.08 7.14 36.77L14.71 36.77L14.71 34.32L19.61 34.32L19.61 31.87L3.68 31.87L3.68 22.06L38 22.06L38 31.87L22.1 31.87L22.1 34.32L27 34.32L27 36.77L34.53 36.77C34.66 36.41 34.84 36.08 35.07 35.78C35.29 35.48 35.57 35.21 35.88 34.99C36.18 34.78 36.53 34.61 36.89 34.49C37.25 34.38 37.62 34.32 38 34.32C39.38 34.3 40.65 35.06 41.3 36.28ZM11 25.74L8.58 25.74L8.58 28.19L11 28.19L11 25.74ZM15.93 25.74L13.48 25.74L13.48 28.19L15.9 28.19L15.93 25.74ZM18.39 28.19L33.06 28.19L33.06 25.74L18.36 25.74L18.39 28.19Z" />
		</g>
	</g>
</svg>