<svg xmlns="http://www.w3.org/2000/svg" xmlns:xlink="http://www.w3.org/1999/xlink" width="102.625" height="102.625" viewBox="0 0 51.312 51.312">
  <defs>
    <style>
      .cls-1 {
        fill: #51516a;
        fill-rule: evenodd;
        filter: url(#filter);
      }
    </style>
    <filter id="filter" x="1.844" y="1.844" width="51.312" height="51.312" filterUnits="userSpaceOnUse">
      <feFlood result="flood" flood-color="#896bed"/>
      <feComposite result="composite" operator="in" in2="SourceGraphic"/>
      <feBlend result="blend" in2="SourceGraphic"/>
    </filter>
  </defs>
  <path id="Shape_2_copy_3" data-name="Shape 2 copy 3" class="cls-1" d="M53.163,21.19c0-.02,0-0.006,0,0a1.514,1.514,0,0,0-.607-1.173l-8.821-6.534V11.378a1.51,1.51,0,0,0-1.516-1.5H38.861L28.407,2.129a1.528,1.528,0,0,0-1.814,0L16.139,9.873H12.782a1.511,1.511,0,0,0-1.516,1.5v2.106l-8.82,6.534a1.518,1.518,0,0,0-.609,1.205V51.668a1.51,1.51,0,0,0,1.516,1.5h48.3a1.51,1.51,0,0,0,1.516-1.5V21.223C53.164,21.212,53.163,21.2,53.163,21.19Zm-9.428-3.952,5.4,4-5.4,4.113V17.238ZM27.5,5.212l6.293,4.661H21.207ZM14.3,12.881H40.7V27.66L28.625,36.855a1.863,1.863,0,0,1-2.251,0L14.3,27.66V12.881Zm-3.032,4.357v8.114l-5.4-4.113Zm-6.4,7.035L17.63,33.989,4.868,47.8V24.273ZM6.8,50.163L20.045,35.828l4.483,3.413a4.961,4.961,0,0,0,5.943,0l4.483-3.413L48.2,50.163H6.8ZM50.132,47.8L37.37,33.989l12.762-9.716V47.8Zm-15.077-22a1.51,1.51,0,0,0-1.516-1.5H21.461a1.5,1.5,0,1,0,0,3.007H33.539A1.51,1.51,0,0,0,35.055,25.8ZM21.461,21.289H33.539a1.5,1.5,0,1,0,0-3.008H21.461A1.5,1.5,0,1,0,21.461,21.289Z" transform="translate(-1.844 -1.844)"/>
</svg>
