<svg xmlns="http://www.w3.org/2000/svg" xmlns:xlink="http://www.w3.org/1999/xlink" width="99" height="102.75" viewBox="0 0 49.5 51.375">
  <defs>
    <style>
      .cls-1 {
        fill: #51516a;
        fill-rule: evenodd;
        filter: url(#filter);
      }
    </style>
    <filter id="filter" x="2.75" y="1.813" width="49.5" height="51.375" filterUnits="userSpaceOnUse">
      <feFlood result="flood" flood-color="#896bed"/>
      <feComposite result="composite" operator="in" in2="SourceGraphic"/>
      <feBlend result="blend" in2="SourceGraphic"/>
    </filter>
  </defs>
  <path class="cls-1" d="M47.691,41.184V36.466a1.5,1.5,0,0,0-1.492-1.5h-17.2V31.992H40.083a9.69,9.69,0,0,0,0-19.379H39.614a12.193,12.193,0,0,0-24.225,0H14.92a9.69,9.69,0,0,0,0,19.379H26.009v2.971H8.8a1.5,1.5,0,0,0-1.492,1.5v4.717a6.087,6.087,0,1,0,7.539,5.9,6.1,6.1,0,0,0-4.554-5.9V37.971H26.009v3.213a6.046,6.046,0,1,0,2.985,0V37.971H44.707v3.213a6.046,6.046,0,1,0,2.985,0h0ZM8.29,22.3A6.664,6.664,0,0,1,14.92,15.62h1.87a1.5,1.5,0,0,0,1.492-1.5,9.219,9.219,0,1,1,18.437,0,1.5,1.5,0,0,0,1.493,1.5h1.87a6.682,6.682,0,0,1,0,13.363H14.92A6.664,6.664,0,0,1,8.29,22.3h0Zm3.576,24.786A3.062,3.062,0,1,1,8.8,44,3.077,3.077,0,0,1,11.865,47.089Zm18.7,0A3.062,3.062,0,1,1,27.5,44,3.077,3.077,0,0,1,30.563,47.089ZM46.2,50.174a3.085,3.085,0,1,1,3.062-3.085A3.076,3.076,0,0,1,46.2,50.174Z" transform="translate(-2.75 -1.813)"/>
</svg>
