<svg xmlns="http://www.w3.org/2000/svg" xmlns:xlink="http://www.w3.org/1999/xlink" width="99" height="100.875" viewBox="0 0 49.5 50.438">
  <defs>
    <style>
      .cls-1 {
        fill: #51516a;
        fill-rule: evenodd;
        filter: url(#filter);
      }
    </style>
    <filter id="filter" x="2.75" y="2.75" width="49.5" height="50.438" filterUnits="userSpaceOnUse">
      <feFlood result="flood" flood-color="#896bed"/>
      <feComposite result="composite" operator="in" in2="SourceGraphic"/>
      <feBlend result="blend" in2="SourceGraphic"/>
    </filter>
  </defs>
  <path class="cls-1" d="M36.11,32.213a1.707,1.707,0,1,0,1.676,1.707A1.694,1.694,0,0,0,36.11,32.213Zm-5.744,0a1.707,1.707,0,1,0,1.675,1.707A1.694,1.694,0,0,0,30.366,32.213Zm11.489,0a1.707,1.707,0,1,0,1.676,1.707A1.694,1.694,0,0,0,41.855,32.213Zm-17.233,0H13.133a1.707,1.707,0,0,0,0,3.413H24.622A1.707,1.707,0,0,0,24.622,32.213ZM50.567,46.84H31.72a4.648,4.648,0,0,0-2.551-2.6V41.477H44.727a4.6,4.6,0,0,0,4.547-4.632V30.993a4.79,4.79,0,0,0-.111-1.02L43.994,6.379a4.542,4.542,0,0,0-4.437-3.614H15.43a4.543,4.543,0,0,0-4.438,3.617l-5.127,23.4H5.817V30a4.752,4.752,0,0,0-.1.991v5.851a4.6,4.6,0,0,0,4.548,4.632H25.818v2.765a4.648,4.648,0,0,0-2.552,2.6H4.42a1.707,1.707,0,0,0,0,3.413H23.267a4.517,4.517,0,0,0,8.454,0H50.567A1.707,1.707,0,0,0,50.567,46.84ZM27.494,49.765a1.219,1.219,0,1,1,1.2-1.219A1.209,1.209,0,0,1,27.494,49.765ZM15.43,6.177H39.557a1.192,1.192,0,0,1,1.167.948L44.94,26.367c-0.071,0-.142-0.005-0.213-0.005H10.261c-0.071,0-.142,0-0.213.005L14.263,7.128A1.194,1.194,0,0,1,15.43,6.177ZM45.924,36.845a1.21,1.21,0,0,1-1.2,1.219H10.261a1.21,1.21,0,0,1-1.2-1.219V30.993a1.209,1.209,0,0,1,1.2-1.218H44.727a1.209,1.209,0,0,1,1.2,1.218v5.851Z" transform="translate(-2.75 -2.75)"/>
</svg>
