<svg xmlns="http://www.w3.org/2000/svg" xmlns:xlink="http://www.w3.org/1999/xlink" width="100.812" height="88" viewBox="0 0 50.406 44">
  <defs>
    <style>
      .cls-1 {
        fill: #51516a;
        fill-rule: evenodd;
        filter: url(#filter);
      }
    </style>
    <filter id="filter" x="2.75" y="5.5" width="50.406" height="44" filterUnits="userSpaceOnUse">
      <feFlood result="flood" flood-color="#896bed"/>
      <feComposite result="composite" operator="in" in2="SourceGraphic"/>
      <feBlend result="blend" in2="SourceGraphic"/>
    </filter>
  </defs>
  <path class="cls-1" d="M48.739,5.5H7.187A4.42,4.42,0,0,0,2.756,9.9V21.631a4.421,4.421,0,0,0,4.431,4.4H8.664v2.934H7.187a4.421,4.421,0,0,0-4.431,4.4V45.1a4.421,4.421,0,0,0,4.431,4.4H48.739a4.42,4.42,0,0,0,4.431-4.4V33.365a4.42,4.42,0,0,0-4.431-4.4H47.163V26.031h1.575a4.42,4.42,0,0,0,4.431-4.4V9.9A4.42,4.42,0,0,0,48.739,5.5Zm1.477,27.867V45.1a1.474,1.474,0,0,1-1.477,1.467H7.187A1.474,1.474,0,0,1,5.71,45.1V33.365A1.474,1.474,0,0,1,7.187,31.9H48.739A1.474,1.474,0,0,1,50.215,33.365Zm-6.006-4.4H11.618V26.031H44.209v2.934Zm6.006-7.334A1.474,1.474,0,0,1,48.739,23.1H7.187A1.474,1.474,0,0,1,5.71,21.631V9.9A1.474,1.474,0,0,1,7.187,8.431H48.739A1.474,1.474,0,0,1,50.215,9.9V21.631ZM22.055,11.364H13.1a1.467,1.467,0,1,0,0,2.934h8.96A1.467,1.467,0,1,0,22.055,11.364Zm0,5.867H13.1a1.467,1.467,0,1,0,0,2.934h8.96A1.467,1.467,0,1,0,22.055,17.231Zm8.862-5.867a1.467,1.467,0,1,1-1.477,1.466A1.472,1.472,0,0,1,30.917,11.364Zm0,5.867A1.467,1.467,0,1,1,29.44,18.7,1.472,1.472,0,0,1,30.917,17.231Zm5.908,0A1.467,1.467,0,1,1,35.348,18.7,1.472,1.472,0,0,1,36.824,17.231Zm0-5.867a1.467,1.467,0,1,1-1.477,1.466A1.472,1.472,0,0,1,36.824,11.364Zm5.908,0a1.467,1.467,0,1,1-1.477,1.466A1.472,1.472,0,0,1,42.732,11.364Zm0,5.867A1.467,1.467,0,1,1,41.255,18.7,1.472,1.472,0,0,1,42.732,17.231Zm-20.677,17.6H13.1a1.467,1.467,0,1,0,0,2.934h8.96A1.467,1.467,0,1,0,22.055,34.832Zm0,5.867H13.1a1.467,1.467,0,1,0,0,2.934h8.96A1.467,1.467,0,1,0,22.055,40.7Zm8.862-5.867A1.467,1.467,0,1,1,29.44,36.3,1.472,1.472,0,0,1,30.917,34.832Zm0,5.867a1.467,1.467,0,1,1-1.477,1.467A1.472,1.472,0,0,1,30.917,40.7Zm5.908,0a1.467,1.467,0,1,1-1.477,1.467A1.472,1.472,0,0,1,36.824,40.7Zm0-5.867A1.467,1.467,0,1,1,35.348,36.3,1.472,1.472,0,0,1,36.824,34.832Zm5.908,0A1.467,1.467,0,1,1,41.255,36.3,1.472,1.472,0,0,1,42.732,34.832Zm0,5.867a1.467,1.467,0,1,1-1.477,1.467A1.472,1.472,0,0,1,42.732,40.7Z" transform="translate(-2.75 -5.5)"/>
</svg>
