<svg xmlns="http://www.w3.org/2000/svg" width="20" height="20" viewBox="0 0 20 20">
  <defs>
    <style>
      .cls-1 {
        fill: #51516a;
        fill-rule: evenodd;
      }
    </style>
  </defs>
  <path class="cls-1" d="M13.953,12.641a0.677,0.677,0,1,0,.677.677A0.678,0.678,0,0,0,13.953,12.641Zm-2.321,0a0.677,0.677,0,1,0,.677.677A0.678,0.678,0,0,0,11.632,12.641Zm4.642,0a0.677,0.677,0,1,0,.677.677A0.678,0.678,0,0,0,16.274,12.641Zm-6.963,0H4.669a0.677,0.677,0,0,0,0,1.354H9.311A0.677,0.677,0,0,0,9.311,12.641Zm10.483,5.8H12.179a1.86,1.86,0,0,0-1.031-1.031v-1.1h6.286a1.84,1.84,0,0,0,1.837-1.838V12.157a1.862,1.862,0,0,0-.045-0.4l-2.089-9.36A1.827,1.827,0,0,0,15.345.959H5.6A1.828,1.828,0,0,0,3.8,2.394L1.733,11.678H1.713v0.086a1.852,1.852,0,0,0-.042.393v2.321a1.84,1.84,0,0,0,1.837,1.838H9.794v1.1a1.86,1.86,0,0,0-1.031,1.031H1.149a0.677,0.677,0,1,0,0,1.354H8.763a1.837,1.837,0,0,0,3.416,0h7.615A0.677,0.677,0,1,0,19.794,18.443ZM10.471,19.6a0.483,0.483,0,1,1,.484-0.484A0.484,0.484,0,0,1,10.471,19.6ZM5.6,2.313h9.748a0.48,0.48,0,0,1,.471.376l1.7,7.633-0.086,0H3.509l-0.086,0,1.7-7.632A0.481,0.481,0,0,1,5.6,2.313Zm12.32,12.166a0.484,0.484,0,0,1-.483.484H3.509a0.484,0.484,0,0,1-.484-0.484V12.157a0.484,0.484,0,0,1,.484-0.483H17.434a0.484,0.484,0,0,1,.483.483v2.321Z" transform="translate(-0.469 -0.969)"/>
</svg>
