<svg xmlns="http://www.w3.org/2000/svg" width="20.438" height="20.594" viewBox="0 0 20.438 20.594">
  <defs>
    <style>
      .cls-1 {
        fill: #51516a;
        fill-rule: evenodd;
      }
    </style>
  </defs>
  <path id="Shape_2_copy_3" data-name="Shape 2 copy 3" class="cls-1" d="M20.668,8.7c0-.008,0,0,0,0a0.609,0.609,0,0,0-.242-0.471L16.911,5.605V4.76a0.6,0.6,0,0,0-.6-0.6H14.969L10.8,1.046a0.605,0.605,0,0,0-.723,0L5.914,4.155H4.576a0.6,0.6,0,0,0-.6.6V5.605L0.457,8.229a0.611,0.611,0,0,0-.243.484V20.937a0.6,0.6,0,0,0,.6.6H20.064a0.6,0.6,0,0,0,.6-0.6V8.713S20.668,8.7,20.668,8.7ZM16.911,7.113l2.153,1.607-2.153,1.651V7.113ZM10.441,2.284l2.508,1.872H7.934ZM5.18,5.363H15.7V11.3L10.89,14.989a0.738,0.738,0,0,1-.9,0L5.18,11.3V5.363ZM3.972,7.113V10.37L1.82,8.719ZM1.423,9.937l5.086,3.9L1.423,19.385V9.937Zm0.769,10.4,5.279-5.756,1.787,1.37a1.965,1.965,0,0,0,2.368,0l1.787-1.37,5.279,5.756H2.192Zm17.268-.948-5.086-5.546,5.086-3.9v9.447Zm-6.008-8.833a0.6,0.6,0,0,0-.6-0.6H8.035a0.6,0.6,0,1,0,0,1.208h4.813A0.6,0.6,0,0,0,13.452,10.551ZM8.035,8.739h4.813a0.6,0.6,0,1,0,0-1.208H8.035A0.6,0.6,0,1,0,8.035,8.739Z" transform="translate(-0.219 -0.938)"/>
</svg>
