<svg xmlns="http://www.w3.org/2000/svg" width="22.125" height="19.469" viewBox="0 0 22.125 19.469">
  <defs>
    <style>
      .cls-1 {
        fill: #51516a;
        fill-rule: evenodd;
      }
    </style>
  </defs>
  <path class="cls-1" d="M20.363,0.89H2.12A1.947,1.947,0,0,0,.175,2.835V8.022A1.948,1.948,0,0,0,2.12,9.968H2.768v1.3H2.12A1.948,1.948,0,0,0,.175,13.21V18.4A1.948,1.948,0,0,0,2.12,20.343H20.363A1.948,1.948,0,0,0,22.308,18.4V13.21a1.947,1.947,0,0,0-1.945-1.945H19.671v-1.3h0.692a1.948,1.948,0,0,0,1.945-1.945V2.835A1.947,1.947,0,0,0,20.363.89Zm0.648,12.32V18.4a0.649,0.649,0,0,1-.648.649H2.12A0.649,0.649,0,0,1,1.472,18.4V13.21a0.649,0.649,0,0,1,.648-0.649H20.363A0.649,0.649,0,0,1,21.012,13.21Zm-2.637-1.945H4.065v-1.3H18.375v1.3Zm2.637-3.242a0.649,0.649,0,0,1-.648.649H2.12a0.649,0.649,0,0,1-.648-0.649V2.835A0.649,0.649,0,0,1,2.12,2.186H20.363a0.649,0.649,0,0,1,.648.648V8.022ZM8.648,3.483H4.714a0.648,0.648,0,1,0,0,1.3H8.648A0.648,0.648,0,0,0,8.648,3.483Zm0,2.594H4.714a0.648,0.648,0,1,0,0,1.3H8.648A0.648,0.648,0,0,0,8.648,6.077Zm3.891-2.594a0.648,0.648,0,1,1-.648.648A0.648,0.648,0,0,1,12.538,3.483Zm0,2.594a0.648,0.648,0,1,1-.648.648A0.648,0.648,0,0,1,12.538,6.077Zm2.594,0a0.648,0.648,0,1,1-.648.648A0.648,0.648,0,0,1,15.132,6.077Zm0-2.594a0.648,0.648,0,1,1-.648.648A0.648,0.648,0,0,1,15.132,3.483Zm2.594,0a0.648,0.648,0,1,1-.648.648A0.648,0.648,0,0,1,17.726,3.483Zm0,2.594a0.648,0.648,0,1,1-.648.648A0.649,0.649,0,0,1,17.726,6.077ZM8.648,13.859H4.714a0.649,0.649,0,1,0,0,1.3H8.648A0.649,0.649,0,0,0,8.648,13.859Zm0,2.594H4.714a0.649,0.649,0,1,0,0,1.3H8.648A0.649,0.649,0,0,0,8.648,16.452Zm3.891-2.594a0.649,0.649,0,1,1-.648.648A0.648,0.648,0,0,1,12.538,13.859Zm0,2.594a0.648,0.648,0,1,1-.648.648A0.648,0.648,0,0,1,12.538,16.452Zm2.594,0a0.649,0.649,0,1,1-.648.648A0.648,0.648,0,0,1,15.132,16.452Zm0-2.594a0.649,0.649,0,1,1-.648.648A0.648,0.648,0,0,1,15.132,13.859Zm2.594,0a0.649,0.649,0,1,1-.648.648A0.648,0.648,0,0,1,17.726,13.859Zm0,2.594a0.649,0.649,0,1,1-.648.648A0.649,0.649,0,0,1,17.726,16.452Z" transform="translate(-0.188 -0.875)"/>
</svg>
