<svg xmlns="http://www.w3.org/2000/svg" width="18.031" height="23.688" viewBox="0 0 18.031 23.688">
  <defs>
    <style>
      .cls-1 {
        fill: #51516a;
        fill-rule: evenodd;
      }
    </style>
  </defs>
  <path class="cls-1" d="M17.25,10.865v-2.3a7.639,7.639,0,1,0-15.278,0v2.3A2.087,2.087,0,0,0,.583,12.829v2.778a9.028,9.028,0,0,0,18.055,0V12.829A2.087,2.087,0,0,0,17.25,10.865ZM9.611,2.319a6.257,6.257,0,0,1,6.25,6.25v2.176H14.472V8.569a4.861,4.861,0,1,0-9.722,0v2.176H3.361V8.569A6.257,6.257,0,0,1,9.611,2.319ZM6.139,10.746V8.569a3.472,3.472,0,1,1,6.944,0v2.176H6.139ZM17.25,15.607a7.639,7.639,0,1,1-15.278,0V12.829a0.7,0.7,0,0,1,.695-0.694H16.556a0.7,0.7,0,0,1,.694.694v2.778ZM9.611,13.523a2.083,2.083,0,0,0-.694,4.047v3.592a0.694,0.694,0,1,0,1.389,0V17.57A2.083,2.083,0,0,0,9.611,13.523Zm0,2.778a0.694,0.694,0,1,1,.694-0.694A0.7,0.7,0,0,1,9.611,16.3Z" transform="translate(-0.594 -0.938)"/>
</svg>
