<svg xmlns="http://www.w3.org/2000/svg" xmlns:xlink="http://www.w3.org/1999/xlink" width="24.094" height="21.188" viewBox="0 0 24.094 21.188">
  <defs>
    <style>
      .cls-1 {
        fill: #663fe7;
        fill-rule: evenodd;
        opacity: 0.77;
        filter: url(#filter);
      }
    </style>
    <filter id="filter" x="0.094" y="0" width="24.094" height="21.188" filterUnits="userSpaceOnUse">
      <feFlood result="flood" flood-color="#51516a"/>
      <feComposite result="composite" operator="in" in2="SourceGraphic"/>
      <feBlend result="blend" in2="SourceGraphic"/>
    </filter>
  </defs>
  <path class="cls-1" d="M22.39,8.55a0.706,0.706,0,0,0-.948.316l-0.781,1.562L19.881,8.866a0.707,0.707,0,0,0-1.263,0l-0.781,1.562L17.056,8.866a0.737,0.737,0,0,0-1.359.146,0.707,0.707,0,0,0-1.317-.146L13.6,10.428,12.818,8.866a0.707,0.707,0,0,0-1.264,0l-0.8,1.6L9.89,8.849a0.706,0.706,0,0,0-1.308.163,0.737,0.737,0,0,0-1.359-.146L6.441,10.428,5.661,8.866a0.707,0.707,0,0,0-1.264,0L3.616,10.428,2.835,8.866A0.706,0.706,0,0,0,1.572,9.5l1.413,2.825a0.707,0.707,0,0,0,1.263,0l0.781-1.562L5.81,12.323A0.744,0.744,0,0,0,7.2,12.067C8.569,9.33,8.333,9.789,8.582,9.354a32.2,32.2,0,0,0,1.568,2.985,0.707,0.707,0,0,0,1.255-.016l0.781-1.562,0.781,1.562a0.707,0.707,0,0,0,1.263,0c1.523-3.046,1.438-2.86,1.465-2.968,0.249,0.435.013-.024,1.381,2.712a0.743,0.743,0,0,0,1.391.256l0.781-1.562,0.781,1.562a0.707,0.707,0,0,0,1.263,0L22.706,9.5A0.706,0.706,0,0,0,22.39,8.55Zm-0.316-2.9H21.558A10.592,10.592,0,0,0,12.186,0,10.738,10.738,0,0,0,2.72,5.65H2.2A2.121,2.121,0,0,0,.085,7.769v5.65A2.121,2.121,0,0,0,2.2,15.538H2.72a10.738,10.738,0,0,0,9.466,5.65,10.592,10.592,0,0,0,9.372-5.65h0.516a2.121,2.121,0,0,0,2.119-2.119V7.769A2.121,2.121,0,0,0,22.074,5.65Zm-2.15,0h-2.1a11.16,11.16,0,0,0-1.616-3.3A9.249,9.249,0,0,1,19.924,5.65ZM12.892,1.511C14.283,1.9,15.551,3.42,16.334,5.65H12.892V1.511Zm-1.413,0V5.65H7.946C8.735,3.443,10.056,1.9,11.48,1.51ZM8.1,2.352a10.866,10.866,0,0,0-1.643,3.3h-2.1A9.244,9.244,0,0,1,8.1,2.352ZM4.355,15.538h2.1a10.865,10.865,0,0,0,1.643,3.3A9.245,9.245,0,0,1,4.355,15.538Zm7.124,4.14c-1.424-.391-2.744-1.933-3.533-4.14H11.48v4.14Zm1.413,0V15.538h3.442C15.551,17.769,14.283,19.288,12.892,19.677Zm3.313-.836a11.157,11.157,0,0,0,1.616-3.3h2.1A9.247,9.247,0,0,1,16.206,18.841Zm6.575-5.422a0.707,0.707,0,0,1-.706.706H2.2A0.707,0.707,0,0,1,1.5,13.419V7.769A0.707,0.707,0,0,1,2.2,7.063h19.87a0.707,0.707,0,0,1,.706.706v5.65Z" transform="translate(-0.094)"/>
</svg>
