<svg version="1.2" xmlns="http://www.w3.org/2000/svg" viewBox="0 0 48 40" width="48" height="40"><style>.a{fill:#673de6}</style><path fill-rule="evenodd" class="a" d="m4 14q-0.8 0-1.5-0.3-0.8-0.3-1.3-0.9-0.6-0.5-0.9-1.3-0.3-0.7-0.3-1.5v-6q0-0.8 0.3-1.5 0.3-0.8 0.9-1.3 0.5-0.6 1.3-0.9 0.7-0.3 1.5-0.3h35.9q0.8 0 1.6 0.3 0.7 0.3 1.3 0.9 0.5 0.5 0.8 1.3 0.3 0.7 0.3 1.5v6q0 0.8-0.3 1.5-0.3 0.8-0.8 1.3-0.6 0.6-1.3 0.9-0.8 0.3-1.6 0.3zm31.2-8.8q-0.4 0.1-0.7 0.4-0.3 0.3-0.4 0.6-0.2 0.4-0.2 0.8c0 0.8 0.5 1.5 1.3 1.9 0.7 0.3 1.6 0.1 2.2-0.5 0.5-0.6 0.7-1.4 0.4-2.2-0.3-0.7-1-1.2-1.9-1.2q-0.4 0-0.7 0.2zm-5.3-0.2q0 0 0 0 0.1 0 0.1 0zm0 0q0 0 0 0zm-0.8 0.2q-0.4 0.1-0.7 0.4-0.2 0.3-0.4 0.6-0.1 0.4-0.1 0.8c0 0.8 0.4 1.5 1.2 1.8 0.7 0.4 1.6 0.2 2.2-0.4 0.5-0.6 0.7-1.4 0.4-2.2-0.3-0.7-1-1.2-1.8-1.2q-0.4 0-0.8 0.2zm-15.2 3.8q0 0.4 0.3 0.7 0.3 0.3 0.7 0.3 0.5 0 0.7-0.3 0.3-0.3 0.3-0.7v-4q0-0.4-0.3-0.7-0.2-0.3-0.7-0.3-0.4 0-0.7 0.3-0.3 0.3-0.3 0.7zm-4 0q0 0.4 0.3 0.7 0.3 0.3 0.7 0.3 0.5 0 0.7-0.3 0.3-0.3 0.3-0.7v-4q0-0.4-0.3-0.7-0.2-0.3-0.7-0.3-0.4 0-0.7 0.3-0.3 0.3-0.3 0.7zm-4 0q0 0.4 0.3 0.7 0.3 0.3 0.7 0.3 0.5 0 0.7-0.3 0.3-0.3 0.3-0.7v-4q0-0.4-0.3-0.7-0.2-0.3-0.7-0.3-0.4 0-0.7 0.3-0.3 0.3-0.3 0.7z"/><path fill-rule="evenodd" class="a" d="m30.3 17.8q-1.5 0.9-2.7 2.1-1.1 1.2-2 2.7-0.8 1.4-1.2 3.1-0.4 1.6-0.4 3.3 0 0.2-0.1 0.4-0.1 0.2-0.2 0.3-0.1 0.1-0.3 0.2-0.2 0.1-0.4 0.1h-19q-0.8 0-1.5-0.3-0.8-0.3-1.3-0.9-0.6-0.5-0.9-1.3-0.3-0.7-0.3-1.5v-6q0-0.8 0.3-1.5 0.3-0.8 0.9-1.3 0.5-0.6 1.3-0.9 0.7-0.3 1.5-0.3h25.8q0.3 0 0.5 0.2 0.3 0.2 0.4 0.5 0 0.3-0.1 0.6-0.1 0.3-0.3 0.5zm-22.3 3.2q0-0.4-0.3-0.7-0.3-0.3-0.7-0.3-0.4 0-0.7 0.3-0.3 0.3-0.3 0.7v4q0 0.4 0.3 0.7 0.3 0.3 0.7 0.3 0.4 0 0.7-0.3 0.3-0.3 0.3-0.7zm4 0q0-0.4-0.3-0.7-0.3-0.3-0.7-0.3-0.4 0-0.7 0.3-0.3 0.3-0.3 0.7v4q0 0.4 0.3 0.7 0.3 0.3 0.7 0.3 0.4 0 0.7-0.3 0.3-0.3 0.3-0.7zm4 0q0-0.4-0.3-0.7-0.3-0.3-0.7-0.3-0.4 0-0.7 0.3-0.3 0.3-0.3 0.7v4q0 0.4 0.3 0.7 0.3 0.3 0.7 0.3 0.4 0 0.7-0.3 0.3-0.3 0.3-0.7z"/><path fill-rule="evenodd" class="a" d="m41.1 18.8c1.4 0.6 2.6 1.4 3.6 2.4 1 1 1.8 2.3 2.4 3.6 0.5 1.3 0.8 2.8 0.8 4.2 0 4.5-2.7 8.5-6.8 10.2-4.1 1.7-8.8 0.7-12-2.4-3.1-3.2-4.1-7.9-2.3-12 1.7-4.1 5.7-6.8 10.1-6.8 1.5 0 2.9 0.3 4.2 0.8zm0.5 8.8q0.2-0.1 0.2-0.3 0.1-0.2 0.1-0.4 0-0.1-0.1-0.3 0-0.2-0.2-0.4l-4-4q-0.1-0.1-0.3-0.2-0.2-0.1-0.4-0.1-0.2 0-0.4 0.1-0.1 0.1-0.3 0.2l-4 4c-0.1 0.2-0.2 0.5-0.2 0.7q0 0.4 0.3 0.7 0.3 0.3 0.7 0.3c0.2 0 0.5-0.1 0.6-0.3l2.3-2.2v9.6q0 0.4 0.3 0.7 0.3 0.3 0.7 0.3 0.4 0 0.7-0.3 0.3-0.3 0.3-0.7v-9.6l2.3 2.3q0.1 0.1 0.3 0.2 0.2 0.1 0.4 0.1 0.2 0 0.4-0.1 0.2-0.1 0.3-0.2z"/></svg>