<svg version="1.2" xmlns="http://www.w3.org/2000/svg" viewBox="0 0 36 42" width="36" height="42"><style>.a{fill:#673de6}</style><path class="a" d="m8.3 14.3q0.2 0 0.3 0 0.1 0.1 0.3 0.2 0.1 0.1 0.2 0.2 0.1 0.2 0.2 0.3 0.1 0.2 0.1 0.4 0.1 0.1 0.1 0.3 0 0.2 0 0.4 0 0.2 0 0.4 0 0.2-0.1 0.4 0 0.2-0.1 0.3-0.1 0.2-0.2 0.4-0.1 0.1-0.3 0.2-0.1 0.1-0.3 0.2-0.1 0-0.3 0-0.2 0.1-0.4 0.1h-0.4v-3.9h0.6q0.2 0 0.3 0.1z"/><path class="a" d="m22.1 15.6q0 0 0.1 0 0.1 0.1 0.2 0.2 0 0 0.1 0.1 0 0.1 0.1 0.2 0 0.2 0 0.3 0.1 0.1 0.1 0.2 0 0.2 0 0.3 0 0.1 0 0.3 0 0.1-0.1 0.2 0 0.1 0 0.3-0.1 0.1-0.1 0.2-0.1 0.1-0.1 0.2-0.1 0-0.2 0.1 0 0-0.1 0-0.1 0.1-0.2 0.1-0.1 0-0.2-0.1-0.1 0-0.2 0 0-0.1-0.1-0.1-0.1-0.1-0.1-0.2-0.1-0.1-0.1-0.2 0-0.2-0.1-0.3 0-0.1 0-0.2 0-0.2 0-0.3 0-0.1 0-0.3 0-0.1 0-0.2 0.1-0.1 0.1-0.3 0-0.1 0.1-0.2 0-0.1 0.1-0.1 0.1-0.1 0.1-0.2 0.1 0 0.2 0 0.1 0 0.2 0 0.1 0 0.2 0z"/><path class="a" d="m15.8 17.8q-0.1 0.1-0.3 0.1-0.1 0.1-0.3 0.1-0.2 0.1-0.3 0.1h-0.4v-3.9h0.5q0.1 0 0.3 0.1 0.1 0 0.3 0 0.1 0.1 0.3 0.2 0.1 0.1 0.2 0.2 0.1 0.2 0.2 0.3 0 0.2 0.1 0.4 0 0.1 0.1 0.3 0 0.2 0 0.4 0 0.2 0 0.4-0.1 0.2-0.1 0.4-0.1 0.2-0.1 0.3-0.1 0.2-0.2 0.4-0.1 0.1-0.3 0.2z"/><path fill-rule="evenodd" class="a" d="m33.4 27.7q-0.4 1.1-0.9 2.1-0.5 1.1-1.1 2.1-0.7 0.9-1.4 1.9-0.7 0.9-1.6 1.7-1 1-2.2 1.8-1.1 0.9-2.3 1.6-1.3 0.8-2.6 1.3-1.3 0.6-2.7 1.1 0 0-0.1 0 0 0-0.1 0 0 0.1-0.1 0.1 0 0-0.1 0 0 0-0.1 0-0.1 0-0.2 0 0 0-0.1 0.1-0.1 0-0.1 0-0.1 0-0.2 0-0.1-0.1-0.1-0.1-0.1 0-0.2 0-0.1 0-0.1 0-0.1 0-0.1 0-0.1 0-0.1-0.1-0.1 0-0.1 0-0.1 0-0.1 0-1.4-0.5-2.7-1.1-1.3-0.5-2.6-1.3-1.2-0.7-2.3-1.6-1.2-0.8-2.2-1.8-0.9-0.8-1.6-1.7-0.7-0.9-1.4-1.9-0.6-1-1.1-2.1-0.5-1-0.9-2.1c-2.1-5.5-1.9-11.6-1.8-16.4 0-0.4 0-0.9 0-1.4q0-0.8 0.3-1.6 0.3-0.7 0.9-1.3c0.4-0.4 0.8-0.8 1.3-1q0.8-0.3 1.6-0.4 1.6 0 3.2-0.3 1.6-0.4 3.1-1 1.5-0.6 2.9-1.5 1.3-0.9 2.5-2.1 0.3-0.3 0.8-0.5 0.5-0.2 1-0.2 0.5 0 1 0.2 0.4 0.2 0.8 0.5 1.1 1.2 2.5 2.1 1.3 0.9 2.8 1.5 1.5 0.6 3.1 1 1.6 0.3 3.2 0.4 0.9 0 1.6 0.4 0.8 0.3 1.3 0.9 0.6 0.6 0.9 1.4 0.3 0.7 0.4 1.6 0 0.7 0 1.2c0.1 4.9 0.2 11-1.9 16.5zm-20.8-8.2h2.2q0.4 0.1 0.7 0 0.4 0 0.7-0.1 0.3-0.2 0.7-0.4 0.3-0.1 0.5-0.4 0.3-0.2 0.5-0.5 0.2-0.3 0.3-0.7 0.1-0.3 0.1-0.7 0.1-0.3 0.1-0.7 0-0.3 0-0.7-0.1-0.3-0.2-0.6-0.1-0.3-0.3-0.6-0.1-0.3-0.4-0.5-0.2-0.2-0.5-0.4-0.3-0.2-0.6-0.3-0.4-0.1-0.7-0.1-0.4-0.1-0.7 0h-2.4zm-2.2-0.9q0.3-0.3 0.5-0.6 0.2-0.3 0.3-0.7 0.1-0.3 0.2-0.7 0-0.3 0-0.7 0-0.3 0-0.6-0.1-0.4-0.2-0.7-0.1-0.3-0.3-0.6-0.1-0.2-0.4-0.5-0.2-0.2-0.5-0.4-0.3-0.1-0.6-0.2-0.4-0.1-0.7-0.2-0.4 0-0.7 0h-2.4v6.8h2.2q0.4 0 0.7 0 0.4-0.1 0.7-0.2 0.4-0.1 0.7-0.3 0.3-0.2 0.5-0.4zm13 6.6c0.2-0.2 0.4-0.6 0.4-1 0-0.4-0.2-0.8-0.4-1-0.3-0.3-0.7-0.5-1.1-0.5-0.4 0-0.7 0.2-1 0.5l-5.7 5.7-1.6-1.5c-0.3-0.3-0.6-0.5-1-0.5-0.4 0-0.8 0.2-1.1 0.5-0.2 0.2-0.4 0.6-0.4 1 0 0.4 0.2 0.7 0.4 1l2.7 2.6q0.1 0.1 0.2 0.2 0.1 0.1 0.2 0.1 0.2 0.1 0.3 0.1 0.1 0 0.3 0 0.1 0 0.3 0 0.1 0 0.2-0.1 0.2 0 0.3-0.1 0.1-0.1 0.2-0.2zm0.4-6.4q0.2-0.2 0.4-0.4 0.1-0.2 0.2-0.5 0.1-0.2 0.1-0.5 0.1-0.3 0.1-0.5 0-0.2 0-0.4-0.1-0.2-0.1-0.4-0.1-0.2-0.1-0.3-0.1-0.2-0.2-0.4 0-0.1-0.1-0.3-0.1-0.1-0.2-0.2-0.2-0.2-0.3-0.3-0.1-0.1-0.3-0.2-0.1-0.1-0.3-0.1-0.2-0.1-0.3-0.1-0.2-0.1-0.4-0.1-0.2 0-0.4 0-0.2 0-0.5 0-0.3 0.1-0.5 0.2-0.3 0.1-0.5 0.2-0.2 0.1-0.4 0.3-0.2 0.2-0.3 0.5-0.2 0.2-0.3 0.5 0 0.2-0.1 0.5 0 0.3 0 0.5 0 0.3 0 0.6 0.1 0.2 0.2 0.5 0 0.3 0.2 0.5 0.1 0.2 0.3 0.4 0.2 0.2 0.4 0.4 0.2 0.1 0.5 0.2 0.2 0.1 0.5 0.1 0.2 0.1 0.5 0.1 0.3 0 0.5-0.1 0.3 0 0.5-0.1 0.3-0.1 0.5-0.2 0.2-0.2 0.4-0.4zm3.6-4q0 0 0 0-0.1-0.1-0.1-0.1 0-0.1 0-0.1 0-0.1 0-0.1 0-0.1 0-0.1 0-0.1 0-0.1 0 0 0.1-0.1 0 0 0 0 0.1-0.1 0.2-0.1 0 0 0.1 0 0-0.1 0.1-0.1 0.1 0 0.2 0 0.2 0.1 0.4 0.1 0.2 0 0.4 0.1 0.2 0 0.4 0.1 0.2 0.1 0.4 0.2l0.6-1.4q-0.3-0.2-0.5-0.2-0.3-0.1-0.6-0.2-0.3-0.1-0.5-0.1-0.3 0-0.6 0-0.2 0-0.5 0-0.2 0-0.5 0.1-0.2 0-0.4 0.2-0.3 0.1-0.5 0.2-0.1 0.1-0.3 0.3-0.1 0.1-0.2 0.3-0.1 0.2-0.1 0.4-0.1 0.3 0 0.5-0.1 0.1 0 0.2 0 0.1 0 0.2 0 0.1 0 0.2 0.1 0.1 0.1 0.2 0.1 0.1 0.1 0.2 0.1 0.1 0.1 0.2 0.1 0.1 0.2 0.1 0 0.1 0.1 0.2 0.1 0.1 0.2 0.2 0.2 0 0.3 0.1 0.1 0.1 0.2 0.2 0.2 0 0.3 0.1 0.7 0.3 0.9 0.4 0 0 0 0.1 0.1 0 0.1 0 0 0 0 0.1 0 0 0 0 0 0.1 0.1 0.1 0 0 0 0 0 0.1 0 0.1 0 0 0 0.1 0 0 0 0.1 0 0 0 0.1-0.1 0-0.1 0.1 0 0-0.1 0-0.1 0.1-0.1 0.1-0.1 0-0.2 0.1-0.1 0-0.1 0-0.1 0-0.2 0-0.1 0-0.2 0-0.2-0.1-0.3-0.1-0.1 0-0.2 0-0.2-0.1-0.3-0.1-0.1 0-0.3-0.1-0.1 0-0.2-0.1-0.2 0-0.3-0.1-0.2 0-0.3-0.1v1.6q0.1 0.1 0.3 0.2 0.1 0 0.2 0 0.1 0.1 0.3 0.1 0.1 0 0.2 0.1 0.2 0 0.3 0 0.1 0 0.3 0.1 0.1 0 0.3 0 0.1 0 0.3 0 0.1 0 0.3 0 0.2-0.1 0.4-0.1 0.2 0 0.3-0.1 0.2 0 0.4-0.1 0.3-0.1 0.5-0.3 0.2-0.2 0.4-0.4 0.2-0.3 0.2-0.6 0.1-0.3 0.1-0.6 0-0.1 0-0.3 0-0.1 0-0.3-0.1-0.1-0.2-0.3 0-0.1-0.1-0.2-0.1-0.2-0.3-0.3-0.1-0.1-0.3-0.2-0.1-0.1-0.3-0.2-0.2-0.1-0.3-0.2-0.2 0-0.3-0.1-0.2-0.1-0.3-0.1-0.2-0.1-0.3-0.2-0.1-0.1-0.3-0.2z"/></svg>