<svg version="1.2" xmlns="http://www.w3.org/2000/svg" viewBox="0 0 43 37" width="43" height="37"><style>.a{fill:#673de6}</style><path class="a" d="m34.1 13.6c1.8 0.3 3.4 1.4 4.5 2.9 1 1.5 1.5 3.4 1.3 5.2-0.2 1.8-1 3.5-2.4 4.7-1.4 1.3-3.2 2-5 2h-0.9v-1.7h0.9c1.5 0 2.9-0.6 4-1.6 1-1 1.7-2.4 1.8-3.9 0.1-1.4-0.4-2.9-1.3-4-1-1.2-2.3-1.9-3.8-2.1q-0.1 0-0.3-0.1-0.1-0.1-0.2-0.2-0.1-0.1-0.2-0.2 0-0.2 0-0.3v-0.1q0-1.1-0.4-2.1-0.4-1-1.1-1.8-0.7-0.8-1.6-1.2-1-0.5-2-0.7-0.2 0-0.3-0.1-0.1 0-0.2-0.1-0.1-0.2-0.2-0.3 0-0.1-0.1-0.3v-0.1c0.1-1.6-0.5-3.1-1.6-4.3-1.1-1.1-2.6-1.8-4.2-1.8-1.6 0-3.1 0.7-4.2 1.8-1.1 1.2-1.7 2.7-1.6 4.3q0 0.2-0.1 0.3 0 0.2-0.2 0.3-0.1 0.1-0.2 0.1-0.2 0.1-0.4 0.1h-0.8q-1.1 0-2.2 0.4-1.1 0.5-1.9 1.3-0.8 0.8-1.3 1.9-0.4 1.1-0.4 2.2 0 0.2-0.1 0.3 0 0.2-0.1 0.3-0.1 0.1-0.2 0.2-0.2 0.1-0.3 0.1c-1.6 0.1-3 0.8-4 2-1.1 1.1-1.6 2.6-1.5 4.2 0.1 1.5 0.8 3 2 4 1.1 1 2.6 1.5 4.2 1.4h2.5v1.7h-2.5c-1.8 0-3.6-0.7-5-1.9-1.3-1.2-2.2-2.9-2.4-4.8-0.2-1.8 0.3-3.6 1.3-5.1 1.1-1.5 2.7-2.6 4.5-3q0.1-1.4 0.7-2.7c0.5-0.8 1-1.5 1.7-2.2q1-0.9 2.4-1.4 1.3-0.5 2.7-0.5c0.2-1.9 1-3.6 2.4-4.8 1.4-1.3 3.2-1.9 5.1-1.9 1.9 0 3.7 0.7 5 2 1.4 1.3 2.2 3 2.4 4.8q1.1 0.3 2.2 0.9 1 0.6 1.8 1.5 0.8 0.9 1.2 2 0.5 1.1 0.6 2.3z"/><path class="a" d="m17 5.9q0.3-0.8 0.9-1.3 0.5-0.6 1.3-0.9 0.8-0.4 1.6-0.4v1.7q-0.5 0-0.9 0.2-0.5 0.2-0.8 0.5-0.4 0.4-0.6 0.8-0.2 0.5-0.2 1h-1.7q0.1-0.8 0.4-1.6z"/><path class="a" d="m30.3 19.2q0.2 0.1 0.3 0.2 0.1 0.1 0.2 0.3 0 0.1 0 0.3v3.3q0 0.2 0 0.3-0.1 0.2-0.2 0.3-0.1 0.1-0.3 0.2-0.1 0-0.3 0h-2.1q-0.2 0.4-0.3 0.8l1.5 1.5q0.1 0.1 0.1 0.2 0.1 0.2 0.1 0.4 0 0.1-0.1 0.3 0 0.1-0.1 0.2l-2.4 2.4q-0.1 0.1-0.3 0.2-0.1 0-0.3 0-0.2 0-0.3 0-0.2-0.1-0.3-0.2l-1.5-1.5q-0.3 0.2-0.7 0.3v2.1q0 0.2-0.1 0.3 0 0.2-0.1 0.3-0.2 0.1-0.3 0.2-0.2 0-0.3 0h-3.4q-0.1 0-0.3 0-0.1-0.1-0.2-0.2-0.2-0.1-0.2-0.3-0.1-0.1-0.1-0.3v-2.1q-0.4-0.1-0.7-0.3l-1.5 1.5q-0.1 0.1-0.3 0.2-0.1 0-0.3 0-0.1 0-0.3 0-0.2-0.1-0.3-0.2l-2.3-2.4q-0.2-0.1-0.2-0.2-0.1-0.2-0.1-0.3 0-0.2 0.1-0.4 0-0.1 0.2-0.2l1.5-1.5q-0.1-0.1-0.1-0.2-0.1-0.1-0.1-0.2 0-0.1-0.1-0.2 0-0.1-0.1-0.2h-2q-0.2 0-0.4 0-0.1-0.1-0.2-0.2-0.2-0.1-0.2-0.3-0.1-0.1-0.1-0.3v-3.3q0-0.2 0.1-0.3 0-0.2 0.2-0.3 0.1-0.1 0.2-0.2 0.2-0.1 0.4-0.1h2q0.1 0 0.1-0.1 0.1-0.1 0.1-0.2 0-0.1 0.1-0.2 0-0.1 0.1-0.2l-1.5-1.5q-0.2-0.1-0.2-0.2-0.1-0.2-0.1-0.3 0-0.2 0.1-0.4 0-0.1 0.2-0.2l2.3-2.4q0.1-0.1 0.3-0.2 0.2 0 0.3 0 0.2 0 0.3 0 0.2 0.1 0.3 0.2l1.5 1.5q0.3-0.2 0.7-0.3v-2.1q0-0.2 0.1-0.3 0-0.2 0.2-0.3 0.1-0.1 0.2-0.2 0.2 0 0.3 0h3.3q0.2 0 0.4 0 0.1 0.1 0.2 0.2 0.1 0.1 0.2 0.3 0.1 0.1 0.1 0.3v2.1q0.1 0 0.2 0.1 0 0 0.1 0 0.1 0.1 0.2 0.1 0.1 0.1 0.2 0.1l1.5-1.5q0.1-0.1 0.3-0.2 0.1 0 0.3 0 0.2 0 0.3 0 0.2 0.1 0.3 0.2l2.4 2.4q0.1 0.1 0.2 0.2 0 0.2 0 0.4 0 0.1 0 0.3-0.1 0.1-0.2 0.2l-1.5 1.5q0.2 0.4 0.3 0.7h2.1q0.2 0 0.3 0.1z"/><path fill-rule="evenodd" class="a" d="m20.8 18.3q0.7 0 1.3 0.3 0.6 0.2 1.1 0.7 0.4 0.5 0.7 1.1 0.2 0.6 0.2 1.2c0 1.4-0.8 2.6-2 3.1-1.3 0.5-2.7 0.3-3.6-0.7-1-1-1.3-2.4-0.8-3.6 0.5-1.3 1.8-2.1 3.1-2.1zm0 5q0.3 0 0.6-0.1 0.4-0.1 0.6-0.4 0.2-0.2 0.4-0.5 0.1-0.3 0.1-0.7c0-0.6-0.4-1.2-1.1-1.5-0.6-0.2-1.3-0.1-1.8 0.4-0.5 0.4-0.6 1.2-0.3 1.8 0.2 0.6 0.8 1 1.5 1z"/><path class="a" d="m21.6 30.8v4.2q0 0.3-0.1 0.6-0.1 0.3-0.3 0.6-0.2 0.2-0.5 0.3-0.3 0.2-0.7 0.2h-16.7v-1.7h16.7v-4.2z"/><path class="a" d="m23.3 35h13.3v1.6h-13.3z"/><path class="a" d="m0 35h1.7v1.6h-1.7z"/><path class="a" d="m40.9 34.9h1.8v1.7h-1.8z"/></svg>