<svg version="1.2" xmlns="http://www.w3.org/2000/svg" viewBox="0 0 40 46" width="40" height="46"><style>.a{fill:none}.b{fill:#673de6}</style><path class="a" d="m9.9 36.1q0.7 0.2 1.2 0.7 0.4 0.5 0.7 1.1 0.2 0.7 0.3 1.3c0 1.4-0.9 2.7-2.2 3.2-1.2 0.6-2.7 0.3-3.7-0.7-1-1-1.3-2.5-0.7-3.8 0.5-1.2 1.7-2.1 3.1-2.1q0.7 0 1.3 0.3z"/><path class="a" d="m31.2 43.1q-0.4-0.2-0.8-0.6-0.4-0.3-0.6-0.8-0.2-0.5-0.2-1c0-1 0.7-2 1.6-2.4 1-0.4 2.1-0.2 2.9 0.6 0.7 0.7 0.9 1.8 0.5 2.8-0.4 1-1.3 1.6-2.4 1.6q-0.5 0-1-0.2z"/><path class="a" d="m5 8.7q0.4 0.2 0.7 0.5 0.2 0.3 0.4 0.6 0.1 0.4 0.1 0.8c0 0.8-0.4 1.5-1.2 1.8-0.7 0.4-1.6 0.2-2.2-0.4-0.5-0.6-0.7-1.4-0.4-2.2 0.3-0.7 1-1.2 1.8-1.2q0.4 0 0.8 0.1z"/><path class="a" d="m32.2 8.1q-0.6-0.2-1-0.6-0.4-0.5-0.7-1-0.2-0.6-0.2-1.2c0-1.3 0.7-2.4 1.9-2.9 1.2-0.4 2.5-0.2 3.4 0.7 0.9 0.9 1.1 2.2 0.6 3.4-0.4 1.1-1.6 1.9-2.8 1.9q-0.6 0-1.2-0.3z"/><path class="a" d="m34.6 27.3q-0.4-0.2-0.7-0.5-0.3-0.3-0.4-0.7-0.2-0.3-0.1-0.7c0-0.8 0.5-1.6 1.2-1.9 0.8-0.3 1.6-0.1 2.2 0.5 0.5 0.6 0.7 1.4 0.4 2.2-0.3 0.7-1 1.2-1.8 1.2q-0.4 0-0.8-0.2z"/><path fill-rule="evenodd" class="b" d="m13.4 16.5q-0.2 0.2-0.4 0.4-0.2 0.3-0.3 0.5-0.2 0.2-0.3 0.5-0.1 0.2-0.3 0.4l-5.4-4.2c-1.8 1.2-4.2 0.9-5.6-0.6-1.4-1.6-1.5-4-0.1-5.6 1.3-1.6 3.7-2 5.5-0.9 1.8 1.2 2.5 3.5 1.6 5.4zm-9.2-3.9q0.4 0 0.8-0.1 0.4-0.2 0.6-0.5 0.3-0.2 0.5-0.6 0.1-0.4 0.1-0.8c0-0.8-0.5-1.5-1.2-1.8-0.7-0.3-1.6-0.1-2.2 0.4-0.6 0.6-0.7 1.5-0.4 2.2 0.3 0.8 1 1.2 1.8 1.2z"/><path fill-rule="evenodd" class="b" d="m27.1 16q-0.2-0.2-0.4-0.4-0.2-0.2-0.4-0.3-0.2-0.2-0.4-0.4-0.2-0.1-0.5-0.2l4.1-5.8c-1.8-2-1.9-5.1-0.1-7.1 1.8-2 4.8-2.4 7-0.8 2.2 1.5 2.9 4.5 1.6 6.9-1.3 2.3-4.2 3.3-6.7 2.2zm6.2-13.8q-0.6 0-1.1 0.3-0.6 0.2-1 0.6-0.5 0.5-0.7 1-0.2 0.6-0.2 1.2c0 1.3 0.7 2.4 1.9 2.9 1.1 0.4 2.5 0.2 3.3-0.7 0.9-0.9 1.2-2.2 0.7-3.4-0.5-1.1-1.6-1.9-2.9-1.9z"/><path fill-rule="evenodd" class="b" d="m24.4 31.3q0.3-0.1 0.5-0.2 0.3-0.1 0.5-0.3 0.2-0.1 0.5-0.3 0.2-0.1 0.4-0.3l4.1 6.1c2.3-0.9 4.8 0 6 2.1 1.2 2.1 0.6 4.8-1.4 6.2-2 1.4-4.7 1.1-6.3-0.7-1.6-1.8-1.6-4.5 0-6.3zm7.7 6.7q-0.5 0-1 0.2-0.4 0.2-0.8 0.6-0.4 0.4-0.6 0.8-0.2 0.5-0.2 1c0 1.1 0.7 2 1.6 2.4 1 0.4 2.1 0.2 2.9-0.5 0.7-0.8 0.9-1.9 0.5-2.9-0.4-0.9-1.3-1.6-2.4-1.6z"/><path fill-rule="evenodd" class="b" d="m14.4 30q0.2 0.2 0.5 0.3 0.2 0.2 0.4 0.3 0.2 0.2 0.5 0.3 0.2 0.2 0.4 0.3l-3.2 4.6c1.8 2.3 1.6 5.5-0.5 7.5-2.1 2.1-5.4 2.1-7.6 0.2-2.2-1.9-2.6-5.1-1-7.5 1.7-2.4 4.9-3.1 7.4-1.6zm-5.8 12.6q0.7 0 1.4-0.2 0.6-0.3 1.1-0.8 0.5-0.5 0.7-1.1 0.3-0.6 0.3-1.3c0-1.4-0.9-2.6-2.2-3.2-1.2-0.5-2.7-0.2-3.7 0.8-1 1-1.3 2.4-0.7 3.7 0.5 1.3 1.8 2.1 3.1 2.1z"/><path fill-rule="evenodd" class="b" d="m29.7 25.3q0-0.2 0.1-0.5 0-0.3 0.1-0.6 0-0.2 0.1-0.5 0-0.3 0-0.5l1.6 0.3c0.9-1.9 3.1-2.8 5.1-2.1 2.1 0.7 3.2 2.7 2.8 4.8-0.4 2.1-2.3 3.5-4.4 3.4-2.1-0.2-3.8-1.9-3.9-4zm4.9-1.8q-0.4 0.1-0.7 0.4-0.2 0.3-0.4 0.7-0.2 0.3-0.2 0.7c0 0.8 0.5 1.6 1.3 1.9 0.7 0.3 1.6 0.1 2.2-0.5 0.5-0.5 0.7-1.4 0.4-2.1-0.3-0.8-1-1.3-1.9-1.3q-0.3 0-0.7 0.2z"/><path fill-rule="evenodd" class="b" d="m27.1 16q0.7 0.7 1.2 1.4 0.6 0.8 0.9 1.7 0.4 0.9 0.6 1.8 0.1 0.9 0.1 1.9 0 0.2 0 0.4 0 1-0.3 2-0.2 1-0.7 1.9-0.5 0.9-1.1 1.7-0.7 0.8-1.5 1.4-0.2 0.2-0.4 0.3-0.3 0.2-0.5 0.3-0.2 0.2-0.5 0.3-0.2 0.1-0.5 0.2-0.9 0.5-2 0.7-1 0.2-2.1 0.2-1 0-2.1-0.3-1-0.2-2-0.7-0.2-0.1-0.4-0.3-0.3-0.1-0.5-0.3-0.2-0.1-0.4-0.3-0.3-0.1-0.5-0.3-1.2-1-2.1-2.4-0.8-1.4-1.1-3-0.3-1.6-0.1-3.2 0.3-1.6 1-3.1 0.2-0.2 0.3-0.4 0.1-0.3 0.3-0.5 0.1-0.2 0.3-0.4 0.2-0.2 0.4-0.5 0.6-0.7 1.4-1.3 0.9-0.6 1.8-1.1 0.9-0.4 1.9-0.6 1-0.2 2-0.2 0.6 0 1.3 0.1 0.6 0 1.3 0.2 0.6 0.2 1.2 0.5 0.6 0.2 1.1 0.6 0.3 0.1 0.5 0.3 0.2 0.1 0.4 0.3 0.2 0.1 0.4 0.3 0.2 0.2 0.4 0.4zm0.9 6.8q0 0 0-0.1 0-0.7-0.1-1.4-0.2-0.7-0.4-1.3-0.3-0.6-0.6-1.2-0.4-0.6-0.9-1.2-0.2-0.1-0.4-0.3-0.2-0.2-0.4-0.4-0.2-0.2-0.4-0.3-0.3-0.2-0.5-0.3-1.1-0.7-2.4-0.9-1.2-0.2-2.5 0-1.3 0.1-2.4 0.8-1.2 0.6-2 1.6-0.2 0.2-0.4 0.4-0.1 0.2-0.3 0.4-0.1 0.3-0.3 0.5-0.1 0.2-0.2 0.5-0.5 1.1-0.7 2.3-0.1 1.2 0.1 2.4 0.3 1.2 0.9 2.2 0.6 1 1.5 1.9 0.2 0.1 0.4 0.3 0.3 0.2 0.5 0.3 0.2 0.2 0.5 0.3 0.2 0.1 0.4 0.2 0.7 0.4 1.5 0.5 0.7 0.2 1.5 0.2 0.7 0 1.5-0.1 0.7-0.2 1.4-0.4 0.8-0.4 1.5-0.8 0.7-0.5 1.2-1.1 0.6-0.6 1-1.3 0.4-0.8 0.7-1.6 0.1-0.2 0.1-0.5 0.1-0.3 0.1-0.5 0.1-0.3 0.1-0.6 0-0.2 0-0.5zm0 0q0 0 0 0 0 0 0 0zm0 0z"/><path class="b" d="m22.5 18.5c0.6-0.2 1.2-0.1 1.6 0.4 0.5 0.4 0.6 1 0.4 1.6-0.3 0.6-0.8 0.9-1.4 0.9q-0.1 0-0.2 0-0.1 0-0.2 0 0 0-0.1-0.1-0.1 0-0.2 0 0-0.2-0.1-0.4 0-0.2-0.1-0.4-0.2-0.2-0.3-0.3-0.2-0.2-0.3-0.3c0-0.6 0.3-1.2 0.9-1.4zm-1.9 4.5q-0.3 0-0.6-0.1-0.3-0.1-0.5-0.3-0.2-0.3-0.3-0.5-0.1-0.3-0.1-0.6c0-0.6 0.3-1.2 0.9-1.4 0.6-0.3 1.2-0.1 1.6 0.3 0.5 0.4 0.6 1.1 0.4 1.7-0.3 0.5-0.8 0.9-1.4 0.9zm0.6 0.1q0.4 0 0.7 0.1 0.4 0.2 0.6 0.4 0.3 0.3 0.4 0.6 0.2 0.4 0.2 0.8v1.5l-0.1 0.1q-0.3 0.1-0.6 0.2-0.3 0.1-0.5 0.1-0.3 0.1-0.6 0.1-0.3 0-0.6 0-0.3 0-0.7 0-0.3-0.1-0.6-0.1-0.4-0.1-0.7-0.2-0.3 0-0.6-0.1h-0.1v-1.6q0-0.4 0.1-0.8 0.2-0.3 0.5-0.6 0.2-0.2 0.6-0.4 0.3-0.1 0.7-0.1h1.3zm2.5-1.6q0.3 0 0.7 0.2 0.3 0.1 0.6 0.4 0.3 0.3 0.4 0.6 0.2 0.3 0.2 0.7v1.6h-0.1q-0.3 0.1-0.5 0.2-0.3 0.1-0.5 0.2-0.3 0-0.5 0-0.3 0.1-0.5 0.1v-0.5q0-0.4-0.2-0.7-0.1-0.4-0.3-0.7-0.2-0.3-0.5-0.5-0.3-0.2-0.7-0.3 0.2-0.1 0.3-0.3 0.1-0.1 0.1-0.3 0.1-0.2 0.2-0.3 0-0.2 0-0.4h1.2zm-7.1-1c-0.3-0.6-0.1-1.2 0.3-1.6 0.4-0.5 1.1-0.6 1.6-0.4 0.6 0.2 1 0.8 1 1.4v0.1q-0.2 0.1-0.3 0.2-0.1 0.2-0.2 0.3-0.1 0.2-0.2 0.3 0 0.2 0 0.4-0.1 0-0.2 0.1-0.1 0-0.2 0.1-0.1 0-0.2 0-0.1 0-0.2 0c-0.7 0-1.2-0.3-1.4-0.9zm2.7 2.3q-0.3 0.1-0.6 0.3-0.3 0.2-0.6 0.5-0.2 0.3-0.3 0.7-0.1 0.3-0.1 0.7v0.4q-0.3 0-0.6-0.1-0.2 0-0.5 0-0.3-0.1-0.5-0.2-0.3 0-0.6-0.1h-0.1v-1.6q0-0.3 0.2-0.7 0.1-0.4 0.4-0.6 0.3-0.3 0.6-0.4 0.4-0.2 0.7-0.2h1.4q0 0.2 0.1 0.4 0 0.2 0.1 0.3 0.1 0.2 0.2 0.3 0.1 0.2 0.2 0.3z"/></svg>