<svg version="1.2" xmlns="http://www.w3.org/2000/svg" viewBox="0 0 43 43" width="43" height="43"><style>.a{fill:none}.b{fill:#673de6}</style><path class="a" d="m38.4 15.4c0.7 0.6 1.2 1.4 1.4 2.3 0.2 0.8 0.2 1.8-0.2 2.6-0.4 0.8-1 1.5-1.8 1.9v-3.6q0-0.2-0.1-0.4-0.1-0.3-0.3-0.4-0.2-0.2-0.4-0.3-0.2-0.1-0.5-0.1h-30.6q-0.2 0-0.5 0.1-0.2 0.1-0.4 0.3-0.1 0.1-0.2 0.4-0.1 0.2-0.1 0.4v2.7c-0.9-0.7-1.5-1.6-1.8-2.6-0.4-1-0.5-2.1-0.3-3.1 0.2-1.1 0.7-2.1 1.4-2.9 0.7-0.8 1.6-1.4 2.6-1.8q0.1 0 0.2-0.1 0.2-0.1 0.3-0.2 0.1-0.2 0.2-0.3 0-0.2 0.1-0.3 0.3-1.6 1.2-3 0.8-1.3 2.1-2.4c0.8-0.6 1.7-1.2 2.7-1.5q1.6-0.6 3.2-0.6 1.3 0 2.6 0.4 1.3 0.4 2.4 1.1 1.1 0.7 2 1.7 0.9 1 1.5 2.2 0.1 0.2 0.2 0.4 0.1 0.1 0.3 0.2 0.2 0.1 0.4 0.1 0.2 0.1 0.4 0 0.1 0 0.2 0 0.1 0 0.2 0 0.1 0 0.2 0 0.1 0 0.2 0 1.1 0 2.1 0.3 1.1 0.4 1.9 1.1 0.8 0.7 1.3 1.7 0.6 0.9 0.7 2 0.1 0.1 0.1 0.2 0 0.2 0.1 0.3 0.1 0.1 0.2 0.2 0.1 0.1 0.2 0.2 0.1 0 0.2 0.1 0.1 0 0.3 0 0.1 0.1 0.2 0 0.2 0 0.3 0 0.1 0 0.3-0.1 0.1 0 0.2 0 0.2 0 0.3 0 0.1 0 0.3 0c0.9 0 1.8 0.3 2.5 0.8z"/><path fill-rule="evenodd" class="b" d="m40.2 13.7c1.2 1 2 2.4 2.2 4 0.2 1.5-0.1 3.1-1 4.5-0.8 1.3-2.1 2.3-3.6 2.7v3.8h-33.1v-4.4c-1.5-0.8-2.7-1.9-3.5-3.3-0.8-1.4-1.2-3-1.2-4.6 0.1-1.6 0.6-3.2 1.5-4.5 0.9-1.4 2.1-2.4 3.6-3.1 0.3-1.2 0.9-2.4 1.6-3.5q1.1-1.6 2.7-2.8 1.5-1.2 3.4-1.8 1.8-0.7 3.8-0.7 1.5 0 3.1 0.4 1.5 0.5 2.8 1.3 1.4 0.8 2.5 1.9 1.1 1.1 1.9 2.5c0.9-0.1 1.9 0.1 2.8 0.3q1.3 0.4 2.5 1.2 1.1 0.8 2 2 0.8 1.1 1.2 2.5 0.1 0 0.1 0 0.1 0 0.1 0 0.1 0 0.2 0 0 0 0.1 0c1.6 0 3.1 0.5 4.3 1.6zm-18.6 11.1c0.4 0 0.9-0.2 1.3-0.6 0.3-0.3 0.5-0.8 0.5-1.3 0-0.5-0.2-0.9-0.5-1.3-0.4-0.3-0.9-0.5-1.3-0.5h-12.6c-0.5 0-1 0.2-1.3 0.5-0.4 0.4-0.5 0.8-0.5 1.3 0 0.5 0.1 1 0.5 1.3 0.3 0.4 0.8 0.6 1.3 0.6zm6 0q0.4 0 0.7-0.2 0.4-0.1 0.6-0.4 0.3-0.2 0.4-0.6 0.1-0.3 0.2-0.7c0-0.7-0.5-1.4-1.2-1.7-0.7-0.3-1.5-0.1-2 0.4-0.5 0.5-0.7 1.3-0.4 2 0.3 0.7 1 1.2 1.7 1.2zm5.6 0q0.3 0 0.7-0.2 0.3-0.1 0.6-0.4 0.2-0.2 0.4-0.6 0.1-0.3 0.1-0.7c0-0.7-0.4-1.4-1.1-1.7-0.7-0.3-1.5-0.1-2 0.4-0.6 0.5-0.7 1.3-0.4 2 0.2 0.7 0.9 1.2 1.6 1.2zm4.7-2.5c0.8-0.5 1.4-1.2 1.8-2 0.4-0.8 0.4-1.8 0.2-2.6-0.2-0.9-0.7-1.7-1.4-2.3-0.8-0.5-1.6-0.8-2.5-0.8q-0.2 0-0.3 0-0.2 0-0.3 0-0.1 0-0.3 0.1-0.1 0-0.2 0-0.2 0-0.3 0.1-0.1 0-0.2-0.1-0.2 0-0.3 0-0.1-0.1-0.2-0.1-0.1-0.1-0.2-0.2-0.1-0.1-0.2-0.2-0.1-0.1-0.1-0.3-0.1-0.1-0.1-0.2-0.1-1.1-0.7-2-0.5-1-1.3-1.7-0.8-0.7-1.9-1.1-1-0.3-2.1-0.3-0.1 0-0.2 0-0.1 0-0.2 0-0.1 0-0.2 0-0.1 0-0.2 0-0.2 0.1-0.4 0-0.2 0-0.4-0.1-0.2-0.1-0.3-0.2-0.2-0.2-0.2-0.4-0.6-1.2-1.5-2.2-0.9-1-2-1.7-1.1-0.7-2.4-1.1-1.3-0.4-2.6-0.4-1.7 0-3.2 0.6-1.5 0.5-2.8 1.5-1.2 1.1-2.1 2.4-0.8 1.4-1.1 3-0.1 0.1-0.1 0.3-0.1 0.1-0.2 0.3-0.1 0.1-0.3 0.2-0.1 0.1-0.2 0.1c-1.1 0.4-2 1-2.6 1.8-0.7 0.8-1.2 1.8-1.4 2.9-0.2 1-0.1 2.1 0.3 3.1 0.3 1 0.9 1.9 1.8 2.6v-2.7q-0.1-0.2 0.1-0.4 0-0.3 0.2-0.4 0.2-0.2 0.4-0.3 0.3-0.1 0.5-0.1h30.6q0.2 0 0.5 0.1 0.2 0.1 0.4 0.3 0.2 0.1 0.2 0.4 0.2 0.2 0.2 0.4v3.7z"/><path fill-rule="evenodd" class="b" d="m37.8 31.2v10.2q0 0.2-0.1 0.5-0.1 0.2-0.3 0.4-0.1 0.1-0.4 0.2-0.2 0.1-0.5 0.1h-30.6q-0.2 0-0.5-0.1-0.2-0.1-0.4-0.2-0.1-0.2-0.2-0.4-0.1-0.3-0.1-0.5v-10.2zm-15 7c0.4-0.3 0.6-0.8 0.6-1.3 0-0.5-0.2-0.9-0.6-1.3-0.3-0.3-0.8-0.5-1.3-0.5h-12.5c-0.5 0-1 0.2-1.3 0.5-0.4 0.4-0.6 0.8-0.6 1.3 0 0.5 0.2 1 0.6 1.3 0.3 0.4 0.8 0.6 1.3 0.6h12.5c0.5 0 1-0.2 1.3-0.6zm4.8 0.6q0.3 0 0.7-0.2 0.3-0.1 0.5-0.4 0.3-0.2 0.4-0.6 0.2-0.3 0.2-0.7c0-0.7-0.5-1.4-1.2-1.7-0.7-0.3-1.5-0.1-2 0.4-0.5 0.5-0.7 1.3-0.4 2 0.3 0.7 1 1.2 1.7 1.2zm5.6 0q0.4 0 0.7-0.2 0.3-0.1 0.6-0.4 0.3-0.2 0.4-0.6 0.1-0.3 0.1-0.7c0-0.7-0.4-1.4-1.1-1.7-0.7-0.3-1.5-0.1-2 0.4-0.5 0.5-0.7 1.3-0.4 2 0.2 0.7 0.9 1.2 1.7 1.2z"/></svg>