<svg version="1.2" xmlns="http://www.w3.org/2000/svg" viewBox="0 0 44 38" width="44" height="38"><style>.a{fill:#673de6}</style><path class="a" d="m20.7 8.1q-1 0.1-2.1 0.4-1 0.2-1.9 0.6-1 0.4-1.9 1-0.9 0.5-1.7 1.2l-5.7-5.8q1.3-1.2 2.9-2.2 1.6-1 3.3-1.7 1.7-0.7 3.5-1.1 1.8-0.4 3.6-0.5z"/><path class="a" d="m10.1 14.8q-0.6 0.9-1 1.9-0.4 0.9-0.6 1.9-0.3 1.1-0.4 2.1h-8.1q0.1-1.8 0.5-3.6 0.4-1.8 1.1-3.5 0.7-1.7 1.7-3.3 1-1.6 2.2-3l5.8 5.8q-0.7 0.8-1.2 1.7z"/><path class="a" d="m35.5 18.6q-0.2-1-0.6-1.9-0.4-1-1-1.9-0.5-0.9-1.2-1.7l5.8-5.8q1.2 1.4 2.2 3 1 1.6 1.7 3.2 0.7 1.8 1.1 3.6 0.4 1.8 0.5 3.6h-8.1q-0.1-1-0.4-2.1z"/><path class="a" d="m44 23.3q-0.1 2-0.6 3.9-0.5 2-1.3 3.8-0.8 1.9-2 3.5-1.1 1.7-2.5 3.1-0.1 0.1-0.2 0.2-0.1 0-0.2 0.1-0.2 0-0.3 0.1-0.1 0-0.2 0-0.2 0-0.3 0-0.1-0.1-0.2-0.1-0.1-0.1-0.2-0.1-0.2-0.1-0.2-0.2l-1.4-1.3q0.2-0.1 0.3-0.2 0.1-0.1 0.3-0.2 0.1-0.1 0.2-0.2 0.2-0.1 0.3-0.2 0.4-0.4 0.7-1 0.3-0.6 0.4-1.3 0.1-0.7-0.1-1.3-0.1-0.6-0.5-1.2c-0.4-0.6-0.9-1.4-1.6-2.4q0.3-0.6 0.6-1.2 0.2-0.6 0.4-1.2 0.2-0.7 0.3-1.3 0.1-0.7 0.2-1.3z"/><path class="a" d="m8.2 23.3q0.1 1.2 0.4 2.3 0.3 1.2 0.8 2.3 0.5 1.1 1.2 2.1 0.7 1 1.6 1.8 0.1 0.2 0.2 0.5 0.1 0.2 0.1 0.5 0 0.2-0.1 0.4-0.1 0.3-0.2 0.5l-3.9 3.9q-0.1 0.1-0.2 0.1-0.2 0.1-0.3 0.2-0.1 0-0.2 0-0.1 0.1-0.3 0.1-0.1 0-0.2-0.1-0.1 0-0.3 0-0.1-0.1-0.2-0.2-0.1 0-0.2-0.1-1.4-1.4-2.5-3.1-1.2-1.6-2-3.5-0.8-1.8-1.3-3.8-0.5-1.9-0.6-3.9h8.1z"/><path class="a" d="m30.9 11.3q-0.8-0.7-1.7-1.2-0.9-0.6-1.9-1-0.9-0.4-1.9-0.6-1.1-0.3-2.1-0.4v-8.1q1.8 0.1 3.6 0.5 1.8 0.4 3.5 1.1 1.7 0.7 3.3 1.7 1.6 1 2.9 2.2z"/><path class="a" d="m33.8 32.1q0.3 0.4 0.2 0.8c0 0.3-0.1 0.6-0.3 0.8-0.2 0.2-0.5 0.3-0.8 0.4q-0.5 0-0.8-0.2c-1.2-0.8-11-7-12.9-9.1-0.8-0.7-1.2-1.7-1.2-2.8 0-1 0.4-2.1 1.2-2.8 0.7-0.8 1.7-1.2 2.8-1.2 1.1 0 2.1 0.4 2.9 1.1 2 2 8.2 11.9 8.9 13z"/></svg>