<svg version="1.2" xmlns="http://www.w3.org/2000/svg" viewBox="0 0 43 43" width="43" height="43"><style>.a{fill:#673de6}</style><path class="a" d="m31 27.2q-0.9 1.5-2 2.9-1.1 1.4-2.4 2.6-1.2 1.2-2.6 2.3-1.5 1-3 1.9-1.5-0.9-2.9-1.9-1.5-1.1-2.7-2.3-1.3-1.2-2.4-2.6-1.1-1.4-1.9-2.9z"/><path class="a" d="m7.5 12.9v-3.8l13.6-4.2 13.6 4.2v3.8z"/><path class="a" d="m18.6 34.4q-1.3-0.9-2.4-1.9-1.1-1-2.1-2.2-0.9-1.2-1.8-2.4h17.5q-0.8 1.2-1.8 2.4-1 1.2-2.1 2.2-1.1 1-2.3 1.9-1.2 0.9-2.5 1.7-1.3-0.8-2.5-1.7z"/><path fill-rule="evenodd" class="a" d="m21.1 5.6l12.9 4v2.6h-25.8v-2.6zm-2.1 3.9h-1.3v1.4h1.3zm4.1 1.3h1.3v-1.3h-1.3zm-1.4-1.4h-1.4v1.4h1.4z"/><path class="a" d="m17.7 9.5h1.3v1.3h-1.3z"/><path class="a" d="m20.4 9.5h1.4v1.3h-1.4z"/><path class="a" d="m23.1 9.5h1.4v1.3h-1.4z"/><path fill-rule="evenodd" class="a" d="m40.1 12.2q0.4 0 0.7 0.2 0.4 0.1 0.7 0.4 0.3 0.3 0.4 0.7 0.2 0.3 0.2 0.7v11.7q0 0.4-0.2 0.7-0.1 0.4-0.4 0.7-0.3 0.3-0.7 0.4-0.3 0.2-0.7 0.2h-4q-0.5 0.9-1 1.8-0.6 0.9-1.1 1.7-0.6 0.9-1.3 1.7-0.6 0.8-1.3 1.6h6v1.3h-7.3q-0.3 0.4-0.7 0.7-0.4 0.4-0.8 0.7-0.4 0.4-0.8 0.7-0.4 0.3-0.8 0.7h10.4v1.3h-12.4q-0.5 0.3-0.9 0.5-0.4 0.3-0.9 0.6-0.5 0.2-0.9 0.4-0.5 0.3-0.9 0.5-0.1 0-0.2 0 0 0.1-0.1 0.1-0.1 0-0.2-0.1 0 0-0.1 0-0.5-0.2-0.9-0.5-0.5-0.2-1-0.4-0.4-0.3-0.9-0.6-0.4-0.2-0.8-0.5h-12.4v-1.4h10.4q-0.5-0.3-0.9-0.6-0.4-0.3-0.8-0.7-0.4-0.3-0.7-0.7-0.4-0.3-0.8-0.7h-7.3v-1.3h6q-0.5-0.6-1-1.2-0.5-0.7-1-1.3-0.4-0.6-0.9-1.3-0.4-0.7-0.8-1.3l1.2-0.7q1.1 1.9 2.5 3.6 1.4 1.8 3 3.3 1.7 1.5 3.5 2.7 1.9 1.3 3.9 2.2 2.1-1 4.1-2.3 1.9-1.4 3.6-3 1.8-1.7 3.2-3.6 1.4-1.9 2.5-4h-3.1q-0.9 1.5-2 2.9-1.1 1.4-2.4 2.6-1.3 1.2-2.7 2.3-1.4 1-2.9 1.9-0.1 0-0.2 0-0.1 0-0.2 0 0 0-0.1 0-0.1 0-0.2 0-1.5-0.9-2.9-1.9-1.4-1.1-2.7-2.3-1.3-1.2-2.4-2.6-1.1-1.4-2-2.9h-8.7q-0.4 0-0.8-0.1-0.3-0.2-0.6-0.5-0.3-0.2-0.5-0.6-0.1-0.4-0.1-0.8v-11.6q0-0.4 0.1-0.8 0.2-0.3 0.5-0.6 0.3-0.3 0.6-0.4 0.4-0.2 0.8-0.2h0.7v-5.1q0-0.3 0.1-0.7 0.1-0.3 0.3-0.6 0.2-0.2 0.5-0.4 0.2-0.2 0.6-0.3l16.3-5q0.1-0.1 0.3-0.1 0.1 0 0.3 0 0.1 0 0.3 0 0.1 0 0.3 0.1l16.3 5q0.3 0.1 0.6 0.3 0.3 0.2 0.4 0.5 0.2 0.2 0.3 0.5 0.1 0.3 0.1 0.7v3.7h-1.3v-3.7q0-0.1-0.1-0.2 0-0.1 0-0.2-0.1-0.1-0.2-0.2-0.1 0-0.2-0.1l-16.3-5q-0.1 0-0.1 0-0.1 0-0.1 0-0.1 0-0.1 0-0.1 0-0.1 0l-16.3 5q-0.2 0.1-0.2 0.1-0.1 0.1-0.2 0.2-0.1 0.1-0.1 0.2 0 0.1 0 0.2v5.1h1.3v1.4h-3.4q-0.1 0-0.3 0-0.1 0.1-0.2 0.2-0.1 0.1-0.1 0.2-0.1 0.1-0.1 0.2v11.6q0 0.2 0.1 0.3 0 0.1 0.1 0.2 0.1 0.1 0.2 0.2 0.2 0 0.3 0h38.1q0.2 0 0.3 0 0.1-0.1 0.2-0.2 0.1-0.1 0.1-0.2 0.1-0.1 0.1-0.3v-11.6q0-0.1-0.1-0.2 0-0.1-0.1-0.2-0.1-0.1-0.2-0.2-0.1 0-0.3 0h-33.3v-4.5q0-0.1 0-0.2 0.1-0.1 0.1-0.2 0.1-0.1 0.2-0.2 0.1 0 0.2-0.1l13.6-4.2q0 0 0.1 0 0 0 0.1 0 0 0 0.1 0 0 0 0.1 0l13.6 4.2q0.1 0.1 0.2 0.1 0.1 0.1 0.1 0.2 0.1 0.1 0.1 0.2 0.1 0.1 0.1 0.2v3.1h4.7zm-6.1-2.6l-12.9-4-12.9 4v2.6h25.8zm-12.9 26.5q1.3-0.8 2.6-1.7 1.2-0.9 2.3-2 1.1-1 2.1-2.2 0.9-1.1 1.8-2.4h-17.5q0.8 1.3 1.8 2.4 1 1.2 2.1 2.3 1.1 1 2.3 1.9 1.2 0.9 2.5 1.7z"/><path class="a" d="m13.8 22.4c0.3-0.1 0.6-0.3 0.6-0.6 0-0.4-0.3-0.6-0.7-0.8-0.6-0.2-1.1-0.1-1.9-0.4q-0.3-0.1-0.6-0.3-0.2-0.2-0.4-0.5-0.2-0.3-0.3-0.6-0.1-0.3-0.1-0.6 0-0.4 0.1-0.7 0.1-0.3 0.3-0.6 0.2-0.2 0.4-0.4 0.3-0.2 0.6-0.3 0.3-0.2 0.6-0.2 0.4-0.1 0.7-0.1 0.3 0 0.7 0.1 0.3 0 0.6 0.1 0.2 0.1 0.3 0.1 0.1 0.1 0.3 0.1 0.1 0.1 0.2 0.2 0.1 0.1 0.2 0.2 0.1 0 0.2 0.1 0.1 0.1 0.1 0.1 0 0.1 0.1 0.2 0 0.1 0 0.2 0 0.1 0 0.1 0 0.1 0 0.1 0 0.1-0.1 0.1 0 0.1 0 0.1-0.1 0.1-0.2 0.2-0.1 0.1-0.3 0.1-0.1 0.1-0.3 0.1-0.1-0.1-0.2-0.1-0.1-0.1-0.3-0.2-0.1-0.1-0.2-0.1-0.1-0.1-0.3-0.1-0.1-0.1-0.2-0.1-0.2 0-0.3-0.1-0.2 0-0.3 0-0.2 0-0.3 0-0.2 0.1-0.3 0.1-0.1 0-0.2 0.1-0.1 0-0.2 0.1 0 0.1-0.1 0.2 0 0.1 0 0.2c0 0.4 0.2 0.5 0.6 0.7 0.6 0.2 1.1 0.2 1.8 0.4q0.4 0.1 0.7 0.3 0.2 0.2 0.5 0.5 0.2 0.2 0.3 0.6 0.1 0.3 0 0.6 0 0.4-0.1 0.7-0.1 0.3-0.3 0.6-0.2 0.2-0.4 0.4-0.3 0.2-0.6 0.3-0.3 0.2-0.7 0.2-0.3 0.1-0.6 0.1-0.4 0-0.7 0-0.4-0.1-0.7-0.2-0.2 0-0.3-0.1-0.2-0.1-0.3-0.2-0.1 0-0.3-0.1-0.1-0.1-0.2-0.2 0-0.1-0.1-0.1 0 0 0 0 0 0 0 0-0.1-0.1-0.2-0.3-0.1-0.1-0.1-0.3 0-0.1 0.1-0.3 0-0.1 0.1-0.2 0.1-0.1 0.3-0.2 0.1-0.1 0.2-0.1 0.2 0 0.3 0.1 0.1 0 0.2 0.1 0.1 0.1 0.2 0.1 0.1 0.1 0.2 0.2 0.1 0 0.2 0.1 0.1 0 0.2 0.1 0.2 0 0.3 0.1 0.2 0 0.4 0 0.2 0 0.4 0 0.2-0.1 0.4-0.1z"/><path class="a" d="m21.9 22.4c0.3-0.1 0.6-0.2 0.6-0.6 0-0.4-0.3-0.6-0.7-0.7-0.6-0.3-1.1-0.2-1.9-0.5q-0.3-0.1-0.6-0.3-0.2-0.2-0.4-0.5-0.2-0.3-0.3-0.6-0.1-0.3-0.1-0.6 0-0.4 0.1-0.7 0.1-0.3 0.3-0.5 0.2-0.3 0.5-0.5 0.2-0.2 0.5-0.3 0.3-0.1 0.7-0.2 0.3-0.1 0.6-0.1 0.4 0 0.7 0.1 0.3 0 0.7 0.1 0.1 0.1 0.2 0.1 0.2 0.1 0.3 0.1 0.1 0.1 0.2 0.2 0.1 0.1 0.3 0.2l0.1 0.1q0.1 0.1 0.1 0.2 0.1 0.2 0.1 0.3 0 0.2-0.1 0.3 0 0.2-0.1 0.3-0.1 0.1-0.2 0.1-0.1 0.1-0.3 0.1-0.1 0-0.2 0-0.1-0.1-0.2-0.1-0.1-0.1-0.3-0.2-0.1-0.1-0.2-0.1-0.1-0.1-0.3-0.1-0.1-0.1-0.2-0.1-0.2 0-0.3-0.1-0.2 0-0.3 0-0.2 0-0.3 0-0.2 0.1-0.3 0.1-0.2 0-0.2 0.1-0.1 0-0.2 0.1-0.1 0.1-0.1 0.2 0 0.1 0 0.2c0 0.4 0.2 0.6 0.5 0.7 0.7 0.2 1.1 0.2 1.9 0.4q0.4 0.1 0.6 0.3 0.3 0.2 0.5 0.5 0.2 0.2 0.3 0.6 0.1 0.3 0.1 0.6 0 0.4-0.1 0.7-0.1 0.3-0.3 0.6-0.2 0.2-0.4 0.4-0.3 0.2-0.6 0.3-0.3 0.2-0.7 0.2-0.3 0.1-0.7 0.1-0.3 0-0.6 0-0.4-0.1-0.7-0.2-0.2 0-0.3-0.1-0.2-0.1-0.3-0.1-0.2-0.1-0.3-0.2-0.1-0.1-0.3-0.2 0 0 0 0 0-0.1 0-0.1 0 0 0 0-0.1-0.1-0.2-0.2-0.1-0.2-0.1-0.4 0-0.1 0.1-0.3 0.1-0.1 0.2-0.2 0.1-0.1 0.2-0.2 0.1-0.1 0.3-0.1 0.1 0 0.2 0.1 0.2 0 0.3 0.1 0 0.1 0.1 0.1 0.1 0.1 0.2 0.2 0.1 0 0.2 0.1 0.1 0 0.2 0.1 0.2 0 0.4 0.1 0.2 0 0.4 0 0.1 0 0.3 0 0.2-0.1 0.4-0.1z"/><path class="a" d="m28.4 16.6q0.1 0.1 0.1 0.2 0 0 0 0.1 0.1 0.1 0.1 0.2v5.2h2.5q0.2 0 0.3 0 0.1 0.1 0.2 0.2 0.1 0.1 0.2 0.2 0 0.2 0 0.3 0 0.2 0 0.3-0.1 0.2-0.2 0.3-0.1 0.1-0.3 0.1-0.1 0.1-0.2 0.1h-3.4q-0.1 0-0.3-0.1-0.1 0-0.3-0.2-0.1-0.1-0.1-0.2-0.1-0.1-0.1-0.3v-5.9q0-0.1 0.1-0.2 0-0.1 0-0.1 0-0.1 0.1-0.2 0 0 0.1-0.1 0.1-0.1 0.2-0.2 0.2 0 0.3 0 0.2 0 0.4 0 0.1 0.1 0.2 0.2 0.1 0.1 0.1 0.1z"/></svg>