<svg version="1.2" xmlns="http://www.w3.org/2000/svg" viewBox="0 0 42 42" width="42" height="42"><style>.a{fill:#673de6}</style><path class="a" d="m8.7 22.1q0.1 0.6 0.2 1.1 0.1 0.6 0.3 1.1 0.1 0.6 0.3 1.1l-6.3 6.4q-0.8-1.2-1.4-2.5-0.6-1.4-1-2.7-0.4-1.4-0.6-2.8-0.2-1.4-0.2-2.9 0-1.4 0.2-2.8 0.2-1.4 0.6-2.8 0.4-1.4 1-2.7 0.6-1.3 1.4-2.5l6.3 6.4q-0.2 0.5-0.3 1.1-0.2 0.5-0.3 1.1-0.1 0.5-0.2 1.1 0 0.6 0 1.1 0 0.6 0 1.2z"/><path class="a" d="m11.4 28.7q0.4 0.5 0.9 0.9 0.4 0.4 0.9 0.8 0.5 0.4 1 0.8l-6.1 6.1q-0.5-0.4-1-0.8-0.5-0.4-0.9-0.8-0.4-0.5-0.8-0.9-0.4-0.5-0.8-1l6.1-6.1q0.4 0.5 0.7 1z"/><path class="a" d="m37.3 33.8q-0.4 0.5-0.8 1-0.4 0.4-0.8 0.9-0.5 0.4-0.9 0.8-0.5 0.4-1 0.8l-6.1-6.1q0.5-0.4 1-0.8 0.5-0.4 0.9-0.8 0.4-0.4 0.8-0.9 0.4-0.5 0.8-1z"/><path class="a" d="m33.1 19.8q0-0.6-0.1-1.1-0.1-0.6-0.3-1.1-0.1-0.6-0.4-1.1l6.4-6.4q0.8 1.2 1.4 2.5 0.6 1.3 0.9 2.7 0.5 1.4 0.7 2.8 0.2 1.4 0.2 2.8 0 1.5-0.2 2.9-0.2 1.4-0.7 2.8-0.3 1.3-0.9 2.7-0.6 1.3-1.4 2.5l-6.4-6.4q0.3-0.5 0.4-1.1 0.2-0.5 0.3-1.1 0.1-0.5 0.1-1.1 0.1-0.6 0.1-1.2 0-0.5-0.1-1.1z"/><path class="a" d="m31.8 38.7q-1.2 0.8-2.5 1.4-1.4 0.6-2.7 0.9-1.4 0.5-2.8 0.7-1.4 0.2-2.9 0.2-1.4 0-2.8-0.2-1.4-0.2-2.8-0.7-1.4-0.3-2.7-0.9-1.3-0.6-2.5-1.4l6.4-6.4q1 0.5 2.2 0.7 1.1 0.2 2.2 0.2 1.2 0 2.3-0.2 1.1-0.2 2.2-0.7z"/><path class="a" d="m10.1 3.2q1.2-0.8 2.5-1.4 1.3-0.6 2.7-1 1.4-0.4 2.8-0.6 1.4-0.2 2.8-0.2 1.5 0 2.9 0.2 1.4 0.2 2.8 0.6 1.4 0.4 2.7 1 1.3 0.6 2.5 1.4l-6.4 6.3q-1.1-0.4-2.2-0.6-1.1-0.2-2.3-0.2-1.1 0-2.2 0.2-1.2 0.2-2.2 0.6z"/><path class="a" d="m4.6 8.1q0.4-0.5 0.8-1 0.4-0.5 0.8-0.9 0.4-0.4 0.9-0.8 0.5-0.4 1-0.8l6.1 6.1q-0.5 0.4-1 0.8-0.5 0.3-0.9 0.8-0.5 0.4-0.9 0.9-0.3 0.5-0.7 1z"/><path class="a" d="m30.4 13.2q-0.4-0.5-0.8-0.9-0.4-0.5-0.9-0.9-0.5-0.3-1-0.7l6.1-6.1q0.5 0.4 1 0.8 0.4 0.4 0.9 0.8 0.4 0.4 0.8 0.9 0.4 0.5 0.8 1l-6.1 6.1q-0.4-0.5-0.8-1z"/><path fill-rule="evenodd" class="a" d="m26.8 17.8v5.6c-0.1 1.5-0.7 2.9-1.8 3.9-1.1 1.1-2.6 1.6-4.1 1.6-1.5 0-2.9-0.5-4-1.6-1.1-1-1.7-2.4-1.8-3.9v-5.6h1.6v-0.9c-0.1-1.1 0.4-2.3 1.2-3.1 0.8-0.8 1.9-1.3 3-1.3 1.2 0 2.3 0.5 3.1 1.3 0.8 0.8 1.2 2 1.2 3.1v0.9zm-8.5 0h5.3v-0.9c0-0.7-0.3-1.4-0.8-1.8-0.5-0.5-1.2-0.8-1.8-0.8-0.8 0-1.4 0.3-1.9 0.8-0.5 0.5-0.8 1.1-0.8 1.8zm5.3 4.6l-1.1-1.2-2 1.9-1.1-1.1-1.1 1.2 2.1 2.1z"/></svg>