<svg version="1.2" xmlns="http://www.w3.org/2000/svg" viewBox="0 0 41 41" width="41" height="41"><style>.a{fill:#673de6}</style><circle class="a" cx="24.6" cy="14.5" r="1.3"/><circle class="a" cx="32.1" cy="25.9" r="1.3"/><path fill-rule="evenodd" class="a" d="m39.3 0q0.2 0 0.4 0.1 0.2 0.1 0.4 0.2 0.2 0.2 0.3 0.4 0 0.2 0 0.5v38q0 0.3 0 0.5-0.1 0.2-0.3 0.4-0.2 0.2-0.4 0.3-0.2 0-0.4 0h-23.4v-39.2q0-0.3 0.1-0.5 0-0.2 0.2-0.4 0.2-0.1 0.4-0.2 0.2-0.1 0.5-0.1zm-13.5 18c0.7-0.2 1.3-0.7 1.8-1.4 0.4-0.6 0.6-1.3 0.6-2.1 0-0.8-0.2-1.5-0.6-2.1-0.5-0.7-1.1-1.1-1.8-1.4v-4q-0.1-0.5-0.4-0.8-0.4-0.3-0.8-0.3c-0.3 0-0.6 0.1-0.8 0.3q-0.4 0.3-0.4 0.8v4.1c-0.7 0.2-1.4 0.7-1.8 1.3-0.5 0.6-0.7 1.4-0.7 2.2 0 0.7 0.2 1.5 0.7 2.1 0.4 0.6 1.1 1.1 1.8 1.4v15.4q0 0.5 0.4 0.8c0.2 0.2 0.5 0.3 0.8 0.3q0.4 0 0.8-0.3 0.3-0.3 0.4-0.8zm7.5 11.4c0.7-0.3 1.4-0.7 1.8-1.4 0.5-0.6 0.7-1.3 0.7-2.1 0-0.8-0.2-1.5-0.7-2.2-0.4-0.6-1.1-1.1-1.8-1.3v-15.4q0-0.5-0.3-0.8c-0.3-0.2-0.6-0.3-0.9-0.3-0.2 0-0.5 0.1-0.8 0.3q-0.3 0.3-0.3 0.8v15.4c-0.8 0.3-1.4 0.7-1.8 1.4-0.5 0.6-0.7 1.3-0.7 2.1 0 0.8 0.2 1.5 0.7 2.2 0.4 0.6 1 1.1 1.8 1.3v4.1q0 0.4 0.3 0.8c0.3 0.2 0.6 0.3 0.8 0.3 0.3 0 0.6-0.1 0.9-0.3q0.3-0.4 0.3-0.8z"/><path class="a" d="m9.6 14.5q0.1-0.2 0.2-0.3 0.2-0.2 0.3-0.3 0.2-0.1 0.4-0.2 0.4 0 0.8-0.1 0.3 0 0.7-0.1 0.4 0 0.8 0 0.3 0 0.7 0v10.5c-0.8 0-1.6 0.3-2.1 0.8-0.6 0.6-1 1.3-1 2.1 0 0.8 0.4 1.6 1 2.2 0.5 0.5 1.3 0.8 2.1 0.8v10.5q-0.4 0-0.7 0-0.4 0-0.8 0-0.4-0.1-0.7-0.2-0.4 0-0.8-0.1-0.2 0-0.4-0.1-0.1-0.1-0.3-0.3-0.1-0.2-0.2-0.3 0-0.2 0-0.4v-2l-0.4-0.2-1.4 1.4q-0.1 0.2-0.3 0.3-0.2 0-0.4 0.1-0.2 0-0.4-0.1-0.2 0-0.4-0.1-0.3-0.2-0.6-0.4-0.3-0.3-0.6-0.5-0.3-0.2-0.6-0.5-0.2-0.2-0.5-0.5-0.3-0.3-0.5-0.5-0.3-0.3-0.5-0.6-0.3-0.3-0.5-0.6-0.2-0.3-0.4-0.6-0.2-0.2-0.2-0.4-0.1-0.2 0-0.4 0-0.2 0.1-0.4 0.1-0.2 0.2-0.3l1.4-1.4q-0.1-0.2-0.1-0.4h-2q-0.2 0-0.4 0-0.2-0.1-0.4-0.2-0.1-0.2-0.2-0.3-0.2-0.2-0.2-0.4-0.2-0.7-0.2-1.5-0.1-0.7-0.1-1.5 0-0.8 0.1-1.5 0-0.8 0.2-1.5 0-0.2 0.2-0.4 0.1-0.2 0.2-0.3 0.2-0.1 0.4-0.2 0.2-0.1 0.4-0.1h2q0.1-0.2 0.2-0.4l-1.4-1.4q-0.2-0.1-0.3-0.3-0.1-0.2-0.1-0.4 0-0.2 0.1-0.4 0-0.2 0.1-0.4 0.2-0.3 0.4-0.6 0.3-0.3 0.5-0.6 0.2-0.3 0.5-0.6 0.2-0.2 0.5-0.5 0.3-0.3 0.5-0.5 0.3-0.3 0.6-0.5 0.3-0.2 0.6-0.5 0.3-0.2 0.6-0.4 0.1-0.1 0.3-0.2 0.2 0 0.4 0 0.2 0 0.4 0.1 0.2 0.1 0.4 0.3l1.4 1.4 0.4-0.2v-2q0-0.2 0-0.4z"/></svg>