<svg version="1.2" xmlns="http://www.w3.org/2000/svg" viewBox="0 0 34 44" width="34" height="44"><style>.a{fill:#673de6}</style><path fill-rule="evenodd" class="a" d="m33.7 6.6v27.5l-16.8 9.1-16.9-9.1v-27.5h1.2q1.1 0 2-0.4 1-0.4 1.8-1.2 0.8-0.8 1.2-1.7 0.4-1 0.4-2.1v-1.2h20.5v1.2q0.1 1.1 0.5 2.1 0.4 0.9 1.1 1.7 0.8 0.8 1.8 1.2 1 0.4 2.1 0.4zm-16.9 23.3c1.3 0 2.7-0.3 3.9-0.8 1.3-0.5 2.4-1.3 3.3-2.2 1-1 1.8-2.1 2.3-3.4 0.5-1.2 0.8-2.6 0.8-3.9 0-4.2-2.5-7.9-6.4-9.5-3.8-1.6-8.2-0.7-11.2 2.2-2.9 3-3.8 7.4-2.2 11.2 1.6 3.9 5.3 6.4 9.5 6.4zm0-18.2c1 0 2.1 0.2 3 0.6q1.5 0.6 2.6 1.7c0.7 0.7 1.3 1.6 1.7 2.6q0.6 1.4 0.6 3c0 3.2-1.9 6.1-4.9 7.3-3 1.2-6.4 0.6-8.6-1.7-2.3-2.3-3-5.7-1.7-8.6 1.2-3 4.1-4.9 7.3-4.9zm4.3 6.4l-1.7-1.7-3.8 3.9-1.5-1.5-1.6 1.7 3.1 3.1z"/></svg>