<svg version="1.2" xmlns="http://www.w3.org/2000/svg" viewBox="0 0 40 43" width="40" height="43"><style>.a{fill:#673de6}</style><path fill-rule="evenodd" class="a" d="m39.5 41.5q0 0.2-0.2 0.4-0.2 0.2-0.4 0.3-0.3 0.1-0.5 0.1h-18.6v-12.5h18.6q0.2 0 0.5 0.1 0.2 0.1 0.4 0.2 0.1 0.2 0.2 0.4 0.1 0.3 0.1 0.5v10q0 0.3-0.1 0.5zm-9.8-5.5q0.5 0 0.9-0.4 0.4-0.3 0.4-0.8 0-0.5-0.4-0.9-0.4-0.4-0.9-0.4-0.5 0-0.9 0.4-0.3 0.4-0.3 0.9 0 0.5 0.3 0.8 0.4 0.4 0.9 0.4z"/><path class="a" d="m34.7 15.3q-0.4 0.2-0.7 0.3-0.3 0.2-0.6 0.3-0.3 0.2-0.6 0.4-0.3 0.2-0.6 0.5v-15.5q0.5-0.3 1.1-0.6 0.6-0.2 1.2-0.4 0.6-0.1 1.2-0.2 0.6-0.1 1.2-0.1h1.5q0.2 0 0.5 0.1 0.2 0.1 0.4 0.3 0.1 0.1 0.2 0.4 0.1 0.2 0.1 0.4v12.5q0 0.3-0.1 0.5-0.1 0.2-0.2 0.4-0.2 0.2-0.4 0.2-0.3 0.1-0.5 0.1h-1.3v3.8c0.1 0.3 0 0.7-0.3 0.9-0.2 0.3-0.5 0.4-0.9 0.4-0.3 0-0.7-0.1-0.9-0.4-0.2-0.2-0.4-0.6-0.3-0.9z"/><path class="a" d="m23.1 14.8q-0.3-0.1-0.4-0.2-0.2-0.2-0.3-0.4-0.1-0.2-0.1-0.5v-12.5q0-0.2 0.1-0.4 0.1-0.3 0.2-0.4 0.2-0.2 0.5-0.3 0.2-0.1 0.4-0.1h1.5q0.6 0 1.2 0.1 0.7 0.1 1.3 0.2 0.6 0.2 1.1 0.4 0.6 0.3 1.1 0.6v15.5q-0.4-0.5-1-0.8-0.6-0.3-1.2-0.6-0.6-0.2-1.2-0.3-0.7-0.2-1.3-0.2h-1.5q-0.2 0-0.4-0.1z"/><path class="a" d="m0.8 42.2q-0.3-0.1-0.5-0.3-0.1-0.2-0.2-0.4-0.1-0.2-0.1-0.5v-12.4q0-1.3 0.5-2.4 0.4-1.1 1.3-2 0.9-0.9 2-1.4 1.2-0.4 2.4-0.4h1.4q0 0 0 0 0 0 0 0 0 0 0.1 0 0 0 0 0 0 0.2 0.1 0.4 0.1 0.2 0.2 0.3 0.1 0.2 0.3 0.4 0.1 0.1 0.2 0.2l2.4 2.4q0.3 0.3 0.6 0.5 0.3 0.2 0.6 0.4 0.4 0.1 0.8 0.2 0.3 0.1 0.7 0.1 0.4 0 0.7-0.1 0.4 0 0.8-0.2 0.3-0.1 0.6-0.3 0.3-0.2 0.5-0.5l2.4-2.4q0.2-0.1 0.3-0.3 0.2-0.2 0.3-0.3 0.1-0.2 0.2-0.4 0.1-0.2 0.2-0.4 0 0 0 0 0 0 0 0 0 0 0-0.1 0 0 0 0h1.5q1 0 2 0.4 1 0.4 1.9 1 0.8 0.7 1.4 1.6 0.5 1 0.7 2h-8.5q-0.3 0-0.5 0.1-0.2 0.1-0.4 0.3-0.2 0.2-0.3 0.4-0.1 0.2-0.1 0.5v7.4q-0.4-0.3-0.8-0.5-0.4-0.3-0.9-0.4-0.5-0.2-0.9-0.3-0.5 0-1 0h-6.2v-6.2q0-0.5-0.4-0.9-0.4-0.4-0.9-0.4-0.5 0-0.8 0.4-0.4 0.4-0.4 0.9v7.4q0 0.2 0.1 0.4 0.1 0.3 0.3 0.4 0.1 0.2 0.3 0.3 0.3 0.1 0.5 0.1h7.4q0.8 0 1.5 0.3 0.6 0.3 1.2 0.8 0.5 0.6 0.8 1.3 0.2 0.7 0.2 1.4v1.3h-16.1q-0.2 0-0.4-0.1z"/><path class="a" d="m8.9 20.1q-0.5-0.5-0.8-1.2-0.3-0.6-0.5-1.3-0.1-0.7-0.1-1.4v-2.5c0-1.6 0.6-3.2 1.8-4.4 1.1-1.1 2.7-1.8 4.3-1.8 1.7 0 3.3 0.7 4.4 1.8 1.2 1.2 1.8 2.8 1.8 4.4v2.5q0 0.7-0.1 1.4-0.2 0.7-0.5 1.4-0.3 0.6-0.8 1.2-0.5 0.5-1 0.9 0 0.2 0 0.3-0.1 0.1-0.1 0.2-0.1 0.1-0.1 0.2-0.1 0.1-0.2 0.2l-2.5 2.4q-0.1 0.1-0.2 0.2-0.1 0.1-0.2 0.1-0.1 0.1-0.2 0.1-0.2 0-0.3 0-0.1 0-0.2 0-0.1 0-0.3-0.1-0.1 0-0.2-0.1-0.1-0.1-0.1-0.2c0.2 0.3-2.3-2.2-2.5-2.4q-0.1-0.1-0.2-0.2-0.1-0.1-0.1-0.2 0-0.1-0.1-0.2 0-0.2 0-0.3-0.6-0.4-1-1z"/></svg>