<svg version="1.2" xmlns="http://www.w3.org/2000/svg" viewBox="0 0 42 41" width="42" height="41"><style>.a{fill:#673de6}</style><path class="a" d="m12 40.8v-2q0-0.2-0.1-0.3-0.1-0.1-0.2-0.2-0.1-0.2-0.2-0.2-0.1-0.1-0.3-0.1h-0.1q-0.6 0.1-1.3 0-0.6-0.1-1.2-0.2-0.6-0.2-1.2-0.5-0.6-0.3-1.1-0.6-0.6-0.6-1.1-1.2-0.6-0.7-0.9-1.4-0.4-0.8-0.6-1.6-0.2-0.8-0.2-1.7c3 4.1 6.7 3.8 7.9 3.7q0.1-0.1 0.2-0.1 0.1-0.1 0.2-0.2 0.1-0.1 0.1-0.2 0.1-0.1 0.1-0.3v-2.1l4.6 4.7z"/><path class="a" d="m24.8 7.5q0.4 0.2 0.7 0.5 0.3 0.3 0.5 0.7 0.2 0.5 0.2 0.9v4.5q-0.2-0.1-0.4-0.2-0.3-0.1-0.5-0.1-0.2-0.1-0.4-0.1-0.3 0-0.5 0h-6.9q-0.8 0-1.5 0.2-0.7 0.4-1.3 0.9-0.5 0.5-0.8 1.2-0.3 0.7-0.3 1.5v7.5h-7.9q0.2-0.3 0.4-0.5 0.1-0.3 0.2-0.6 0.1-0.3 0.2-0.6 0-0.4 0-0.7v-13q0-0.4 0.2-0.9 0.2-0.4 0.5-0.7 0.3-0.3 0.8-0.5 0.4-0.2 0.8-0.2h15.1q0.4 0 0.9 0.2z"/><path class="a" d="m39.9 22.6q0.4 0.2 0.8 0.5 0.3 0.3 0.5 0.7 0.1 0.4 0.2 0.9v13q0 0.5-0.2 0.9-0.2 0.4-0.5 0.8-0.4 0.3-0.8 0.5-0.4 0.2-0.9 0.2h-17.6v-0.1-0.1-0.1h0.1v-0.1-0.1l0.1-0.1v-0.1-0.1-0.1-0.1-0.1q0 0 0 0 0 0 0 0 0 0 0-0.1 0-0.1 0-0.1 0 0 0 0 0 0 0 0 0 0 0-0.1 0 0 0 0 0 0 0.1-0.1 0 0 0 0v-0.1q0 0 0 0 0 0 0 0 0 0 0 0 0-0.1 0-0.1c0-0.1 0-0.1 0-0.1q0-0.1 0-0.1 0 0 0 0 0 0 0 0 0 0 0 0 0 0 0 0 0-0.1 0-0.1 0 0 0 0 0 0 0 0v-0.1q0 0 0 0 0 0 0 0 0-0.1 0-0.1 0 0 0 0v-13.2q0-0.4 0.1-0.9 0.2-0.4 0.5-0.7 0.4-0.3 0.8-0.5 0.4-0.2 0.9-0.2h15q0.5 0 0.9 0.2z"/><path class="a" d="m2.3 25q-0.4 0-0.9-0.2-0.4-0.2-0.7-0.5-0.4-0.3-0.5-0.8-0.2-0.4-0.2-0.9v-20.3q0-0.4 0.2-0.9 0.2-0.4 0.5-0.7 0.3-0.3 0.7-0.5 0.5-0.2 0.9-0.2h7q0.2 0 0.5 0.1 0.2 0 0.4 0.1 0.2 0.1 0.4 0.2 0.2 0.2 0.4 0.4l2.1 2.3q0.1 0.1 0.3 0.2 0.1 0.1 0.2 0.1 0.2 0.1 0.3 0.1 0.2 0.1 0.4 0.1h5.8q0.4 0 0.8 0.1 0.4 0.2 0.8 0.5 0.3 0.3 0.5 0.7 0.2 0.4 0.2 0.9h-13.5q-0.8 0-1.5 0.3-0.7 0.3-1.3 0.8-0.5 0.5-0.8 1.3-0.3 0.6-0.3 1.4v13q0 0.5-0.2 0.9-0.2 0.5-0.5 0.8-0.3 0.3-0.7 0.5-0.5 0.2-0.9 0.2z"/><path class="a" d="m24.9 15.2q0.2 0 0.5 0.1 0.2 0.1 0.4 0.3 0.2 0.1 0.3 0.3l2.1 2.3q0.1 0.1 0.3 0.2 0.1 0.1 0.3 0.2 0.1 0 0.3 0 0.1 0.1 0.3 0.1h5.8q0.4 0 0.8 0.2 0.5 0.1 0.8 0.4 0.3 0.3 0.5 0.7 0.2 0.4 0.2 0.9h-13.5q-0.8 0-1.5 0.3-0.7 0.3-1.2 0.8-0.6 0.6-0.9 1.3-0.3 0.7-0.3 1.4v13q0 0.5-0.1 0.9-0.2 0.5-0.5 0.8-0.4 0.3-0.8 0.5-0.4 0.2-0.9 0.2h-0.3q-0.3 0-0.5-0.1-0.3 0-0.5-0.1-0.2-0.1-0.4-0.3-0.2-0.1-0.4-0.3l2.5-2.5q0.1-0.1 0.2-0.2 0-0.2 0-0.3 0-0.2 0-0.3-0.1-0.2-0.2-0.3l-3.1-3.1v-15.1q0-0.5 0.2-0.9 0.2-0.5 0.5-0.8 0.3-0.3 0.8-0.5 0.4-0.2 0.9-0.2h6.9q0.2 0 0.5 0.1z"/></svg>