<svg version="1.2" xmlns="http://www.w3.org/2000/svg" viewBox="0 0 17 18" width="17" height="18"><style>.a{fill:#fff}</style><path fill-rule="evenodd" class="a" d="m16.7 12.7l-6.9 4.3q-0.4 0.2-0.8 0.3-0.4 0-0.8-0.3l-3.7-2.1h-1.4v1c0 0.2-0.3 0.5-0.5 0.5h-2.1c-0.3 0-0.5-0.3-0.5-0.5v-7c0-0.2 0.2-0.5 0.5-0.5h2.1c0.2 0 0.5 0.3 0.5 0.5v0.6h1.4v-3.5h-0.2c-0.3 0-0.5-0.2-0.5-0.5v-2.3c0-0.3 0.2-0.5 0.5-0.5h1.4v-1.9q0-0.3 0.3-0.5c0.1-0.1 0.3-0.1 0.4 0l1.7 1c0.4-0.4 1-0.7 1.6-0.7 0.7 0 1.3 0.3 1.7 0.8l1.9-1.1c0.1-0.1 0.3-0.1 0.4 0q0.3 0.2 0.3 0.5v1.9h1.1c0.3 0 0.5 0.2 0.5 0.5v2.3c0 0.3-0.2 0.5-0.5 0.5h-0.2v4.6c0.8 0.1 1.5 0.6 2 1.4 0.1 0.2 0.1 0.5-0.2 0.7zm-2.8-6.7h-2.5v5.7l1.5-0.8q0.5-0.3 1-0.4zm-3.5-2.3h-1.4v1.4h1.4zm-1.4 2.3v4.6l0.7 0.4q0.5 0.2 0.7 0.7v-5.7zm5.6-2.3h-3.3v1.3h3.3zm-2.9-1.3q0.1 0.2 0.1 0.3h1.2v-1zm-3.2 0.3h2.2c0-0.6-0.5-1-1.1-1-0.6 0-1.1 0.4-1.1 1zm-1.9 0h0.9q0-0.2 0.1-0.5l-1-0.5zm-1.9 2.3h3.2v-1.3h-3.2zm0.7 4.4h1.2q0.5 0 1 0.3l0.3 0.2v-3.9h-2.5zm-3.5-0.1h-1v6h1zm13.8 2.6c-0.6-0.6-1.6-0.7-2.4-0.3l-3.2 1.6q-0.2 0.4-0.6 0.6-0.3 0.2-0.7 0.2-0.5 0-0.9-0.3l-1.8-1h-0.7c-0.3 0-0.5-0.2-0.5-0.5 0-0.3 0.2-0.5 0.5-0.5h0.8q0.2 0 0.3 0.1l1.9 1.1q0.3 0.2 0.7 0c0.2-0.1 0.4-0.4 0.4-0.7q-0.1-0.3-0.4-0.6c0 0-2.1-1.2-2.1-1.2q-0.2-0.1-0.4-0.1h-3.7v3.4h1.6q0.1 0 0.3 0.1l3.8 2.2c0.1 0.1 0.4 0.1 0.6 0z"/></svg>