<svg version="1.2" xmlns="http://www.w3.org/2000/svg" viewBox="0 0 42 42" width="42" height="42"><style>.a{fill:#673de6}</style><path fill-rule="evenodd" class="a" d="m38 9.8h-34.3v-9.8h34.3zm-27-6.1h-2.4v2.4h2.4zm4.9 0h-2.4v2.5h2.4zm17.2 0h-14.7v2.4h14.6z"/><path fill-rule="evenodd" class="a" d="m38 19.6h-34.3v-7.3h34.3zm-27-4.9h-2.4v2.4h2.4zm4.9 0h-2.4v2.5h2.4zm17.2 0h-14.7v2.4h14.6z"/><path fill-rule="evenodd" class="a" d="m41.3 36.3c0.6 1.2 0.6 2.7-0.2 3.8-0.8 1.1-2.2 1.7-3.6 1.6-1.3-0.2-2.5-1.2-2.9-2.5h-7.6v2.5h-12.3v-2.5h-7.6c-0.6 1.7-2.3 2.7-4 2.4-1.8-0.3-3.1-1.8-3.1-3.6 0-1.8 1.3-3.3 3.1-3.6 1.7-0.3 3.4 0.7 4 2.4h7.6v-2.5h4.9v-2.4h-15.9v-9.8h34.3v9.8h-15.9v2.4h4.9v2.5h7.5q0.2-0.6 0.6-1 0.3-0.5 0.8-0.8 0.4-0.3 1-0.5 0.5-0.2 1.1-0.2c1.4 0 2.7 0.8 3.3 2zm-30.3-10.6h-2.4v2.5h2.4zm4.9 0h-2.4v2.4h2.4zm2.5 2.5h14.6v-2.5h-14.7z"/></svg>