<svg version="1.2" xmlns="http://www.w3.org/2000/svg" viewBox="0 0 46 42" width="46" height="42"><style>.a{fill:#673de6}</style><path fill-rule="evenodd" class="a" d="m22.7 25q1 0 2 0 1.1-0.1 2.1-0.3 1-0.2 2-0.6 0.9-0.3 1.9-0.7v3.6c0 0.3-0.6 0.9-2 1.4q-0.8 0.2-1.5 0.4-0.7 0.2-1.5 0.3-0.8 0.1-1.5 0.1-0.8 0.1-1.5 0.1-0.8 0-1.6-0.1-0.7 0-1.5-0.1-0.7-0.1-1.5-0.3-0.7-0.2-1.4-0.4c-1.5-0.5-2-1.1-2-1.4v-3.6q0.9 0.4 1.9 0.7 1 0.4 2 0.6 1 0.2 2 0.2 1 0.1 2.1 0.1zm1.5 2.9q0.3-0.1 0.5-0.3 0.2-0.3 0.2-0.7 0-0.3-0.2-0.5-0.2-0.3-0.5-0.4h-3.1c-0.3-0.1-0.6 0-0.9 0.1-0.2 0.2-0.4 0.5-0.4 0.8 0 0.4 0.2 0.7 0.4 0.9 0.3 0.1 0.6 0.2 0.9 0.1z"/><path fill-rule="evenodd" class="a" d="m22.7 37.3q1 0 2-0.1 1.1-0.1 2.1-0.3 1-0.2 2-0.5 0.9-0.3 1.9-0.7v3.6c0 0.3-1 1.3-4 1.9q-0.5 0.1-1 0.2-0.5 0-1 0.1-0.5 0-1 0-0.5 0-1 0-0.8 0.1-1.6 0-0.7 0-1.5-0.1-0.7-0.2-1.5-0.3-0.7-0.2-1.4-0.4c-1.5-0.6-2-1.2-2-1.4v-3.6q0.9 0.4 1.9 0.7 1 0.3 2 0.5 1 0.2 2 0.3 1 0.1 2.1 0.1zm2 2.8q0.2-0.3 0.2-0.6 0-0.3-0.2-0.6-0.2-0.3-0.5-0.4h-3.1c-0.3 0-0.6 0-0.9 0.2-0.2 0.2-0.4 0.5-0.4 0.8 0 0.3 0.2 0.6 0.4 0.8 0.3 0.2 0.6 0.2 0.9 0.2h3.1q0.3-0.1 0.5-0.4z"/><path fill-rule="evenodd" class="a" d="m24.7 31.1q1.1-0.1 2.1-0.3 1-0.2 2-0.5 0.9-0.3 1.9-0.8v3.6c0 0.3-0.6 0.9-2 1.4q-0.8 0.2-1.5 0.4-0.7 0.2-1.5 0.3-0.8 0.1-1.5 0.1-0.8 0.1-1.5 0.1-0.8 0-1.6-0.1-0.7 0-1.5-0.1-0.7-0.1-1.5-0.3-0.7-0.2-1.4-0.4c-1.5-0.5-2-1.1-2-1.4v-3.6q0.9 0.5 1.9 0.8 1 0.3 2 0.5 1 0.2 2 0.3 1 0.1 2.1 0 1 0.1 2 0zm0 2.8q0.2-0.3 0.2-0.6 0-0.3-0.2-0.6-0.2-0.3-0.5-0.4h-3.1c-0.3-0.1-0.6 0-0.9 0.2-0.2 0.2-0.4 0.5-0.4 0.8 0 0.3 0.2 0.6 0.4 0.8 0.3 0.2 0.6 0.2 0.9 0.1h3.1q0.3 0 0.5-0.3z"/><path class="a" d="m30.7 20.8c0 0.3-0.6 0.9-2 1.4q-0.8 0.3-1.5 0.4-0.7 0.2-1.5 0.3-0.8 0.1-1.5 0.2-0.8 0-1.5 0-0.8 0-1.6 0-0.7-0.1-1.5-0.2-0.7-0.1-1.5-0.3-0.7-0.1-1.4-0.4c-1.5-0.5-2-1.1-2-1.4 0-0.2 0.5-0.8 2-1.4q0.7-0.2 1.4-0.4 0.8-0.1 1.5-0.3 0.8-0.1 1.5-0.1 0.8-0.1 1.6-0.1 0.7 0 1.5 0.1 0.7 0 1.5 0.1 0.8 0.2 1.5 0.3 0.8 0.2 1.5 0.4c1.4 0.6 2 1.2 2 1.4z"/><path class="a" d="m44.7 18.7c0.8 1.6 0.9 3.4 0.5 5.1-0.4 1.8-1.4 3.3-2.8 4.4-1.4 1.1-3.1 1.7-4.9 1.6h-4.9v-9c0-2.7-5-4.2-9.9-4.2-4.9 0-9.9 1.5-9.9 4.2v9h-5c-1.5 0-3-0.4-4.3-1.3-1.3-0.8-2.3-2-2.9-3.5-0.6-1.4-0.8-3-0.4-4.5 0.3-1.5 1-2.9 2.1-4q0.3-0.2 0.5-0.5 0.3-0.2 0.6-0.4 0.3-0.2 0.6-0.4 0.3-0.1 0.6-0.3l0.4-0.2 0.1-0.4q0.2-0.7 0.6-1.4 0.3-0.7 0.7-1.3 0.5-0.6 1-1.1 0.5-0.6 1.1-1 0.6-0.5 1.3-0.9 0.7-0.3 1.4-0.6 0.7-0.2 1.5-0.3 0.7-0.2 1.5-0.2 0.2 0 0.5 0 0.2 0.1 0.4 0.1 0.3 0 0.5 0 0.3 0.1 0.5 0.1l0.7 0.2 0.4-0.7q0.3-0.8 0.8-1.5 0.5-0.8 1-1.4 0.6-0.7 1.2-1.2 0.7-0.6 1.4-1.1c1.9-1.2 4-1.9 6.2-2 2.2-0.1 4.4 0.4 6.4 1.5 1.9 1 3.5 2.6 4.7 4.5 1.1 1.9 1.7 4 1.7 6.2q0 0.9-0.1 1.7l-0.1 0.8 0.6 0.3c1.6 0.8 2.9 2.1 3.7 3.7z"/></svg>