<svg version="1.2" xmlns="http://www.w3.org/2000/svg" viewBox="0 0 49 39" width="49" height="39"><style>.a{fill:#673de6}</style><path class="a" d="m45.5 10.5c1.1 0.8 2 1.8 2.5 3.1 0.5 1.2 0.6 2.6 0.4 3.9-0.3 1.3-1 2.5-1.9 3.5l-0.5-0.5q-0.6-0.6-1.3-1.1-0.6-0.5-1.4-1-0.8-0.4-1.6-0.7-0.8-0.3-1.7-0.5c-0.5-1.8-1.3-3.6-2.3-5.1-1.1-1.6-2.4-3-3.9-4.1-1.5-1.2-3.2-2.1-5-2.7-1.8-0.6-3.7-0.9-5.5-0.9h-0.7c1.2-1.7 3-3 5-3.8 2-0.7 4.2-0.8 6.2-0.3 2.1 0.6 3.9 1.7 5.3 3.3 1.5 1.6 2.4 3.6 2.6 5.7 1.3 0 2.7 0.4 3.8 1.2z"/><path class="a" d="m44 22.7c1.8 1.7 2.8 4.1 2.8 6.6 0 2.4-1 4.8-2.8 6.5-1.8 1.7-4.2 2.7-6.6 2.6h-28.3c-2.4 0.1-4.8-0.9-6.6-2.6-1.8-1.7-2.8-4.1-2.8-6.5 0-2.5 1-4.9 2.8-6.6 1.8-1.7 4.2-2.7 6.6-2.6 0.5-3.4 2.1-6.6 4.7-8.9 2.6-2.3 6-3.6 9.4-3.6 3.5 0 6.9 1.3 9.5 3.6 2.6 2.3 4.2 5.5 4.7 8.9 2.4-0.1 4.8 0.9 6.6 2.6z"/></svg>