<svg version="1.2" xmlns="http://www.w3.org/2000/svg" viewBox="0 0 41 41" width="41" height="41"><style>.a{fill:#673de6}</style><path class="a" d="m25.4 35q0 0.1 0 0.1 0 0 0.1 0 0 0.1 0 0.1 0 0 0 0.1-0.6 0.2-1.3 0.4-0.6 0.1-1.3 0.2-0.7 0.2-1.3 0.2-0.7 0.1-1.4 0.1-0.5 0-1.1-0.1-0.6 0-1.1-0.1-0.6-0.1-1.2-0.2-0.5-0.1-1.1-0.3l4.8-13.9z"/><path class="a" d="m4.4 18.6q0.1-0.9 0.2-1.7 0.2-0.8 0.5-1.6 0.2-0.8 0.6-1.6l7.6 20.9q-2-1-3.7-2.5-1.7-1.5-2.9-3.4-1.2-1.9-1.8-4.1-0.6-2.1-0.6-4.4 0-0.8 0.1-1.6z"/><path class="a" d="m30.8 20.7q-0.1 0.7-0.2 1.3-0.2 0.7-0.4 1.3-0.2 0.6-0.4 1.3l-1.6 5.3-5.8-17.2c1 0 1.7-0.1 1.8-0.1q0.3-0.1 0.5-0.3c0.1-0.1 0.1-0.3 0.1-0.4q0-0.3-0.2-0.5-0.2-0.1-0.5-0.1c0 0-2.6 0.2-4.2 0.2-1.6 0-4-0.2-4.2-0.2q-0.3 0-0.4 0.1-0.2 0.2-0.2 0.5c-0.1 0.1 0 0.3 0.1 0.4q0.1 0.2 0.4 0.3c0 0 0.8 0.1 1.7 0.1l2.4 6.8-3.4 10.5-5.9-17.3c1 0 1.7-0.1 1.9-0.1q0.2-0.1 0.4-0.3 0.1-0.2 0.1-0.4 0-0.3-0.2-0.5-0.2-0.2-0.4-0.2c0 0-2.6 0.2-4.3 0.2h-1c1.3-1.9 3-3.5 4.9-4.7 2-1.3 4.2-2 6.5-2.3 2.3-0.3 4.6-0.1 6.8 0.6 2.2 0.7 4.2 1.9 5.9 3.4h-0.2q-0.6 0.1-1.1 0.3-0.5 0.2-0.8 0.6-0.4 0.4-0.6 0.9-0.2 0.5-0.2 1.1c0 1.3 0.8 2.4 1.6 3.7q0.3 0.5 0.5 1 0.3 0.6 0.4 1.1 0.2 0.6 0.3 1.2 0.1 0.5 0.1 1.1-0.1 0.7-0.2 1.3z"/><path class="a" d="m34.2 12.6c1 1.8 1.7 3.8 1.9 5.8 0.2 2.1 0.1 4.1-0.5 6.1-0.6 2-1.5 3.9-2.8 5.5-1.2 1.6-2.8 3-4.6 4l4.9-14.1q0.3-0.6 0.5-1.3 0.2-0.7 0.4-1.5 0.1-0.7 0.2-1.4 0.1-0.7 0.1-1.5 0-0.2 0-0.4 0-0.2 0-0.4 0-0.2 0-0.4-0.1-0.2-0.1-0.4z"/><path fill-rule="evenodd" class="a" d="m20.2 0c2.7 0 5.3 0.5 7.8 1.5 2.4 1.1 4.6 2.5 6.5 4.4 1.9 1.9 3.4 4.1 4.4 6.6 1 2.4 1.6 5.1 1.6 7.7 0 8.2-5 15.6-12.5 18.7-7.6 3.1-16.3 1.4-22.1-4.4-5.8-5.8-7.5-14.5-4.4-22 3.2-7.6 10.6-12.5 18.7-12.5zm0 38c2.4 0 4.7-0.5 6.8-1.4 2.2-0.8 4.2-2.1 5.8-3.8 1.7-1.7 3-3.6 3.9-5.8 0.8-2.1 1.3-4.4 1.3-6.8 0-7.1-4.3-13.6-11-16.3-6.6-2.8-14.2-1.2-19.3 3.8-5 5.1-6.5 12.7-3.8 19.3 2.7 6.7 9.2 11 16.3 11z"/></svg>