<svg version="1.2" xmlns="http://www.w3.org/2000/svg" viewBox="0 0 37 44" width="37" height="44"><style>.a{fill:#673de6}</style><path class="a" d="m36.1 4.9c0 1.1-1.8 2.3-4.9 3.3q-1.6 0.4-3.2 0.7-1.7 0.3-3.3 0.5-1.7 0.3-3.3 0.3-1.7 0.1-3.4 0.1-1.6 0-3.3-0.1-1.6 0-3.3-0.3-1.6-0.2-3.3-0.5-1.6-0.3-3.2-0.7c-3.1-1-4.9-2.2-4.9-3.3 0-1.1 1.8-2.3 4.9-3.3q1.6-0.4 3.2-0.7 1.7-0.3 3.3-0.5 1.7-0.3 3.3-0.3 1.7-0.1 3.3-0.1 1.7 0 3.4 0.1 1.6 0 3.3 0.3 1.6 0.2 3.3 0.5 1.6 0.3 3.2 0.7c3.1 1 4.9 2.2 4.9 3.3z"/><path fill-rule="evenodd" class="a" d="m36.1 30.2v7.9c0 1.7-3.8 3.4-9.3 4.3q-1 0.2-2.1 0.3-1.1 0.1-2.2 0.2-1.1 0.1-2.2 0.1-1.1 0.1-2.2 0-1.7 0.1-3.3 0-1.7-0.1-3.3-0.3-1.7-0.2-3.3-0.5-1.7-0.4-3.3-0.8c-3-0.9-4.9-2.1-4.9-3.3v-7.9c3.6 2.3 11 3.6 18.1 3.6 7 0 14.4-1.3 18-3.6zm-14.9 9c0.3 0 0.6-0.1 0.8-0.2 0.2-0.2 0.3-0.5 0.3-0.8 0-0.2-0.1-0.5-0.3-0.7-0.2-0.2-0.5-0.2-0.8-0.2h-6.3c-0.3 0-0.6 0-0.8 0.2-0.2 0.2-0.3 0.5-0.3 0.7 0 0.3 0.1 0.6 0.3 0.8 0.2 0.1 0.5 0.2 0.8 0.2z"/><path fill-rule="evenodd" class="a" d="m36.1 19.2v7.8c0 1.1-1.8 2.3-4.8 3.3q-1.6 0.4-3.3 0.7-1.6 0.3-3.3 0.6-1.6 0.2-3.3 0.3-1.6 0-3.3 0-1.7 0-3.3 0-1.7-0.1-3.3-0.3-1.7-0.3-3.3-0.6-1.7-0.3-3.3-0.7c-3-1-4.9-2.2-4.9-3.3v-7.8c3.6 2.3 11 3.5 18 3.5 7.1 0 14.5-1.2 18.1-3.5zm-14.1 8.5c0.2-0.2 0.3-0.4 0.3-0.7 0-0.3-0.1-0.6-0.3-0.7-0.3-0.2-0.5-0.3-0.8-0.2h-6.3c-0.3-0.1-0.6 0-0.8 0.2-0.2 0.1-0.3 0.4-0.3 0.7 0 0.3 0.1 0.5 0.3 0.7 0.2 0.2 0.5 0.3 0.8 0.2h6.3c0.3 0 0.5 0 0.8-0.2z"/><path fill-rule="evenodd" class="a" d="m36.1 8.1v7.9c0 1.1-1.9 2.3-4.9 3.3q-1.6 0.4-3.2 0.7-1.7 0.3-3.3 0.6-1.7 0.2-3.3 0.3-1.7 0-3.4 0-1.6 0-3.3 0-1.6-0.1-3.3-0.3-1.6-0.3-3.3-0.6-1.6-0.3-3.2-0.7c-3.1-1-4.9-2.2-4.9-3.3v-7.9c3.6 2.3 11 3.6 18.1 3.6 7 0 14.4-1.3 18-3.6zm-14.5 8.9q0.2-0.1 0.4-0.2 0.1-0.2 0.2-0.3 0.1-0.2 0.1-0.4 0-0.2-0.1-0.4-0.1-0.2-0.2-0.3-0.2-0.2-0.4-0.2-0.2-0.1-0.4-0.1h-6.3q-0.2 0-0.4 0.1-0.2 0-0.4 0.2-0.1 0.1-0.2 0.3-0.1 0.2-0.1 0.4 0 0.2 0.1 0.4 0.1 0.1 0.2 0.3 0.2 0.1 0.4 0.2 0.2 0 0.4 0h6.3q0.2 0 0.4 0z"/></svg>