<svg version="1.2" xmlns="http://www.w3.org/2000/svg" viewBox="0 0 43 44" width="43" height="44"><style>.a{fill:#673de6}</style><path class="a" d="m36.3 12.2c1.6 0 3.1 0.6 4.3 1.7 1.2 1 2 2.4 2.2 4 0.3 1.6-0.1 3.2-0.9 4.5-0.9 1.4-2.2 2.4-3.7 2.8v-3.8q0-0.8-0.3-1.5-0.3-0.7-0.8-1.2-0.5-0.5-1.2-0.8-0.7-0.3-1.5-0.3h-25.9q-0.8 0-1.4 0.3-0.7 0.3-1.3 0.8-0.5 0.5-0.8 1.2-0.3 0.7-0.3 1.5v3.2c-1.4-0.8-2.7-1.9-3.5-3.3-0.8-1.5-1.2-3.1-1.2-4.7 0.1-1.6 0.6-3.2 1.5-4.6 0.9-1.3 2.2-2.4 3.7-3.1q0.5-1.9 1.6-3.5 1.1-1.7 2.7-2.9 1.5-1.2 3.4-1.8 1.9-0.7 3.9-0.7 1.5 0 3.1 0.4 1.5 0.5 2.9 1.3 1.4 0.8 2.5 1.9 1.1 1.2 1.9 2.5 1.4 0 2.8 0.4 1.4 0.4 2.5 1.2 1.2 0.8 2 2 0.9 1.2 1.3 2.5h0.5z"/><path fill-rule="evenodd" class="a" d="m34.4 20.1q0.3 0 0.5 0.1 0.2 0.1 0.4 0.3 0.2 0.2 0.3 0.4 0.1 0.2 0.1 0.5v8.9h-28.5v-8.9q0-0.3 0.1-0.5 0.1-0.2 0.3-0.4 0.2-0.2 0.4-0.3 0.2-0.1 0.5-0.1zm-15.4 6.2c0.3-0.3 0.4-0.6 0.4-1 0-0.3-0.1-0.7-0.4-0.9-0.3-0.2-0.6-0.4-1-0.3h-6.7q-0.5 0-0.8 0.4c-0.2 0.2-0.3 0.5-0.3 0.8 0 0.3 0.1 0.7 0.3 0.9q0.3 0.4 0.8 0.4h6.7c0.4 0 0.7-0.1 1-0.3zm7.2 0.3q0.2 0 0.4-0.1 0.3-0.1 0.4-0.3 0.2-0.2 0.3-0.4 0.1-0.2 0.1-0.5c0-0.5-0.3-1-0.8-1.1-0.4-0.2-1-0.1-1.4 0.2-0.3 0.4-0.4 0.9-0.2 1.4 0.2 0.5 0.6 0.8 1.2 0.8zm5.3 0q0.3 0 0.5-0.1 0.2-0.1 0.4-0.3 0.2-0.2 0.3-0.4 0.1-0.2 0.1-0.5c0-0.5-0.3-0.9-0.8-1.1-0.5-0.2-1-0.1-1.4 0.3-0.3 0.3-0.4 0.9-0.2 1.3 0.2 0.5 0.6 0.8 1.1 0.8z"/><path fill-rule="evenodd" class="a" d="m7.2 32.8h28.5v9q0 0.3-0.1 0.5-0.1 0.3-0.3 0.4-0.2 0.2-0.4 0.3-0.2 0.1-0.5 0.1h-25.9q-0.3 0-0.5-0.1-0.2-0.1-0.4-0.3-0.2-0.2-0.3-0.4-0.1-0.2-0.1-0.5zm24.4 3.6q-0.3 0-0.5 0.1-0.2 0-0.4 0.2-0.2 0.2-0.3 0.4-0.1 0.3-0.1 0.5c0 0.5 0.3 1 0.8 1.2 0.5 0.2 1 0.1 1.4-0.3 0.3-0.3 0.4-0.9 0.2-1.4-0.2-0.4-0.6-0.7-1.1-0.7zm-5.4 0q-0.3 0-0.5 0.1-0.2 0-0.4 0.2-0.2 0.2-0.3 0.4-0.1 0.3-0.1 0.5c0 0.5 0.3 1 0.8 1.2 0.5 0.2 1 0.1 1.4-0.3 0.3-0.3 0.5-0.9 0.3-1.4-0.2-0.4-0.7-0.7-1.2-0.7zm-14.8 0q-0.5 0-0.9 0.4c-0.2 0.2-0.3 0.5-0.3 0.8 0 0.3 0.1 0.7 0.3 0.9q0.4 0.3 0.9 0.4h6.7c0.3 0 0.7-0.1 0.9-0.3 0.3-0.3 0.4-0.6 0.4-1 0-0.3-0.1-0.7-0.4-0.9-0.2-0.2-0.6-0.4-0.9-0.3z"/></svg>