<svg id="Layer_1" data-name="Layer 1" xmlns="http://www.w3.org/2000/svg" viewBox="0 0 246.31 126.57"><defs><style>.cls-1{fill:#f36d32;}</style></defs><rect class="cls-1" y="67.38" width="243.97" height="2"/><path class="cls-1" d="M252.48,377a.8.8,0,0,1-.75.49,1.65,1.65,0,0,1-1-.54,13,13,0,0,0-1.61-1.18,12,12,0,0,0-2.53-1.2,11,11,0,0,0-3.75-.55,11.23,11.23,0,0,0-3.92.63,8.36,8.36,0,0,0-2.83,1.74,7.42,7.42,0,0,0-1.74,2.55,8,8,0,0,0-.59,3,6.22,6.22,0,0,0,.88,3.45,8.14,8.14,0,0,0,2.33,2.31,15.17,15.17,0,0,0,3.28,1.61c1.23.43,2.49.86,3.78,1.28s2.55.9,3.78,1.41a13.6,13.6,0,0,1,3.28,1.92,8.88,8.88,0,0,1,2.33,2.85,9,9,0,0,1,.88,4.21,13.26,13.26,0,0,1-.88,4.85,11.37,11.37,0,0,1-2.56,4,11.92,11.92,0,0,1-4.11,2.64,14.83,14.83,0,0,1-5.56,1,15.62,15.62,0,0,1-7-1.43,16.36,16.36,0,0,1-5.12-3.92l.81-1.27a1,1,0,0,1,.81-.44,1.2,1.2,0,0,1,.67.35l1,.86c.39.33.85.7,1.39,1.09a10.82,10.82,0,0,0,1.88,1.1,12.83,12.83,0,0,0,2.46.86,13.11,13.11,0,0,0,3.15.34,12,12,0,0,0,4.34-.73,9.42,9.42,0,0,0,3.23-2,8.46,8.46,0,0,0,2-3,10.07,10.07,0,0,0,.69-3.74,6.62,6.62,0,0,0-.88-3.58,7.65,7.65,0,0,0-2.33-2.34,15.12,15.12,0,0,0-3.28-1.58c-1.23-.42-2.49-.84-3.78-1.24s-2.55-.86-3.77-1.36a12.77,12.77,0,0,1-3.29-1.93,8.83,8.83,0,0,1-2.33-2.92,9.79,9.79,0,0,1-.88-4.38,10.44,10.44,0,0,1,.78-4,10,10,0,0,1,2.29-3.37,11.25,11.25,0,0,1,3.72-2.34,13.45,13.45,0,0,1,5-.88,15.39,15.39,0,0,1,5.72,1,13.64,13.64,0,0,1,4.61,3.1Z" transform="translate(-173.16 -286.89)"/><path class="cls-1" d="M302,410.54,302,413H277.45V372.06H302v2.46H280.43v16.55h17.94v2.4H280.43v17.07Z" transform="translate(-173.16 -286.89)"/><path class="cls-1" d="M360.34,392.52a24.67,24.67,0,0,1-1.42,8.6,18.88,18.88,0,0,1-4,6.6,17.73,17.73,0,0,1-6.18,4.23,21.87,21.87,0,0,1-15.87,0,17.83,17.83,0,0,1-6.16-4.23,18.88,18.88,0,0,1-4-6.6,26.69,26.69,0,0,1,0-17.18,18.88,18.88,0,0,1,4-6.6,18,18,0,0,1,6.16-4.24,21.81,21.81,0,0,1,15.87,0,17.36,17.36,0,0,1,6.18,4.24,19,19,0,0,1,4,6.61A24.59,24.59,0,0,1,360.34,392.52Zm-3.07,0a23.4,23.4,0,0,0-1.18-7.7,16.44,16.44,0,0,0-3.36-5.79,14.41,14.41,0,0,0-5.21-3.63,18.42,18.42,0,0,0-13.39,0,14.53,14.53,0,0,0-5.22,3.63,16.5,16.5,0,0,0-3.39,5.79,25.34,25.34,0,0,0,0,15.41,16.5,16.5,0,0,0,3.39,5.77,14.38,14.38,0,0,0,5.22,3.62,18.69,18.69,0,0,0,13.39,0,14.26,14.26,0,0,0,5.21-3.62,16.44,16.44,0,0,0,3.36-5.77A23.38,23.38,0,0,0,357.27,392.52Z" transform="translate(-173.16 -286.89)"/><path class="cls-1" d="M192.6,299.71h14.7L205,308.42a5.43,5.43,0,0,1-2,2.93,5.24,5.24,0,0,1-3.31,1.1h-6.83a6.62,6.62,0,0,0-4.13,1.37,7.14,7.14,0,0,0-2.51,3.71,6.91,6.91,0,0,0-.09,3.31,7.16,7.16,0,0,0,1.26,2.77,6.63,6.63,0,0,0,2.35,1.92,6.94,6.94,0,0,0,3.12.71h4.16a2.37,2.37,0,0,1,1.92.94,2.25,2.25,0,0,1,.42,2.12l-2.6,9.62h-4.55a18.42,18.42,0,0,1-8.62-2,19.48,19.48,0,0,1-6.54-5.44,19.2,19.2,0,0,1-3.54-7.7,19,19,0,0,1,.23-8.88l.26-1a19.21,19.21,0,0,1,6.86-10.24,19.12,19.12,0,0,1,5.43-2.89A18.66,18.66,0,0,1,192.6,299.71Z" transform="translate(-173.16 -286.89)"/><path class="cls-1" d="M200,338.92l12.81-48a5.43,5.43,0,0,1,1.95-2.93,5.25,5.25,0,0,1,3.32-1.11h13.59a18.48,18.48,0,0,1,8.62,2.05,19.36,19.36,0,0,1,10.11,13.14,18.23,18.23,0,0,1-.26,8.88l-.26,1a19.49,19.49,0,0,1-2.6,5.76,19,19,0,0,1-15.87,8.49H219.66L222,317.4a5.52,5.52,0,0,1,1.95-2.87,5.31,5.31,0,0,1,3.32-1.1H231a6.84,6.84,0,0,0,6.63-5.14,6.29,6.29,0,0,0,.1-3.19,7.13,7.13,0,0,0-1.27-2.76,7,7,0,0,0-2.34-1.95,6.6,6.6,0,0,0-3.12-.75h-7.29L214.26,335a5.55,5.55,0,0,1-1.95,2.86,5.17,5.17,0,0,1-3.25,1.1Z" transform="translate(-173.16 -286.89)"/><path class="cls-1" d="M281.12,313.3l.19-.72a.91.91,0,0,0-.16-.87,1,1,0,0,0-.81-.36H259.2a5.18,5.18,0,0,1-2.47-.59,5.34,5.34,0,0,1-1.82-1.53,5.23,5.23,0,0,1-1-2.18,5.57,5.57,0,0,1,.07-2.53l1.3-4.94h28.61a10.26,10.26,0,0,1,4.88,1.17,11.31,11.31,0,0,1,3.68,3.05,11,11,0,0,1,2,4.33,10.76,10.76,0,0,1-.09,5l-5.14,19.12a8.82,8.82,0,0,1-8.59,6.57l-21.14-.07a11.17,11.17,0,0,1-9-4.39,11.77,11.77,0,0,1-2.08-4.55,10.67,10.67,0,0,1,.13-5.23l.26-1a10.22,10.22,0,0,1,1.53-3.38,11.8,11.8,0,0,1,2.5-2.67,11.28,11.28,0,0,1,6.9-2.34h17.75l-1.3,4.88a5.55,5.55,0,0,1-1.95,2.86,5.17,5.17,0,0,1-3.25,1.1H263.1a1.38,1.38,0,0,0-1.43,1.11,1.35,1.35,0,0,0,.26,1.27,1.43,1.43,0,0,0,1.17.55h12.81a2,2,0,0,0,1.24-.39,1.67,1.67,0,0,0,.65-1l.13-.52Z" transform="translate(-173.16 -286.89)"/><path class="cls-1" d="M319,299.71a18.57,18.57,0,0,1,8.68,2,19.57,19.57,0,0,1,6.54,5.43,19.3,19.3,0,0,1,3.54,7.74,18.6,18.6,0,0,1-.29,8.91l-3.25,12.23a3.55,3.55,0,0,1-1.4,2.08,3.94,3.94,0,0,1-2.37.78h-7a2.32,2.32,0,0,1-1.95-.94,2.28,2.28,0,0,1-.39-2.11L325,321.1a6.25,6.25,0,0,0,.1-3.18,7.17,7.17,0,0,0-1.27-2.77,7,7,0,0,0-2.34-1.95,6.6,6.6,0,0,0-3.12-.75H311l-6.3,23.61a3.59,3.59,0,0,1-1.4,2.08,4.06,4.06,0,0,1-2.44.78h-7A2.34,2.34,0,0,1,292,338a2.24,2.24,0,0,1-.42-2.11l9.62-36.16Z" transform="translate(-173.16 -286.89)"/><path class="cls-1" d="M357.28,312.1a3.34,3.34,0,0,0-1.11,1.59l-2.93,11.06a2,2,0,0,0,1.89,2.47h26.93L380,335a5.51,5.51,0,0,1-2,2.86,5.13,5.13,0,0,1-3.25,1.1H350.25a10.62,10.62,0,0,1-4.88-1.13,10.8,10.8,0,0,1-3.67-3.06,11.12,11.12,0,0,1-2-4.36,10,10,0,0,1,.17-5l4-14.77a14.68,14.68,0,0,1,9.4-10.11,14.33,14.33,0,0,1,4.78-.81h17.37a10.31,10.31,0,0,1,4.88,1.17,11.38,11.38,0,0,1,3.67,3.05,10.41,10.41,0,0,1,2,4.36,10.76,10.76,0,0,1-.13,5l-1.17,4.42a8.51,8.51,0,0,1-3.15,4.72,8.7,8.7,0,0,1-5.37,1.79H356.43l1.3-4.82a5.12,5.12,0,0,1,1.89-2.86,5.25,5.25,0,0,1,3.32-1.11h7.93a1.37,1.37,0,0,0,1.43-1.1l.26-1a1.42,1.42,0,0,0-.26-1.3,1.4,1.4,0,0,0-1.17-.58H359A2.7,2.7,0,0,0,357.28,312.1Z" transform="translate(-173.16 -286.89)"/><path class="cls-1" d="M382,338.92l13.07-49.1a3.73,3.73,0,0,1,1.4-2.11,3.9,3.9,0,0,1,2.44-.82h7a2.41,2.41,0,0,1,2,.95,2.27,2.27,0,0,1,.43,2.11l-9.76,36.23a16.28,16.28,0,0,1-2.31,5.2,17.11,17.11,0,0,1-3.77,4,17.81,17.81,0,0,1-4.85,2.6A16.61,16.61,0,0,1,382,338.92Z" transform="translate(-173.16 -286.89)"/><path class="cls-1" d="M410.51,291.46a4.53,4.53,0,0,1,2.23-3.88,4.48,4.48,0,0,1,4.48,0,4.47,4.47,0,0,1,1.66,6.08,4.32,4.32,0,0,1-1.61,1.65,4.47,4.47,0,0,1-6.76-3.85Zm.62,0a3.85,3.85,0,0,0,.52,1.93,3.92,3.92,0,0,0,1.42,1.41,3.78,3.78,0,0,0,1.92.51,3.69,3.69,0,0,0,1.92-.52,3.86,3.86,0,0,0,1.41-1.4,3.82,3.82,0,0,0,0-3.85,3.94,3.94,0,0,0-1.4-1.41,3.87,3.87,0,0,0-5.79,3.33Zm5.67-1.08a1.46,1.46,0,0,1-.25.84,1.55,1.55,0,0,1-.71.54l1.41,2.35h-1L415,292h-.8v2.1h-.88v-5.3h1.55a2.22,2.22,0,0,1,1.45.39A1.45,1.45,0,0,1,416.8,290.38Zm-2.58.9h.64a1.19,1.19,0,0,0,.77-.25.81.81,0,0,0,.28-.63.75.75,0,0,0-.25-.64,1.34,1.34,0,0,0-.81-.19h-.63Z" transform="translate(-173.16 -286.89)"/></svg>