<svg xmlns="http://www.w3.org/2000/svg" viewBox="0 0 41 41" width="41" height="41">
	<style>
		tspan { white-space:pre }
		.shp0 { fill: #00a63f } 
	</style>
	<g id="Layer_2">
		<g id="Layer_1-2">
			<path id="Layer" class="shp0" d="M20.5 21.62L15.72 35.52C16.09 35.63 16.45 35.72 16.83 35.8C17.2 35.88 17.57 35.95 17.95 36.01C18.33 36.06 18.71 36.1 19.09 36.13C19.47 36.16 19.85 36.17 20.23 36.17C20.68 36.17 21.13 36.15 21.58 36.11C22.02 36.08 22.47 36.02 22.91 35.94C23.36 35.87 23.8 35.77 24.23 35.66C24.67 35.54 25.1 35.41 25.52 35.26C25.51 35.24 25.5 35.23 25.49 35.21C25.48 35.19 25.47 35.17 25.46 35.15C25.45 35.13 25.44 35.12 25.43 35.1C25.42 35.08 25.42 35.06 25.41 35.04L20.5 21.62Z" />
			<path id="Layer" class="shp0" d="M4.28 20.23C4.28 21.72 4.49 23.2 4.9 24.63C5.31 26.07 5.93 27.43 6.72 28.69C7.51 29.96 8.47 31.1 9.58 32.09C10.69 33.09 11.94 33.92 13.28 34.57L5.67 13.74C5.44 14.25 5.24 14.77 5.07 15.3C4.89 15.83 4.75 16.37 4.63 16.91C4.51 17.46 4.43 18.01 4.37 18.56C4.31 19.12 4.28 19.67 4.28 20.23L4.28 20.23Z" />
			<path id="Layer" class="shp0" d="M31 19.42C30.99 19.03 30.96 18.64 30.9 18.26C30.84 17.87 30.76 17.49 30.64 17.12C30.53 16.74 30.39 16.38 30.23 16.02C30.07 15.67 29.88 15.33 29.67 15C28.86 13.69 28.11 12.58 28.11 11.27C28.1 10.91 28.16 10.55 28.29 10.21C28.42 9.88 28.61 9.57 28.86 9.3C29.11 9.04 29.41 8.83 29.74 8.68C30.06 8.53 30.42 8.45 30.78 8.44L31 8.44C29.3 6.88 27.28 5.71 25.08 5C22.88 4.3 20.56 4.08 18.27 4.37C15.98 4.66 13.77 5.44 11.81 6.66C9.86 7.88 8.19 9.51 6.92 11.44L7.92 11.44C9.59 11.44 12.17 11.24 12.17 11.24C12.33 11.24 12.49 11.31 12.61 11.42C12.73 11.53 12.8 11.69 12.81 11.85C12.83 12.01 12.78 12.18 12.68 12.3C12.58 12.43 12.43 12.52 12.27 12.55C12.11 12.58 11.41 12.65 10.45 12.7L16.26 30L19.75 19.54L17.27 12.73C16.41 12.68 15.6 12.58 15.6 12.58C15.44 12.55 15.29 12.46 15.19 12.33C15.09 12.21 15.04 12.04 15.06 11.88C15.07 11.72 15.14 11.56 15.26 11.45C15.38 11.34 15.54 11.27 15.7 11.27C15.86 11.27 18.33 11.47 19.9 11.47C21.47 11.47 24.15 11.27 24.15 11.27C24.31 11.27 24.47 11.34 24.59 11.45C24.71 11.56 24.78 11.72 24.79 11.88C24.81 12.04 24.76 12.21 24.66 12.33C24.56 12.46 24.41 12.55 24.25 12.58C24.09 12.61 23.38 12.68 22.42 12.73L28.18 29.87L29.77 24.55C29.93 24.14 30.08 23.72 30.21 23.3C30.34 22.88 30.46 22.46 30.56 22.03C30.67 21.6 30.75 21.17 30.83 20.73C30.9 20.3 30.96 19.86 31 19.42L31 19.42Z" />
			<path id="Layer" class="shp0" d="M34.21 12.58C34.23 12.72 34.24 12.85 34.26 12.99C34.27 13.12 34.28 13.26 34.29 13.4C34.3 13.53 34.31 13.67 34.31 13.81C34.32 13.95 34.32 14.08 34.32 14.22C34.31 14.71 34.28 15.2 34.23 15.68C34.17 16.17 34.1 16.66 33.99 17.13C33.89 17.61 33.77 18.09 33.62 18.55C33.47 19.02 33.3 19.48 33.11 19.93L28.24 34C30.02 32.97 31.59 31.6 32.85 29.98C34.11 28.35 35.05 26.49 35.6 24.51C36.16 22.53 36.32 20.46 36.09 18.41C35.86 16.37 35.23 14.39 34.24 12.58L34.21 12.58Z" />
			<path id="Layer" fill-rule="evenodd" class="shp0" d="M20.23 0C22.89 0 25.52 0.53 27.97 1.54C30.42 2.56 32.65 4.05 34.53 5.93C36.41 7.81 37.9 10.04 38.91 12.49C39.93 14.94 40.45 17.57 40.45 20.23C40.45 28.41 35.52 35.79 27.96 38.92C20.4 42.05 11.7 40.32 5.91 34.53C0.13 28.74 -1.6 20.04 1.53 12.48C4.67 4.92 12.05 0 20.23 0ZM20.23 38C22.56 38 24.88 37.54 27.03 36.65C29.19 35.76 31.15 34.45 32.8 32.8C34.45 31.15 35.76 29.19 36.65 27.03C37.54 24.88 38 22.56 38 20.23C37.98 13.07 33.66 6.62 27.04 3.88C20.41 1.15 12.8 2.67 7.73 7.73C2.67 12.8 1.15 20.41 3.88 27.04C6.62 33.66 13.07 37.98 20.23 38Z" />
		</g>
	</g>
</svg>