<svg xmlns="http://www.w3.org/2000/svg" viewBox="0 0 47.9 39.92"><defs><style>.cls-1{fill:#f51322;}</style></defs><g id="Layer_2" data-name="Layer 2"><g id="Layer_1-2" data-name="Layer 1"><path class="cls-1" d="M4,14H39.92a4,4,0,0,0,4-4V4a4,4,0,0,0-4-4H4A4,4,0,0,0,0,4v6A4,4,0,0,0,4,14ZM35.92,5a2,2,0,1,1-2,2A2,2,0,0,1,35.92,5Zm-6,0a2,2,0,1,1-2,2A2,2,0,0,1,29.94,5ZM14,5a1,1,0,0,1,2,0V9a1,1,0,0,1-2,0V5ZM10,5a1,1,0,1,1,2,0V9a1,1,0,1,1-2,0V5ZM6,5A1,1,0,1,1,8,5V9A1,1,0,1,1,6,9Z"/><path class="cls-1" d="M30.27,17.82A1,1,0,0,0,29.75,16H4a4,4,0,0,0-4,4v6a4,4,0,0,0,4,4H23a1,1,0,0,0,1-1A12.86,12.86,0,0,1,30.27,17.82ZM8,25a1,1,0,1,1-2,0V21a1,1,0,1,1,2,0v4Zm4,0a1,1,0,1,1-2,0V21a1,1,0,1,1,2,0Zm4,0a1,1,0,0,1-2,0V21a1,1,0,0,1,2,0v4Z"/><path class="cls-1" d="M36.92,18a11,11,0,1,0,11,11A11,11,0,0,0,36.92,18Zm4.7,9.69a1,1,0,0,1-1.41,0l-2.29-2.29v9.57a1,1,0,0,1-2,0V25.36l-2.28,2.29a1,1,0,0,1-1.41-1.41l4-4a1,1,0,0,1,1.41,0l4,4A1,1,0,0,1,41.62,27.65Z"/></g></g></svg>