<svg xmlns="http://www.w3.org/2000/svg" viewBox="0 0 35.3 41.45"><defs><style>.cls-1{fill:#f51322;}</style></defs><g id="Layer_2" data-name="Layer 2"><g id="Layer_1-2" data-name="Layer 1"><path class="cls-1" d="M8,14.25H7.44v3.81h.41a1.47,1.47,0,0,0,1.23-.49,2.34,2.34,0,0,0,.39-1.48A2.14,2.14,0,0,0,9.1,14.7,1.37,1.37,0,0,0,8,14.25Z"/><path class="cls-1" d="M21.88,15.56a.64.64,0,0,0-.6.34,2.27,2.27,0,0,0-.18,1,2.4,2.4,0,0,0,.18,1,.65.65,0,0,0,.61.35.61.61,0,0,0,.6-.35,2.4,2.4,0,0,0,.18-1,2.27,2.27,0,0,0-.18-1A.63.63,0,0,0,21.88,15.56Z"/><path class="cls-1" d="M16.07,17.57a2.34,2.34,0,0,0,.39-1.48,2.14,2.14,0,0,0-.37-1.39A1.36,1.36,0,0,0,15,14.25h-.53v3.81h.4A1.47,1.47,0,0,0,16.07,17.57Z"/><path class="cls-1" d="M35.26,11.25v0c0-.39,0-.82,0-1.28a4.4,4.4,0,0,0-4.14-4.31A17,17,0,0,1,19.48.73l0,0a2.63,2.63,0,0,0-3.6,0l0,0A17,17,0,0,1,4.22,5.62,4.39,4.39,0,0,0,.08,9.93c0,.46,0,.88,0,1.28v.08C0,16.15-.17,22.2,1.86,27.69a20.92,20.92,0,0,0,5,7.8,26.34,26.34,0,0,0,9.8,5.79,2.75,2.75,0,0,0,.41.11,2.78,2.78,0,0,0,.58.06,2.86,2.86,0,0,0,.58-.06,3.11,3.11,0,0,0,.41-.11,26.06,26.06,0,0,0,9.78-5.8,20.86,20.86,0,0,0,5-7.8C35.46,22.17,35.35,16.12,35.26,11.25ZM12.6,12.77H15a3.54,3.54,0,0,1,2.53.83A3.19,3.19,0,0,1,18.37,16a3.51,3.51,0,0,1-.94,2.63,3.6,3.6,0,0,1-2.63.92H12.6Zm-2.16,5.88a3.61,3.61,0,0,1-2.64.92H5.6v-6.8H8a3.56,3.56,0,0,1,2.53.83A3.19,3.19,0,0,1,11.38,16,3.51,3.51,0,0,1,10.44,18.65Zm12.93,6.66-6.79,6.78a1.41,1.41,0,0,1-1,.43,1.45,1.45,0,0,1-1-.43L11.93,29.5A1.46,1.46,0,1,1,14,27.44L15.55,29l5.75-5.75a1.46,1.46,0,0,1,2.07,2.06Zm.45-6.37a2.57,2.57,0,0,1-1.94.72A2.53,2.53,0,0,1,20,18.92a2.73,2.73,0,0,1-.71-2,2.75,2.75,0,0,1,.69-2,2.6,2.6,0,0,1,1.95-.72,2.82,2.82,0,0,1,1.38.33,2.34,2.34,0,0,1,.92,1,3.12,3.12,0,0,1,.32,1.44A2.77,2.77,0,0,1,23.82,18.94Zm3.6-4a7.77,7.77,0,0,0,1.13.58,3.15,3.15,0,0,1,1.22.85,1.82,1.82,0,0,1,.34,1.14,2,2,0,0,1-1.25,1.89,3.41,3.41,0,0,1-1.41.27,6,6,0,0,1-1.14-.09,4.43,4.43,0,0,1-1-.34V17.6a5.34,5.34,0,0,0,1.09.42,4.14,4.14,0,0,0,1,.15,1,1,0,0,0,.6-.14.44.44,0,0,0,.19-.37.4.4,0,0,0-.07-.24A1.14,1.14,0,0,0,28,17.2c-.11-.07-.41-.21-.9-.43a4.1,4.1,0,0,1-1-.59,1.93,1.93,0,0,1-.5-.65,2.33,2.33,0,0,1-.16-.87,1.74,1.74,0,0,1,.69-1.47A3,3,0,0,1,28,12.67a5.2,5.2,0,0,1,2.15.49l-.56,1.42a4,4,0,0,0-1.65-.44.89.89,0,0,0-.52.12.39.39,0,0,0-.16.32A.45.45,0,0,0,27.42,14.93Z"/></g></g></svg>