<svg xmlns="http://www.w3.org/2000/svg" viewBox="0 0 42.16 42.16"><defs><style>.cls-1{fill:#f51322;}</style></defs><g id="Layer_2" data-name="Layer 2"><g id="Layer_1-2" data-name="Layer 1"><g id="SSL"><path class="cls-1" d="M31,27.17a26.42,26.42,0,0,1-10,9.71,26.42,26.42,0,0,1-9.95-9.71Z"/><path class="cls-1" d="M34.68,12.89V9.1L21.08,4.92,7.48,9.1v3.79Z"/><path class="cls-1" d="M21.08,36.1a25.72,25.72,0,0,0,8.73-8.25H12.35A25.72,25.72,0,0,0,21.08,36.1Z"/><path class="cls-1" d="M8.16,9.6v2.61H34V9.6l-12.92-4ZM19,10.85H17.68V9.49H19Zm4.08-1.36h1.36v1.36H23.12Zm-1.36,1.36H20.4V9.49h1.36Z"/><path class="cls-1" d="M17.68,9.49H19v1.36H17.68Z"/><path class="cls-1" d="M20.4,9.49h1.36v1.36H20.4Z"/><path class="cls-1" d="M23.12,9.49h1.36v1.36H23.12Z"/><path class="cls-1" d="M40.12,12.2H35.36V9.08a.68.68,0,0,0-.48-.65L21.28,4.24a.68.68,0,0,0-.4,0L7.28,8.43a.68.68,0,0,0-.48.65v4.48H40.12a.67.67,0,0,1,.68.68V25.82a.68.68,0,0,1-.68.68H2a.68.68,0,0,1-.68-.68V14.24A.67.67,0,0,1,2,13.56h3.4V12.2H4.08V7.07a.67.67,0,0,1,.48-.65l16.32-5a.68.68,0,0,1,.4,0l16.32,5a.67.67,0,0,1,.48.65v3.76h1.36V7.07A2,2,0,0,0,38,5.12L21.68.09a2,2,0,0,0-1.2,0l-16.32,5a2,2,0,0,0-1.44,2V12.2H2a2,2,0,0,0-2,2V25.82a2,2,0,0,0,2,2h8.72a27,27,0,0,0,10,9.64.7.7,0,0,0,.66,0,27,27,0,0,0,10-9.64h3.16A29.92,29.92,0,0,1,21.08,40.73,29.6,29.6,0,0,1,8.16,28.86L7,29.55a31.83,31.83,0,0,0,3.74,5.12h-6V36H12a30.33,30.33,0,0,0,3.17,2.72H4.76v1.37H17.17a30.29,30.29,0,0,0,3.63,2,.68.68,0,0,0,.56,0,31.91,31.91,0,0,0,3.63-2H37.4V38.75H27A30.22,30.22,0,0,0,30.12,36H37.4V34.67h-6a31.17,31.17,0,0,0,4.67-6.81h4a2,2,0,0,0,2-2V14.24a2,2,0,0,0-2-2Zm-6.12,0H8.16V9.6l12.92-4L34,9.6ZM21.08,36.1a25.72,25.72,0,0,1-8.73-8.25H29.81a25.72,25.72,0,0,1-8.73,8.25Z"/><path class="cls-1" d="M13.78,22.25a2.3,2.3,0,0,1-1.51,0,2.91,2.91,0,0,1-.73-.46.75.75,0,0,0-1,.07A.82.82,0,0,0,10.59,23a.18.18,0,0,0,.07.05,3,3,0,0,0,1.15.66,4.07,4.07,0,0,0,2.69-.08,2.18,2.18,0,0,0,1.44-2,1.93,1.93,0,0,0-1.5-2c-.77-.25-1.26-.26-1.88-.47-.34-.12-.58-.3-.58-.66a.64.64,0,0,1,.49-.6,1.93,1.93,0,0,1,1.21,0,2.59,2.59,0,0,1,1,.46.75.75,0,0,0,1-.24.71.71,0,0,0,.11-.4.85.85,0,0,0-.35-.67,3,3,0,0,0-1-.54,3.92,3.92,0,0,0-2.64.05,2.12,2.12,0,0,0-1.37,2,2,2,0,0,0,1.38,2c.78.31,1.26.22,1.92.48.37.14.64.33.64.72s-.31.51-.59.61Z"/><path class="cls-1" d="M21.91,22.25a2.3,2.3,0,0,1-1.51,0,2.91,2.91,0,0,1-.73-.46.75.75,0,0,0-1,.07.81.81,0,0,0,0,1.15.18.18,0,0,0,.07.05,3,3,0,0,0,1.15.66,4.07,4.07,0,0,0,2.69-.08,2.18,2.18,0,0,0,1.44-2,1.93,1.93,0,0,0-1.5-2c-.78-.26-1.25-.25-1.88-.47-.34-.12-.58-.3-.58-.66a.64.64,0,0,1,.49-.6,1.93,1.93,0,0,1,1.21,0,2.67,2.67,0,0,1,1,.46.69.69,0,0,0,.91-.11.78.78,0,0,0,0-1.1l-.12-.1a3,3,0,0,0-1-.54,3.92,3.92,0,0,0-2.64.05,2.12,2.12,0,0,0-1.37,2,2,2,0,0,0,1.38,2c.78.31,1.26.22,1.92.48.36.14.64.33.64.72s-.31.51-.59.61Z"/><path class="cls-1" d="M28.31,16.51a.82.82,0,0,0-1.14,0,.73.73,0,0,0-.23.56V23a.77.77,0,0,0,.76.79h3.35a.78.78,0,0,0,.79-.74.76.76,0,0,0-.74-.79H28.55V17.08A.74.74,0,0,0,28.31,16.51Z"/></g></g></g></svg>