<svg xmlns="http://www.w3.org/2000/svg" viewBox="0 0 39.58 45.46"><defs><style>.cls-1{fill:none;}.cls-2{fill:#f51322;}</style></defs><g id="Layer_2" data-name="Layer 2"><g id="Layer_1-2" data-name="Layer 1"><path class="cls-1" d="M8.63,35.83a3.43,3.43,0,1,0,3.42,3.42A3.42,3.42,0,0,0,8.63,35.83Z"/><path class="cls-1" d="M32.23,43.31a2.6,2.6,0,1,0-2.6-2.6A2.6,2.6,0,0,0,32.23,43.31Z"/><path class="cls-1" d="M4.24,8.59a2,2,0,1,0,2,2A2,2,0,0,0,4.24,8.59Z"/><path class="cls-1" d="M33.38,8.37A3.09,3.09,0,1,0,30.3,5.29,3.08,3.08,0,0,0,33.38,8.37Z"/><path class="cls-1" d="M35.36,27.41a2,2,0,1,0-2-2.05A2,2,0,0,0,35.36,27.41Z"/><path class="cls-2" d="M8.06,12.41a4.23,4.23,0,1,0-1.4,1.67l5.47,4.24a8.88,8.88,0,0,1,1.23-1.79Zm-3.82.26a2,2,0,1,1,2-2A2.05,2.05,0,0,1,4.24,12.67Z"/><path class="cls-2" d="M31.3,10.12a5.27,5.27,0,1,0-1.78-1.26l-4.1,5.79A9,9,0,0,1,27.14,16ZM33.38,2.2A3.09,3.09,0,1,1,30.3,5.29,3.09,3.09,0,0,1,33.38,2.2Z"/><path class="cls-2" d="M28.65,37.56a4.77,4.77,0,1,0,1.77-1.26L26.3,30.21a10,10,0,0,1-1.86,1.13Zm3.58.55a2.6,2.6,0,1,1-2.6,2.6A2.61,2.61,0,0,1,32.23,38.11Z"/><path class="cls-2" d="M11.35,34.36A5.64,5.64,0,1,0,13,35.78l3.24-4.59A10,10,0,0,1,14.43,30ZM8.63,42.68a3.43,3.43,0,1,1,3.42-3.43A3.43,3.43,0,0,1,8.63,42.68Z"/><path class="cls-2" d="M31.15,25.63a4.23,4.23,0,1,0,.43-2.13L30,23.17a9.46,9.46,0,0,1-.34,2.15Zm4.21-2.31a2,2,0,1,1-2,2A2,2,0,0,1,35.36,23.32Z"/><path class="cls-2" d="M27.14,16a9,9,0,0,0-1.72-1.34,9.34,9.34,0,0,0-4.92-1.39,9.44,9.44,0,0,0-7.14,3.27,8.88,8.88,0,0,0-1.23,1.79A9.44,9.44,0,0,0,14.43,30a10,10,0,0,0,1.82,1.19,9.36,9.36,0,0,0,8.19.15,10,10,0,0,0,1.86-1.13,9.34,9.34,0,0,0,3.65-7c0-.14,0-.29,0-.44A9.42,9.42,0,0,0,27.14,16ZM28,22.78a7.26,7.26,0,0,1-.32,2.15,7.56,7.56,0,0,1-4.35,4.73,7.36,7.36,0,0,1-5.88-.13,7.35,7.35,0,0,1-1.83-1.18,7.43,7.43,0,0,1-1.85-8.78,7.86,7.86,0,0,1,1.2-1.82,7.44,7.44,0,0,1,9.33-1.46A7.7,7.7,0,0,1,26,17.65a7.44,7.44,0,0,1,2,5.08S28,22.76,28,22.78Z"/><path class="cls-2" d="M21.56,19.9a1.85,1.85,0,0,1,.87,1.38,1.5,1.5,0,0,0,.63.15,1.51,1.51,0,1,0-1.5-1.53Zm-1,3.08a1.51,1.51,0,1,0-1.5-1.5A1.5,1.5,0,0,0,20.58,23Zm.64.1H19.94A1.92,1.92,0,0,0,18,25v1.59l.11,0a8.6,8.6,0,0,0,2.61.42A5.29,5.29,0,0,0,23,26.61l.1-.05h0V25A1.92,1.92,0,0,0,21.22,23.08Zm2.48-1.55H22.44a1.85,1.85,0,0,1-.58,1.29A2.28,2.28,0,0,1,23.5,25v.48a5,5,0,0,0,2-.43l.1,0h0V23.45A1.92,1.92,0,0,0,23.7,21.53Zm-5.76-.1a1.45,1.45,0,0,0,.8-.24,1.81,1.81,0,0,1,.7-1.18v-.09a1.5,1.5,0,1,0-1.5,1.51Zm1.35,1.39a1.88,1.88,0,0,1-.57-1.28H17.3a1.92,1.92,0,0,0-1.92,1.92V25l.1,0a9.38,9.38,0,0,0,2.17.41V25A2.28,2.28,0,0,1,19.29,22.82Z"/></g></g></svg>