<svg xmlns="http://www.w3.org/2000/svg" viewBox="0 0 42.69 36.64"><defs><style>.cls-1{fill:#f51322;}.cls-2{fill:#fff;}</style></defs><g id="Layer_2" data-name="Layer 2"><g id="Layer_1-2" data-name="Layer 1"><path class="cls-1" d="M34.11,13.51a7.52,7.52,0,0,0-5.83-6.66,7.49,7.49,0,0,0-14.91-.18h0a7.49,7.49,0,0,0-7.46,6.84,7.49,7.49,0,0,0,1.63,14.8H10V26.65H7.49A5.83,5.83,0,0,1,6.77,15a.88.88,0,0,0,.72-.88,5.84,5.84,0,0,1,5.83-5.83h.83A.84.84,0,0,0,15,7.5a5.83,5.83,0,1,1,11.65,0v.1a.83.83,0,0,0,.73.82,5.83,5.83,0,0,1,5.1,5.75v.09a.82.82,0,0,0,.73.82,5.83,5.83,0,0,1-.73,11.61h-.83v1.66h.83a7.49,7.49,0,0,0,1.64-14.8Z"/><path class="cls-1" d="M16.65,7.5h1.67A2.49,2.49,0,0,1,20.81,5V3.34A4.16,4.16,0,0,0,16.65,7.5Z"/><path class="cls-1" d="M30,19.15h-2.1c-.09-.24-.19-.49-.3-.72l1.49-1.49a.83.83,0,0,0,0-1.17L26.7,13.41a.83.83,0,0,0-1.18,0L24,14.9a6.66,6.66,0,0,0-.73-.31v-2.1a.83.83,0,0,0-.83-.83H19.15a.83.83,0,0,0-.83.83v2.1c-.25.09-.49.19-.73.3L16.1,13.41a.82.82,0,0,0-1.17,0l-2.36,2.36a.83.83,0,0,0,0,1.17l1.49,1.49a6.51,6.51,0,0,0-.31.72H11.66a.85.85,0,0,0-.84.84v3.33a.84.84,0,0,0,.84.83h2.09a6.66,6.66,0,0,0,.31.73l-1.49,1.48a.85.85,0,0,0,0,1.18l2.36,2.35a.82.82,0,0,0,1.17,0l1.49-1.48c.24.11.48.21.73.3v2.1a.83.83,0,0,0,.83.83h3.33a.83.83,0,0,0,.83-.83v-2.1c.25-.09.49-.19.73-.3l1.48,1.48a.83.83,0,0,0,1.18,0l2.36-2.35a.85.85,0,0,0,0-1.18l-1.49-1.48c.11-.24.21-.48.3-.73H30a.83.83,0,0,0,.83-.83V20A.84.84,0,0,0,30,19.15Z"/><path class="cls-2" d="M20.81,18.32a3.33,3.33,0,1,0,3.33,3.33A3.33,3.33,0,0,0,20.81,18.32Zm0,5a1.67,1.67,0,1,1,1.67-1.67A1.66,1.66,0,0,1,20.81,23.32Z"/><path class="cls-1" d="M20,30.81V35H3.33v1.67H20.05A1.65,1.65,0,0,0,21.65,35V30.81Z"/><rect class="cls-1" x="23.31" y="34.97" width="13.32" height="1.67"/><rect class="cls-1" y="34.97" width="1.67" height="1.67"/><rect class="cls-1" x="40.91" y="34.86" width="1.78" height="1.78"/></g></g></svg>