<svg xmlns="http://www.w3.org/2000/svg" viewBox="0 0 42.45 42.62"><defs><style>.cls-1{fill:none;}.cls-2{fill:#f51322;}</style></defs><g id="Layer_2" data-name="Layer 2"><g id="Layer_1-2" data-name="Layer 1"><path class="cls-1" d="M35.87,14.57a4.32,4.32,0,0,0-1.08.14,1.24,1.24,0,0,1-1-.15,1.27,1.27,0,0,1-.56-.86,6,6,0,0,0-6-5.13,6.11,6.11,0,0,0-.86.06,1.23,1.23,0,0,1-1.3-.69,9.51,9.51,0,0,0-8.5-5.44A9.48,9.48,0,0,0,7.37,10a1.24,1.24,0,0,1-.81.91A6.09,6.09,0,0,0,4.66,21.3V18.64A1.25,1.25,0,0,1,5.91,17.4H36.54a1.25,1.25,0,0,1,1.25,1.24v3.61a4.08,4.08,0,0,0-1.92-7.68Z"/><path class="cls-2" d="M35.87,12.07a3.77,3.77,0,0,0-.47,0,8.58,8.58,0,0,0-8.5-6A12,12,0,0,0,16.56,0,12,12,0,0,0,5.09,8.81a8.58,8.58,0,0,0-.43,15.47v4.43H37.79V24.93a6.57,6.57,0,0,0-1.92-12.86ZM21.55,24.78H9a1.85,1.85,0,1,1,0-3.7H21.55a1.85,1.85,0,0,1,0,3.7Zm6,0a1.85,1.85,0,1,1,1.85-1.85A1.85,1.85,0,0,1,27.58,24.78Zm5.56,0A1.85,1.85,0,1,1,35,22.93,1.85,1.85,0,0,1,33.14,24.78Zm4.65-2.53V18.64a1.25,1.25,0,0,0-1.25-1.24H5.91a1.25,1.25,0,0,0-1.25,1.24V21.3a6.09,6.09,0,0,1,1.9-10.39A1.24,1.24,0,0,0,7.37,10a9.48,9.48,0,0,1,9.19-7.5,9.51,9.51,0,0,1,8.5,5.44,1.23,1.23,0,0,0,1.3.69,6.11,6.11,0,0,1,.86-.06,6,6,0,0,1,6,5.13,1.27,1.27,0,0,0,.56.86,1.24,1.24,0,0,0,1,.15,4.32,4.32,0,0,1,1.08-.14,4.08,4.08,0,0,1,1.92,7.68Z"/><path class="cls-2" d="M7.16,31.22H4.66V41.37a1.25,1.25,0,0,0,1.25,1.25H36.54a1.25,1.25,0,0,0,1.25-1.25V31.22H7.16Zm14.39,7.55H9a1.85,1.85,0,1,1,0-3.7H21.55a1.85,1.85,0,0,1,0,3.7Zm6,0a1.85,1.85,0,1,1,1.85-1.85A1.85,1.85,0,0,1,27.58,38.77Zm5.56,0A1.85,1.85,0,1,1,35,36.92,1.85,1.85,0,0,1,33.14,38.77Z"/></g></g></svg>