<svg xmlns="http://www.w3.org/2000/svg" viewBox="0 0 492 410" width="492" height="410">
	<style>
		tspan { white-space:pre }
		.shp0 { fill: #feebdc } 
	</style>
	<g id="Layer">
		<g id="Layer">
			<path id="Layer" class="shp0" d="M484.14 185.89L306.46 8.2C301.39 3.13 294.63 0.35 287.42 0.35C280.2 0.35 273.45 3.13 268.38 8.2L252.24 24.34C247.18 29.4 244.38 36.17 244.38 43.38C244.38 50.59 247.18 57.58 252.24 62.64L355.9 166.53L26.58 166.53C11.73 166.53 0 178.15 0 193L0 215.81C0 230.67 11.73 243.46 26.58 243.46L357.08 243.46L252.25 347.93C247.18 353 244.39 359.58 244.39 366.79C244.39 373.99 247.18 380.67 252.25 385.74L268.38 401.82C273.45 406.89 280.21 409.66 287.42 409.66C294.63 409.66 301.39 406.86 306.46 401.79L484.14 224.11C489.23 219.02 492.02 212.23 492 205.01C492.02 197.76 489.23 190.97 484.14 185.89Z" />
		</g>
	</g>
</svg>