<svg xmlns="http://www.w3.org/2000/svg" width="50" height="34" viewBox="0 0 50 34">
  <metadata><?xpacket begin="﻿" id="W5M0MpCehiHzreSzNTczkc9d"?>
<x:xmpmeta xmlns:x="adobe:ns:meta/" x:xmptk="Adobe XMP Core 5.6-c138 79.159824, 2016/09/14-01:09:01        ">
   <rdf:RDF xmlns:rdf="http://www.w3.org/1999/02/22-rdf-syntax-ns#">
      <rdf:Description rdf:about=""/>
   </rdf:RDF>
</x:xmpmeta>
                                                                                                    
                                                                                                    
                                                                                                    
                                                                                                    
                                                                                                    
                                                                                                    
                                                                                                    
                                                                                                    
                                                                                                    
                                                                                                    
                                                                                                    
                                                                                                    
                                                                                                    
                                                                                                    
                                                                                                    
                                                                                                    
                                                                                                    
                                                                                                    
                                                                                                    
                                                                                                    
                           
<?xpacket end="w"?></metadata>
<defs>
    <style>
      .cls-1 {
        fill-rule: evenodd;
      }

      .cls-2 {
        font-size: 11px;
        fill: #414141;
        text-anchor: middle;
        font-family: "Open Sans";
        font-weight: 700;
      }
    </style>
  </defs>
  <path id="Forma_1" data-name="Forma 1" class="cls-1" d="M34.723,9.43V30.016H27.909a3,3,0,0,0-1.821-1.821V24.57H32.73V0H17.453V24.57H24.1v3.625a3,3,0,0,0-1.821,1.821H15.992v1.992h6.282a2.989,2.989,0,0,0,5.635,0h6.814V34H50V9.43H34.723ZM19.446,3.984H30.737V5.977H19.446V3.984Zm0,3.984H30.737V9.961H19.446V7.969Zm4.318,11.289a1.328,1.328,0,1,1,1.328,1.328A1.328,1.328,0,0,1,23.763,19.258Zm1.328,12.75a1,1,0,1,1,1-1A1,1,0,0,1,25.091,32.008Zm17.27-1.992a1.328,1.328,0,1,1,1.328-1.328A1.328,1.328,0,0,1,42.361,30.016Zm5.646-10.625H36.715V17.4H48.007v1.992Zm0-3.984H36.715V13.414H48.007v1.992Z"/>
  <path id="Forma_1_copy" data-name="Forma 1 copy" class="cls-1" d="M27.909,32.008L15.245,31.96c-0.008,0,.091-2.025.083-2.025C7.955,29.906,0,29.983,0,29.983V34H15.276V9.43H0V30.016H27.909m-20.272,0a1.328,1.328,0,1,1,1.328-1.328A1.328,1.328,0,0,1,7.637,30.016Zm5.646-10.625H1.991V17.4H13.283v1.992Zm0-3.984H1.991V13.414H13.283v1.992Z"/>
  <text id="_DDos" data-name="          DDos" class="cls-2" transform="translate(46.479 251.965) scale(0.107 0.107)"><tspan x="0">          DDos</tspan></text>
</svg>
