<svg xmlns="http://www.w3.org/2000/svg" width="89" height="72" viewBox="0 0 89 72">
  <metadata><?xpacket begin="﻿" id="W5M0MpCehiHzreSzNTczkc9d"?>
<x:xmpmeta xmlns:x="adobe:ns:meta/" x:xmptk="Adobe XMP Core 5.6-c138 79.159824, 2016/09/14-01:09:01        ">
   <rdf:RDF xmlns:rdf="http://www.w3.org/1999/02/22-rdf-syntax-ns#">
      <rdf:Description rdf:about=""/>
   </rdf:RDF>
</x:xmpmeta>
                                                                                                    
                                                                                                    
                                                                                                    
                                                                                                    
                                                                                                    
                                                                                                    
                                                                                                    
                                                                                                    
                                                                                                    
                                                                                                    
                                                                                                    
                                                                                                    
                                                                                                    
                                                                                                    
                                                                                                    
                                                                                                    
                                                                                                    
                                                                                                    
                                                                                                    
                                                                                                    
                           
<?xpacket end="w"?></metadata>
<defs>
    <style>
      .cls-1 {
        fill: #fff;
        fill-rule: evenodd;
      }
    </style>
  </defs>
  <path class="cls-1" d="M64.715,0H5.012A5.04,5.04,0,0,0,0,5.057V41.2a5.04,5.04,0,0,0,5.012,5.057H8.883V59.712a2.119,2.119,0,0,0,1.3,1.957,2.084,2.084,0,0,0,2.288-.459L27.286,46.257h2.973a2.119,2.119,0,0,0,0-4.237s-3.944,0-3.985.007a2.083,2.083,0,0,0-1.342.614L13.082,54.6s0-10.593-.011-10.648a2.106,2.106,0,0,0-2.09-1.93H5.012A0.817,0.817,0,0,1,4.2,41.2V5.057a0.817,0.817,0,0,1,.812-0.82h59.7a0.817,0.817,0,0,1,.812.82V18.923a2.1,2.1,0,1,0,4.2,0V5.057A5.04,5.04,0,0,0,64.715,0ZM83.988,25.913H42.2a5.04,5.04,0,0,0-5.012,5.057V55.626A5.04,5.04,0,0,0,42.2,60.684H68.361l10.6,10.7a2.084,2.084,0,0,0,2.288.459,2.119,2.119,0,0,0,1.3-1.957v-9.2h1.443A5.04,5.04,0,0,0,89,55.626V30.97A5.04,5.04,0,0,0,83.988,25.913ZM84.8,55.626a0.817,0.817,0,0,1-.812.82H80.447A2.106,2.106,0,0,0,78.355,58.4c-0.005.046-.009,6.365-0.009,6.365l-7.623-7.692L70.7,57.051c-0.03-.029-0.058-0.055-0.085-0.078a2.078,2.078,0,0,0-1.382-.527H42.2a0.817,0.817,0,0,1-.812-0.82V30.97a0.817,0.817,0,0,1,.813-0.82H83.989a0.817,0.817,0,0,1,.813.82V55.626ZM63.093,41.18a2.119,2.119,0,1,0,2.1,2.118A2.11,2.11,0,0,0,63.093,41.18ZM53.969,14.006H15.758a2.119,2.119,0,0,0,0,4.237H53.969A2.119,2.119,0,0,0,53.969,14.006ZM30.259,28.013h-14.5a2.119,2.119,0,0,0,0,4.237h14.5A2.119,2.119,0,0,0,30.259,28.013ZM53.337,41.18a2.119,2.119,0,1,0,2.1,2.118A2.11,2.11,0,0,0,53.337,41.18Zm19.511,0a2.119,2.119,0,1,0,2.1,2.118A2.11,2.11,0,0,0,72.848,41.18Z"/>
</svg>
