<?xml version="1.0"?>
<svg xmlns="http://www.w3.org/2000/svg" xmlns:xlink="http://www.w3.org/1999/xlink" version="1.1" id="Layer_1" x="0px" y="0px" viewBox="0 0 505 505" style="enable-background:new 0 0 505 505;" xml:space="preserve" width="512px" height="512px"><g><g>
	<path d="M263.847,443.479c-3.742-1.778-8.216-0.186-9.994,3.555l-16.233,34.158c-3.726,7.842-11.042,9.555-16.644,8.544   c-5.602-1.012-11.853-5.174-12.601-13.823l-26.4-304.601c-0.426-4.917,1.873-9.327,6.153-11.799   c4.271-2.471,9.239-2.256,13.288,0.575l17.952,12.547c3.396,2.374,8.071,1.544,10.444-1.851c2.373-3.395,1.544-8.071-1.851-10.444   l-17.952-12.547c-8.819-6.165-20.082-6.649-29.388-1.267c-9.313,5.378-14.521,15.373-13.591,26.082l26.399,304.598   c1.197,13.852,11.195,24.819,24.879,27.291c1.877,0.339,3.744,0.504,5.585,0.504c11.586,0,22.124-6.533,27.273-17.371   l16.233-34.158C269.179,449.73,267.587,445.256,263.847,443.479z" data-original="#000000" class="active-path" data-old_color="#f51322" fill="#f51322"/>
	<path d="M460.61,322.953L252.797,177.699c-3.396-2.372-8.07-1.544-10.444,1.851c-2.373,3.395-1.544,8.071,1.851,10.444   l207.813,145.253c7.118,4.977,7.597,12.474,5.671,17.831c-1.926,5.356-7.067,10.835-15.726,10.136l-121.948-9.77   c-6.185-0.495-12.28,0.883-17.614,3.978c-5.374,3.096-9.618,7.689-12.27,13.279l-24.185,50.887   c-1.778,3.741-0.188,8.215,3.554,9.993c1.04,0.494,2.136,0.728,3.215,0.728c2.805,0,5.495-1.581,6.778-4.283l24.188-50.892   c1.341-2.827,3.487-5.149,6.228-6.728c2.701-1.567,5.777-2.265,8.907-2.011l121.948,9.77c13.872,1.11,26.337-6.929,31.04-20.013   C476.508,345.067,472.01,330.922,460.61,322.953z" data-original="#000000" class="active-path" data-old_color="#f51322" fill="#f51322"/>
	<path d="M216.039,207.858c-3.587,2.071-4.816,6.658-2.745,10.245l71.929,124.584c1.389,2.406,3.91,3.751,6.502,3.751   c1.272,0,2.563-0.324,3.743-1.006c3.587-2.071,4.816-6.658,2.745-10.245l-71.929-124.584   C224.212,207.016,219.624,205.787,216.039,207.858z" data-original="#000000" class="active-path" data-old_color="#f51322" fill="#f51322"/>
	<path d="M275.01,180.313c4.051,0.869,8.038-1.709,8.906-5.759c1.511-7.042,2.277-14.287,2.277-21.534   c0-56.144-45.677-101.82-101.82-101.82S82.553,96.876,82.553,153.02c0,44.466,28.418,83.432,70.715,96.963   c0.76,0.243,1.529,0.358,2.287,0.358c3.174,0,6.122-2.032,7.142-5.217c1.262-3.945-0.913-8.167-4.858-9.429   c-36.059-11.535-60.285-44.76-60.285-82.676c0-47.873,38.947-86.82,86.82-86.82s86.82,38.947,86.82,86.82   c0,6.191-0.654,12.377-1.943,18.386C268.381,175.456,270.959,179.444,275.01,180.313z" data-original="#000000" class="active-path" data-old_color="#f51322" fill="#f51322"/>
	<path d="M161.439,289.143c-31.818-5.318-60.952-21.833-82.036-46.503c-21.313-24.938-33.05-56.766-33.05-89.62   C46.353,76.916,108.268,15,184.373,15s138.02,61.916,138.02,138.02c0,16.583-2.913,32.806-8.658,48.22   c-1.447,3.881,0.526,8.201,4.408,9.647c3.88,1.447,8.2-0.527,9.646-4.408c6.373-17.096,9.604-35.083,9.604-53.459   C337.393,68.645,268.749,0,184.373,0C99.998,0,31.353,68.645,31.353,153.02c0,36.424,13.015,71.713,36.647,99.365   c23.37,27.346,55.676,45.654,90.966,51.552c0.419,0.07,0.835,0.104,1.245,0.104c3.599,0,6.775-2.598,7.389-6.265   C168.283,293.691,165.525,289.826,161.439,289.143z" data-original="#000000" class="active-path" data-old_color="#f51322" fill="#f51322"/>
</g></g> </svg>
