<?xml version="1.0"?>
<svg xmlns="http://www.w3.org/2000/svg" xmlns:xlink="http://www.w3.org/1999/xlink" version="1.1" id="Capa_1" x="0px" y="0px" viewBox="0 0 480 480" style="enable-background:new 0 0 480 480;" xml:space="preserve" width="512px" height="512px"><g><g>
	<g>
		<g>
			<polygon points="56,200 424,200 424,271.528 440,271.528 440,184 40,184 40,272 56,272    " data-original="#000000" class="active-path" data-old_color="#f51322" fill="#f51322"/>
			<rect x="424" y="288" width="16" height="16" data-original="#000000" class="active-path" data-old_color="#f51322" fill="#f51322"/>
			<rect x="40" y="288" width="16" height="16" data-original="#000000" class="active-path" data-old_color="#f51322" fill="#f51322"/>
			<path d="M112,152c4.418,0,8-3.582,8-8v-17.224l27.8-4.672c3.197-0.534,5.756-2.944,6.48-6.104     c2.146-9.403,5.857-18.378,10.976-26.552c1.725-2.747,1.621-6.264-0.264-8.904l-16.376-22.88l13.048-13.048l22.88,16.376     c2.64,1.885,6.157,1.989,8.904,0.264c8.181-5.122,17.165-8.832,26.576-10.976c3.163-0.721,5.577-3.281,6.112-6.48l4.64-27.8     h18.448l4.664,27.8c0.535,3.199,2.949,5.759,6.112,6.48c9.403,2.146,18.378,5.857,26.552,10.976     c2.747,1.725,6.264,1.621,8.904-0.264l22.88-16.376l13.048,13.048l-16.376,22.88c-1.885,2.64-1.989,6.157-0.264,8.904     c5.122,8.181,8.832,17.165,10.976,26.576c0.724,3.16,3.283,5.57,6.48,6.104l27.8,4.648V144c0,4.418,3.582,8,8,8s8-3.582,8-8v-24     c0.005-3.903-2.808-7.24-6.656-7.896L340,107.2c-2.141-7.52-5.142-14.768-8.944-21.6l17.312-24.168     c2.277-3.182,1.919-7.545-0.848-10.312l-22.64-22.64c-2.767-2.767-7.13-3.125-10.312-0.848L290.4,44.92     c-6.833-3.793-14.081-6.787-21.6-8.92l-4.912-29.32C263.243,2.826,259.908,0.001,256,0h-32c-3.903-0.005-7.24,2.808-7.896,6.656     L211.2,36c-7.52,2.141-14.768,5.142-21.6,8.944l-24.144-17.288c-3.182-2.277-7.545-1.919-10.312,0.848l-22.64,22.64     c-2.767,2.767-3.125,7.13-0.848,10.312L148.92,85.6c-3.793,6.833-6.787,14.081-8.92,21.6l-29.32,4.912     c-3.854,0.645-6.679,3.98-6.68,7.888v24C104,148.418,107.582,152,112,152z" data-original="#000000" class="active-path" data-old_color="#f51322" fill="#f51322"/>
			<path d="M288,136c0,4.418,3.582,8,8,8s8-3.582,8-8c0-35.346-28.654-64-64-64c-35.346,0-64,28.654-64,64c0,4.418,3.582,8,8,8     s8-3.582,8-8c0-26.51,21.49-48,48-48C266.51,88,288,109.49,288,136z" data-original="#000000" class="active-path" data-old_color="#f51322" fill="#f51322"/>
			<path d="M208,136c0,4.418,3.582,8,8,8s8-3.582,8-8c0-8.837,7.163-16,16-16s16,7.163,16,16c0,4.418,3.582,8,8,8s8-3.582,8-8     c0-17.673-14.327-32-32-32C222.327,104,208,118.327,208,136z" data-original="#000000" class="active-path" data-old_color="#f51322" fill="#f51322"/>
			<path d="M472,416h-8V168c0-4.418-3.582-8-8-8H24c-4.418,0-8,3.582-8,8v248H8c-4.418,0-8,3.582-8,8v16     c0.026,22.08,17.92,39.974,40,40h400c22.08-0.026,39.974-17.92,40-40v-16C480,419.582,476.418,416,472,416z M32,176h416v240H304     c-1.049,0.005-2.087,0.214-3.056,0.616c-0.972,0.4-1.855,0.987-2.6,1.728L284.688,432h-89.376l-13.656-13.656     c-0.745-0.741-1.628-1.328-2.6-1.728c-0.969-0.402-2.007-0.611-3.056-0.616H32V176z M464,440c0,13.255-10.745,24-24,24H40     c-13.255,0-24-10.745-24-24v-8h156.688l13.656,13.656c1.5,1.5,3.534,2.344,5.656,2.344h96c2.122,0,4.156-0.844,5.656-2.344     L307.312,432H464V440z" data-original="#000000" class="active-path" data-old_color="#f51322" fill="#f51322"/>
			<polygon points="440,320 424,320 424,392 56,392 56,320 40,320 40,408 440,408    " data-original="#000000" class="active-path" data-old_color="#f51322" fill="#f51322"/>
			<path d="M72,376h336v-48H72V376z M88,344h304v16H88V344z" data-original="#000000" class="active-path" data-old_color="#f51322" fill="#f51322"/>
			<rect x="72" y="288" width="16" height="32" data-original="#000000" class="active-path" data-old_color="#f51322" fill="#f51322"/>
			<rect x="104" y="272" width="16" height="48" data-original="#000000" class="active-path" data-old_color="#f51322" fill="#f51322"/>
			<rect x="136" y="256" width="16" height="64" data-original="#000000" class="active-path" data-old_color="#f51322" fill="#f51322"/>
			<rect x="168" y="288" width="16" height="32" data-original="#000000" class="active-path" data-old_color="#f51322" fill="#f51322"/>
			<rect x="200" y="256" width="16" height="64" data-original="#000000" class="active-path" data-old_color="#f51322" fill="#f51322"/>
			<rect x="392" y="224" width="16" height="96" data-original="#000000" class="active-path" data-old_color="#f51322" fill="#f51322"/>
			<rect x="360" y="240" width="16" height="80" data-original="#000000" class="active-path" data-old_color="#f51322" fill="#f51322"/>
			<rect x="328" y="272" width="16" height="48" data-original="#000000" class="active-path" data-old_color="#f51322" fill="#f51322"/>
			<rect x="296" y="256" width="16" height="64" data-original="#000000" class="active-path" data-old_color="#f51322" fill="#f51322"/>
			<rect x="264" y="240" width="16" height="80" data-original="#000000" class="active-path" data-old_color="#f51322" fill="#f51322"/>
			<rect x="232" y="272" width="16" height="48" data-original="#000000" class="active-path" data-old_color="#f51322" fill="#f51322"/>
		</g>
	</g>
</g></g> </svg>
