<svg xmlns="http://www.w3.org/2000/svg" width="12" height="17" viewBox="0 0 12 17">
  <metadata><?xpacket begin="﻿" id="W5M0MpCehiHzreSzNTczkc9d"?>
<x:xmpmeta xmlns:x="adobe:ns:meta/" x:xmptk="Adobe XMP Core 5.6-c138 79.159824, 2016/09/14-01:09:01        ">
   <rdf:RDF xmlns:rdf="http://www.w3.org/1999/02/22-rdf-syntax-ns#">
      <rdf:Description rdf:about=""/>
   </rdf:RDF>
</x:xmpmeta>
                                                                                                    
                                                                                                    
                                                                                                    
                                                                                                    
                                                                                                    
                                                                                                    
                                                                                                    
                                                                                                    
                                                                                                    
                                                                                                    
                                                                                                    
                                                                                                    
                                                                                                    
                                                                                                    
                                                                                                    
                                                                                                    
                                                                                                    
                                                                                                    
                                                                                                    
                                                                                                    
                           
<?xpacket end="w"?></metadata>
<defs>
    <style>
      .cls-1 {
        fill-rule: evenodd;
      }
    </style>
  </defs>
  <path id="Forma_1_copy_10" data-name="Forma 1 copy 10" class="cls-1" d="M0.984,17H11.016A0.98,0.98,0,0,0,12,16.023V0.977A0.981,0.981,0,0,0,11.016,0H0.984A0.981,0.981,0,0,0,0,.977V16.023A0.98,0.98,0,0,0,.984,17Zm9.323-1.2a0.586,0.586,0,1,1,.59-0.586A0.588,0.588,0,0,1,10.306,15.8Zm0-14.472a0.586,0.586,0,1,1-.59.587A0.588,0.588,0,0,1,10.306,1.328ZM6,1.766a4.586,4.586,0,1,1,0,9.172,4.653,4.653,0,0,1-1.163-.146L5.7,9.33a0.49,0.49,0,0,0-.673-0.668L3.02,9.84a0.027,0.027,0,0,0-.008.006A4.58,4.58,0,0,1,6,1.766ZM1.812,1.328a0.586,0.586,0,1,1-.59.587A0.588,0.588,0,0,1,1.812,1.328Zm0,13.3a0.586,0.586,0,1,1-.59.586A0.587,0.587,0,0,1,1.812,14.628ZM6,5.127A1.225,1.225,0,1,1,4.767,6.352,1.229,1.229,0,0,1,6,5.127Z"/>
</svg>
