<svg id="Livello_1" data-name="Livello 1" xmlns="http://www.w3.org/2000/svg" viewBox="0 0 90 90"><defs><style>.cls-1{fill:#333;}</style></defs><title>template</title><circle class="cls-1" cx="30.73" cy="32.9" r="1.59"/><circle class="cls-1" cx="34.78" cy="32.91" r="1.59"/><path class="cls-1" d="M28.21,33.52a1.61,1.61,0,1,1,.12-.61,1.58,1.58,0,0,1-.12.61"/><path class="cls-1" d="M70,26.76H66.24l-1,2.16H70a2.38,2.38,0,0,1,2.38,2.38V36H62.24l-1,2.16H72.36V61.28A2.38,2.38,0,0,1,70,63.66H25.67a2.38,2.38,0,0,1-2.38-2.38V38.12H45L46,36H23.29V31.3a2.38,2.38,0,0,1,2.38-2.38H52l1-2.16H25.67c-2.5,0-4.54,2-4.54,3.54v30c0,3.5,2,5.54,4.54,5.54H70c2.51,0,4.54-2,4.54-5.54v-30C74.52,28.8,72.49,26.76,70,26.76Z"/><path class="cls-1" d="M66.36,14.41c-1.88-1-3.54.67-4.15,1.68l-6,9.82-1,1.58L50.2,35.8a2.07,2.07,0,0,0-1.61,3.4c-1.54,5.15-1.52,4.93-1.49,5.18-2.59.6-4.1,2.94-4.46,5.56a7.11,7.11,0,0,0,0,1.56,7.62,7.62,0,0,0,1.73,4.44.73.73,0,0,0,.51.26c5,.47,9.64-4.51,7.9-8.87.2-.11,0,.15,3.41-4.18A2.07,2.07,0,0,0,58,39.89L64.6,25a.08.08,0,0,0,0,0l2.74-6.17C67.83,17.7,68.24,15.39,66.36,14.41ZM51.12,51.17a6.44,6.44,0,0,1-5.84,3.55c-2.1-2.82-1.31-7.78,1.9-8.79a3.41,3.41,0,0,1,2.59.21A3.7,3.7,0,0,1,51.12,51.17Zm1.06-5.48-3.42-1.78L49.92,40l4.78,2.5Zm4.7-4.75c.06.19,0,.31-.13.5a.4.4,0,0,1-.53.17l-6.41-3.35a.41.41,0,0,1-.17-.54l.1-.19a.41.41,0,0,1,.54-.17C57.22,41,56.81,40.72,56.88,40.94ZM66,18.17l-3.32,7.46s0,0,0,.05L56.73,39l-5.09-2.67L63.5,16.88s1.08-1.69,2.16-1.13S66,18.15,66,18.17Z"/><path class="cls-1" d="M56.19,73.36v3.9a2.39,2.39,0,0,1-2.38,2.38H9.49a2.39,2.39,0,0,1-2.38-2.38V54.09h6V51.94h-6V47.28A2.38,2.38,0,0,1,9.49,44.9h3.62V42.74H9.49C7,42.74,5,44.78,5,46.28v30c0,3.5,2,5.53,4.54,5.53H53.81c2.5,0,4.53-2,4.53-5.53v-2.9Z"/><path class="cls-1" d="M64.34,65.74V69A2.39,2.39,0,0,1,62,71.36H17.64A2.39,2.39,0,0,1,15.26,69V45.82h5.87V43.66H15.26V39a2.39,2.39,0,0,1,2.38-2.38h3.49V34.46H17.64c-2.5,0-4.53,2-4.53,3.54V68c0,3.5,2,5.54,4.53,5.54H62c2.5,0,4.53-2,4.53-5.54V65.74Z"/></svg>