<svg id="Livello_1" data-name="Livello 1" xmlns="http://www.w3.org/2000/svg" viewBox="0 0 90 90"><defs><style>.cls-1{fill:#333;}</style></defs><title>shipping</title><path class="cls-1" d="M76.36,29.3,45.43,14.37a1,1,0,0,0-.86,0L13.64,29.3a1,1,0,0,0-.56.9V66.45a1,1,0,0,0,.56.9L44.57,82.28a1,1,0,0,0,.86,0L76.36,67.35a1,1,0,0,0,.56-.9V30.2A1,1,0,0,0,76.36,29.3ZM45,16.38,73.63,30.2l-8.3,4-.17-.11L36.73,20.37ZM34.47,21.5,64,35.73l-.08,3.82-.15,8.09-5.47,2.64V38.64l-.44-.22h0L28.63,24.33ZM44,79.79l-28.92-14v-34L41.16,44.32a.69.69,0,0,0,.21.16L44,45.75ZM45,44l-1.9-.92a.83.83,0,0,0-.21-.16L16.37,30.2l9.91-4.78L54.9,39.23ZM74.92,65.83,46,79.79v-34l10.26-5V51.87a1,1,0,0,0,.47.85,1,1,0,0,0,.53.15,1,1,0,0,0,.44-.1l7.46-3.6a1,1,0,0,0,.56-.9v-12l9.2-4.44Z"/><path class="cls-1" d="M23.24,63.94,19.31,62a.87.87,0,0,0-1.16.4.88.88,0,0,0,.4,1.16l3.94,1.89a.81.81,0,0,0,.37.09.87.87,0,0,0,.78-.49A.85.85,0,0,0,23.24,63.94Z"/><path class="cls-1" d="M26.86,61.58l-7.55-3.64a.86.86,0,0,0-1.15.4.87.87,0,0,0,.4,1.16l7.54,3.64a.84.84,0,0,0,.38.08.86.86,0,0,0,.38-1.64Z"/></svg>