<svg id="Livello_1" data-name="Livello 1" xmlns="http://www.w3.org/2000/svg" viewBox="0 0 90 90"><defs><style>.cls-1{fill:#333;}</style></defs><title>drag-and-drop</title><circle class="cls-1" cx="25.31" cy="22.83" r="2.58"/><circle class="cls-1" cx="31.87" cy="22.84" r="2.58"/><path class="cls-1" d="M21.24,23.84a2.62,2.62,0,1,1,.19-1,2.65,2.65,0,0,1-.19,1"/><path class="cls-1" d="M39.25,63H15.17a2.38,2.38,0,0,1-2.38-2.38V30.46H72.08V44.28l2.16,2V18.64a4.54,4.54,0,0,0-4.54-4.53H15.17a4.54,4.54,0,0,0-4.54,4.53v42a4.54,4.54,0,0,0,4.54,4.54H40.25ZM12.79,18.64a2.38,2.38,0,0,1,2.38-2.37H69.7a2.38,2.38,0,0,1,2.38,2.37V28.3H12.79Z"/><path class="cls-1" d="M67.12,82.38A15.58,15.58,0,0,1,56,77.79L42.93,64.68a3.81,3.81,0,0,1-1.14-2.74,3.88,3.88,0,0,1,3.87-3.88,6.11,6.11,0,0,1,2.72.64L54,61.49V37.8a4.06,4.06,0,1,1,8.11,0v6.62a4,4,0,0,1,2-.54,4.06,4.06,0,0,1,3.83,2.71,4,4,0,0,1,6.08,2A4.06,4.06,0,0,1,80.3,52V69.21A13.19,13.19,0,0,1,67.12,82.38ZM45.66,60.09a1.85,1.85,0,0,0-1.3,3.16l13.1,13.1a13.57,13.57,0,0,0,9.66,4A11.16,11.16,0,0,0,78.27,69.21V52a2,2,0,0,0-4,0v5.07a1,1,0,0,1-2,0V50a2,2,0,1,0-4,0v7.09a1,1,0,0,1-2,0V47.93a2,2,0,1,0-4,0v9.12a1,1,0,0,1-2,0V37.8a2,2,0,1,0-4.05,0V63.13a1,1,0,0,1-.48.86,1,1,0,0,1-1,0l-7-3.51A4.05,4.05,0,0,0,45.66,60.09Z"/><path class="cls-1" d="M26.79,56.23H24.25v-2h2.54Z"/><polygon class="cls-1" points="21.5 56.23 19.23 56.23 19.23 53.95 21.18 53.95 21.18 54.27 21.5 54.27 21.5 56.23"/><path class="cls-1" d="M21.18,41.38H19.23V38.89h1.95Z"/><polygon class="cls-1" points="21.18 36.4 19.23 36.4 19.23 34.12 21.5 34.12 21.5 36.07 21.18 36.07 21.18 36.4"/><path class="cls-1" d="M26.79,36.07H24.25v-2h2.54Z"/><path class="cls-1" d="M32.16,56.31H29.62v-2h2.54Z"/><path class="cls-1" d="M32.16,36.16H29.62V34.21h2.54Z"/><path class="cls-1" d="M37.69,56.31H35.15v-2h2.54Z"/><path class="cls-1" d="M37.69,36.16H35.15V34.21h2.54Z"/><polygon class="cls-1" points="42.4 56.23 40.12 56.23 40.12 54.27 40.44 54.27 40.44 53.95 42.4 53.95 42.4 56.23"/><polygon class="cls-1" points="42.4 36.4 40.44 36.4 40.44 36.07 40.12 36.07 40.12 34.12 42.4 34.12 42.4 36.4"/><path class="cls-1" d="M42.39,41.38h-2V38.89h2Z"/><path class="cls-1" d="M21.26,46.89h-2V44.4h2Z"/><path class="cls-1" d="M42.47,46.89H40.52V44.4h1.95Z"/><path class="cls-1" d="M21.26,51.78h-2V49.29h2Z"/><path class="cls-1" d="M42.47,51.78H40.52V49.29h1.95Z"/></svg>