<svg id="Livello_1" data-name="Livello 1" xmlns="http://www.w3.org/2000/svg" viewBox="0 0 90 90"><defs><style>.cls-1{fill:#333;}</style></defs><title>shipping_1</title><path class="cls-1" d="M75.28,61.06,73.76,55a.93.93,0,0,0,.73-.9v-1a3.87,3.87,0,0,0-3.87-3.87H63.68v-22a1.91,1.91,0,0,0-1.9-1.9H16.44a1.91,1.91,0,0,0-1.91,1.9V70.82h-3a.92.92,0,1,0,0,1.84h3v2a1.91,1.91,0,0,0,1.91,1.9h5v.06a5.83,5.83,0,0,0,11.66,0s0,0,0-.06H63.81v.06a5.83,5.83,0,0,0,11.66,0v-.06h3a.92.92,0,0,0,.92-.92V65.85A4.85,4.85,0,0,0,75.28,61.06Zm-11.6-10h6.94a2,2,0,0,1,2,2v.06h-9Zm0,3.93h8.18l1.51,6H63.68ZM27.24,80.64a4,4,0,1,1,4-4A4,4,0,0,1,27.24,80.64Zm34.6-5.89H32.75a5.83,5.83,0,0,0-11,0H16.44a.07.07,0,0,1-.07-.06v-2h4a.92.92,0,1,0,0-1.84h-4V27.19a.07.07,0,0,1,.07-.06H61.78a.06.06,0,0,1,.06.06V74.75Zm7.8,5.89a4,4,0,1,1,4-4A4,4,0,0,1,69.64,80.64Zm7.91-5.89h-2.4a5.83,5.83,0,0,0-11,0h-.45V62.84H74.55a3,3,0,0,1,2.86,2.09H74.55a.92.92,0,0,0-.92.92v2a2.89,2.89,0,0,0,2.88,2.89h1Zm0-5.89h-1a1,1,0,0,1-1-1v-1h2.08Z"/><path class="cls-1" d="M27.24,74.75a1.9,1.9,0,1,0,1.9,1.9A1.91,1.91,0,0,0,27.24,74.75Z"/><path class="cls-1" d="M69.64,74.75a1.9,1.9,0,1,0,1.9,1.9A1.9,1.9,0,0,0,69.64,74.75Z"/><path class="cls-1" d="M34.17,71.74a.92.92,0,0,0,.92.92H58.84a.92.92,0,0,0,0-1.84H35.09A.92.92,0,0,0,34.17,71.74Z"/></svg>