<svg id="Livello_1" data-name="Livello 1" xmlns="http://www.w3.org/2000/svg" viewBox="0 0 90 90"><defs><style>.cls-1{fill:#333;}</style></defs><title>analysis</title><circle class="cls-1" cx="22.87" cy="23.15" r="2.58"/><circle class="cls-1" cx="29.43" cy="23.16" r="2.58"/><path class="cls-1" d="M18.8,24.16a2.59,2.59,0,1,1-1.39-3.39A2.61,2.61,0,0,1,19,23.16a2.66,2.66,0,0,1-.2,1"/><path class="cls-1" d="M77.27,14.43H12.73A4.53,4.53,0,0,0,8.2,19V78a4.53,4.53,0,0,0,4.53,4.53H77.27A4.53,4.53,0,0,0,81.8,78V19A4.53,4.53,0,0,0,77.27,14.43ZM10.35,19a2.38,2.38,0,0,1,2.38-2.37H77.27A2.38,2.38,0,0,1,79.65,19v9.66H10.35Zm69.3,59a2.38,2.38,0,0,1-2.38,2.37H12.73A2.38,2.38,0,0,1,10.35,78V30.78h69.3Z"/><path class="cls-1" d="M63.74,45.22a5,5,0,0,0-5,5A5,5,0,0,0,59.54,53l-5.42,5.41a5,5,0,0,0-5.56.06L43.09,53a4.9,4.9,0,0,0,.82-2.73A5,5,0,1,0,34.69,53l-5.42,5.42a5,5,0,1,0,1.47,1.47l5.42-5.42a5,5,0,0,0,2.73.81,5,5,0,0,0,2.74-.81l5.5,5.5a5,5,0,1,0,9.27,2.65,4.9,4.9,0,0,0-.82-2.73L61,54.43a5,5,0,1,0,2.74-9.21Zm-37.2,20.3a2.94,2.94,0,1,1,2.94-2.94A2.94,2.94,0,0,1,26.54,65.52ZM36,50.23a2.94,2.94,0,1,1,2.94,2.94A2.94,2.94,0,0,1,36,50.23ZM51.38,65.52a2.94,2.94,0,1,1,2.95-2.94A2.94,2.94,0,0,1,51.38,65.52ZM63.74,53.17a2.94,2.94,0,1,1,2.94-2.94A2.95,2.95,0,0,1,63.74,53.17Z"/></svg>