<svg xmlns="http://www.w3.org/2000/svg" viewBox="0 0 483 512" width="483" height="512">
	<style>
		tspan { white-space:pre }
		.shp0 { fill: #987bbb } 
	</style>
	<g id="Folder 1">
		<path id="Layer" fill-rule="evenodd" class="shp0" d="M482.87 125.02C482.87 144.73 469.22 161.31 450.87 165.81L450.87 355C450.87 358.57 448.96 361.88 445.87 363.66L281.99 458.27C283.08 462 283.67 465.93 283.67 470C283.67 493.16 264.83 512 241.67 512C218.51 512 199.67 493.16 199.67 470C199.67 465.93 200.27 461.99 201.35 458.26L37.5 363.66C34.41 361.87 32.5 358.57 32.5 355L32.5 165.81C14.15 161.31 0.5 144.73 0.5 125.02C0.5 101.86 19.34 83.02 42.5 83.02C54.39 83.02 65.13 88 72.78 95.97L236.69 1.34C239.78 -0.45 243.59 -0.45 246.68 1.34L410.59 95.97C418.23 88 428.98 83.02 440.87 83.02C464.03 83.02 482.87 101.86 482.87 125.02ZM42.5 147.02C54.63 147.02 64.5 137.15 64.5 125.02C64.5 112.89 54.63 103.02 42.5 103.02C30.37 103.02 20.5 112.89 20.5 125.02C20.5 137.15 30.37 147.02 42.5 147.02ZM263.67 470C263.67 457.87 253.8 448 241.67 448C229.54 448 219.67 457.87 219.67 470C219.67 482.13 229.54 492 241.67 492C253.8 492 263.67 482.13 263.67 470ZM430.87 349.23L430.87 165.81C412.53 161.31 398.87 144.73 398.87 125.02C398.87 120.94 399.47 117 400.56 113.27L241.68 21.55L82.81 113.27C83.9 117 84.5 120.95 84.5 125.02C84.5 144.73 70.84 161.31 52.5 165.81L52.5 349.23L211.38 440.95C219.03 432.98 229.78 428 241.67 428C253.57 428 264.32 432.98 271.98 440.96L430.87 349.23ZM462.87 125.02C462.87 112.89 453 103.02 440.87 103.02C428.74 103.02 418.87 112.89 418.87 125.02C418.87 137.15 428.74 147.02 440.87 147.02C453 147.02 462.87 137.15 462.87 125.02Z" />
		<path id="Layer" fill-rule="evenodd" class="shp0" d="M378.68 155.13C381.78 156.92 383.68 160.22 383.68 163.79L383.68 316.21C383.68 319.78 381.78 323.08 378.68 324.87L246.68 401.08C245.14 401.97 243.41 402.42 241.68 402.42C239.96 402.42 238.23 401.97 236.69 401.08L104.69 324.87C101.59 323.08 99.69 319.78 99.69 316.21L99.69 163.79C99.69 160.22 101.59 156.92 104.69 155.13L236.69 78.92C239.78 77.14 243.59 77.14 246.68 78.92L378.68 155.13ZM129.69 163.79L241.68 228.45L353.68 163.79L241.68 99.13L129.69 163.79ZM363.68 310.43L363.68 181.11L246.68 248.66C245.14 249.55 243.41 250 241.68 250C239.96 250 238.23 249.55 236.69 248.66L119.69 181.11L119.69 310.43L231.69 375.1L231.69 330C231.69 324.48 236.16 320 241.68 320C247.21 320 251.68 324.48 251.68 330L251.68 375.1L363.68 310.43Z" />
		<path id="Layer" class="shp0" d="M241.68 275C239.04 275 236.46 276.07 234.59 277.93C232.73 279.79 231.66 282.37 231.66 285C231.66 287.63 232.73 290.21 234.59 292.07C236.46 293.93 239.04 295 241.68 295C244.3 295 246.89 293.93 248.75 292.07C250.61 290.21 251.68 287.63 251.68 285C251.68 282.37 250.61 279.79 248.75 277.93C246.89 276.07 244.3 275 241.68 275Z" />
	</g>
</svg>