<svg xmlns="http://www.w3.org/2000/svg" viewBox="0 0 512 488" width="512" height="488">
	<style>
		tspan { white-space:pre }
		.shp0 { fill: #0ac5b7 } 
	</style>
	<path id="Layer" fill-rule="evenodd" class="shp0" d="M134.04 488.03C129.91 488.03 125.75 487.23 121.76 485.58C109.76 480.61 102 469 102 456L102 422C102 409.87 92.13 400 80 400C35.89 400 0 364.11 0 320L0 80C0 35.89 35.89 0 80 0L432 0C476.11 0 512 35.89 512 80L512 220C512 231.05 503.05 240 492 240C480.95 240 472 231.05 472 220L472 80C472 57.95 454.05 40 432 40L80 40C57.95 40 40 57.95 40 80L40 320C40 342.05 57.95 360 80 360C114.19 360 142 387.81 142 422L142 436.71L185.55 393.16C206.94 371.78 235.37 360 265.62 360L432 360C454.05 360 472 342.05 472 320C472 308.95 480.95 300 492 300C503.05 300 512 308.95 512 320C512 364.11 476.11 400 432 400L265.62 400C246.06 400 227.67 407.62 213.84 421.45L156.64 478.64C150.51 484.78 142.36 488.03 134.04 488.03ZM256 321C244.95 321 236 312.05 236 301C236 289.95 244.95 281 256 281C267.05 281 276 289.95 276 301C276 312.05 267.05 321 256 321ZM256 251C244.95 251 236 242.05 236 231L236 217.02C236 198.58 247.6 182.33 264.86 176.57C276.59 172.66 284.45 161.28 283.98 148.89C283.43 134.38 271.63 122.57 257.11 122.02C249.41 121.73 242.11 124.5 236.59 129.82C231.05 135.15 228 142.32 228 150C228 161.05 219.05 170 208 170C196.95 170 188 161.05 188 150C188 131.35 195.4 113.95 208.84 101.01C222.28 88.07 239.96 81.34 258.63 82.05C293.92 83.39 322.61 112.08 323.95 147.37C325.09 177.41 306 205.03 277.51 214.52C276.65 214.81 276 215.88 276 217.02L276 231C276 242.05 267.05 251 256 251Z" />
</svg>