<svg xmlns="http://www.w3.org/2000/svg" viewBox="0 0 40.44 40.44"><defs><style>.cls-1{fill:#f51322;}</style></defs><g id="Layer_2" data-name="Layer 2"><g id="Layer_1-2" data-name="Layer 1"><circle class="cls-1" cx="24.56" cy="14.53" r="1.34"/><circle class="cls-1" cx="32.14" cy="25.9" r="1.34"/><path class="cls-1" d="M39.25,0H17.05a1.18,1.18,0,0,0-1.19,1.18V40.44H39.25a1.19,1.19,0,0,0,1.19-1.19V1.18A1.18,1.18,0,0,0,39.25,0ZM25.75,18.05V33.49a1.19,1.19,0,0,1-2.37,0V18.05a3.71,3.71,0,0,1,0-7V7a1.19,1.19,0,0,1,2.37,0V11a3.71,3.71,0,0,1,0,7Zm7.58,11.37v4.07a1.19,1.19,0,0,1-2.37,0V29.42a3.71,3.71,0,0,1,0-7V7a1.19,1.19,0,0,1,2.37,0V22.39a3.71,3.71,0,0,1,0,7Z"/><path class="cls-1" d="M9.57,14.91v2l-.39.16L7.76,15.66a1.21,1.21,0,0,0-1.5-.15A15.5,15.5,0,0,0,4,17.4a15.58,15.58,0,0,0-1.89,2.32,1.18,1.18,0,0,0,.15,1.49l1.43,1.42c-.06.13-.11.26-.17.4h-2A1.18,1.18,0,0,0,.3,24a14.9,14.9,0,0,0,0,6,1.18,1.18,0,0,0,1.16.94h2c.06.14.11.27.17.4L2.21,32.68a1.18,1.18,0,0,0-.15,1.49A15.58,15.58,0,0,0,4,36.49a16,16,0,0,0,2.31,1.89,1.2,1.2,0,0,0,1.5-.16L9.18,36.8l.39.16v2a1.19,1.19,0,0,0,.95,1.16,14.74,14.74,0,0,0,3,.3V29.86a2.92,2.92,0,1,1,0-5.83V13.46a14.73,14.73,0,0,0-3,.29,1.19,1.19,0,0,0-.95,1.16Z"/></g></g></svg>