<svg xmlns="http://www.w3.org/2000/svg" viewBox="0 0 39.92 39.92"><defs><style>.cls-1{fill:#f51322;}</style></defs><g id="Layer_2" data-name="Layer 2"><g id="Layer_1-2" data-name="Layer 1"><path class="cls-1" d="M29.94,20a9.84,9.84,0,0,0-5.12,1.44l-1.07-1.08a1.25,1.25,0,0,0-2.13.89v4.15a1.25,1.25,0,0,0,1.25,1.25H27a1.25,1.25,0,0,0,.88-2.13l-.63-.63a6.65,6.65,0,1,1-3.84,7.43,1.67,1.67,0,0,0-3.27.64,10,10,0,1,0,9.77-12Z"/><path class="cls-1" d="M0,15V25H18.3V21.21a4.56,4.56,0,0,1,7.13-3.78,13.14,13.14,0,0,1,4.51-.8V15Z"/><path class="cls-1" d="M16.91,32.57a5,5,0,0,1,1.2-4.3H0v7.07a4.58,4.58,0,0,0,4.57,4.58h16.6A13.16,13.16,0,0,1,16.91,32.57Z"/><path class="cls-1" d="M25.36,0H4.57A4.58,4.58,0,0,0,0,4.57v7.07H29.94V4.57A4.58,4.58,0,0,0,25.36,0ZM5.82,8.32a2.5,2.5,0,1,1,2.5-2.5A2.49,2.49,0,0,1,5.82,8.32Zm8.32,0a2.5,2.5,0,1,1,2.49-2.5A2.5,2.5,0,0,1,14.14,8.32Zm8.31,0A2.5,2.5,0,1,1,25,5.82,2.49,2.49,0,0,1,22.45,8.32Z"/></g></g></svg>