<svg xmlns="http://www.w3.org/2000/svg" viewBox="0 0 41.31 40.86"><defs><style>.cls-1{fill:#f51322;}</style></defs><g id="Layer_2" data-name="Layer 2"><g id="Layer_1-2" data-name="Layer 1"><path class="cls-1" d="M16.6,36.27,12,31.63v2.09a.75.75,0,0,1-.63.74c-1.15.18-4.86.41-7.92-3.63a7.92,7.92,0,0,0,2.89,5.83l0,0a7.26,7.26,0,0,0,4.77,1.37h.1a.76.76,0,0,1,.75.75v2Z"/><path class="cls-1" d="M23.85,7.29h-15A2.35,2.35,0,0,0,6.51,9.63v13A3.81,3.81,0,0,1,5.71,25h7.91v-7.5a3.84,3.84,0,0,1,3.84-3.84H24.4a3.82,3.82,0,0,1,1.79.44V9.63A2.34,2.34,0,0,0,23.85,7.29Z"/><path class="cls-1" d="M39,22.4H24a2.35,2.35,0,0,0-2.34,2.35V37.91a.31.31,0,0,0,0,.1v.07a.31.31,0,0,1,0,.1.19.19,0,0,1,0,.08s0,.07,0,.1v.07a.44.44,0,0,0,0,.1l0,.07a1.21,1.21,0,0,1-.05.18.14.14,0,0,1,0,.07l0,.09a.14.14,0,0,1,0,.07l0,.09,0,.08,0,.08,0,.07,0,.09,0,.06-.09.16,0,.06-.05.08-.05.07,0,.07,0,.07-.06.07v0H39a2.35,2.35,0,0,0,2.35-2.35v-13A2.35,2.35,0,0,0,39,22.4Z"/><path class="cls-1" d="M2.67,25A2.36,2.36,0,0,0,5,22.62v-13A3.84,3.84,0,0,1,8.86,5.79H22.4a2.36,2.36,0,0,0-2.35-2.23h-5.8a1.55,1.55,0,0,1-1.13-.49L11,.76A2.39,2.39,0,0,0,9.29,0H2.34A2.34,2.34,0,0,0,0,2.34V22.62A2.34,2.34,0,0,0,2.34,25Z"/><path class="cls-1" d="M24.4,15.12H17.46a2.36,2.36,0,0,0-2.35,2.34V32.65l3.08,3.09a.75.75,0,0,1,0,1.06L15.7,39.28a2.32,2.32,0,0,0,1.76.8h.33a2.35,2.35,0,0,0,2.34-2.35v-13A3.86,3.86,0,0,1,24,20.9H37.51a2.34,2.34,0,0,0-2.34-2.22H29.36a1.52,1.52,0,0,1-1.12-.5l-2.11-2.3A2.32,2.32,0,0,0,24.4,15.12Z"/></g></g></svg>