<svg xmlns="http://www.w3.org/2000/svg" viewBox="0 0 44 37.96"><defs><style>.cls-1{fill:#f51322;}</style></defs><g id="Layer_2" data-name="Layer 2"><g id="Layer_1-2" data-name="Layer 1"><path class="cls-1" d="M20.71,0A21.91,21.91,0,0,0,7.36,5.53l5.75,5.75a13.79,13.79,0,0,1,7.6-3.14Z"/><path class="cls-1" d="M11.29,13.11,5.54,7.35A21.86,21.86,0,0,0,0,20.7H8.14a13.74,13.74,0,0,1,3.15-7.59Z"/><path class="cls-1" d="M35.86,20.7H44A21.86,21.86,0,0,0,38.46,7.35l-5.75,5.76A13.81,13.81,0,0,1,35.86,20.7Z"/><path class="cls-1" d="M35.86,23.28a13.7,13.7,0,0,1-1.42,5c.66,1,1.2,1.86,1.56,2.43a3.83,3.83,0,0,1-.53,4.81,3.93,3.93,0,0,1-1.06.75l1.34,1.34a1.33,1.33,0,0,0,.92.38,1.29,1.29,0,0,0,.91-.38A21.89,21.89,0,0,0,44,23.28Z"/><path class="cls-1" d="M8.14,23.28H0a21.89,21.89,0,0,0,6.42,14.3,1.29,1.29,0,0,0,.91.38,1.33,1.33,0,0,0,.92-.38l3.91-3.91a1.3,1.3,0,0,0,0-1.83,13.86,13.86,0,0,1-4-8.56Z"/><path class="cls-1" d="M36.64,5.53A21.91,21.91,0,0,0,23.29,0V8.14a13.73,13.73,0,0,1,7.59,3.14Z"/><path class="cls-1" d="M24.86,19.15a4,4,0,0,0-5.72,5.73c2,2,11.8,8.25,12.91,9a1.29,1.29,0,0,0,1.78-1.78C33.12,31,26.86,21.14,24.86,19.15Z"/></g></g></svg>