<svg xmlns="http://www.w3.org/2000/svg" viewBox="0 0 33.74 43.18"><defs><style>.cls-1{fill:#f51322;}</style></defs><g id="Layer_2" data-name="Layer 2"><g id="Layer_1-2" data-name="Layer 1"><path class="cls-1" d="M16.87,11.67a7.93,7.93,0,1,0,7.92,7.93A7.94,7.94,0,0,0,16.87,11.67ZM15.68,23.59l-3.12-3.11,1.67-1.67,1.45,1.45,3.83-3.83,1.66,1.67Zm1.19-11.92a7.93,7.93,0,1,0,7.92,7.93,7.94,7.94,0,0,0-7.92-7.93ZM15.68,23.59l-3.12-3.11,1.67-1.67,1.45,1.45,3.83-3.83,1.66,1.67Zm16.88-17a5.42,5.42,0,0,1-5.41-5.41V0H6.59V1.18A5.42,5.42,0,0,1,1.18,6.59H0V34.07l16.87,9.11,16.87-9.11V6.59ZM16.87,29.87A10.28,10.28,0,1,1,27.15,19.6,10.29,10.29,0,0,1,16.87,29.87Zm0-18.2a7.93,7.93,0,1,0,7.92,7.93,7.94,7.94,0,0,0-7.92-7.93ZM15.68,23.59l-3.12-3.11,1.67-1.67,1.45,1.45,3.83-3.83,1.66,1.67Z"/></g></g></svg>