<svg xmlns="http://www.w3.org/2000/svg" viewBox="0 0 41.88 41.88"><defs><style>.cls-1{fill:#f51322;}</style></defs><g id="Layer_2" data-name="Layer 2"><g id="Layer_1-2" data-name="Layer 1"><path class="cls-1" d="M8.67,20.94a12,12,0,0,1,.87-4.46L3.16,10.1A20.7,20.7,0,0,0,0,20.94,20.73,20.73,0,0,0,3.16,31.78L9.54,25.4A12.05,12.05,0,0,1,8.67,20.94Z"/><path class="cls-1" d="M10.71,27.69,4.58,33.83A20.71,20.71,0,0,0,8.05,37.3l6.13-6.14a12.46,12.46,0,0,1-3.47-3.47Z"/><path class="cls-1" d="M31.16,27.69a12.2,12.2,0,0,1-3.47,3.47l6.14,6.14a21.09,21.09,0,0,0,3.47-3.47Z"/><path class="cls-1" d="M33.21,20.94a12.26,12.26,0,0,1-.87,4.46l6.38,6.38a20.73,20.73,0,0,0,3.16-10.84A20.7,20.7,0,0,0,38.72,10.1l-6.38,6.38A12.21,12.21,0,0,1,33.21,20.94Z"/><path class="cls-1" d="M25.4,32.34a11.87,11.87,0,0,1-8.92,0L10.1,38.72a20.7,20.7,0,0,0,10.84,3.16,20.73,20.73,0,0,0,10.84-3.16Z"/><path class="cls-1" d="M16.48,9.54a11.87,11.87,0,0,1,8.92,0l6.38-6.38A20.73,20.73,0,0,0,20.94,0,20.7,20.7,0,0,0,10.1,3.16Z"/><path class="cls-1" d="M10.71,14.18a12.73,12.73,0,0,1,3.47-3.47L8.05,4.58A20.35,20.35,0,0,0,4.58,8.05Z"/><path class="cls-1" d="M31.16,14.18,37.3,8.05a20.71,20.71,0,0,0-3.47-3.47l-6.14,6.13A12.46,12.46,0,0,1,31.16,14.18Z"/><path class="cls-1" d="M25.17,17.8v-.87a4.24,4.24,0,1,0-8.47,0v.87H15.11v5.56a5.83,5.83,0,0,0,11.65,0V17.8Zm-6.88-.87a2.65,2.65,0,0,1,5.3,0v.87h-5.3Zm2.09,8.32-2.12-2.12L19.38,22l1.06,1.06,2.08-1.88,1.07,1.18Z"/></g></g></svg>