<svg xmlns="http://www.w3.org/2000/svg" viewBox="0 0 39.63 42.27"><defs><style>.cls-1{fill:#f51322;}</style></defs><g id="Layer_2" data-name="Layer 2"><g id="Layer_1-2" data-name="Layer 1"><path class="cls-1" d="M39.63,41V31a1.24,1.24,0,0,0-1.24-1.24H19.81V42.27H38.39A1.23,1.23,0,0,0,39.63,41Zm-9.91-5a1.24,1.24,0,1,1,0-2.48,1.24,1.24,0,0,1,0,2.48Z"/><path class="cls-1" d="M34.68,18.66a1.24,1.24,0,1,0,2.47,0V14.94h1.24a1.23,1.23,0,0,0,1.24-1.23V1.24A1.23,1.23,0,0,0,38.39,0H36.94A9.51,9.51,0,0,0,32.2,1.3V16.76a7.36,7.36,0,0,1,2.48-1.41Z"/><path class="cls-1" d="M23.53,14.94H25a7.28,7.28,0,0,1,4.74,1.82V1.3A9.51,9.51,0,0,0,25,0H23.53a1.24,1.24,0,0,0-1.24,1.24V13.71A1.24,1.24,0,0,0,23.53,14.94Z"/><path class="cls-1" d="M1.24,42.27h16.1V41a3.79,3.79,0,0,0-3.72-3.79H6.19A1.25,1.25,0,0,1,5,36V28.57a1.24,1.24,0,1,1,2.48,0v6.19h6.19A6.18,6.18,0,0,1,17.34,36V28.57a1.23,1.23,0,0,1,1.24-1.24h8.54a6.22,6.22,0,0,0-6.07-5H19.64a.31.31,0,0,1-.07.09,3.65,3.65,0,0,1-.94,1.38l-2.39,2.39a3.54,3.54,0,0,1-2.62,1.1,3.63,3.63,0,0,1-2.7-1.19L8.53,23.75a3.22,3.22,0,0,1-.86-1.3.27.27,0,0,1-.07-.08H6.19A6.2,6.2,0,0,0,0,28.57V41A1.23,1.23,0,0,0,1.24,42.27Z"/><path class="cls-1" d="M9.91,21.11v0a1.14,1.14,0,0,0,.37.86c.25.25,2.72,2.73,2.48,2.48a1.14,1.14,0,0,0,.86.37,1.16,1.16,0,0,0,.87-.37L17,22a1.17,1.17,0,0,0,.37-.86v0a6.18,6.18,0,0,0,2.47-4.93V13.71a6.19,6.19,0,1,0-12.38,0v2.47A6.16,6.16,0,0,0,9.91,21.11Z"/></g></g></svg>