<svg xmlns="http://www.w3.org/2000/svg" viewBox="0 0 38 38" width="38" height="38">
	<style>
		tspan { white-space:pre }
		.shp0 { fill: #0a1b11 } 
	</style>
	<g id="Group 1">
		<g id="Group 3">
			<path id="Shape 16" class="shp0" d="M34.49 22.87C36.64 22.16 37.8 19.85 37.09 17.71C36.68 16.48 35.72 15.52 34.49 15.11C34.01 14.96 33.64 14.58 33.5 14.1C33.33 13.58 33.41 13.01 33.73 12.57C34.83 11.12 34.83 9.12 33.73 7.67C32.73 6.27 30.91 5.73 29.3 6.35C28.86 6.51 28.38 6.44 28 6.17C27.57 5.85 27.32 5.33 27.34 4.79C27.42 2.99 26.28 1.36 24.56 0.82C22.9 0.27 21.07 0.93 20.15 2.42C19.7 3.1 18.79 3.28 18.11 2.83C17.95 2.72 17.81 2.58 17.7 2.42C16.78 0.94 14.96 0.28 13.3 0.82C11.59 1.37 10.46 3 10.54 4.79C10.56 5.33 10.31 5.85 9.88 6.17C9.5 6.44 9.01 6.51 8.58 6.35C6.97 5.73 5.15 6.27 4.14 7.67C3.05 9.12 3.05 11.12 4.14 12.57C4.45 13.01 4.53 13.58 4.35 14.1C4.21 14.57 3.83 14.94 3.36 15.09C1.22 15.8 0.05 18.11 0.77 20.26C1.17 21.48 2.13 22.44 3.36 22.85C3.85 23 4.22 23.4 4.35 23.89C4.52 24.41 4.44 24.98 4.12 25.42C3.02 26.87 3.02 28.87 4.12 30.32C5.12 31.71 6.95 32.26 8.55 31.64C8.99 31.48 9.48 31.55 9.85 31.82C10.28 32.14 10.53 32.65 10.51 33.19C10.43 34.99 11.57 36.62 13.29 37.17C13.69 37.29 14.1 37.36 14.52 37.35C15.81 37.34 17.02 36.67 17.7 35.57C18.15 34.89 19.06 34.71 19.74 35.15C19.9 35.26 20.04 35.4 20.15 35.57C21.07 37.05 22.89 37.71 24.55 37.17C26.27 36.62 27.41 34.99 27.33 33.19C27.31 32.65 27.56 32.14 27.99 31.82C28.36 31.55 28.85 31.48 29.29 31.64C30.89 32.26 32.72 31.71 33.72 30.32C34.82 28.87 34.82 26.87 33.72 25.42C33.41 24.97 33.32 24.41 33.5 23.89C33.64 23.41 34.01 23.02 34.49 22.87ZM31.17 23.11C30.76 24.38 30.98 25.77 31.77 26.85C32.22 27.44 32.22 28.26 31.77 28.85C31.41 29.36 30.74 29.57 30.14 29.35C28.95 28.9 27.61 29.08 26.57 29.83C25.47 30.62 24.84 31.91 24.88 33.27C24.93 33.97 24.5 34.62 23.83 34.83C23.21 35.03 22.54 34.78 22.21 34.22C21.05 32.42 18.66 31.9 16.86 33.05C16.39 33.35 15.99 33.75 15.69 34.22C15.36 34.78 14.69 35.03 14.08 34.82C13.4 34.61 12.96 33.96 13.01 33.25C13.05 31.9 12.42 30.61 11.32 29.81C10.67 29.34 9.88 29.09 9.08 29.09C8.62 29.09 8.17 29.18 7.74 29.34C7.15 29.55 6.48 29.35 6.12 28.83C5.67 28.24 5.67 27.43 6.12 26.84C6.89 25.76 7.1 24.37 6.68 23.11C6.29 21.87 5.32 20.91 4.08 20.52C3.24 20.22 2.8 19.28 3.11 18.44C3.27 17.98 3.63 17.63 4.08 17.46C5.32 17.08 6.29 16.12 6.68 14.88C7.1 13.61 6.87 12.21 6.08 11.13C5.67 10.55 5.67 9.78 6.09 9.2C6.46 8.69 7.13 8.48 7.72 8.7C8.92 9.14 10.26 8.96 11.3 8.22C12.4 7.43 13.03 6.14 12.99 4.78C12.9 4.06 13.33 3.38 14.03 3.15C14.64 2.95 15.32 3.21 15.64 3.77C16.8 5.56 19.19 6.09 20.99 4.93C21.46 4.63 21.86 4.23 22.16 3.77L22.16 3.77C22.49 3.18 23.19 2.92 23.83 3.15C24.5 3.36 24.95 4.01 24.89 4.72C24.85 6.08 25.48 7.37 26.58 8.16C27.62 8.9 28.96 9.08 30.16 8.64C30.76 8.45 31.41 8.68 31.76 9.2C32.21 9.79 32.21 10.61 31.76 11.2C30.99 12.26 30.77 13.63 31.17 14.88C31.56 16.12 32.53 17.08 33.77 17.46C34.62 17.77 35.05 18.7 34.74 19.55C34.58 20 34.22 20.36 33.77 20.52C32.53 20.91 31.56 21.87 31.17 23.11ZM18.93 6.75C12.16 6.75 6.68 12.23 6.68 18.99C6.68 25.75 12.16 31.23 18.93 31.23C25.69 31.23 31.17 25.75 31.17 18.99C31.17 12.23 25.69 6.75 18.93 6.75ZM18.93 28.79C13.51 28.79 9.13 24.4 9.13 18.99C9.13 13.58 13.51 9.2 18.93 9.2C24.34 9.2 28.72 13.58 28.72 18.99C28.72 24.4 24.34 28.79 18.93 28.79ZM24.18 14.29L17.38 21.1L13.71 17.43C13.23 16.95 12.46 16.94 11.98 17.42C11.5 17.9 11.49 18.67 11.97 19.15L16.48 23.69C16.71 23.92 17.02 24.05 17.35 24.05C17.67 24.05 17.98 23.92 18.22 23.69L25.88 16.03C26.36 15.55 26.36 14.77 25.88 14.29C25.4 13.81 24.62 13.81 24.14 14.29L24.18 14.29Z" />
		</g>
	</g>
</svg>