<svg xmlns="http://www.w3.org/2000/svg" viewBox="0 0 36 36" width="36" height="36">
	<style>
		tspan { white-space:pre }
		.shp0 { fill: #0a1b11 } 
	</style>
	<g id="Group 1">
		<g id="Group 3">
			<path id="Shape 18" class="shp0" d="M17.74 0C7.95 0 -0.01 7.96 -0.01 17.75C-0.01 27.54 7.95 35.5 17.74 35.5C27.52 35.5 35.49 27.54 35.49 17.75C35.49 7.96 27.52 0 17.74 0ZM8.15 29.94C10.88 27.8 14.23 26.62 17.74 26.62C21.24 26.62 24.59 27.8 27.32 29.94C24.68 32.03 21.35 33.28 17.74 33.28C14.12 33.28 10.79 32.03 8.15 29.94ZM28.97 28.44C25.81 25.84 21.86 24.41 17.74 24.41C13.61 24.41 9.67 25.84 6.5 28.44C3.84 25.65 2.2 21.89 2.2 17.75C2.2 9.19 9.17 2.22 17.74 2.22C26.3 2.22 33.27 9.19 33.27 17.75C33.27 21.89 31.63 25.65 28.97 28.44ZM22.93 11.19C21.79 11.51 16.03 13.18 14.6 14.61C13.76 15.45 13.3 16.56 13.3 17.75C13.3 18.93 13.76 20.05 14.6 20.89C15.44 21.73 16.55 22.19 17.74 22.19C18.92 22.19 20.04 21.73 20.87 20.89C22.31 19.45 23.97 13.7 24.3 12.56C24.4 12.17 24.3 11.76 24.01 11.47C23.73 11.19 23.32 11.08 22.93 11.19L22.93 11.19ZM19.3 19.32C18.47 20.16 17.01 20.16 16.17 19.32C15.75 18.9 15.52 18.34 15.52 17.75C15.52 17.16 15.75 16.6 16.17 16.18C16.7 15.65 19.1 14.71 21.57 13.92C20.78 16.39 19.84 18.78 19.3 19.32L19.3 19.32ZM16.63 5.55C16.63 4.93 17.12 4.44 17.74 4.44C18.35 4.44 18.84 4.93 18.84 5.55C18.84 6.16 18.35 6.66 17.74 6.66C17.12 6.66 16.63 6.16 16.63 5.55ZM9.89 8.34C10.32 8.77 10.32 9.47 9.89 9.91C9.46 10.34 8.76 10.34 8.32 9.91C7.89 9.47 7.89 8.77 8.32 8.34C8.76 7.9 9.46 7.9 9.89 8.34ZM6.64 17.75C6.64 18.36 6.15 18.86 5.53 18.86C4.92 18.86 4.42 18.36 4.42 17.75C4.42 17.14 4.92 16.64 5.53 16.64C6.15 16.64 6.64 17.14 6.64 17.75ZM31.05 17.75C31.05 18.36 30.55 18.86 29.94 18.86C29.33 18.86 28.83 18.36 28.83 17.75C28.83 17.14 29.33 16.64 29.94 16.64C30.55 16.64 31.05 17.14 31.05 17.75ZM27.15 8.34C27.58 8.77 27.58 9.47 27.15 9.91C26.72 10.34 26.01 10.34 25.58 9.91C25.15 9.47 25.15 8.77 25.58 8.34C26.01 7.9 26.72 7.9 27.15 8.34Z" />
		</g>
	</g>
</svg>