<svg xmlns="http://www.w3.org/2000/svg" viewBox="0 0 19 24" width="19" height="24">
	<style>
		tspan { white-space:pre }
		.shp0 { fill: #51516a } 
	</style>
	<path id="Shape 3" class="shp0" d="M17.25 9.86L17.25 7.57C17.25 3.36 13.82 -0.07 9.61 -0.07C5.4 -0.07 1.97 3.36 1.97 7.57L1.97 9.86C1.16 10.15 0.58 10.92 0.58 11.83L0.58 14.61C0.58 19.58 4.63 23.63 9.61 23.63C14.59 23.63 18.64 19.58 18.64 14.61L18.64 11.83C18.64 10.92 18.06 10.15 17.25 9.86ZM9.61 1.32C13.06 1.32 15.86 4.12 15.86 7.57L15.86 9.75L14.47 9.75L14.47 7.57C14.47 4.89 12.29 2.71 9.61 2.71C6.93 2.71 4.75 4.89 4.75 7.57L4.75 9.75L3.36 9.75L3.36 7.57C3.36 4.12 6.16 1.32 9.61 1.32ZM6.14 9.75L6.14 7.57C6.14 5.65 7.7 4.1 9.61 4.1C11.53 4.1 13.08 5.65 13.08 7.57L13.08 9.75L6.14 9.75ZM17.25 14.61C17.25 18.82 13.82 22.25 9.61 22.25C5.4 22.25 1.97 18.82 1.97 14.61L1.97 11.83C1.97 11.45 2.28 11.13 2.67 11.13L16.56 11.13C16.94 11.13 17.25 11.45 17.25 11.83L17.25 14.61ZM9.61 12.52C8.46 12.52 7.53 13.46 7.53 14.61C7.53 15.51 8.11 16.28 8.92 16.57L8.92 20.16C8.92 20.55 9.23 20.86 9.61 20.86C9.99 20.86 10.31 20.55 10.31 20.16L10.31 16.57C11.11 16.28 11.69 15.51 11.69 14.61C11.69 13.46 10.76 12.52 9.61 12.52ZM9.61 15.3C9.23 15.3 8.92 14.99 8.92 14.61C8.92 14.22 9.23 13.91 9.61 13.91C9.99 13.91 10.31 14.22 10.31 14.61C10.31 14.99 9.99 15.3 9.61 15.3Z" />
</svg>