<svg xmlns="http://www.w3.org/2000/svg" viewBox="0 0 61 45" width="61" height="45">
	<style>
		tspan { white-space:pre }
		.shp0 { fill: #ffffff } 
	</style>
	<path id="Shape 20" class="shp0" d="M12.01 21.96C16.36 21.96 19.91 18.42 19.91 14.06C19.91 9.71 16.36 6.17 12.01 6.17C7.65 6.17 4.11 9.71 4.11 14.06C4.11 18.42 7.65 21.96 12.01 21.96ZM12.01 9.63C14.45 9.63 16.44 11.62 16.44 14.06C16.44 16.51 14.45 18.5 12.01 18.5C9.57 18.5 7.58 16.51 7.58 14.06C7.58 11.62 9.57 9.63 12.01 9.63ZM5.84 30.18L8.1 30.18C9.06 30.18 9.84 29.41 9.84 28.45C9.84 27.49 9.06 26.72 8.1 26.72L5.84 26.72C2.62 26.72 0 29.34 0 32.56L0 40.78C0 41.74 0.78 42.51 1.73 42.51L7.9 42.51C8.86 42.51 9.63 41.74 9.63 40.78C9.63 39.82 8.86 39.05 7.9 39.05L3.47 39.05L3.47 32.56C3.47 31.25 4.53 30.18 5.84 30.18ZM30.5 19.91C35.99 19.91 40.46 15.44 40.46 9.95C40.46 4.47 35.99 0 30.5 0C25.02 0 20.55 4.47 20.55 9.95C20.55 15.44 25.02 19.91 30.5 19.91ZM30.5 3.47C34.08 3.47 36.99 6.38 36.99 9.95C36.99 13.53 34.08 16.44 30.5 16.44C26.93 16.44 24.02 13.53 24.02 9.95C24.02 6.38 26.93 3.47 30.5 3.47ZM19.96 10.94C20.04 11.84 20.24 12.71 20.53 13.54C20.48 12.62 20.28 11.75 19.96 10.94ZM59.28 14.39L52.79 14.39L52.79 7.9C52.79 6.94 52.01 6.17 51.06 6.17C50.1 6.17 49.32 6.94 49.32 7.9L49.32 14.39L42.84 14.39C41.88 14.39 41.1 15.16 41.1 16.12C41.1 17.08 41.88 17.85 42.84 17.85L49.32 17.85L49.32 24.34C49.32 25.3 50.1 26.07 51.06 26.07C52.01 26.07 52.79 25.3 52.79 24.34L52.79 17.85L59.28 17.85C60.23 17.85 61.01 17.08 61.01 16.12C61.01 15.16 60.23 14.39 59.28 14.39ZM42.84 24.66L18.17 24.66C14.95 24.66 12.33 27.28 12.33 30.5L12.33 42.83C12.33 43.79 13.11 44.57 14.06 44.57L46.95 44.57C47.9 44.57 48.68 43.79 48.68 42.83L48.68 30.5C48.68 27.28 46.06 24.66 42.84 24.66ZM45.21 41.1L15.8 41.1L15.8 30.5C15.8 29.19 16.86 28.13 18.17 28.13L42.84 28.13C44.15 28.13 45.21 29.19 45.21 30.5L45.21 41.1Z" />
</svg>