<svg xmlns="http://www.w3.org/2000/svg" viewBox="0 0 21 23" width="21" height="23">
	<style>
		tspan { white-space:pre }
		.shp0 { fill: #51516a } 
	</style>
	<path id="Shape 5" class="shp0" d="M18.95 17.21L18.95 15.23C18.95 14.88 18.68 14.59 18.33 14.59L11.22 14.59L11.22 13.34L15.8 13.34C18 13.34 19.78 11.52 19.78 9.27C19.78 7.02 18 5.19 15.8 5.19L15.61 5.19C15.3 2.63 13.17 0.65 10.6 0.65C8.02 0.65 5.89 2.63 5.59 5.19L5.39 5.19C3.2 5.19 1.41 7.02 1.41 9.27C1.41 11.52 3.2 13.34 5.39 13.34L9.98 13.34L9.98 14.59L2.86 14.59C2.52 14.59 2.24 14.88 2.24 15.23L2.24 17.21C1.16 17.5 0.36 18.5 0.36 19.7C0.36 21.11 1.48 22.26 2.86 22.26C4.24 22.26 5.36 21.11 5.36 19.7C5.36 18.5 4.56 17.5 3.48 17.21L3.48 15.86L9.98 15.86L9.98 17.21C8.9 17.5 8.1 18.5 8.1 19.7C8.1 21.11 9.22 22.26 10.6 22.26C11.98 22.26 13.1 21.11 13.1 19.7C13.1 18.5 12.3 17.5 11.22 17.21L11.22 15.86L17.72 15.86L17.72 17.21C16.64 17.5 15.83 18.5 15.83 19.7C15.83 21.11 16.96 22.26 18.33 22.26C19.71 22.26 20.84 21.11 20.84 19.7C20.84 18.5 20.03 17.5 18.95 17.21L18.95 17.21ZM2.65 9.27C2.65 7.72 3.88 6.46 5.39 6.46L6.17 6.46C6.51 6.46 6.78 6.17 6.78 5.82C6.78 3.67 8.49 1.91 10.6 1.91C12.7 1.91 14.41 3.67 14.41 5.82C14.41 6.17 14.69 6.46 15.03 6.46L15.8 6.46C17.32 6.46 18.55 7.72 18.55 9.27C18.55 10.82 17.32 12.08 15.8 12.08L5.39 12.08C3.88 12.08 2.65 10.82 2.65 9.27L2.65 9.27ZM4.13 19.7C4.13 20.41 3.56 21 2.86 21C2.16 21 1.59 20.41 1.59 19.7C1.59 18.98 2.16 18.4 2.86 18.4C3.56 18.4 4.13 18.98 4.13 19.7ZM11.87 19.7C11.87 20.41 11.3 21 10.6 21C9.9 21 9.33 20.41 9.33 19.7C9.33 18.98 9.9 18.4 10.6 18.4C11.3 18.4 11.87 18.98 11.87 19.7ZM18.33 21C17.64 21 17.07 20.41 17.07 19.7C17.07 18.98 17.64 18.4 18.33 18.4C19.03 18.4 19.6 18.98 19.6 19.7C19.6 20.41 19.03 21 18.33 21Z" />
</svg>