<svg xmlns="http://www.w3.org/2000/svg" width="107.312" height="97.563" viewBox="0 0 53.656 48.781">
  <defs>
    <style>
      .cls-1 {
        fill: #fff;
        fill-rule: evenodd;
      }
    </style>
  </defs>
  <path class="cls-1" d="M47.56,0.69H6.081A6.088,6.088,0,0,0,0,6.771v36.6a6.088,6.088,0,0,0,6.081,6.081H47.56a6.088,6.088,0,0,0,6.081-6.081V6.771A6.087,6.087,0,0,0,47.56.69ZM6.081,3.941H47.56a2.833,2.833,0,0,1,2.83,2.83v6.923H3.251V6.771A2.833,2.833,0,0,1,6.081,3.941ZM47.56,46.2H6.081a2.833,2.833,0,0,1-2.83-2.83V16.945H50.39V43.374A2.833,2.833,0,0,1,47.56,46.2Zm-11.8-35.761h9.753a1.626,1.626,0,0,0,0-3.251H35.761A1.626,1.626,0,1,0,35.761,10.443ZM9.753,7.192A1.626,1.626,0,1,1,8.127,8.818,1.625,1.625,0,0,1,9.753,7.192Zm4.877,0A1.626,1.626,0,1,1,13,8.818,1.625,1.625,0,0,1,14.63,7.192Zm4.285,16.731a1.625,1.625,0,0,0-2.3,0L11.042,29.5a1.625,1.625,0,0,0,0,2.3l5.574,5.572a1.625,1.625,0,0,0,2.3-2.3L14.49,30.646l4.425-4.425A1.625,1.625,0,0,0,18.914,23.923Zm16.486,0a1.626,1.626,0,1,0-2.338,2.259l0.04,0.04,4.425,4.425L33.1,35.069a1.626,1.626,0,0,0,2.259,2.339l0.04-.04L40.974,31.8a1.625,1.625,0,0,0,0-2.3Zm-7.32-.413a1.626,1.626,0,0,0-2.009,1.115L22.82,36a1.625,1.625,0,0,0,1.115,2.009,1.584,1.584,0,0,0,.447.063A1.625,1.625,0,0,0,25.945,36.9L29.2,25.52A1.626,1.626,0,0,0,28.081,23.51Z" transform="translate(0 -0.688)"/>
</svg>
