<svg xmlns="http://www.w3.org/2000/svg" viewBox="0 0 25 22" width="25" height="22">
	<style>
		tspan { white-space:pre }
		.shp0 { opacity: 0.769;fill: #663fe7 } 
	</style>
	<path id="Shape 1" class="shp0" d="M22.39 8.55C22.04 8.38 21.62 8.52 21.44 8.87L20.66 10.43L19.88 8.87C19.62 8.35 18.88 8.35 18.62 8.87L17.84 10.43L17.06 8.87C16.76 8.28 15.86 8.37 15.7 9.01C15.54 8.38 14.67 8.28 14.38 8.87L13.6 10.43L12.82 8.87C12.56 8.35 11.81 8.35 11.55 8.87L10.75 10.47L9.89 8.85C9.59 8.28 8.74 8.39 8.58 9.01C8.42 8.37 7.51 8.28 7.22 8.87L6.44 10.43L5.66 8.87C5.4 8.34 4.65 8.35 4.4 8.87L3.62 10.43L2.84 8.87C2.66 8.52 2.24 8.38 1.89 8.55C1.54 8.72 1.4 9.15 1.57 9.5L2.98 12.32C3.24 12.84 3.99 12.84 4.25 12.32L5.03 10.76L5.81 12.32C6.13 12.95 7.14 12.78 7.2 12.07C8.57 9.33 8.33 9.79 8.58 9.35C8.61 9.48 8.51 9.27 10.15 12.34C10.42 12.85 11.15 12.83 11.41 12.32L12.19 10.76L12.97 12.32C13.23 12.84 13.97 12.84 14.23 12.32C15.75 9.28 15.67 9.46 15.7 9.35C15.95 9.79 15.71 9.33 17.08 12.07C17.14 12.79 18.15 12.95 18.47 12.32L19.25 10.76L20.03 12.32C20.29 12.84 21.03 12.84 21.29 12.32L22.71 9.5C22.88 9.15 22.74 8.72 22.39 8.55ZM22.07 5.65L21.56 5.65C19.78 2.28 16.24 0 12.19 0C8.21 0 4.55 2.2 2.72 5.65L2.2 5.65C1.04 5.65 0.08 6.6 0.08 7.77L0.08 13.42C0.08 14.59 1.04 15.54 2.2 15.54L2.72 15.54C4.55 18.98 8.21 21.19 12.19 21.19C16.24 21.19 19.78 18.91 21.56 15.54L22.07 15.54C23.24 15.54 24.19 14.59 24.19 13.42L24.19 7.77C24.19 6.6 23.24 5.65 22.07 5.65ZM19.92 5.65L17.82 5.65C17.42 4.37 16.87 3.25 16.21 2.35C17.71 3.08 19 4.22 19.92 5.65ZM12.89 1.51C14.28 1.9 15.55 3.42 16.33 5.65L12.89 5.65L12.89 1.51ZM11.48 1.51L11.48 5.65L7.95 5.65C8.74 3.44 10.06 1.9 11.48 1.51ZM8.1 2.35C7.42 3.24 6.86 4.36 6.46 5.65L4.36 5.65C5.28 4.22 6.58 3.09 8.1 2.35ZM4.36 15.54L6.46 15.54C6.86 16.83 7.42 17.95 8.1 18.84C6.58 18.1 5.28 16.97 4.36 15.54ZM11.48 19.68C10.06 19.29 8.74 17.75 7.95 15.54L11.48 15.54L11.48 19.68ZM12.89 19.68L12.89 15.54L16.33 15.54C15.55 17.77 14.28 19.29 12.89 19.68ZM16.21 18.84C16.87 17.94 17.42 16.82 17.82 15.54L19.92 15.54C19 16.97 17.71 18.11 16.21 18.84ZM22.78 13.42C22.78 13.81 22.46 14.13 22.07 14.13L2.2 14.13C1.81 14.13 1.5 13.81 1.5 13.42L1.5 7.77C1.5 7.38 1.81 7.06 2.2 7.06C2.61 7.06 21.49 7.06 22.07 7.06C22.46 7.06 22.78 7.38 22.78 7.77L22.78 13.42Z" />
</svg>