<svg xmlns="http://www.w3.org/2000/svg" viewBox="0 0 55 55" width="55" height="55">
	<style>
		tspan { white-space:pre }
		.shp0 { fill: #ffffff } 
	</style>
	<path id="Shape 18" class="shp0" d="M27.5 0C12.34 0 0 12.34 0 27.5C0 42.66 12.34 55 27.5 55C42.66 55 55 42.66 55 27.5C55 12.34 42.66 0 27.5 0ZM12.65 46.39C16.87 43.07 22.07 41.25 27.5 41.25C32.93 41.25 38.13 43.07 42.35 46.39C38.26 49.62 33.11 51.56 27.5 51.56C21.89 51.56 16.74 49.62 12.65 46.39ZM44.91 44.06C40 40.03 33.89 37.81 27.5 37.81C21.11 37.81 15 40.03 10.09 44.06C5.98 39.74 3.44 33.92 3.44 27.5C3.44 14.23 14.23 3.44 27.5 3.44C40.77 3.44 51.56 14.23 51.56 27.5C51.56 33.92 49.02 39.74 44.91 44.06ZM35.54 17.34C33.78 17.83 24.86 20.42 22.64 22.64C21.34 23.94 20.62 25.66 20.62 27.5C20.62 29.34 21.34 31.06 22.64 32.36C23.94 33.66 25.66 34.37 27.5 34.37C29.34 34.37 31.06 33.66 32.36 32.36C34.58 30.14 37.17 21.22 37.66 19.46C37.83 18.86 37.66 18.22 37.22 17.78C36.78 17.34 36.15 17.17 35.54 17.34L35.54 17.34ZM29.93 29.93C28.63 31.23 26.37 31.23 25.07 29.93C24.42 29.28 24.06 28.42 24.06 27.5C24.06 26.58 24.42 25.72 25.07 25.07C25.9 24.24 29.61 22.78 33.44 21.56C32.22 25.39 30.76 29.1 29.93 29.93L29.93 29.93ZM25.78 8.59C25.78 7.64 26.55 6.87 27.5 6.87C28.45 6.87 29.22 7.64 29.22 8.59C29.22 9.54 28.45 10.31 27.5 10.31C26.55 10.31 25.78 9.54 25.78 8.59ZM15.35 12.92C16.02 13.59 16.02 14.68 15.35 15.35C14.68 16.02 13.59 16.02 12.92 15.35C12.24 14.68 12.24 13.59 12.92 12.92C13.59 12.24 14.68 12.24 15.35 12.92ZM10.31 27.5C10.31 28.45 9.54 29.22 8.59 29.22C7.64 29.22 6.87 28.45 6.87 27.5C6.87 26.55 7.64 25.78 8.59 25.78C9.54 25.78 10.31 26.55 10.31 27.5ZM48.12 27.5C48.12 28.45 47.36 29.22 46.41 29.22C45.46 29.22 44.69 28.45 44.69 27.5C44.69 26.55 45.46 25.78 46.41 25.78C47.36 25.78 48.12 26.55 48.12 27.5ZM42.08 12.92C42.76 13.59 42.76 14.68 42.08 15.35C41.41 16.02 40.32 16.02 39.65 15.35C38.98 14.68 38.98 13.59 39.65 12.92C40.32 12.24 41.41 12.24 42.08 12.92Z" />
</svg>