<svg xmlns="http://www.w3.org/2000/svg" viewBox="0 0 59 59" width="59" height="59">
	<style>
		tspan { white-space:pre }
		.shp0 { fill: #ffffff } 
	</style>
	<path id="Shape 16" class="shp0" d="M54.43 35.94C57.83 34.81 59.68 31.14 58.55 27.74C57.9 25.79 56.38 24.27 54.43 23.62C53.67 23.38 53.07 22.78 52.86 22.01C52.58 21.19 52.72 20.28 53.22 19.58C54.96 17.28 54.96 14.11 53.22 11.81C51.63 9.59 48.74 8.73 46.19 9.71C45.49 9.97 44.72 9.86 44.13 9.42C43.44 8.91 43.04 8.1 43.08 7.24C43.2 4.38 41.39 1.8 38.66 0.93C36.02 0.06 33.13 1.11 31.67 3.47C30.95 4.55 29.51 4.84 28.43 4.13C28.17 3.96 27.95 3.73 27.78 3.47C26.31 1.12 23.43 0.07 20.8 0.93C18.08 1.8 16.28 4.39 16.4 7.24C16.44 8.1 16.04 8.91 15.35 9.42C14.76 9.86 13.99 9.97 13.29 9.71C10.74 8.73 7.85 9.59 6.26 11.81C4.52 14.11 4.52 17.28 6.26 19.58C6.75 20.29 6.87 21.19 6.59 22.01C6.36 22.76 5.77 23.35 5.01 23.58C1.61 24.71 -0.24 28.38 0.89 31.79C1.54 33.73 3.07 35.26 5.01 35.9C5.78 36.15 6.38 36.77 6.59 37.55C6.86 38.37 6.72 39.28 6.22 39.98C4.48 42.28 4.48 45.45 6.22 47.75C7.81 49.97 10.7 50.83 13.25 49.85C13.95 49.6 14.72 49.71 15.32 50.14C16 50.65 16.4 51.46 16.37 52.32C16.24 55.18 18.05 57.77 20.78 58.63C21.41 58.83 22.06 58.93 22.72 58.92C24.78 58.9 26.69 57.83 27.78 56.09C28.49 55.01 29.94 54.72 31.01 55.43C31.27 55.61 31.49 55.83 31.67 56.09C33.13 58.44 36.01 59.49 38.64 58.63C41.37 57.77 43.18 55.18 43.06 52.32C43.03 51.46 43.42 50.65 44.11 50.14C44.7 49.71 45.48 49.6 46.17 49.85C48.72 50.83 51.61 49.97 53.21 47.75C54.94 45.45 54.94 42.28 53.21 39.98C52.71 39.27 52.58 38.37 52.86 37.55C53.07 36.78 53.67 36.18 54.43 35.94ZM49.16 36.31C48.5 38.33 48.85 40.54 50.11 42.25C50.82 43.19 50.82 44.48 50.11 45.42C49.53 46.24 48.47 46.56 47.53 46.22C45.63 45.51 43.5 45.8 41.85 46.98C40.11 48.24 39.1 50.28 39.17 52.44C39.26 53.55 38.57 54.58 37.5 54.92C36.52 55.24 35.45 54.83 34.93 53.95C33.1 51.1 29.3 50.27 26.44 52.1C25.7 52.57 25.07 53.21 24.59 53.95C24.06 54.83 23 55.23 22.02 54.9C20.95 54.57 20.24 53.54 20.33 52.42C20.4 50.26 19.39 48.22 17.65 46.96C16.61 46.21 15.37 45.81 14.09 45.81C13.37 45.81 12.65 45.95 11.97 46.2C11.03 46.54 9.97 46.22 9.39 45.4C8.68 44.47 8.68 43.17 9.39 42.23C10.62 40.52 10.95 38.31 10.28 36.31C9.66 34.35 8.12 32.82 6.16 32.21C4.82 31.72 4.12 30.24 4.61 28.9C4.87 28.18 5.44 27.61 6.16 27.35C8.12 26.75 9.66 25.21 10.28 23.25C10.94 21.23 10.59 19.02 9.33 17.31C8.67 16.39 8.68 15.15 9.35 14.24C9.93 13.42 10.99 13.1 11.93 13.44C13.83 14.15 15.96 13.86 17.61 12.68C19.35 11.42 20.36 9.38 20.29 7.22C20.15 6.08 20.85 4.99 21.94 4.64C22.92 4.32 23.99 4.72 24.51 5.61C26.34 8.47 30.14 9.3 33 7.47C33.74 6.99 34.38 6.36 34.85 5.61L34.85 5.61C35.38 4.68 36.5 4.27 37.5 4.64C38.57 4.97 39.28 6 39.19 7.13C39.12 9.28 40.13 11.32 41.87 12.59C43.52 13.77 45.65 14.05 47.55 13.34C48.5 13.04 49.54 13.4 50.09 14.24C50.8 15.17 50.8 16.47 50.09 17.4C48.87 19.1 48.53 21.27 49.16 23.25C49.78 25.21 51.32 26.75 53.28 27.35C54.63 27.84 55.32 29.32 54.83 30.66C54.57 31.38 54 31.95 53.28 32.21C51.32 32.82 49.78 34.35 49.16 36.31ZM29.72 10.35C18.98 10.35 10.28 19.05 10.28 29.78C10.28 40.51 18.98 49.21 29.72 49.21C40.46 49.21 49.16 40.51 49.16 29.78C49.16 19.05 40.46 10.35 29.72 10.35ZM29.72 45.32C21.13 45.32 14.17 38.37 14.17 29.78C14.17 21.2 21.13 14.24 29.72 14.24C38.31 14.24 45.27 21.2 45.27 29.78C45.27 38.37 38.31 45.32 29.72 45.32ZM38.06 22.32L27.27 33.12L21.44 27.29C20.68 26.53 19.45 26.53 18.69 27.28C17.93 28.04 17.92 29.27 18.68 30.03L25.83 37.24C26.2 37.61 26.7 37.81 27.21 37.81C27.73 37.81 28.23 37.61 28.59 37.24L40.76 25.08C41.53 24.32 41.53 23.08 40.76 22.32C40 21.56 38.76 21.56 38 22.32L38.06 22.32Z" />
</svg>