<svg xmlns="http://www.w3.org/2000/svg" viewBox="0 0 21 20" width="21" height="20">
	<style>
		tspan { white-space:pre }
		.shp0 { fill: #51516a } 
	</style>
	<path id="Shape 7" class="shp0" d="M13.95 11.64C13.58 11.64 13.28 11.94 13.28 12.32C13.28 12.69 13.58 12.99 13.95 12.99C14.33 12.99 14.63 12.69 14.63 12.32C14.63 11.94 14.33 11.64 13.95 11.64ZM11.63 11.64C11.26 11.64 10.95 11.94 10.95 12.32C10.95 12.69 11.26 12.99 11.63 12.99C12.01 12.99 12.31 12.69 12.31 12.32C12.31 11.94 12.01 11.64 11.63 11.64ZM16.27 11.64C15.9 11.64 15.6 11.94 15.6 12.32C15.6 12.69 15.9 12.99 16.27 12.99C16.65 12.99 16.95 12.69 16.95 12.32C16.95 11.94 16.65 11.64 16.27 11.64ZM9.31 11.64L4.67 11.64C4.3 11.64 3.99 11.94 3.99 12.32C3.99 12.69 4.3 12.99 4.67 12.99L9.31 12.99C9.68 12.99 9.99 12.69 9.99 12.32C9.99 11.94 9.68 11.64 9.31 11.64ZM19.79 17.44L12.18 17.44C11.99 16.98 11.61 16.6 11.15 16.41L11.15 15.32L17.43 15.32C18.45 15.32 19.27 14.49 19.27 13.48L19.27 11.16C19.27 11 19.25 10.84 19.23 10.75L17.14 1.39C16.95 0.55 16.21 -0.04 15.35 -0.04L5.6 -0.04C4.73 -0.04 3.99 0.55 3.8 1.39L1.73 10.68L1.71 10.68L1.71 10.76C1.69 10.89 1.67 11.03 1.67 11.16L1.67 13.48C1.67 14.49 2.5 15.32 3.51 15.32L9.79 15.32L9.79 16.41C9.33 16.6 8.95 16.98 8.76 17.44L1.15 17.44C0.78 17.44 0.47 17.75 0.47 18.12C0.47 18.49 0.78 18.8 1.15 18.8L8.76 18.8C9.04 19.49 9.72 19.96 10.47 19.96C11.22 19.96 11.9 19.49 12.18 18.8L19.79 18.8C20.17 18.8 20.47 18.49 20.47 18.12C20.47 17.75 20.17 17.44 19.79 17.44ZM10.47 18.6C10.2 18.6 9.99 18.39 9.99 18.12C9.99 17.85 10.2 17.64 10.47 17.64C10.74 17.64 10.95 17.85 10.95 18.12C10.95 18.39 10.74 18.6 10.47 18.6ZM5.6 1.31L15.35 1.31C15.57 1.31 15.77 1.47 15.82 1.69L17.52 9.32C17.49 9.32 17.46 9.32 17.43 9.32L3.51 9.32C3.48 9.32 3.45 9.32 3.42 9.32L5.13 1.69C5.18 1.47 5.37 1.31 5.6 1.31ZM17.92 13.48C17.92 13.74 17.7 13.96 17.43 13.96L3.51 13.96C3.24 13.96 3.02 13.74 3.02 13.48L3.02 11.16C3.02 10.89 3.24 10.67 3.51 10.67L17.43 10.67C17.7 10.67 17.92 10.89 17.92 11.16L17.92 13.48Z" />
</svg>