<svg xmlns="http://www.w3.org/2000/svg" viewBox="0 0 23 20" width="23" height="20">
	<style>
		tspan { white-space:pre }
		.shp0 { fill: #51516a } 
	</style>
	<path id="Shape 4" class="shp0" d="M20.36 -0.11L2.12 -0.11C1.05 -0.11 0.17 0.76 0.17 1.83L0.17 7.02C0.17 8.1 1.05 8.97 2.12 8.97L2.77 8.97L2.77 10.26L2.12 10.26C1.05 10.26 0.17 11.14 0.17 12.21L0.17 17.4C0.17 18.47 1.05 19.34 2.12 19.34L20.36 19.34C21.44 19.34 22.31 18.47 22.31 17.4L22.31 12.21C22.31 11.14 21.44 10.26 20.36 10.26L19.67 10.26L19.67 8.97L20.36 8.97C21.44 8.97 22.31 8.1 22.31 7.02L22.31 1.83C22.31 0.76 21.44 -0.11 20.36 -0.11ZM21.01 12.21L21.01 17.4C21.01 17.76 20.72 18.05 20.36 18.05L2.12 18.05C1.76 18.05 1.47 17.76 1.47 17.4L1.47 12.21C1.47 11.85 1.76 11.56 2.12 11.56L20.36 11.56C20.72 11.56 21.01 11.85 21.01 12.21ZM18.37 10.26L4.07 10.26L4.07 8.97L18.37 8.97L18.37 10.26ZM21.01 7.02C21.01 7.38 20.72 7.67 20.36 7.67L2.12 7.67C1.76 7.67 1.47 7.38 1.47 7.02L1.47 1.83C1.47 1.48 1.76 1.19 2.12 1.19L20.36 1.19C20.72 1.19 21.01 1.48 21.01 1.83L21.01 7.02ZM8.65 2.48L4.71 2.48C4.36 2.48 4.07 2.77 4.07 3.13C4.07 3.49 4.36 3.78 4.71 3.78L8.65 3.78C9.01 3.78 9.3 3.49 9.3 3.13C9.3 2.77 9.01 2.48 8.65 2.48ZM8.65 5.08L4.71 5.08C4.36 5.08 4.07 5.37 4.07 5.73C4.07 6.08 4.36 6.37 4.71 6.37L8.65 6.37C9.01 6.37 9.3 6.08 9.3 5.73C9.3 5.37 9.01 5.08 8.65 5.08ZM12.54 2.48C12.9 2.48 13.19 2.77 13.19 3.13C13.19 3.49 12.9 3.78 12.54 3.78C12.18 3.78 11.89 3.49 11.89 3.13C11.89 2.77 12.18 2.48 12.54 2.48ZM12.54 5.08C12.9 5.08 13.19 5.37 13.19 5.73C13.19 6.08 12.9 6.37 12.54 6.37C12.18 6.37 11.89 6.08 11.89 5.73C11.89 5.37 12.18 5.08 12.54 5.08ZM15.13 5.08C15.49 5.08 15.78 5.37 15.78 5.73C15.78 6.08 15.49 6.37 15.13 6.37C14.77 6.37 14.48 6.08 14.48 5.73C14.48 5.37 14.77 5.08 15.13 5.08ZM15.13 2.48C15.49 2.48 15.78 2.77 15.78 3.13C15.78 3.49 15.49 3.78 15.13 3.78C14.77 3.78 14.48 3.49 14.48 3.13C14.48 2.77 14.77 2.48 15.13 2.48ZM17.73 2.48C18.08 2.48 18.37 2.77 18.37 3.13C18.37 3.49 18.08 3.78 17.73 3.78C17.37 3.78 17.08 3.49 17.08 3.13C17.08 2.77 17.37 2.48 17.73 2.48ZM17.73 5.08C18.08 5.08 18.37 5.37 18.37 5.73C18.37 6.08 18.08 6.37 17.73 6.37C17.37 6.37 17.08 6.08 17.08 5.73C17.08 5.37 17.37 5.08 17.73 5.08ZM8.65 12.86L4.71 12.86C4.36 12.86 4.07 13.15 4.07 13.51C4.07 13.87 4.36 14.16 4.71 14.16L8.65 14.16C9.01 14.16 9.3 13.87 9.3 13.51C9.3 13.15 9.01 12.86 8.65 12.86ZM8.65 15.45L4.71 15.45C4.36 15.45 4.07 15.74 4.07 16.1C4.07 16.46 4.36 16.75 4.71 16.75L8.65 16.75C9.01 16.75 9.3 16.46 9.3 16.1C9.3 15.74 9.01 15.45 8.65 15.45ZM12.54 12.86C12.9 12.86 13.19 13.15 13.19 13.51C13.19 13.87 12.9 14.16 12.54 14.16C12.18 14.16 11.89 13.87 11.89 13.51C11.89 13.15 12.18 12.86 12.54 12.86ZM12.54 15.45C12.9 15.45 13.19 15.74 13.19 16.1C13.19 16.46 12.9 16.75 12.54 16.75C12.18 16.75 11.89 16.46 11.89 16.1C11.89 15.74 12.18 15.45 12.54 15.45ZM15.13 15.45C15.49 15.45 15.78 15.74 15.78 16.1C15.78 16.46 15.49 16.75 15.13 16.75C14.77 16.75 14.48 16.46 14.48 16.1C14.48 15.74 14.77 15.45 15.13 15.45ZM15.13 12.86C15.49 12.86 15.78 13.15 15.78 13.51C15.78 13.87 15.49 14.16 15.13 14.16C14.77 14.16 14.48 13.87 14.48 13.51C14.48 13.15 14.77 12.86 15.13 12.86ZM17.73 12.86C18.08 12.86 18.37 13.15 18.37 13.51C18.37 13.87 18.08 14.16 17.73 14.16C17.37 14.16 17.08 13.87 17.08 13.51C17.08 13.15 17.37 12.86 17.73 12.86ZM17.73 15.45C18.08 15.45 18.37 15.74 18.37 16.1C18.37 16.46 18.08 16.75 17.73 16.75C17.37 16.75 17.08 16.46 17.08 16.1C17.08 15.74 17.37 15.45 17.73 15.45Z" />
</svg>