<svg xmlns="http://www.w3.org/2000/svg" viewBox="0 0 54 50" width="54" height="50">
	<style>
		tspan { white-space:pre }
		.shp0 { fill: #ffffff } 
	</style>
	<path id="Shape 19" class="shp0" d="M47.56 0.69L6.08 0.69C2.72 0.69 0 3.41 0 6.77L0 43.37C0 46.73 2.72 49.45 6.08 49.46L47.56 49.46C50.92 49.45 53.64 46.73 53.64 43.37L53.64 6.77C53.64 3.41 50.92 0.69 47.56 0.69ZM6.08 3.94L47.56 3.94C49.12 3.94 50.39 5.21 50.39 6.77L50.39 13.69L3.25 13.69L3.25 6.77C3.25 5.21 4.52 3.94 6.08 3.94ZM47.56 46.2L6.08 46.2C4.52 46.2 3.25 44.94 3.25 43.37L3.25 16.94L50.39 16.94L50.39 43.37C50.39 44.94 49.12 46.2 47.56 46.2ZM35.76 10.44L45.51 10.44C46.41 10.44 47.14 9.72 47.14 8.82C47.14 7.92 46.41 7.19 45.51 7.19L35.76 7.19C34.86 7.19 34.14 7.92 34.14 8.82C34.14 9.72 34.86 10.44 35.76 10.44ZM9.75 7.19C10.65 7.19 11.38 7.92 11.38 8.82C11.38 9.72 10.65 10.44 9.75 10.44C8.86 10.44 8.13 9.72 8.13 8.82C8.13 7.92 8.86 7.19 9.75 7.19ZM14.63 7.19C15.53 7.19 16.25 7.92 16.25 8.82C16.25 9.72 15.53 10.44 14.63 10.44C13.73 10.44 13 9.72 13 8.82C13 7.92 13.73 7.19 14.63 7.19ZM18.91 23.92C18.28 23.29 17.25 23.29 16.62 23.92L11.04 29.5C10.41 30.13 10.41 31.16 11.04 31.8L16.62 37.37C17.26 37.99 18.29 37.97 18.91 37.33C19.52 36.7 19.52 35.7 18.91 35.07L14.49 30.65L18.91 26.22C19.55 25.59 19.55 24.56 18.91 23.92ZM35.4 23.92C34.78 23.28 33.75 23.26 33.1 23.88C32.46 24.51 32.44 25.54 33.06 26.18C33.07 26.2 33.09 26.21 33.1 26.22L37.53 30.65L33.1 35.07C32.46 35.69 32.44 36.72 33.06 37.37C33.69 38.01 34.71 38.03 35.36 37.41C35.37 37.39 35.39 37.38 35.4 37.37L40.97 31.8C41.61 31.16 41.61 30.13 40.97 29.5L35.4 23.92ZM28.08 23.51C27.22 23.26 26.32 23.76 26.07 24.63L22.82 36C22.57 36.87 23.07 37.77 23.94 38.01C24.08 38.06 24.23 38.08 24.38 38.08C25.11 38.08 25.75 37.6 25.94 36.9L29.2 25.52C29.44 24.66 28.94 23.76 28.08 23.51Z" />
</svg>