<svg xmlns="http://www.w3.org/2000/svg" viewBox="0 0 17 18" width="17" height="18">
	<style>
		tspan { white-space:pre }
		.shp0 { fill: #000000 } 
	</style>
	<path id="Shape 10" class="shp0" d="M16.9 11.99L16.9 11.97C16.44 11.19 15.68 10.69 14.85 10.55L14.85 6L15.12 6C15.39 6 15.61 5.78 15.61 5.5L15.61 3.15C15.61 2.88 15.39 2.65 15.12 2.65L13.99 2.65L13.99 0.76C13.99 0.58 13.9 0.42 13.74 0.33C13.59 0.24 13.4 0.24 13.25 0.33L11.36 1.42C10.97 0.93 10.37 0.61 9.7 0.61C9.08 0.61 8.52 0.88 8.13 1.31L6.44 0.33C6.29 0.24 6.1 0.24 5.95 0.33C5.79 0.42 5.7 0.58 5.7 0.76L5.7 2.65L4.28 2.65C4 2.65 3.78 2.88 3.78 3.15L3.78 5.5C3.78 5.78 4 6 4.28 6L4.54 6L4.54 9.46L3.05 9.46L3.05 8.93C3.05 8.65 2.83 8.43 2.55 8.43L0.5 8.43C0.22 8.43 0 8.65 0 8.93L0 15.86C0 16.13 0.22 16.35 0.5 16.35L2.55 16.35C2.83 16.35 3.05 16.13 3.05 15.86L3.05 14.86L4.48 14.86L8.18 17.01C8.46 17.17 8.75 17.25 9.03 17.25C9.29 17.25 9.56 17.17 9.79 17.03L16.74 12.66C16.97 12.51 17.04 12.22 16.9 11.99L16.9 11.99ZM13.86 10.54C13.54 10.59 13.23 10.7 12.93 10.85L11.37 11.67L11.37 6L13.86 6L13.86 10.54ZM10.38 5.01L9.02 5.01L9.02 3.65L10.38 3.65L10.38 5.01ZM10.38 6L10.38 11.65C10.23 11.37 10 11.12 9.69 10.95L9.02 10.56L9.02 6L10.38 6ZM14.62 5.01L14.35 5.01C14.35 5.01 14.35 5.01 14.35 5.01C14.35 5.01 14.35 5.01 14.35 5.01L11.37 5.01L11.37 3.65L14.62 3.65L14.62 5.01ZM13 1.62L13 2.65L11.8 2.65C11.8 2.54 11.78 2.44 11.77 2.33L13 1.62ZM9.7 1.6C10.29 1.6 10.77 2.07 10.8 2.65L8.59 2.65C8.62 2.07 9.1 1.6 9.7 1.6L9.7 1.6ZM6.69 1.62L7.66 2.18C7.62 2.33 7.6 2.49 7.59 2.65L6.69 2.65L6.69 1.62ZM4.77 3.65L8.02 3.65L8.02 5.01L4.77 5.01L4.77 3.65ZM5.54 6L8.02 6L8.02 9.98L7.66 9.77C7.37 9.57 7.03 9.46 6.68 9.46L5.54 9.46L5.54 6ZM2.05 15.36L0.99 15.36L0.99 9.42L2.05 9.42L2.05 15.36L2.05 15.36ZM9.26 16.18C9.06 16.31 8.83 16.23 8.68 16.15L4.86 13.94C4.78 13.89 4.7 13.87 4.61 13.87L3.05 13.87L3.05 10.46L6.68 10.46C6.83 10.46 6.97 10.51 7.1 10.59C7.11 10.6 9.19 11.81 9.19 11.81C9.43 11.95 9.56 12.14 9.56 12.38C9.56 12.65 9.39 12.94 9.16 13.07C8.95 13.19 8.72 13.18 8.48 13.04L6.59 11.95C6.51 11.91 6.43 11.88 6.34 11.88L5.5 11.88C5.23 11.88 5.01 12.11 5.01 12.38C5.01 12.66 5.23 12.88 5.5 12.88L6.21 12.88L7.98 13.91C8.27 14.07 8.56 14.15 8.86 14.15C9.13 14.15 9.4 14.08 9.65 13.94C9.88 13.8 10.08 13.62 10.23 13.4L13.39 11.73C14.2 11.31 15.16 11.48 15.76 12.1L9.26 16.18Z" />
</svg>