<svg xmlns="http://www.w3.org/2000/svg" viewBox="0 0 41.67 41.67"><defs><style>.cls-1{fill:#f51322;}</style></defs><g id="Layer_2" data-name="Layer 2"><g id="Layer_1-2" data-name="Layer 1"><path class="cls-1" d="M38,0H3.68V9.81H38ZM11,6.13H8.58V3.68H11Zm4.9,0H13.48V3.68h2.45Zm17.16,0H18.39V3.68h14.7Z"/><path class="cls-1" d="M38,12.26H3.68v7.35H38Zm-27,4.9H8.58V14.71H11Zm4.9,0H13.48V14.71h2.45Zm17.16,0H18.39V14.71h14.7Z"/><path class="cls-1" d="M38,34.32a3.68,3.68,0,0,0-3.47,2.45H27V34.32h-4.9V31.87H38V22.06H3.68v9.81H19.61v2.45h-4.9v2.45H7.14a3.68,3.68,0,1,0,0,2.45h7.57v2.45H27V39.22h7.57A3.68,3.68,0,1,0,38,34.32ZM11,28.19H8.58V25.74H11Zm4.9,0H13.48V25.74h2.45Zm2.46-2.45h14.7v2.45H18.39Z"/></g></g></svg>