<svg xmlns="http://www.w3.org/2000/svg" width="19" height="26" viewBox="0 0 19 26">
  <metadata><?xpacket begin="﻿" id="W5M0MpCehiHzreSzNTczkc9d"?>
<x:xmpmeta xmlns:x="adobe:ns:meta/" x:xmptk="Adobe XMP Core 5.6-c142 79.160924, 2017/07/13-01:06:39        ">
   <rdf:RDF xmlns:rdf="http://www.w3.org/1999/02/22-rdf-syntax-ns#">
      <rdf:Description rdf:about=""/>
   </rdf:RDF>
</x:xmpmeta>
                                                                                                    
                                                                                                    
                                                                                                    
                                                                                                    
                                                                                                    
                                                                                                    
                                                                                                    
                                                                                                    
                                                                                                    
                                                                                                    
                                                                                                    
                                                                                                    
                                                                                                    
                                                                                                    
                                                                                                    
                                                                                                    
                                                                                                    
                                                                                                    
                                                                                                    
                                                                                                    
                           
<?xpacket end="w"?></metadata>
<defs>
    <style>
      .cls-1 {
        fill: #fff;
        fill-rule: evenodd;
      }
    </style>
  </defs>
  <path id="Forma_1" data-name="Forma 1" class="cls-1" d="M14.515,0H1.573A1.588,1.588,0,0,0,0,1.6V24.405A1.588,1.588,0,0,0,1.573,26H17.425A1.587,1.587,0,0,0,19,24.405V4.931Zm0.372,2.386,1.967,2.161H14.887V2.387ZM17.678,24.4a0.255,0.255,0,0,1-.253.256H1.573A0.254,0.254,0,0,1,1.321,24.4V1.6a0.254,0.254,0,0,1,.252-0.255H13.562V5.218a0.666,0.666,0,0,0,.662.668h3.453V24.4ZM3.657,7.122H14.9a0.5,0.5,0,0,1,0,1H3.657A0.5,0.5,0,0,1,3.657,7.122ZM15.4,10.994a0.5,0.5,0,0,1-.5.5H3.657a0.5,0.5,0,0,1,0-1H14.9A0.5,0.5,0,0,1,15.4,10.994Zm0,3.26a0.5,0.5,0,0,1-.5.5H3.657a0.5,0.5,0,0,1,0-1H14.9A0.5,0.5,0,0,1,15.4,14.255Zm0,3.316a0.5,0.5,0,0,1-.5.5H3.657a0.5,0.5,0,0,1,0-1H14.9A0.5,0.5,0,0,1,15.4,17.57Z"/>
</svg>
