<svg xmlns="http://www.w3.org/2000/svg" width="29" height="24" viewBox="0 0 29 24">
  <metadata><?xpacket begin="﻿" id="W5M0MpCehiHzreSzNTczkc9d"?>
<x:xmpmeta xmlns:x="adobe:ns:meta/" x:xmptk="Adobe XMP Core 5.6-c142 79.160924, 2017/07/13-01:06:39        ">
   <rdf:RDF xmlns:rdf="http://www.w3.org/1999/02/22-rdf-syntax-ns#">
      <rdf:Description rdf:about=""/>
   </rdf:RDF>
</x:xmpmeta>
                                                                                                    
                                                                                                    
                                                                                                    
                                                                                                    
                                                                                                    
                                                                                                    
                                                                                                    
                                                                                                    
                                                                                                    
                                                                                                    
                                                                                                    
                                                                                                    
                                                                                                    
                                                                                                    
                                                                                                    
                                                                                                    
                                                                                                    
                                                                                                    
                                                                                                    
                                                                                                    
                           
<?xpacket end="w"?></metadata>
<defs>
    <style>
      .cls-1 {
        fill: #fff;
        fill-rule: evenodd;
      }
    </style>
  </defs>
  <path id="Forma_1" data-name="Forma 1" class="cls-1" d="M7.138,8.446H21.862a1,1,0,1,0,0-2H7.138A1,1,0,1,0,7.138,8.446Zm0,4.819H21.862a1,1,0,1,0,0-2H7.138A1,1,0,1,0,7.138,13.266Zm-6.114,6.45H4.318V23a1.006,1.006,0,0,0,1.023,1,1.111,1.111,0,0,0,.624-0.195l5.491-4.065H27.977a1,1,0,0,0,1.023-1V1a1,1,0,0,0-1.023-1H1.023A1,1,0,0,0,0,1v17.72A1.015,1.015,0,0,0,1.023,19.716ZM2.046,2H26.929V17.72H11.106a1.111,1.111,0,0,0-.624.195L6.364,20.982V18.718a1,1,0,0,0-1.023-1H2.046V2Z"/>
</svg>
