<svg xmlns="http://www.w3.org/2000/svg" width="20" height="20" viewBox="0 0 20 20">
  <metadata><?xpacket begin="﻿" id="W5M0MpCehiHzreSzNTczkc9d"?>
<x:xmpmeta xmlns:x="adobe:ns:meta/" x:xmptk="Adobe XMP Core 5.6-c138 79.159824, 2016/09/14-01:09:01        ">
   <rdf:RDF xmlns:rdf="http://www.w3.org/1999/02/22-rdf-syntax-ns#">
      <rdf:Description rdf:about=""/>
   </rdf:RDF>
</x:xmpmeta>
                                                                                                    
                                                                                                    
                                                                                                    
                                                                                                    
                                                                                                    
                                                                                                    
                                                                                                    
                                                                                                    
                                                                                                    
                                                                                                    
                                                                                                    
                                                                                                    
                                                                                                    
                                                                                                    
                                                                                                    
                                                                                                    
                                                                                                    
                                                                                                    
                                                                                                    
                                                                                                    
                           
<?xpacket end="w"?></metadata>
<defs>
    <style>
      .cls-1 {
        fill: #fff;
        fill-rule: evenodd;
      }
    </style>
  </defs>
  <path id="Forma_1" data-name="Forma 1" class="cls-1" d="M17.641,8.6V6.687l-2.273-.372A5.593,5.593,0,0,0,14.744,4.8L16.07,2.91,14.718,1.558,12.854,2.9a5.473,5.473,0,0,0-1.517-.633L10.94,0H9.029L8.661,2.262a5.478,5.478,0,0,0-1.52.626L5.282,1.558,3.931,2.91,5.238,4.785A5.567,5.567,0,0,0,4.6,6.314l-2.245.374V8.6L4.6,9a5.541,5.541,0,0,0,.634,1.53L3.91,12.389l1.351,1.355L7.133,12.43a5.49,5.49,0,0,0,1.521.628L9.029,15.32H10.94l0.4-2.267a5.587,5.587,0,0,0,1.513-.636l1.886,1.329,1.35-1.356-1.345-1.873A5.57,5.57,0,0,0,15.37,9ZM10,10.332a2.671,2.671,0,1,1,2.664-2.671A2.667,2.667,0,0,1,10,10.332ZM18.462,14.6v3.085a0.771,0.771,0,0,1-.769.771H2.308a0.771,0.771,0,0,1-.769-0.771V14.6H0v3.085A2.311,2.311,0,0,0,2.308,20H17.692A2.311,2.311,0,0,0,20,17.684V14.6H18.462Z"/>
</svg>
