<svg xmlns="http://www.w3.org/2000/svg" width="18" height="18" viewBox="0 0 18 18">
  <metadata><?xpacket begin="﻿" id="W5M0MpCehiHzreSzNTczkc9d"?>
<x:xmpmeta xmlns:x="adobe:ns:meta/" x:xmptk="Adobe XMP Core 5.6-c138 79.159824, 2016/09/14-01:09:01        ">
   <rdf:RDF xmlns:rdf="http://www.w3.org/1999/02/22-rdf-syntax-ns#">
      <rdf:Description rdf:about=""/>
   </rdf:RDF>
</x:xmpmeta>
                                                                                                    
                                                                                                    
                                                                                                    
                                                                                                    
                                                                                                    
                                                                                                    
                                                                                                    
                                                                                                    
                                                                                                    
                                                                                                    
                                                                                                    
                                                                                                    
                                                                                                    
                                                                                                    
                                                                                                    
                                                                                                    
                                                                                                    
                                                                                                    
                                                                                                    
                                                                                                    
                           
<?xpacket end="w"?></metadata>
<defs>
    <style>
      .cls-1 {
        fill: #fff;
        fill-rule: evenodd;
      }
    </style>
  </defs>
  <path id="Forma_1" data-name="Forma 1" class="cls-1" d="M11.454,12.272h1.636a0.409,0.409,0,1,0,0-.818H11.864V8.59a0.409,0.409,0,0,0-.818,0v3.273A0.409,0.409,0,0,0,11.454,12.272Zm-5.727-.818H4.909a0.409,0.409,0,1,0,0,.818H5.727a1.227,1.227,0,0,0,0-2.455,0.409,0.409,0,1,1,0-.818H6.545a0.409,0.409,0,0,0,0-.818H5.727a1.227,1.227,0,0,0,0,2.455A0.409,0.409,0,1,1,5.727,11.454Zm3.273,0H8.182a0.409,0.409,0,0,0,0,.818H9A1.227,1.227,0,0,0,9,9.817,0.409,0.409,0,1,1,9,9H9.818a0.409,0.409,0,0,0,0-.818H9a1.227,1.227,0,0,0,0,2.455A0.409,0.409,0,1,1,9,11.454ZM16.363,0H1.636A1.638,1.638,0,0,0,0,1.636V16.363A1.639,1.639,0,0,0,1.636,18H16.363A1.639,1.639,0,0,0,18,16.363V1.636A1.638,1.638,0,0,0,16.363,0ZM5.318,1.636a0.409,0.409,0,1,1-.409.409A0.409,0.409,0,0,1,5.318,1.636Zm-1.636,0a0.409,0.409,0,1,1-.409.409A0.409,0.409,0,0,1,3.682,1.636Zm-1.636,0a0.409,0.409,0,1,1-.409.409A0.409,0.409,0,0,1,2.045,1.636ZM16.363,16.363H1.636V4.09H16.363V16.363Z"/>
</svg>
