<svg xmlns="http://www.w3.org/2000/svg" width="20" height="20" viewBox="0 0 20 20">
  <metadata><?xpacket begin="﻿" id="W5M0MpCehiHzreSzNTczkc9d"?>
<x:xmpmeta xmlns:x="adobe:ns:meta/" x:xmptk="Adobe XMP Core 5.6-c138 79.159824, 2016/09/14-01:09:01        ">
   <rdf:RDF xmlns:rdf="http://www.w3.org/1999/02/22-rdf-syntax-ns#">
      <rdf:Description rdf:about=""/>
   </rdf:RDF>
</x:xmpmeta>
                                                                                                    
                                                                                                    
                                                                                                    
                                                                                                    
                                                                                                    
                                                                                                    
                                                                                                    
                                                                                                    
                                                                                                    
                                                                                                    
                                                                                                    
                                                                                                    
                                                                                                    
                                                                                                    
                                                                                                    
                                                                                                    
                                                                                                    
                                                                                                    
                                                                                                    
                                                                                                    
                           
<?xpacket end="w"?></metadata>
<defs>
    <style>
      .cls-1 {
        fill-rule: evenodd;
      }
    </style>
  </defs>
  <path class="cls-1" d="M0.392,19.209A0.4,0.4,0,1,1,0,19.6,0.394,0.394,0,0,1,.392,19.209ZM10.429,9.185a0.394,0.394,0,1,1-.392.394A0.393,0.393,0,0,1,10.429,9.185Zm5.136-4.607a1.663,1.663,0,0,0-2.361,0,1.688,1.688,0,0,0,0,2.375,1.664,1.664,0,0,0,2.361,0A1.688,1.688,0,0,0,15.565,4.579ZM15.011,6.4a0.882,0.882,0,0,1-1.252,0,0.9,0.9,0,0,1,0-1.259,0.881,0.881,0,0,1,1.252,0A0.9,0.9,0,0,1,15.011,6.4ZM4.9,16.108a0.391,0.391,0,0,0-.526.177l-0.467.944a1.3,1.3,0,0,1-1.066.716L2.3,17.982a0.233,0.233,0,0,1-.248-0.249l0.037-.547A1.3,1.3,0,0,1,2.8,16.114l0.938-.47a0.4,0.4,0,0,0,.176-0.529,0.391,0.391,0,0,0-.526-0.177l-0.938.47A2.1,2.1,0,0,0,1.3,17.132l-0.037.546a1.026,1.026,0,0,0,.3.793,1.013,1.013,0,0,0,.719.3c0.023,0,.046,0,0.07,0l0.543-.037A2.081,2.081,0,0,0,4.607,17.58l0.467-.943A0.4,0.4,0,0,0,4.9,16.108ZM19.729,0.263A0.906,0.906,0,0,0,19.034,0l-0.365.024a11.811,11.811,0,0,0-8.407,4.362L9.4,5.451,7.153,5.385H7.141A6.616,6.616,0,0,0,2.419,7.352L0.115,9.67a0.395,0.395,0,0,0,.257.673l4.877,0.252-0.2.246a0.4,0.4,0,0,0-.04.437q0.115,0.212.24,0.417L4.094,13.076a0.4,0.4,0,0,0-.055.423,5.123,5.123,0,0,0,2.452,2.466,0.391,0.391,0,0,0,.415-0.05c0.249-.2.536-0.444,0.814-0.678,0.2-.166.4-0.336,0.59-0.493q0.17,0.1.344,0.2a0.39,0.39,0,0,0,.428-0.035L9.348,14.7,9.6,19.625a0.394,0.394,0,0,0,.251.348,0.39,0.39,0,0,0,.418-0.089l2.3-2.317a6.693,6.693,0,0,0,1.956-4.75V10.655l0.909-.709a11.876,11.876,0,0,0,4.551-8.8L20,0.958A0.917,0.917,0,0,0,19.729.263ZM1.293,9.6l1.68-1.69A5.839,5.839,0,0,1,7.136,6.174L8.78,6.222,5.861,9.836Zm5.924,5.031c-0.2.171-.415,0.348-0.609,0.509a4.317,4.317,0,0,1-1.747-1.756l0.847-1.011a9.14,9.14,0,0,0,.839.979h0a9.09,9.09,0,0,0,1.08.933Zm6.527-1.815a5.907,5.907,0,0,1-1.726,4.192l-1.68,1.69L10.1,14.11l3.641-2.842v1.549h0Zm5.461-11.7a11.087,11.087,0,0,1-4.249,8.211l-6.151,4.8a8.316,8.316,0,0,1-1.421-1.055l2.074-2.086a0.4,0.4,0,0,0,0-.558,0.391,0.391,0,0,0-.555,0L6.833,12.509A8.353,8.353,0,0,1,5.827,11.13l5.043-6.245A11.025,11.025,0,0,1,18.718.813l0.365-.024a0.124,0.124,0,0,1,.131.13Z"/>
</svg>
