<svg xmlns="http://www.w3.org/2000/svg" width="22" height="22" viewBox="0 0 22 22">
  <metadata><?xpacket begin="﻿" id="W5M0MpCehiHzreSzNTczkc9d"?>
<x:xmpmeta xmlns:x="adobe:ns:meta/" x:xmptk="Adobe XMP Core 5.6-c142 79.160924, 2017/07/13-01:06:39        ">
   <rdf:RDF xmlns:rdf="http://www.w3.org/1999/02/22-rdf-syntax-ns#">
      <rdf:Description rdf:about=""/>
   </rdf:RDF>
</x:xmpmeta>
                                                                                                    
                                                                                                    
                                                                                                    
                                                                                                    
                                                                                                    
                                                                                                    
                                                                                                    
                                                                                                    
                                                                                                    
                                                                                                    
                                                                                                    
                                                                                                    
                                                                                                    
                                                                                                    
                                                                                                    
                                                                                                    
                                                                                                    
                                                                                                    
                                                                                                    
                                                                                                    
                           
<?xpacket end="w"?></metadata>
<defs>
    <style>
      .cls-1 {
        fill: #fff;
        fill-rule: evenodd;
      }
    </style>
  </defs>
  <path id="Forma_1" data-name="Forma 1" class="cls-1" d="M21.5,17.417l-3.4-3.408a1.768,1.768,0,0,0-2.5.047L13.9,15.773l-0.338-.189A17.028,17.028,0,0,1,9.445,12.6,17.173,17.173,0,0,1,6.462,8.461C6.4,8.346,6.338,8.235,6.278,8.13l1.149-1.15,0.564-.567a1.779,1.779,0,0,0,.046-2.505L4.64,0.5a1.765,1.765,0,0,0-2.5.047l-0.957.966L1.213,1.538a5.552,5.552,0,0,0-.789,1.4A5.8,5.8,0,0,0,.073,4.349c-0.448,3.73,1.251,7.139,5.862,11.766,6.374,6.394,11.51,5.911,11.732,5.888a5.729,5.729,0,0,0,1.415-.357,5.513,5.513,0,0,0,1.386-.788l0.021,0.019,0.97-.953A1.782,1.782,0,0,0,21.5,17.417Z"/>
</svg>
