<svg xmlns="http://www.w3.org/2000/svg" viewBox="0 0 45.34 41.55"><defs><style>.cls-1{fill:#f51322;}</style></defs><g id="Layer_2" data-name="Layer 2"><g id="Layer_1-2" data-name="Layer 1"><path class="cls-1" d="M22.67,25a17.52,17.52,0,0,1-8-1.62V27c0,.27.53.86,2,1.39a18.42,18.42,0,0,0,6,.89,18.47,18.47,0,0,0,6-.89c1.46-.53,2-1.12,2-1.39V23.4A17.55,17.55,0,0,1,22.67,25Zm1.55,2.91h-3.1a1,1,0,1,1,0-1.91h3.1a1,1,0,0,1,0,1.91Z"/><path class="cls-1" d="M22.67,37.28a17.66,17.66,0,0,1-8-1.61v3.6c0,.27.53.86,2,1.39a18.42,18.42,0,0,0,6,.89,22.37,22.37,0,0,0,4-.36c3-.57,4-1.56,4-1.92v-3.6A17.69,17.69,0,0,1,22.67,37.28Zm1.55,3.17h-3.1a1,1,0,1,1,0-1.91h3.1a1,1,0,0,1,0,1.91Z"/><path class="cls-1" d="M22.67,31.15a17.52,17.52,0,0,1-8-1.62v3.56c0,.27.53.86,2,1.39a18.16,18.16,0,0,0,6,.89,18.2,18.2,0,0,0,6-.89c1.46-.53,2-1.12,2-1.39V29.53A17.55,17.55,0,0,1,22.67,31.15Zm1.55,3.1h-3.1a1,1,0,1,1,0-1.91h3.1a1,1,0,0,1,0,1.91Z"/><path class="cls-1" d="M28.67,19.43a18.47,18.47,0,0,0-6-.89,18.47,18.47,0,0,0-6,.89c-1.46.53-2,1.13-2,1.4s.53.86,2,1.39a18.47,18.47,0,0,0,6,.89,18.47,18.47,0,0,0,6-.89c1.46-.53,2-1.13,2-1.39S30.13,20,28.67,19.43Z"/><path class="cls-1" d="M41,15l-.58-.29.08-.83c.06-.54.1-1.1.11-1.65A12.26,12.26,0,0,0,21.61,2a12.42,12.42,0,0,0-4.45,5.18l-.32.68-.74-.15a10.32,10.32,0,0,0-1.92-.18A9.32,9.32,0,0,0,8.5,9.46a9.8,9.8,0,0,0-3.39,4.87l-.12.4-.39.18A7.9,7.9,0,0,0,2.3,16.5,7.81,7.81,0,0,0,7.83,29.84h4.94v-9c0-2.76,5-4.2,9.9-4.2s9.9,1.44,9.9,4.2v9H37.5A7.8,7.8,0,0,0,41,15Z"/></g></g></svg>