<svg xmlns="http://www.w3.org/2000/svg" width="15" height="15" viewBox="0 0 15 15">
  <metadata><?xpacket begin="﻿" id="W5M0MpCehiHzreSzNTczkc9d"?>
<x:xmpmeta xmlns:x="adobe:ns:meta/" x:xmptk="Adobe XMP Core 5.6-c138 79.159824, 2016/09/14-01:09:01        ">
   <rdf:RDF xmlns:rdf="http://www.w3.org/1999/02/22-rdf-syntax-ns#">
      <rdf:Description rdf:about=""/>
   </rdf:RDF>
</x:xmpmeta>
                                                                                                    
                                                                                                    
                                                                                                    
                                                                                                    
                                                                                                    
                                                                                                    
                                                                                                    
                                                                                                    
                                                                                                    
                                                                                                    
                                                                                                    
                                                                                                    
                                                                                                    
                                                                                                    
                                                                                                    
                                                                                                    
                                                                                                    
                                                                                                    
                                                                                                    
                                                                                                    
                           
<?xpacket end="w"?></metadata>
<defs>
    <style>
      .cls-1 {
        fill-rule: evenodd;
      }
    </style>
  </defs>
  <path id="Forma_1" data-name="Forma 1" class="cls-1" d="M3.668,3.667v7.665h7.664V3.667H3.668Zm6.786,6.785H4.547V4.546h5.907v5.907ZM13.09,3.97V1.91H11.03V0H10.151V1.91H8.97V0H8.091V1.91H6.909V0H6.03V1.91H4.849V0H3.97V1.91H1.91V3.97H0V4.849H1.91V6.03H0V6.909H1.91V8.091H0V8.969H1.91V10.15H0V11.03H1.91v2.06H3.97V15H4.849v-1.91H6.03V15H6.909v-1.91H8.091V15H8.969v-1.91h1.181V15H11.03v-1.91h2.06V11.03H15V10.15H13.09V8.969H15V8.091H13.09V6.909H15V6.03H13.09V4.849H15V3.97H13.09Zm-0.879,8.241H2.789V2.789h9.422v9.422Z"/>
</svg>
