<svg xmlns="http://www.w3.org/2000/svg" width="15" height="18" viewBox="0 0 15 18">
  <metadata><?xpacket begin="﻿" id="W5M0MpCehiHzreSzNTczkc9d"?>
<x:xmpmeta xmlns:x="adobe:ns:meta/" x:xmptk="Adobe XMP Core 5.6-c138 79.159824, 2016/09/14-01:09:01        ">
   <rdf:RDF xmlns:rdf="http://www.w3.org/1999/02/22-rdf-syntax-ns#">
      <rdf:Description rdf:about=""/>
   </rdf:RDF>
</x:xmpmeta>
                                                                                                    
                                                                                                    
                                                                                                    
                                                                                                    
                                                                                                    
                                                                                                    
                                                                                                    
                                                                                                    
                                                                                                    
                                                                                                    
                                                                                                    
                                                                                                    
                                                                                                    
                                                                                                    
                                                                                                    
                                                                                                    
                                                                                                    
                                                                                                    
                                                                                                    
                                                                                                    
                           
<?xpacket end="w"?></metadata>
<defs>
    <style>
      .cls-1 {
        fill: #fff;
        fill-rule: evenodd;
      }
    </style>
  </defs>
  <path id="Forma_1" data-name="Forma 1" class="cls-1" d="M9.373,12.355H5.61A5.636,5.636,0,0,0,0,18H15A5.671,5.671,0,0,0,9.373,12.355ZM8.162,9.772a1.2,1.2,0,0,1,.785.28h1.358a3.885,3.885,0,1,0-4.711.724,1.276,1.276,0,0,1,1.227-1H8.162ZM1.734,7.682a1.84,1.84,0,0,0,.523,1.069,1.97,1.97,0,0,0,.8.477,0.744,0.744,0,0,1-.016-0.181V5.856a0.8,0.8,0,0,1,.016-0.2,1.746,1.746,0,0,0-.8.477L2.192,6.2V6.07a5.664,5.664,0,0,1,.082-0.921,3.94,3.94,0,0,1,.245-0.888,3.919,3.919,0,0,1,.393-0.84,4.751,4.751,0,0,1,.523-0.757A0.127,0.127,0,0,0,3.468,2.6,0.481,0.481,0,0,0,3.86,2.466a5.075,5.075,0,0,1,7.2,0,0.463,0.463,0,0,0,.393.132c0.016,0.016.016,0.049,0.033,0.066a4.752,4.752,0,0,1,.523.757,6.576,6.576,0,0,1,.393.84,8.135,8.135,0,0,1,.245.9,5.652,5.652,0,0,1,.082.922V6.218a0.245,0.245,0,0,0-.066-0.066,1.973,1.973,0,0,0-.8-0.477,0.809,0.809,0,0,1,.016.2V9.048a0.624,0.624,0,0,1-.016.181A1.413,1.413,0,0,0,12.1,9.146v1.037a1.665,1.665,0,0,1-.033.313,0.47,0.47,0,0,1-.082.181,0.353,0.353,0,0,1-.131.082,0.822,0.822,0,0,1-.213.033H8.62a0.543,0.543,0,0,0-.474-0.28H6.8a0.529,0.529,0,0,0-.523.527,0.543,0.543,0,0,0,.54.527H8.162a0.563,0.563,0,0,0,.474-0.28h3.157A0.937,0.937,0,0,0,12.1,11.22a0.884,0.884,0,0,0,.327-0.214,1.09,1.09,0,0,0,.2-0.362,1.972,1.972,0,0,0,.066-0.478V8.8l0.049-.049a1.84,1.84,0,0,0,.523-1.069A0.06,0.06,0,0,0,13.3,7.65a0.3,0.3,0,0,0,.082-0.2V6.087a6.957,6.957,0,0,0-.082-1.02c-0.1-.346-0.18-0.675-0.295-1a4.909,4.909,0,0,0-.442-0.937,4.831,4.831,0,0,0-.589-0.839,0.165,0.165,0,0,0-.082-0.066,0.5,0.5,0,0,0-.131-0.444A5.987,5.987,0,0,0,7.492,0,6.052,6.052,0,0,0,3.206,1.775a0.5,0.5,0,0,0-.131.444,0.29,0.29,0,0,0-.082.066,4.836,4.836,0,0,0-.589.839,8.242,8.242,0,0,0-.442.938,5.33,5.33,0,0,0-.262,1,5.245,5.245,0,0,0-.082,1.02V7.452a0.272,0.272,0,0,0,.082.2A0.064,0.064,0,0,1,1.734,7.682Z"/>
</svg>
