<svg xmlns="http://www.w3.org/2000/svg" viewBox="0 0 42.93 43.1"><defs><style>.cls-1{fill:#f51322;}</style></defs><g id="Layer_2" data-name="Layer 2"><g id="Layer_1-2" data-name="Layer 1"><path class="cls-1" d="M36.28,12.21H35.8a8.67,8.67,0,0,0-8.6-6.07A12.12,12.12,0,0,0,16.75,0,12.13,12.13,0,0,0,5.15,8.91a8.67,8.67,0,0,0-.44,15.64V21.38A3.79,3.79,0,0,1,8.5,17.59H34.43a3.79,3.79,0,0,1,3.78,3.79v3.84a6.65,6.65,0,0,0-1.93-13Z"/><path class="cls-1" d="M34.43,20.12H8.5a1.25,1.25,0,0,0-1.26,1.26V30.3H35.69V21.38A1.26,1.26,0,0,0,34.43,20.12ZM18.06,26.6h-6.7a1.27,1.27,0,0,1,0-2.53h6.7a1.27,1.27,0,1,1,0,2.53Zm8.12,0a1.27,1.27,0,1,1,1.26-1.27A1.26,1.26,0,0,1,26.18,26.59Zm5.39,0a1.27,1.27,0,1,1,1.26-1.27A1.27,1.27,0,0,1,31.57,26.59Z"/><path class="cls-1" d="M7.24,41.83A1.26,1.26,0,0,0,8.5,43.1H34.43a1.27,1.27,0,0,0,1.26-1.27v-9H7.24Zm24.33-5.47a1.27,1.27,0,1,1-1.27,1.27A1.27,1.27,0,0,1,31.57,36.36Zm-5.39,0a1.27,1.27,0,1,1-1.26,1.27A1.26,1.26,0,0,1,26.18,36.36Zm-14.82,0h6.7a1.27,1.27,0,1,1,0,2.53h-6.7a1.27,1.27,0,0,1,0-2.53Z"/></g></g></svg>