<svg xmlns="http://www.w3.org/2000/svg" viewBox="0 0 36.09 43.05"><defs><style>.cls-1{fill:#f51322;}</style></defs><g id="Layer_2" data-name="Layer 2"><g id="Layer_1-2" data-name="Layer 1"><path class="cls-1" d="M31.2,1.65A47.28,47.28,0,0,0,18.05,0,47.36,47.36,0,0,0,4.89,1.65C1.83,2.58,0,3.8,0,4.91S1.83,7.23,4.89,8.16h0A47.36,47.36,0,0,0,18.05,9.81,47.28,47.28,0,0,0,31.2,8.16c3.06-.93,4.88-2.15,4.88-3.25S34.26,2.58,31.2,1.65Z"/><path class="cls-1" d="M18.05,33.78c-7.07,0-14.47-1.23-18-3.56v7.93c0,1.1,1.83,2.32,4.88,3.25a47.06,47.06,0,0,0,13.17,1.65,55.68,55.68,0,0,0,8.75-.66c5.47-.88,9.29-2.63,9.29-4.24V30.22C32.51,32.55,25.11,33.78,18.05,33.78Zm3.16,5.38H14.88a.94.94,0,1,1,0-1.85h6.33a.94.94,0,1,1,0,1.85Z"/><path class="cls-1" d="M18.05,22.72c-7.07,0-14.47-1.23-18-3.56V27c0,1.11,1.83,2.33,4.88,3.26a47.43,47.43,0,0,0,13.17,1.65,47.36,47.36,0,0,0,13.16-1.65c3-.93,4.88-2.15,4.88-3.26V19.16C32.51,21.49,25.11,22.72,18.05,22.72Zm3.16,5.19H14.88a.94.94,0,1,1,0-1.86h6.33a.94.94,0,1,1,0,1.86Z"/><path class="cls-1" d="M18.05,11.67C11,11.67,3.58,10.44,0,8.11V16c0,1.11,1.83,2.32,4.88,3.25a47,47,0,0,0,13.17,1.66,47,47,0,0,0,13.16-1.66c3-.93,4.88-2.14,4.88-3.25V8.11C32.51,10.44,25.11,11.67,18.05,11.67ZM21.21,17H14.88a1,1,0,0,1-1.1-.93,1,1,0,0,1,1.1-.93h6.33a1,1,0,0,1,1.11.93A1,1,0,0,1,21.21,17Z"/></g></g></svg>