<svg xmlns="http://www.w3.org/2000/svg" viewBox="0 0 40.45 40.45"><defs><style>.cls-1{fill:#f51322;}</style></defs><g id="Layer_2" data-name="Layer 2"><g id="Layer_1-2" data-name="Layer 1"><path class="cls-1" d="M20.5,21.62l-4.78,13.9a16,16,0,0,0,4.51.65,15.76,15.76,0,0,0,5.29-.91,1.13,1.13,0,0,1-.11-.22Z"/><path class="cls-1" d="M4.28,20.23a15.93,15.93,0,0,0,9,14.34L5.67,13.74A15.77,15.77,0,0,0,4.28,20.23Z"/><path class="cls-1" d="M31,19.42A8.4,8.4,0,0,0,29.67,15c-.81-1.31-1.56-2.42-1.56-3.73a2.76,2.76,0,0,1,2.67-2.83H31a15.92,15.92,0,0,0-24.08,3l1,0c1.67,0,4.25-.2,4.25-.2a.66.66,0,0,1,.1,1.31s-.86.1-1.82.15L16.26,30l3.49-10.46-2.48-6.81c-.86-.05-1.67-.15-1.67-.15a.66.66,0,0,1,.1-1.31s2.63.2,4.2.2,4.25-.2,4.25-.2a.66.66,0,0,1,.1,1.31s-.87.1-1.83.15l5.76,17.14,1.59-5.32A19.18,19.18,0,0,0,31,19.42Z"/><path class="cls-1" d="M34.21,12.58a11.87,11.87,0,0,1,.11,1.64,15.08,15.08,0,0,1-1.21,5.71L28.24,34a15.92,15.92,0,0,0,6-21.42Z"/><path class="cls-1" d="M20.23,0A20.23,20.23,0,1,0,40.45,20.23,20.23,20.23,0,0,0,20.23,0Zm0,38A17.73,17.73,0,1,1,38,20.23,17.75,17.75,0,0,1,20.23,38Z"/></g></g></svg>