<svg xmlns="http://www.w3.org/2000/svg" width="50" height="50" viewBox="0 0 50 50">
  <metadata><?xpacket begin="﻿" id="W5M0MpCehiHzreSzNTczkc9d"?>
<x:xmpmeta xmlns:x="adobe:ns:meta/" x:xmptk="Adobe XMP Core 5.6-c138 79.159824, 2016/09/14-01:09:01        ">
   <rdf:RDF xmlns:rdf="http://www.w3.org/1999/02/22-rdf-syntax-ns#">
      <rdf:Description rdf:about=""/>
   </rdf:RDF>
</x:xmpmeta>
                                                                                                    
                                                                                                    
                                                                                                    
                                                                                                    
                                                                                                    
                                                                                                    
                                                                                                    
                                                                                                    
                                                                                                    
                                                                                                    
                                                                                                    
                                                                                                    
                                                                                                    
                                                                                                    
                                                                                                    
                                                                                                    
                                                                                                    
                                                                                                    
                                                                                                    
                                                                                                    
                           
<?xpacket end="w"?></metadata>
<defs>
    <style>
      .cls-1 {
        fill-rule: evenodd;
      }
    </style>
  </defs>
  <path id="Forma_1" data-name="Forma 1" class="cls-1" d="M49.324,37.387l-1.2-.232a1.643,1.643,0,0,1-1.014-2.584l0.757-1.03a0.834,0.834,0,0,0-.083-1.083l-1.633-1.632a0.835,0.835,0,0,0-1.057-.1l-1.013.687a1.643,1.643,0,0,1-2.546-1.11L41.337,29.04a0.834,0.834,0,0,0-.824-0.707H38.2a0.834,0.834,0,0,0-.819.676l-0.3,1.554a1.643,1.643,0,0,1-2.534,1.05l-1.31-.888a0.836,0.836,0,0,0-1.057.1l-1.633,1.632a0.835,0.835,0,0,0-.082,1.083l0.012,0.016-3.5-1.91a2.2,2.2,0,0,1-1.148-1.934V26.956a17.511,17.511,0,0,0,2.919-6.032A3.316,3.316,0,0,0,30,18.334V15a3.321,3.321,0,0,0-.833-2.187V8.38a7.472,7.472,0,0,0-1.743-5.438C25.712,0.989,22.934,0,19.167,0s-6.546.989-8.257,2.942A7.464,7.464,0,0,0,9.167,8.38v4.433A3.317,3.317,0,0,0,8.333,15v3.333a3.313,3.313,0,0,0,1.247,2.591A17.511,17.511,0,0,0,12.5,26.956v2.757a2.2,2.2,0,0,1-1.148,1.934L3.918,35.7A7.513,7.513,0,0,0,0,42.3v3.532a0.833,0.833,0,0,0,.833.833H31.347l1.112,1.112a0.832,0.832,0,0,0,1.082.083l1.031-.756a1.643,1.643,0,0,1,2.584,1.015l0.231,1.2A0.834,0.834,0,0,0,38.2,50h2.307a0.834,0.834,0,0,0,.824-0.707l0.137-.888a1.643,1.643,0,0,1,2.595-1.075l0.724,0.532a0.833,0.833,0,0,0,1.083-.083l1.632-1.632a0.832,0.832,0,0,0,.1-1.056l-0.687-1.014a1.643,1.643,0,0,1,1.111-2.546l1.262-.194A0.834,0.834,0,0,0,50,40.513V38.205A0.833,0.833,0,0,0,49.324,37.387ZM1.667,42.3a5.849,5.849,0,0,1,3.048-5.137l7.435-4.056a3.867,3.867,0,0,0,2.017-3.4V26.667a0.837,0.837,0,0,0-.194-0.534,15.845,15.845,0,0,1-2.842-5.888,0.831,0.831,0,0,0-.36-0.513,1.663,1.663,0,0,1-.771-1.4V15a1.642,1.642,0,0,1,.558-1.228,0.835,0.835,0,0,0,.275-0.619V8.333a0.819,0.819,0,0,0-.007-0.109,5.781,5.781,0,0,1,1.337-4.183c1.382-1.576,3.738-2.374,7-2.374s5.605,0.793,6.988,2.358a5.855,5.855,0,0,1,1.353,4.2,0.951,0.951,0,0,0-.007.109v4.819a0.835,0.835,0,0,0,.275.619A1.644,1.644,0,0,1,28.334,15v3.333a1.664,1.664,0,0,1-.772,1.4,0.833,0.833,0,0,0-.36.513,15.815,15.815,0,0,1-2.842,5.888,0.841,0.841,0,0,0-.193.534v3.046a3.865,3.865,0,0,0,2.017,3.4L31.48,36c-0.014.048-.03,0.1-0.049,0.144a1.612,1.612,0,0,1-1.218,1.013l-1.2.232a0.834,0.834,0,0,0-.677.818v2.308a0.834,0.834,0,0,0,.707.824L30.3,41.531a1.643,1.643,0,0,1,1.111,2.546L30.787,45H1.667V42.3Zm46.667-2.5-0.556.086a3.31,3.31,0,0,0-2.237,5.128l0.3,0.444-0.64.639-0.147-.108a3.31,3.31,0,0,0-5.228,2.166l-0.027.182H38.893l-0.1-.528a3.309,3.309,0,0,0-5.207-2.043l-0.454.333-0.64-.64,0.3-.444a3.31,3.31,0,0,0-2.238-5.127L30,39.8v-0.9l0.528-.1a3.31,3.31,0,0,0,2.044-5.207l-0.333-.453,0.639-.639,0.741,0.5a3.309,3.309,0,0,0,5.106-2.114L38.893,30H39.8l0.085,0.556a3.309,3.309,0,0,0,5.128,2.237l0.443-.3,0.64,0.639-0.333.454a3.309,3.309,0,0,0,2.044,5.207l0.528,0.1v0.9h0ZM39.167,35a4.167,4.167,0,1,0,4.167,4.167A4.171,4.171,0,0,0,39.167,35Zm0,6.667a2.5,2.5,0,1,1,2.5-2.5A2.5,2.5,0,0,1,39.167,41.667Z"/>
</svg>
