<svg xmlns="http://www.w3.org/2000/svg" viewBox="0 0 486 512" width="486" height="512">
	<style>
		tspan { white-space:pre }
		.shp0 { fill: #f5bb00 } 
	</style>
	<g id="Layer">
		<path id="Layer" fill-rule="evenodd" class="shp0" d="M375.64 350.32C394.1 341.2 414.76 346.36 424.78 362.58C434.99 379.03 430.15 400.35 413.53 412.15L296.39 495.51C296.31 495.57 296.23 495.63 296.14 495.69C277.92 507.83 264.06 512 250.81 512C239.07 512 227.81 508.73 214.41 504.85C210.35 503.67 157.03 488.16 144.56 484.49C121.88 477.82 110.93 476.56 94.21 476.33C93.31 490.24 81.71 501.28 67.57 501.28L27.21 501.28C12.48 501.28 0.5 489.3 0.5 474.58L0.5 380.96C0.5 366.24 12.48 354.26 27.21 354.26L67.57 354.26C78.75 354.26 88.35 361.18 92.32 370.95C104.69 370.88 109.02 368.12 116.1 363.58C117.96 362.38 120.08 361.03 122.44 359.67C159.68 338.19 197.06 345.13 225.46 353.57L264.85 365.25C278.1 369.18 287.57 379.88 290.57 392.45L375.64 350.32ZM74.28 474.58L74.28 380.96C74.28 377.27 71.27 374.26 67.57 374.26L27.21 374.26C23.51 374.26 20.5 377.27 20.5 380.96L20.5 474.58C20.5 478.28 23.51 481.28 27.21 481.28L67.57 481.28C71.27 481.28 74.27 478.28 74.27 474.58L74.28 474.58ZM401.94 395.86C409.84 390.25 412.34 380.47 407.78 373.11C402.69 364.87 392.22 364.43 384.51 368.24L288.51 415.79C281.17 432.7 262.12 441.95 243.93 436.68L187.6 420.35C182.29 418.82 179.24 413.27 180.78 407.97C182.31 402.66 187.86 399.61 193.17 401.15L249.5 417.47C258.63 420.12 268.23 414.89 270.89 405.82C270.89 405.8 270.9 405.79 270.9 405.77C273.54 396.7 268.28 387.13 259.16 384.42L219.76 372.75C182.78 361.75 156.66 363.03 132.41 377.01C130.45 378.13 128.64 379.29 126.89 380.42C119.17 385.36 111.19 390.47 94.27 390.92L94.27 456.34C113.87 456.63 125.89 458.16 150.2 465.3C162.67 468.97 215.87 484.45 219.98 485.64C247.13 493.51 258.39 496.78 284.92 479.13L401.94 395.86Z" />
		<path id="Layer" fill-rule="evenodd" class="shp0" d="M202.84 229.03C202.76 228.95 202.68 228.86 202.6 228.78C187.46 213.13 187.46 187.67 202.6 172.02C215.11 159.05 236.35 158.6 251.18 170.54C266.02 158.61 287.26 159.06 299.79 172.02C314.89 187.67 314.89 213.13 299.8 228.77C299.72 228.86 299.64 228.94 299.55 229.03L258.14 268.97C256.2 270.83 253.7 271.77 251.2 271.77C248.69 271.77 246.19 270.83 244.25 268.97L202.84 229.03ZM216.98 185.91C209.29 193.87 209.25 206.77 216.87 214.77L251.2 247.88L285.52 214.77C292.99 206.9 292.95 193.73 285.41 185.91C279.1 179.39 268.66 181.43 262.62 187.07L262.25 187.42C259.28 190.22 256.21 193.1 251.19 193.1C246.19 193.1 243.12 190.23 240.14 187.44L239.75 187.07C233.71 181.43 223.28 179.38 216.98 185.91Z" />
		<path id="Layer" class="shp0" d="M26.87 226.81L80.96 226.81C86.48 226.81 90.96 222.34 90.96 216.81C90.96 211.29 86.48 206.81 80.96 206.81L26.87 206.81C21.34 206.81 16.87 211.29 16.87 216.81C16.87 222.34 21.34 226.81 26.87 226.81Z" />
		<path id="Layer" class="shp0" d="M29.68 159.36L76.6 182.26C78.01 182.95 79.51 183.28 80.98 183.28C84.68 183.28 88.24 181.21 89.97 177.66C92.39 172.7 90.34 166.71 85.37 164.29L38.46 141.39C33.49 138.96 27.51 141.02 25.08 145.98C22.66 150.95 24.72 156.93 29.68 159.36L29.68 159.36Z" />
		<path id="Layer" class="shp0" d="M76.6 251.36L29.68 274.27C24.72 276.69 22.66 282.68 25.08 287.64C26.82 291.19 30.38 293.26 34.08 293.26C35.55 293.26 37.05 292.93 38.46 292.24L85.37 269.34C90.34 266.91 92.39 260.93 89.97 255.96C87.55 251 81.56 248.94 76.6 251.36L76.6 251.36Z" />
		<path id="Layer" class="shp0" d="M475.5 206.81L421.41 206.81C415.89 206.81 411.41 211.29 411.41 216.81C411.41 222.34 415.89 226.81 421.41 226.81L475.5 226.81C481.02 226.81 485.5 222.34 485.5 216.81C485.5 211.29 481.02 206.81 475.5 206.81Z" />
		<path id="Layer" class="shp0" d="M421.42 183.28C422.89 183.28 424.39 182.95 425.8 182.26L472.69 159.36C477.65 156.93 479.71 150.94 477.28 145.98C474.86 141.02 468.87 138.96 463.91 141.39L417.02 164.29C412.06 166.71 410 172.7 412.42 177.66C414.16 181.21 417.72 183.28 421.42 183.28Z" />
		<path id="Layer" class="shp0" d="M472.69 274.27L425.8 251.37C420.83 248.94 414.85 251 412.42 255.96C410 260.92 412.06 266.91 417.02 269.34L463.91 292.24C465.32 292.93 466.82 293.26 468.29 293.26C471.99 293.26 475.55 291.19 477.28 287.64C479.7 282.68 477.65 276.69 472.69 274.27Z" />
		<path id="Layer" fill-rule="evenodd" class="shp0" d="M124.73 137.55C109.64 134.77 98.16 121.52 98.16 105.64L98.16 91.44C98.16 73.55 112.72 58.99 130.62 58.99L151.31 58.99C148.93 50.15 149.54 40.6 153.31 31.23C160.07 14.44 175.58 1.98 191.93 0.22C206.72 -1.37 220.17 5.58 229.82 19.78L251.19 51.2L272.53 19.78C282.2 5.57 295.67 -1.37 310.46 0.22C326.8 1.99 342.31 14.45 349.05 31.23C352.82 40.6 353.43 50.15 351.06 58.99L371.77 58.99C389.67 58.99 404.24 73.55 404.24 91.44L404.24 105.64C404.24 121.53 392.74 134.79 377.63 137.55L377.63 283.79C377.63 302.72 362.24 318.11 343.32 318.11L159.07 318.11C140.14 318.11 124.73 302.72 124.73 283.79L124.73 137.55ZM270.08 58.99L329.6 58.99C334.17 51 332.25 43.05 330.5 38.69C326.49 28.73 317.37 21.09 308.31 20.11C301.02 19.32 294.54 22.99 289.08 31.02L270.08 58.99ZM171.87 38.69C170.12 43.05 168.2 51 172.77 58.99L232.31 58.99L213.29 31.02C207.83 22.99 201.36 19.32 194.07 20.11C185.01 21.08 175.88 28.73 171.87 38.69ZM118.16 91.44L118.16 105.64C118.16 112.51 123.75 118.09 130.62 118.09L159.87 118.09C165.39 118.09 169.87 122.57 169.87 128.09C169.87 133.61 165.39 138.09 159.87 138.09L144.73 138.09L144.73 283.79C144.73 291.69 151.17 298.11 159.07 298.11L343.32 298.11C351.21 298.11 357.63 291.69 357.63 283.79L357.63 138.09L251.2 138.09C245.67 138.09 241.2 133.61 241.2 128.09C241.2 122.57 245.67 118.09 251.2 118.09L371.77 118.09C378.64 118.09 384.24 112.51 384.24 105.64L384.24 91.44C384.24 84.58 378.64 78.99 371.77 78.99L130.62 78.99C123.75 78.99 118.16 84.58 118.16 91.44L118.16 91.44Z" />
		<path id="Layer" class="shp0" d="M204.79 138.09C210.32 138.09 214.79 133.61 214.79 128.09C214.79 122.57 210.32 118.09 204.79 118.09L204.77 118.09C199.24 118.09 194.78 122.57 194.78 128.09C194.78 133.61 199.27 138.09 204.79 138.09L204.79 138.09Z" />
	</g>
</svg>