<svg xmlns="http://www.w3.org/2000/svg" width="50" height="48" viewBox="0 0 50 48">
  <metadata><?xpacket begin="﻿" id="W5M0MpCehiHzreSzNTczkc9d"?>
<x:xmpmeta xmlns:x="adobe:ns:meta/" x:xmptk="Adobe XMP Core 5.6-c138 79.159824, 2016/09/14-01:09:01        ">
   <rdf:RDF xmlns:rdf="http://www.w3.org/1999/02/22-rdf-syntax-ns#">
      <rdf:Description rdf:about=""/>
   </rdf:RDF>
</x:xmpmeta>
                                                                                                    
                                                                                                    
                                                                                                    
                                                                                                    
                                                                                                    
                                                                                                    
                                                                                                    
                                                                                                    
                                                                                                    
                                                                                                    
                                                                                                    
                                                                                                    
                                                                                                    
                                                                                                    
                                                                                                    
                                                                                                    
                                                                                                    
                                                                                                    
                                                                                                    
                                                                                                    
                           
<?xpacket end="w"?></metadata>
<defs>
    <style>
      .cls-1 {
        fill-rule: evenodd;
      }
    </style>
  </defs>
  <path id="Forma_1" data-name="Forma 1" class="cls-1" d="M18.749,16.028l-3.04-2.869A4.435,4.435,0,0,0,16.283,11a4.535,4.535,0,1,0-2.124,3.81l3.035,2.866A10.246,10.246,0,0,1,18.749,16.028Zm12.857-.359,4.038-6.787a4.491,4.491,0,1,0-3.26-4.308,4.482,4.482,0,0,0,1.3,3.166l-4.024,6.768A10.133,10.133,0,0,1,31.606,15.669Zm13.931,5.684a4.505,4.505,0,0,0-4.22,2.945l-5.609-.552c0,0.042.007,0.083,0.007,0.123A10.457,10.457,0,0,1,35.487,26L41.1,26.556A4.5,4.5,0,1,0,45.537,21.353Zm-15.486,17.7L28.8,33.581a10.457,10.457,0,0,1-2.216.51l1.256,5.478A4.493,4.493,0,1,0,30.051,39.055ZM15.336,26.043L8.351,28.379a4.494,4.494,0,1,0,.737,2.456c0-.1-0.021-0.2-0.031-0.3l7.008-2.346A10.248,10.248,0,0,1,15.336,26.043ZM25.408,16.15a7.72,7.72,0,1,1-7.732,7.72A7.726,7.726,0,0,1,25.408,16.15Z"/>
</svg>
