<svg xmlns="http://www.w3.org/2000/svg" viewBox="0 0 480 480" width="480" height="480">
	<style>
		tspan { white-space:pre }
		.shp0 { fill: #0ac5b7 } 
	</style>
	<g id="Folder 1">
		<path id="Layer" class="shp0" d="M328 0L152 0C138.75 0 128 10.75 128 24L128 312C128 325.25 138.75 336 152 336L200 336L200 320L152 320C147.58 320 144 316.42 144 312L144 24C144 19.58 147.58 16 152 16L328 16C332.42 16 336 19.58 336 24L336 312C336 316.42 332.42 320 328 320L280 320L280 336L328 336C341.25 336 352 325.25 352 312L352 24C352 10.75 341.25 0 328 0Z" />
		<path id="Layer" class="shp0" d="M24 304L112 304L112 288L24 288C19.58 288 16 284.42 16 280L16 56C16 51.58 19.58 48 24 48L112 48L112 32L24 32C10.75 32 0 42.75 0 56L0 280C0 293.25 10.75 304 24 304Z" />
		<path id="Layer" class="shp0" d="M192 40L208 40L208 56L192 56L192 40Z" />
		<path id="Layer" class="shp0" d="M224 40L288 40L288 56L224 56L224 40Z" />
		<path id="Layer" class="shp0" d="M168 80L184 80L184 112L168 112L168 80Z" />
		<path id="Layer" class="shp0" d="M200 80L216 80L216 112L200 112L200 80Z" />
		<path id="Layer" class="shp0" d="M232 80L248 80L248 112L232 112L232 80Z" />
		<path id="Layer" class="shp0" d="M264 80L280 80L280 112L264 112L264 80Z" />
		<path id="Layer" class="shp0" d="M296 80L312 80L312 112L296 112L296 80Z" />
		<path id="Layer" class="shp0" d="M232 136L288 136L288 152L232 152L232 136Z" />
		<path id="Layer" fill-rule="evenodd" class="shp0" d="M192 256C192 242.75 202.75 232 216 232L264 232C277.25 232 288 242.75 288 256C288 269.25 277.25 280 264 280L216 280C202.75 280 192 269.25 192 256ZM208 256C208 260.42 211.58 264 216 264L264 264C268.42 264 272 260.42 272 256C272 251.58 268.42 248 264 248L216 248C211.58 248 208 251.58 208 256Z" />
		<path id="Layer" class="shp0" d="M88 64L112 64L112 80L88 80L88 64Z" />
		<path id="Layer" class="shp0" d="M32 104L48 104L48 128L32 128L32 104Z" />
		<path id="Layer" class="shp0" d="M64 104L80 104L80 128L64 128L64 104Z" />
		<path id="Layer" class="shp0" d="M96 104L112 104L112 128L96 128L96 104Z" />
		<path id="Layer" class="shp0" d="M56 64L72 64L72 80L56 80L56 64Z" />
		<path id="Layer" class="shp0" d="M64 264L112 264L112 248L64 248C59.58 248 56 244.42 56 240C56 235.58 59.58 232 64 232L112 232L112 216L64 216C50.75 216 40 226.75 40 240C40 253.25 50.75 264 64 264Z" />
		<path id="Layer" class="shp0" d="M456 32L368 32L368 48L456 48C460.42 48 464 51.58 464 56L464 280C464 284.42 460.42 288 456 288L368 288L368 304L456 304C469.25 304 480 293.25 480 280L480 56C480 42.75 469.25 32 456 32Z" />
		<path id="Layer" class="shp0" d="M368 64L424 64L424 80L368 80L368 64Z" />
		<path id="Layer" class="shp0" d="M432 104L448 104L448 128L432 128L432 104Z" />
		<path id="Layer" class="shp0" d="M400 104L416 104L416 128L400 128L400 104Z" />
		<path id="Layer" class="shp0" d="M368 104L384 104L384 128L368 128L368 104Z" />
		<path id="Layer" class="shp0" d="M368 216L368 232L416 232C420.42 232 424 235.58 424 240C424 244.42 420.42 248 416 248L368 248L368 264L416 264C429.25 264 440 253.25 440 240C440 226.75 429.25 216 416 216L368 216Z" />
		<path id="Layer" fill-rule="evenodd" class="shp0" d="M360 472C360 476.42 356.42 480 352 480L224 480C222.34 480.01 220.71 479.49 219.35 478.53L169.27 442.76C162.95 438.25 159.46 430.76 160.07 423.03C160.67 415.29 165.29 408.44 172.22 404.97L173.5 404.34C180.25 400.92 188.29 401.22 194.77 405.14L216 417.87L216 320C216 312.93 219.11 306.21 224.51 301.65C229.91 297.09 237.05 295.14 244.02 296.32C255.74 298.58 264.17 308.91 264.02 320.86L264.02 361.36C272.3 358.64 281.4 360.45 288.02 366.12C297.12 357.95 310.91 357.95 320.02 366.12C320.17 365.98 320.33 365.84 320.49 365.71C325.89 361.14 333.02 359.17 340 360.32C351.73 362.58 360.15 372.91 360 384.86L360 472ZM344 384.86C344.15 380.75 341.39 377.1 337.4 376.12C335.07 375.71 332.68 376.34 330.86 377.87C329.05 379.39 328 381.63 328 384C328 388.42 324.42 392 320 392C315.58 392 312 388.42 312 384C312 379.58 308.42 376 304 376C299.58 376 296 379.58 296 384C296 388.42 292.42 392 288 392C283.58 392 280 388.42 280 384C280 379.58 276.42 376 272 376C267.58 376 264 379.58 264 384C264 388.42 260.42 392 256 392C251.58 392 248 388.42 248 384L248 320.86C248.15 316.75 245.39 313.1 241.4 312.12C239.07 311.71 236.68 312.34 234.86 313.87C233.05 315.39 232 317.63 232 320L232 432C232 434.89 230.45 437.55 227.93 438.97C225.42 440.39 222.34 440.34 219.86 438.85L186.51 418.85C184.72 417.77 182.5 417.68 180.63 418.62L179.36 419.25C177.44 420.21 176.17 422.12 176.01 424.26C175.84 426.4 176.81 428.47 178.56 429.72L226.56 464L344 464L344 384.86Z" />
		<path id="Layer" class="shp0" d="M192 136L216 136L216 152L192 152L192 136Z" />
		<path id="Layer" class="shp0" d="M192 168L288 168L288 184L192 184L192 168Z" />
		<path id="Layer" class="shp0" d="M208 200L272 200L272 216L208 216L208 200Z" />
		<path id="Layer" class="shp0" d="M64 152L112 152L112 168L64 168L64 152Z" />
		<path id="Layer" class="shp0" d="M80 184L112 184L112 200L80 200L80 184Z" />
		<path id="Layer" class="shp0" d="M368 152L408 152L408 168L368 168L368 152Z" />
		<path id="Layer" class="shp0" d="M368 184L392 184L392 200L368 200L368 184Z" />
	</g>
</svg>