<svg xmlns="http://www.w3.org/2000/svg" width="19" height="7" viewBox="0 0 19 7">
  <metadata><?xpacket begin="﻿" id="W5M0MpCehiHzreSzNTczkc9d"?>
<x:xmpmeta xmlns:x="adobe:ns:meta/" x:xmptk="Adobe XMP Core 5.6-c138 79.159824, 2016/09/14-01:09:01        ">
   <rdf:RDF xmlns:rdf="http://www.w3.org/1999/02/22-rdf-syntax-ns#">
      <rdf:Description rdf:about=""/>
   </rdf:RDF>
</x:xmpmeta>
                                                                                                    
                                                                                                    
                                                                                                    
                                                                                                    
                                                                                                    
                                                                                                    
                                                                                                    
                                                                                                    
                                                                                                    
                                                                                                    
                                                                                                    
                                                                                                    
                                                                                                    
                                                                                                    
                                                                                                    
                                                                                                    
                                                                                                    
                                                                                                    
                                                                                                    
                                                                                                    
                           
<?xpacket end="w"?></metadata>
<defs>
    <style>
      .cls-1 {
        fill-rule: evenodd;
      }
    </style>
  </defs>
  <path id="Forma_1" data-name="Forma 1" class="cls-1" d="M18.819,0H0.181A0.184,0.184,0,0,0,0,.186V2.019a0.184,0.184,0,0,0,.181.187H0.96a0.411,0.411,0,0,1,0,.822H0.181A0.184,0.184,0,0,0,0,3.216v0.71a0.184,0.184,0,0,0,.181.187H0.96a0.411,0.411,0,0,1,0,.822H0.181A0.184,0.184,0,0,0,0,5.123v0.9a0.184,0.184,0,0,0,.181.187V7h8.9V6.208H9.922V7h8.9V6.208A0.184,0.184,0,0,0,19,6.021v-0.9a0.184,0.184,0,0,0-.181-0.187H18.039a0.411,0.411,0,0,1,0-.822h0.779A0.184,0.184,0,0,0,19,3.926V3.216a0.184,0.184,0,0,0-.181-0.187H18.039a0.411,0.411,0,0,1,0-.822h0.779A0.184,0.184,0,0,0,19,2.019V0.186A0.184,0.184,0,0,0,18.819,0ZM1.3,6.694H0.859V6.021H1.3V6.694Zm16.4-.673h0.444V6.694H17.7V6.021ZM2.19,6.694H1.746V6.021H2.19V6.694Zm0.887,0H2.633V6.021H3.077V6.694Zm0.887,0H3.52V6.021H3.964V6.694Zm0.887,0H4.408V6.021H4.851V6.694Zm0.887,0H5.295V6.021H5.738V6.694Zm0.887,0H6.182V6.021H6.626V6.694Zm0.887,0H7.069V6.021H7.513V6.694Zm0.887,0H7.957V6.021H8.4V6.694ZM2.676,4.575V1.365H16.324v3.21H2.676Zm8.367,2.119H10.6V6.021h0.444V6.694Zm0.887,0H11.487V6.021h0.444V6.694Zm0.887,0H12.374V6.021h0.444V6.694Zm0.887,0H13.262V6.021h0.444V6.694Zm0.887,0H14.149V6.021h0.444V6.694Zm0.887,0H15.036V6.021H15.48V6.694Zm0.887,0H15.923V6.021h0.444V6.694Zm0.887,0H16.811V6.021h0.444V6.694ZM12.877,2.987h0.767V4.112H13.3V3.865a0.8,0.8,0,0,1-.591.262,0.912,0.912,0,0,1-.393-0.086A0.993,0.993,0,0,1,12,3.8a1.145,1.145,0,0,1-.215-0.356A1.218,1.218,0,0,1,11.707,3a1.136,1.136,0,0,1,.079-0.424A1.109,1.109,0,0,1,12,2.233,1.044,1.044,0,0,1,12.33,2a0.958,0.958,0,0,1,.409-0.088,0.971,0.971,0,0,1,.512.129,0.829,0.829,0,0,1,.321.348l-0.308.234a0.585,0.585,0,0,0-.225-0.25,0.6,0.6,0,0,0-.315-0.086,0.527,0.527,0,0,0-.246.058,0.58,0.58,0,0,0-.191.161,0.76,0.76,0,0,0-.122.234,0.9,0.9,0,0,0-.043.281,0.853,0.853,0,0,0,.048.288,0.744,0.744,0,0,0,.131.233,0.619,0.619,0,0,0,.2.156,0.555,0.555,0,0,0,.249.057,0.716,0.716,0,0,0,.555-0.3V3.3H12.877V2.987h0Zm2.433,0a0.477,0.477,0,0,0,.227-0.208,0.61,0.61,0,0,0,.078-0.3,0.616,0.616,0,0,0-.034-0.2,0.6,0.6,0,0,0-.1-0.179,0.515,0.515,0,0,0-.152-0.128,0.41,0.41,0,0,0-.2-0.049H14V4.112H15.02a0.912,0.912,0,0,0,.264-0.037A0.679,0.679,0,0,0,15.5,3.967a0.507,0.507,0,0,0,.148-0.175A0.527,0.527,0,0,0,15.7,3.548,0.587,0.587,0,0,0,15.6,3.189,0.544,0.544,0,0,0,15.31,2.99Zm-0.9-.7h0.567a0.215,0.215,0,0,1,.166.074,0.285,0.285,0,0,1,.067.2,0.278,0.278,0,0,1-.073.2,0.242,0.242,0,0,1-.178.074H14.408V2.287h0Zm0.86,1.292a0.3,0.3,0,0,1-.057.091,0.251,0.251,0,0,1-.085.06,0.257,0.257,0,0,1-.106.022H14.408V3.175h0.633a0.215,0.215,0,0,1,.1.023,0.248,0.248,0,0,1,.078.063,0.321,0.321,0,0,1,.052.094,0.332,0.332,0,0,1,.019.112A0.3,0.3,0,0,1,15.268,3.579Z"/>
</svg>
