<svg xmlns="http://www.w3.org/2000/svg" viewBox="0 0 496 432" width="496" height="432">
	<style>
		tspan { white-space:pre }
		.shp0 { fill: #fd7342 } 
	</style>
	<g id="Layer">
		<path id="Layer" fill-rule="evenodd" class="shp0" d="M162.35 71.59C161.34 70.54 160.64 69.25 160.31 67.84C159.99 66.42 160.05 64.95 160.5 63.57C160.95 62.19 161.76 60.96 162.86 60.01C163.95 59.06 165.28 58.42 166.71 58.17L216.91 49.21L240.94 4.23C241.63 2.95 242.64 1.88 243.89 1.14C245.13 0.39 246.55 0 248 0C249.45 0 250.87 0.39 252.11 1.14C253.36 1.88 254.37 2.95 255.06 4.23L279.09 49.21L329.29 58.17C330.72 58.42 332.05 59.06 333.14 60.01C334.23 60.96 335.04 62.19 335.49 63.57C335.94 64.95 336.01 66.42 335.68 67.84C335.36 69.25 334.65 70.54 333.65 71.59L298.3 108.34L305.3 158.86C305.5 160.29 305.3 161.76 304.74 163.09C304.17 164.42 303.25 165.58 302.08 166.43C300.9 167.28 299.52 167.8 298.08 167.93C296.64 168.05 295.19 167.79 293.88 167.15L248 144.89L202.12 167.15C200.81 167.79 199.36 168.05 197.92 167.93C196.48 167.8 195.09 167.28 193.92 166.43C192.75 165.58 191.83 164.42 191.26 163.09C190.7 161.76 190.5 160.29 190.7 158.86L197.7 108.34L162.35 71.59ZM184.26 71.29L211.93 100.05C212.35 100.48 212.71 100.96 213.02 101.48C213.33 102 213.58 102.55 213.77 103.12C213.96 103.69 214.08 104.29 214.13 104.89C214.18 105.49 214.17 106.09 214.09 106.69L208.61 146.22L244.51 128.8C245.05 128.54 245.62 128.34 246.21 128.2C246.8 128.07 247.4 128 248 128C248.61 128 249.21 128.07 249.8 128.2C250.38 128.34 250.95 128.54 251.5 128.8L287.4 146.22L281.92 106.69C281.84 106.09 281.82 105.49 281.88 104.89C281.93 104.29 282.05 103.69 282.24 103.12C282.42 102.55 282.68 102 282.99 101.48C283.3 100.96 283.66 100.48 284.08 100.05L311.74 71.29L272.46 64.28C271.86 64.17 271.28 64 270.73 63.76C270.18 63.53 269.65 63.23 269.16 62.87C268.67 62.52 268.23 62.11 267.83 61.66C267.43 61.2 267.09 60.71 266.81 60.18L248 24.98L229.2 60.18C228.91 60.71 228.57 61.21 228.17 61.66C227.78 62.12 227.33 62.52 226.84 62.88C226.36 63.23 225.83 63.53 225.27 63.77C224.72 64 224.14 64.17 223.55 64.28L184.26 71.29Z" />
		<path id="Layer" fill-rule="evenodd" class="shp0" d="M2.35 119.59C1.35 118.54 0.64 117.25 0.32 115.83C-0.01 114.42 0.06 112.95 0.51 111.57C0.95 110.19 1.77 108.96 2.86 108.01C3.95 107.06 5.28 106.42 6.71 106.17L56.91 97.21L80.94 52.23C81.63 50.95 82.64 49.88 83.89 49.14C85.13 48.39 86.55 48 88 48C89.45 48 90.87 48.39 92.11 49.14C93.36 49.88 94.37 50.95 95.06 52.23L119.08 97.21L169.29 106.17C170.72 106.42 172.05 107.06 173.14 108.01C174.23 108.96 175.04 110.19 175.49 111.57C175.94 112.95 176.01 114.42 175.68 115.84C175.36 117.25 174.65 118.54 173.65 119.59L138.3 156.34L145.3 206.86C145.5 208.29 145.3 209.76 144.74 211.09C144.17 212.42 143.25 213.58 142.08 214.43C140.9 215.28 139.52 215.8 138.08 215.93C136.64 216.05 135.19 215.79 133.88 215.15L88 192.89L42.12 215.15C40.81 215.79 39.36 216.05 37.92 215.92C36.48 215.8 35.09 215.28 33.92 214.43C32.75 213.58 31.83 212.42 31.26 211.09C30.7 209.76 30.5 208.29 30.7 206.86L37.7 156.34L2.35 119.59ZM24.26 119.29L51.91 148.05C52.33 148.49 52.7 148.97 53.01 149.48C53.32 150 53.57 150.55 53.76 151.12C53.94 151.7 54.07 152.29 54.12 152.89C54.17 153.49 54.16 154.1 54.07 154.69L48.6 194.22L84.51 176.8C85.05 176.54 85.62 176.34 86.21 176.2C86.8 176.07 87.4 176 88 176C88.6 176 89.2 176.07 89.79 176.2C90.38 176.34 90.95 176.54 91.49 176.8L127.4 194.22L121.92 154.69C121.84 154.09 121.82 153.49 121.88 152.89C121.93 152.29 122.05 151.69 122.24 151.12C122.42 150.55 122.68 150 122.99 149.48C123.3 148.96 123.66 148.48 124.08 148.05L151.74 119.29L112.46 112.28C111.86 112.17 111.28 112 110.73 111.76C110.18 111.53 109.65 111.23 109.16 110.87C108.67 110.52 108.23 110.11 107.83 109.66C107.43 109.2 107.09 108.71 106.81 108.18L88 72.98L69.2 108.18C68.91 108.71 68.57 109.21 68.17 109.66C67.78 110.12 67.33 110.52 66.84 110.88C66.35 111.23 65.83 111.53 65.27 111.77C64.72 112 64.14 112.17 63.55 112.28L24.26 119.29Z" />
		<path id="Layer" fill-rule="evenodd" class="shp0" d="M320.5 111.57C320.72 110.88 321.04 110.23 321.44 109.63C321.83 109.03 322.31 108.48 322.86 108.01C323.4 107.53 324.01 107.14 324.66 106.83C325.31 106.51 326 106.29 326.71 106.17L376.91 97.21L400.94 52.23C401.63 50.95 402.64 49.88 403.89 49.14C405.13 48.39 406.55 48 408 48C409.45 48 410.87 48.39 412.11 49.14C413.36 49.88 414.37 50.95 415.06 52.23L439.09 97.21L489.29 106.17C490.72 106.42 492.05 107.06 493.14 108.01C494.23 108.96 495.04 110.19 495.49 111.57C495.94 112.95 496.01 114.42 495.68 115.84C495.36 117.25 494.65 118.54 493.65 119.59L458.3 156.34L465.3 206.86C465.5 208.29 465.3 209.76 464.74 211.09C464.17 212.42 463.25 213.58 462.08 214.43C460.9 215.28 459.52 215.8 458.08 215.93C456.64 216.05 455.19 215.79 453.88 215.15L408 192.89L362.11 215.15C360.81 215.79 359.36 216.05 357.91 215.93C356.47 215.8 355.09 215.28 353.92 214.43C352.74 213.58 351.82 212.42 351.26 211.09C350.69 209.76 350.49 208.29 350.69 206.86L357.69 156.34L322.34 119.59C321.84 119.07 321.42 118.48 321.07 117.85C320.73 117.22 320.47 116.54 320.31 115.84C320.15 115.13 320.08 114.41 320.12 113.69C320.15 112.97 320.28 112.26 320.5 111.57L320.5 111.57ZM344.26 119.29L371.93 148.05C372.35 148.48 372.71 148.96 373.02 149.48C373.33 150 373.58 150.55 373.77 151.12C373.96 151.69 374.08 152.29 374.13 152.89C374.18 153.49 374.17 154.09 374.09 154.69L368.61 194.22L404.51 176.8C405.05 176.54 405.62 176.34 406.21 176.2C406.8 176.07 407.4 176 408 176C408.61 176 409.21 176.07 409.8 176.2C410.38 176.34 410.95 176.54 411.5 176.8L447.4 194.22L441.92 154.69C441.84 154.09 441.82 153.49 441.88 152.89C441.93 152.29 442.05 151.69 442.24 151.12C442.42 150.55 442.68 150 442.99 149.48C443.3 148.96 443.66 148.48 444.08 148.05L471.74 119.29L432.46 112.28C431.86 112.17 431.28 112 430.73 111.76C430.18 111.53 429.65 111.23 429.16 110.87C428.67 110.52 428.23 110.11 427.83 109.66C427.43 109.2 427.09 108.71 426.81 108.18L408 72.98L389.19 108.18C388.91 108.71 388.56 109.21 388.17 109.66C387.77 110.12 387.32 110.52 386.84 110.88C386.35 111.23 385.82 111.53 385.27 111.77C384.71 112 384.13 112.17 383.54 112.28L344.26 119.29Z" />
		<path id="Layer" fill-rule="evenodd" class="shp0" d="M468 224C471.68 224 475.31 224.73 478.71 226.14C482.11 227.55 485.19 229.61 487.79 232.21C490.39 234.81 492.45 237.89 493.86 241.29C495.27 244.69 496 248.32 496 252L496 340C496 343.68 495.27 347.31 493.86 350.71C492.45 354.11 490.39 357.19 487.79 359.79C485.19 362.39 482.11 364.45 478.71 365.86C475.31 367.27 471.68 368 468 368L284.94 368L255.15 427.58C254.49 428.91 253.47 430.02 252.21 430.8C250.94 431.59 249.49 432 248 432C246.51 432 245.06 431.59 243.79 430.8C242.53 430.02 241.51 428.91 240.84 427.58L211.06 368L28 368C24.32 368 20.69 367.27 17.29 365.86C13.89 364.45 10.81 362.39 8.21 359.79C5.61 357.19 3.55 354.11 2.14 350.71C0.73 347.31 0 343.68 0 340L0 252C0 248.32 0.73 244.69 2.14 241.29C3.55 237.89 5.61 234.81 8.21 232.21C10.81 229.61 13.89 227.55 17.29 226.14C20.69 224.73 24.32 224 28 224L468 224ZM480 252C480 250.42 479.69 248.86 479.08 247.41C478.48 245.95 477.6 244.63 476.48 243.52C475.37 242.4 474.05 241.52 472.59 240.92C471.14 240.31 469.58 240 468 240L28 240C26.42 240 24.86 240.31 23.41 240.92C21.95 241.52 20.63 242.4 19.52 243.52C18.4 244.63 17.52 245.95 16.92 247.41C16.31 248.86 16 250.42 16 252L16 340C16 341.58 16.31 343.14 16.92 344.59C17.52 346.05 18.4 347.37 19.52 348.48C20.63 349.6 21.95 350.48 23.41 351.08C24.86 351.69 26.42 352 28 352L216 352C216.74 352 217.47 352.1 218.19 352.3C218.9 352.51 219.58 352.81 220.21 353.19C220.83 353.58 221.41 354.06 221.9 354.6C222.4 355.15 222.82 355.76 223.15 356.42L248 406.11L272.84 356.42C273.18 355.76 273.6 355.15 274.09 354.6C274.59 354.06 275.17 353.58 275.79 353.19C276.42 352.81 277.1 352.51 277.81 352.3C278.53 352.1 279.26 352 280 352L468 352C469.58 352 471.14 351.69 472.59 351.08C474.05 350.48 475.37 349.6 476.48 348.48C477.6 347.37 478.48 346.05 479.08 344.59C479.69 343.14 480 341.58 480 340L480 252Z" />
	</g>
</svg>