<svg xmlns="http://www.w3.org/2000/svg" width="50" height="50" viewBox="0 0 50 50">
  <metadata><?xpacket begin="﻿" id="W5M0MpCehiHzreSzNTczkc9d"?>
<x:xmpmeta xmlns:x="adobe:ns:meta/" x:xmptk="Adobe XMP Core 5.6-c138 79.159824, 2016/09/14-01:09:01        ">
   <rdf:RDF xmlns:rdf="http://www.w3.org/1999/02/22-rdf-syntax-ns#">
      <rdf:Description rdf:about=""/>
   </rdf:RDF>
</x:xmpmeta>
                                                                                                    
                                                                                                    
                                                                                                    
                                                                                                    
                                                                                                    
                                                                                                    
                                                                                                    
                                                                                                    
                                                                                                    
                                                                                                    
                                                                                                    
                                                                                                    
                                                                                                    
                                                                                                    
                                                                                                    
                                                                                                    
                                                                                                    
                                                                                                    
                                                                                                    
                                                                                                    
                           
<?xpacket end="w"?></metadata>
<defs>
    <style>
      .cls-1 {
        fill-rule: evenodd;
      }
    </style>
  </defs>
  <path id="Forma_1" data-name="Forma 1" class="cls-1" d="M32.693,20.834H32.627V17.386a6.745,6.745,0,0,0-6.737-6.737H24.11a6.745,6.745,0,0,0-6.737,6.737v3.448H17.307A1.967,1.967,0,0,0,15.341,22.8V35.339a1.967,1.967,0,0,0,1.966,1.967H32.693a1.967,1.967,0,0,0,1.966-1.967V22.8A1.967,1.967,0,0,0,32.693,20.834Zm-5.727,9.976a1.966,1.966,0,0,1-3.933,0V28.351a1.966,1.966,0,1,1,3.933,0v2.458Zm1.811-9.976H21.223V17.386A2.891,2.891,0,0,1,24.11,14.5h1.78a2.891,2.891,0,0,1,2.887,2.887v3.448ZM44.123,41.109l0.219-.267A24.66,24.66,0,0,0,50,25,24.642,24.642,0,0,0,44.171,8.954L43.959,8.7l0.115-.31a5.043,5.043,0,0,0-7.561-5.922l-0.272.185-0.3-.144a25.114,25.114,0,0,0-22.206.156l-0.316.159L13.14,2.613A5.043,5.043,0,0,0,5.545,8.788L5.7,9.109l-0.222.277a25.008,25.008,0,0,0,.183,31.457l0.219,0.267-0.135.317a5.042,5.042,0,0,0,7.6,6.053l0.278-.2,0.308,0.152a25.112,25.112,0,0,0,22.137,0l0.308-.152,0.278,0.2a5.043,5.043,0,0,0,7.6-6.053ZM41.88,38.447l-0.25.313-0.379-.129a5.041,5.041,0,0,0-6.677,4.77,5.168,5.168,0,0,0,.027.521l0.041,0.4-0.361.173a21.568,21.568,0,0,1-18.562,0l-0.361-.173,0.041-.4a5.139,5.139,0,0,0,.027-0.521,5.041,5.041,0,0,0-6.677-4.77l-0.378.129-0.25-.313a21.548,21.548,0,0,1-.086-26.786l0.24-.3,0.371,0.112a5.044,5.044,0,0,0,6.507-4.826c0-.138-0.007-0.283-0.021-0.443L15.1,5.814l0.347-.172a21.564,21.564,0,0,1,18.576-.256L34.4,5.562l-0.055.415a5.034,5.034,0,0,0,5,5.709,5.018,5.018,0,0,0,1.848-.351l0.39-.154,0.262,0.326A21.632,21.632,0,0,1,46.591,25,21.343,21.343,0,0,1,41.88,38.447Z"/>
</svg>
