<svg xmlns="http://www.w3.org/2000/svg" width="50" height="46" viewBox="0 0 50 46">
  <metadata><?xpacket begin="﻿" id="W5M0MpCehiHzreSzNTczkc9d"?>
<x:xmpmeta xmlns:x="adobe:ns:meta/" x:xmptk="Adobe XMP Core 5.6-c138 79.159824, 2016/09/14-01:09:01        ">
   <rdf:RDF xmlns:rdf="http://www.w3.org/1999/02/22-rdf-syntax-ns#">
      <rdf:Description rdf:about=""/>
   </rdf:RDF>
</x:xmpmeta>
                                                                                                    
                                                                                                    
                                                                                                    
                                                                                                    
                                                                                                    
                                                                                                    
                                                                                                    
                                                                                                    
                                                                                                    
                                                                                                    
                                                                                                    
                                                                                                    
                                                                                                    
                                                                                                    
                                                                                                    
                                                                                                    
                                                                                                    
                                                                                                    
                                                                                                    
                                                                                                    
                           
<?xpacket end="w"?></metadata>
<defs>
    <style>
      .cls-1 {
        fill-rule: evenodd;
      }

      .cls-2 {
        font-size: 11px;
        fill: #f9f9f9;
        text-anchor: middle;
        font-family: "Open Sans";
        font-weight: 700;
      }
    </style>
  </defs>
  <path id="Forma_1" data-name="Forma 1" class="cls-1" d="M41.545,7.117C40.58,3.529,33.4,0,20.833,0S1.086,3.529.122,7.117A0.822,0.822,0,0,0,0,7.527V38.473a0.789,0.789,0,0,0,.1.377C1.082,42.944,9.887,46,20.833,46c10.922,0,19.713-3.044,20.729-7.123a0.828,0.828,0,0,0,.1-0.4V7.527A0.822,0.822,0,0,0,41.545,7.117ZM39.934,28.424a2.074,2.074,0,0,1-.1.3,2.4,2.4,0,0,1-.119.248,2.817,2.817,0,0,1-.193.309c-0.055.078-.117,0.155-0.182,0.232-0.093.11-.191,0.219-0.3,0.328-0.067.066-.142,0.131-0.217,0.2-0.137.12-.279,0.238-0.438,0.356-0.068.051-.142,0.1-0.214,0.151-0.188.13-.385,0.26-0.6,0.387-0.057.034-.117,0.067-0.177,0.1-0.248.141-.508,0.28-0.788,0.416L36.5,31.5c-0.312.148-.639,0.293-0.988,0.434l-0.03.012a32.216,32.216,0,0,1-7.134,1.815l-0.043.006q-0.823.122-1.688,0.217C26.519,34,26.42,34,26.325,34.012c-0.5.053-1.014,0.1-1.539,0.14-0.24.018-.492,0.026-0.736,0.041-0.395.023-.786,0.049-1.191,0.063-0.662.021-1.337,0.034-2.026,0.034s-1.364-.013-2.027-0.037c-0.4-.014-0.8-0.041-1.191-0.064-0.244-.014-0.5-0.023-0.736-0.041-0.525-.038-1.035-0.087-1.539-0.14-0.1-.01-0.194-0.017-0.288-0.027q-0.866-.1-1.688-0.217l-0.043-.006a32.209,32.209,0,0,1-7.134-1.815l-0.03-.012c-0.349-.14-0.677-0.286-0.988-0.434l-0.11-.051c-0.28-.135-0.539-0.274-0.787-0.416C4.213,31,4.152,30.967,4.1,30.933c-0.216-.127-0.412-0.257-0.6-0.387-0.072-.05-0.146-0.1-0.214-0.151-0.159-.118-0.3-0.237-0.438-0.356-0.074-.065-0.149-0.13-0.217-0.2a4.373,4.373,0,0,1-.3-0.328c-0.065-.077-0.127-0.154-0.182-0.232a3.108,3.108,0,0,1-.193-0.309,2.593,2.593,0,0,1-.119-0.248,2.032,2.032,0,0,1-.1-0.3,1.816,1.816,0,0,1-.065-0.4,1.792,1.792,0,0,1,.026-0.283,0.837,0.837,0,0,0-.026-0.372V21.154c0.023,0.022.052,0.043,0.077,0.064,0.182,0.161.367,0.32,0.575,0.474,3.139,2.383,9.417,4.235,18.515,4.235,9.06,0,15.322-1.837,18.474-4.205A8.5,8.5,0,0,0,40,21.155h0v6.209a0.836,0.836,0,0,0-.026.372,1.7,1.7,0,0,1,.026.283A1.818,1.818,0,0,1,39.934,28.424ZM40,11.118v6.209a0.836,0.836,0,0,0-.026.372,1.7,1.7,0,0,1,.026.283,1.818,1.818,0,0,1-.066.406,2.078,2.078,0,0,1-.1.3,2.4,2.4,0,0,1-.119.248,2.836,2.836,0,0,1-.193.309c-0.055.078-.117,0.155-0.182,0.232-0.093.11-.191,0.219-0.3,0.328-0.067.066-.142,0.131-0.217,0.2-0.137.12-.279,0.238-0.438,0.356-0.068.051-.142,0.1-0.214,0.151-0.188.13-.385,0.26-0.6,0.387-0.057.034-.117,0.067-0.177,0.1-0.248.14-.508,0.28-0.788,0.416l-0.11.051c-0.312.148-.639,0.294-0.988,0.434l-0.03.012a32.21,32.21,0,0,1-7.134,1.815l-0.043.006q-0.823.122-1.688,0.217c-0.094.01-.193,0.017-0.288,0.027-0.5.053-1.014,0.1-1.539,0.14-0.24.018-.492,0.026-0.736,0.041-0.395.023-.786,0.049-1.191,0.064-0.662.021-1.337,0.034-2.026,0.034s-1.364-.013-2.027-0.037c-0.4-.014-0.8-0.041-1.191-0.064-0.244-.014-0.5-0.023-0.736-0.041-0.525-.038-1.035-0.087-1.539-0.14-0.1-.01-0.194-0.017-0.288-0.027q-0.866-.1-1.688-0.217l-0.043-.006a32.21,32.21,0,0,1-7.134-1.815L6.158,21.9c-0.349-.14-0.677-0.286-0.988-0.434l-0.11-.051C4.779,21.277,4.52,21.138,4.272,21c-0.058-.033-0.12-0.066-0.177-0.1-0.216-.127-0.412-0.257-0.6-0.387-0.072-.05-0.146-0.1-0.214-0.151-0.159-.118-0.3-0.237-0.438-0.356-0.074-.065-0.149-0.131-0.217-0.2a4.354,4.354,0,0,1-.3-0.328C2.258,19.4,2.195,19.323,2.14,19.246a3.121,3.121,0,0,1-.193-0.309,2.593,2.593,0,0,1-.119-0.248,2.032,2.032,0,0,1-.1-0.3,1.814,1.814,0,0,1-.065-0.4A1.792,1.792,0,0,1,1.693,17.7a0.837,0.837,0,0,0-.026-0.372V11.118c0.1,0.091.214,0.181,0.323,0.271,0.06,0.05.116,0.1,0.179,0.151,0.25,0.2.52,0.392,0.813,0.582,0.061,0.039.129,0.078,0.192,0.117q0.368,0.23.777,0.45c0.1,0.054.2,0.108,0.306,0.161q0.456,0.233.959,0.453c0.055,0.024.105,0.049,0.161,0.073,0.391,0.166.806,0.325,1.238,0.479,0.119,0.043.244,0.083,0.367,0.125q0.515,0.174,1.066.335c0.133,0.038.262,0.079,0.4,0.115,0.488,0.136.991,0.264,1.519,0.383,0.072,0.017.151,0.03,0.224,0.046,0.466,0.1.949,0.2,1.446,0.285,0.168,0.03.339,0.059,0.511,0.087q0.709,0.117,1.458.214c0.128,0.017.251,0.036,0.381,0.052,0.62,0.075,1.262.14,1.921,0.195,0.163,0.013.332,0.023,0.5,0.035q0.791,0.058,1.618.1c0.2,0.009.4,0.018,0.606,0.026,0.718,0.024,1.45.042,2.208,0.042s1.49-.018,2.208-0.042c0.2-.008.4-0.017,0.606-0.026q0.828-.038,1.618-0.1c0.165-.013.333-0.022,0.5-0.035,0.659-.054,1.3-0.12,1.921-0.195,0.13-.016.253-0.035,0.381-0.052q0.749-.1,1.458-0.214c0.172-.028.342-0.057,0.511-0.087,0.5-.089.98-0.183,1.446-0.285,0.073-.016.152-0.03,0.224-0.046,0.528-.119,1.032-0.248,1.519-0.383,0.136-.038.266-0.077,0.4-0.115q0.551-.162,1.066-0.335c0.122-.042.247-0.082,0.367-0.125,0.432-.154.847-0.313,1.237-0.479,0.056-.024.106-0.048,0.161-0.073q0.5-.221.959-0.453c0.1-.053.206-0.107,0.306-0.161q0.409-.22.777-0.45c0.063-.039.132-0.078,0.193-0.117,0.292-.19.563-0.384,0.813-0.582,0.063-.05.118-0.1,0.179-0.151C39.786,11.3,39.9,11.209,40,11.118ZM20.833,1.673C32.129,1.673,40,4.978,40,7.945s-7.871,6.273-19.167,6.273S1.667,10.913,1.667,7.945,9.538,1.673,20.833,1.673ZM40,38.224a0.858,0.858,0,0,0-.027.113c-0.473,2.893-8.277,5.99-19.14,5.99s-18.667-3.1-19.14-5.99a0.915,0.915,0,0,0-.027-0.11V31.191c0.023,0.022.052,0.043,0.077,0.064,0.182,0.161.367,0.32,0.575,0.474,3.139,2.383,9.417,4.235,18.515,4.235,9.06,0,15.322-1.837,18.474-4.205A8.5,8.5,0,0,0,40,31.191h0v7.034Z"/>
  <path id="Rounded_Rectangle_602" data-name="Rounded Rectangle 602" class="cls-1" d="M17.5,20.909h30a2.5,2.5,0,0,1,2.5,2.5v6.709a2.5,2.5,0,0,1-2.5,2.5h-30a2.5,2.5,0,0,1-2.5-2.5V23.409A2.5,2.5,0,0,1,17.5,20.909Z"/>
  <text id="RAID" class="cls-2" transform="translate(33.939 30.292) scale(0.833 0.836)"><tspan x="0">RAID</tspan></text>
</svg>
