<svg xmlns="http://www.w3.org/2000/svg" viewBox="0 0 1663 1078" width="1663" height="1078">
	<style>
		tspan { white-space:pre }
		.shp0 { fill: #2b2b2b } 
	</style>
	<g id="Folder 1">
		<path id="Layer" class="shp0" d="M9.77 845.01C8.64 806.57 7.51 768.14 6.36 729.71C5.3 695.27 4.03 660.84 3.07 626.41C2.69 613.07 4.58 610.79 17.01 606.34C130.59 565.67 244.17 524.98 357.74 484.25C550.94 414.96 744.15 345.67 937.36 276.37C1131.48 206.72 1325.59 137.05 1519.69 67.37C1564.73 51.2 1609.79 35.07 1654.87 19C1657.17 18.18 1660.48 15 1662.25 18.54C1663.42 20.92 1659.25 21.68 1657.59 23.26C1642.96 37.11 1628.29 50.93 1613.59 64.7C1543.02 131.12 1472.45 197.54 1401.88 263.95C1353.02 309.95 1304.17 355.95 1255.33 401.95L1077.83 569.06L913.02 724.21C846.35 786.99 779.69 849.77 713.02 912.56C677.84 945.71 642.58 978.71 607.65 1012.02C600.77 1018.58 592.65 1019.18 584.21 1020.02C523.09 1026.15 461.97 1032.28 400.84 1038.41C339.57 1044.64 278.3 1050.98 217.04 1057.41C162.06 1063.09 107.08 1068.76 52.1 1074.41C43.33 1075.32 34.57 1076.41 25.78 1077.19C17.66 1077.89 16.24 1076.43 16.03 1068.19C15.8 1059.19 15.64 1050.19 15.38 1041.19C14.25 1001.09 13.11 960.99 11.95 920.89C11.23 895.6 10.51 870.31 9.8 845.02L9.77 845.01Z" />
		<path id="Layer" class="shp0" d="M1596.65 1.54C1585.63 3.76 1574.63 5.97 1563.65 8.18L1290.36 62.79L1043.16 112.23L775.84 165.71C704.74 179.91 633.64 194.11 562.54 208.31C496.67 221.49 430.81 234.69 364.96 247.9C297.46 261.37 229.96 274.83 162.46 288.28C109.96 298.77 57.47 309.29 4.99 319.82C-0.5 320.93 -0.46 320.98 0.47 315.72C13.98 238.87 27.48 162.02 40.96 85.17C43.6 70.17 43.88 69.7 58.28 69.05C95.36 67.37 132.45 65.81 169.52 64.14C219.57 61.85 269.62 59.57 319.66 57.29C385.17 54.29 450.68 51.29 516.2 48.29C582.2 45.28 648.2 42.28 714.2 39.29C776.05 36.51 837.9 33.75 899.76 31.02C950.98 28.72 1002.2 26.39 1053.41 24.02C1119.75 21.01 1186.08 18.01 1252.41 15.02C1303.95 12.69 1355.49 10.36 1407.04 8.02C1462.74 5.43 1518.44 2.81 1574.13 0.15C1581.56 -0.19 1589.02 0.15 1596.46 0.15L1596.65 1.54Z" />
		<path id="Layer" class="shp0" d="M137.08 338.5L233.13 318.25C311.73 301.67 390.33 285.09 468.94 268.52C544.14 252.69 619.34 236.88 694.54 221.09C761.57 206.97 828.6 192.82 895.62 178.64C970.66 162.82 1045.7 147.02 1120.75 131.24C1196.08 115.37 1271.42 99.49 1346.75 83.6C1414.3 69.39 1481.83 55.2 1549.36 41.03C1549.6 40.96 1549.84 40.9 1550.08 40.84C1550.32 40.79 1550.56 40.73 1550.81 40.68C1551.05 40.63 1551.29 40.58 1551.54 40.54C1551.78 40.5 1552.02 40.46 1552.27 40.42C1552.39 40.42 1552.5 40.44 1552.62 40.47C1552.73 40.5 1552.84 40.54 1552.94 40.6C1553.05 40.65 1553.15 40.72 1553.23 40.8C1553.32 40.88 1553.4 40.96 1553.47 41.06C1553.9 41.82 1553.31 42.31 1552.68 42.55C1551.6 42.97 1550.48 43.29 1549.38 43.63C1383.73 95.82 1218.09 148.01 1052.45 200.18L558.36 355.77C482.28 379.73 406.19 403.69 330.1 427.64C328.09 428.31 326.02 428.78 323.92 429.02C321.82 429.27 319.7 429.3 317.6 429.11C315.49 428.93 313.41 428.52 311.38 427.91C309.36 427.29 307.4 426.47 305.55 425.45C253.11 398.37 200.63 371.37 148.12 344.45C144.76 342.71 141.45 340.85 137.08 338.5Z" />
	</g>
</svg>