<svg xmlns="http://www.w3.org/2000/svg" viewBox="0 0 32 32">
  <defs>
    <style>
      .cls-1 {
        fill: none;
        stroke: #333;
        stroke-linecap: round;
        stroke-linejoin: round;
        stroke-width: 1.2px;
      }

      .cls-2 {
        fill: #333;
      }
    </style>
  </defs>
  <title>simplySite_table_icon</title>
  <path class="cls-1" d="M8.45,14.23V9a1.71,1.71,0,0,1,1.71-1.71h.57"/>
  <line class="cls-1" x1="7.38" y1="9.92" x2="10.59" y2="9.92"/>
  <path class="cls-1" d="M23.25,6a3.59,3.59,0,1,0,1.32,2.78H21"/>
  <line class="cls-1" x1="27.98" y1="7.19" x2="27.98" y2="9.59"/>
  <line class="cls-1" x1="29.18" y1="8.39" x2="26.78" y2="8.39"/>
  <path class="cls-1" d="M12.3,27.48H3.44a1.07,1.07,0,0,1-1.05-.85,13.94,13.94,0,0,1,0-5.79A1.07,1.07,0,0,1,3.44,20H12.3a1.07,1.07,0,0,1,1,.83,12.94,12.94,0,0,1,0,5.83A1.07,1.07,0,0,1,12.3,27.48Z"/>
  <polygon class="cls-2" points="6.8 22.24 6.8 25.23 9.07 23.73 6.8 22.24 6.8 22.24"/>
  <rect class="cls-1" x="2.74" y="3.84" width="10.39" height="10.39"/>
  <path class="cls-2" d="M25.15,20a1.88,1.88,0,0,1,1.38.6,3.8,3.8,0,0,0,1.2-.46,1.89,1.89,0,0,1-.83,1,3.77,3.77,0,0,0,1.08-.3,3.77,3.77,0,0,1-.94,1v.24a5.36,5.36,0,0,1-8.26,4.52l.45,0a3.78,3.78,0,0,0,2.34-.81,1.89,1.89,0,0,1-1.76-1.31,1.81,1.81,0,0,0,.36,0,1.91,1.91,0,0,0,.5-.07,1.89,1.89,0,0,1-1.51-1.85v0a1.89,1.89,0,0,0,.85.24,1.89,1.89,0,0,1-.58-2.52,5.36,5.36,0,0,0,3.89,2A1.89,1.89,0,0,1,25.15,20m2.83.88h0m-2.83-2.08a3.09,3.09,0,0,0-2.92,2.09,4.18,4.18,0,0,1-1.87-1.31,1.2,1.2,0,0,0-.93-.44h-.09a1.2,1.2,0,0,0-.94.59,3.09,3.09,0,0,0-.31,2.36,1.2,1.2,0,0,0-.12.53,3.12,3.12,0,0,0,.66,1.93,1.2,1.2,0,0,0,.06.34,3.09,3.09,0,0,0,.23.53h-.11a1.2,1.2,0,0,0-.65,2.21,6.56,6.56,0,0,0,10.1-5.2,5,5,0,0,0,.71-.82,1.2,1.2,0,0,0,0-1.46,1.2,1.2,0,0,0-1.81-1l-.33.16a3.1,3.1,0,0,0-1.64-.47Z"/>
</svg>
