<svg xmlns="http://www.w3.org/2000/svg" viewBox="0 0 32 32">
  <defs>
    <style>
      .cls-1 {
        fill: none;
        stroke: #333;
        stroke-linecap: round;
        stroke-linejoin: round;
        stroke-width: 1.2px;
      }
    </style>
  </defs>
  <title>simplySite_table_icon</title>
  <path class="cls-1" d="M23.44,10.46a4.34,4.34,0,0,0-.92-3.91c-1-1.16-2.84-1.65-5.18-1.65h-6.8a1,1,0,0,0-1,.81l-2.83,18a.58.58,0,0,0,.49.67h4.29l1.05-6.68,0,.2a1,1,0,0,1,1-.81h2c3.92,0,7-1.59,7.88-6.19,0-.14,0-.27.07-.41S23.39,10.71,23.44,10.46Z"/>
  <path class="cls-1" d="M9.64,24.59l-.48,3.07a.58.58,0,0,0,.49.67h4.29L15,21.65l0,.2a1,1,0,0,1,1-.81h2c3.92,0,7-1.59,7.88-6.19,0-.14,0-.27.07-.41s0,.27,0,0a4.34,4.34,0,0,0-.92-3.91,3.87,3.87,0,0,0-1.13-.87"/>
</svg>
