<svg xmlns="http://www.w3.org/2000/svg" viewBox="0 0 32 32">
  <defs>
    <style>
      .cls-1 {
        fill: none;
        stroke: #333;
        stroke-linecap: round;
        stroke-linejoin: round;
        stroke-width: 1.2px;
      }
    </style>
  </defs>
  <title>simplySite_table_icon</title>
  <path class="cls-1" d="M28.45,17v9.6A1.42,1.42,0,0,1,27,28H3.9a1.42,1.42,0,0,1-1.42-1.42V9.37A1.42,1.42,0,0,1,3.9,8H16.65"/>
  <line class="cls-1" x1="2.48" y1="12.8" x2="16.65" y2="12.8"/>
  <rect class="cls-1" x="16.65" y="3.53" width="13.27" height="13.27"/>
  <line class="cls-1" x1="5.09" y1="10.44" x2="5.09" y2="10.44"/>
  <line class="cls-1" x1="7.08" y1="10.44" x2="7.08" y2="10.44"/>
  <line class="cls-1" x1="8.93" y1="10.44" x2="8.93" y2="10.44"/>
  <polyline class="cls-1" points="15.84 22.45 11.07 22.45 11.07 17.68"/>
  <line class="cls-1" x1="11.07" y1="22.44" x2="19.32" y2="14.2"/>
  <path class="cls-1" d="M24.43,16.33V9.22a2.33,2.33,0,0,1,2.33-2.33h.78"/>
  <line class="cls-1" x1="22.97" y1="10.45" x2="27.35" y2="10.45"/>
</svg>
