<svg xmlns="http://www.w3.org/2000/svg" viewBox="0 0 90 90">
  <defs>
    <style>
      .cls-1, .cls-2, .cls-4 {
        fill: none;
        stroke: #333;
        stroke-width: 2.5px;
      }

      .cls-1 {
        stroke-linecap: round;
      }

      .cls-1, .cls-2 {
        stroke-linejoin: round;
      }

      .cls-3 {
        fill: #333;
      }

      .cls-4 {
        stroke-miterlimit: 10;
      }
    </style>
  </defs>
  <title>simplySite_allfeatures_icon</title>
  <g>
    <line class="cls-1" x1="18.18" y1="43.22" x2="43.82" y2="43.22"/>
    <line class="cls-1" x1="18.18" y1="49.22" x2="43.82" y2="49.22"/>
    <line class="cls-1" x1="18.18" y1="55.22" x2="43.82" y2="55.22"/>
    <rect class="cls-2" x="18.18" y="62.73" width="10.22" height="2.28"/>
    <path class="cls-1" d="M31,71.19H13A3.89,3.89,0,0,1,9.06,67.3V23.9A3.9,3.9,0,0,1,13,20h43.3"/>
    <path class="cls-1" d="M80.46,61.84V67.3a3.89,3.89,0,0,1-3.89,3.89H47.15"/>
    <circle class="cls-3" cx="22.47" cy="27.54" r="2.59"/>
    <circle class="cls-3" cx="28.96" cy="27.54" r="2.59"/>
    <path class="cls-3" d="M18.38,28.55a2.6,2.6,0,1,1,.2-1,2.6,2.6,0,0,1-.2,1"/>
    <line class="cls-4" x1="8.89" y1="34.59" x2="56.18" y2="34.59"/>
    <rect class="cls-1" x="56.27" y="9.35" width="29.04" height="52.49" rx="4.76" ry="4.76"/>
    <circle class="cls-3" cx="70.79" cy="55.54" r="2.59"/>
    <path class="cls-3" d="M78.26,27.25h0M76.16,25a.54.54,0,0,0-.42.2l-3.58,4.39a.53.53,0,0,0,.12.78c.26.17,2.42,1.71,2,2.78a10.3,10.3,0,0,1-1.63,2.65A10.3,10.3,0,0,1,70.43,38a.87.87,0,0,1-.49.14c-1,0-2.46-1.31-2.65-1.5a.52.52,0,0,0-.37-.15.54.54,0,0,0-.42.21L63,41.09a.53.53,0,0,0,.13.79,8.47,8.47,0,0,0,4,1.27,2.7,2.7,0,0,0,1-.17,20.9,20.9,0,0,0,6.75-5.41h0a20.9,20.9,0,0,0,3.83-7.76c.22-1.35-1-3.47-2.15-4.63a.53.53,0,0,0-.38-.16Z"/>
    <path class="cls-3" d="M29.5,63.87l16.9,7.25-8.17-.6,8.92,8.92-2.07,2.07-8.92-8.92.6,8.17L29.5,63.87m0-2.5a2.5,2.5,0,0,0-2.3,3.49l7.25,16.9a2.5,2.5,0,0,0,4.79-1.17l-.11-1.47,4.17,4.17a2.5,2.5,0,0,0,3.54,0l2.07-2.07a2.5,2.5,0,0,0,0-3.54l-4.17-4.17,1.47.11h.18a2.5,2.5,0,0,0,1-4.8l-16.9-7.25a2.5,2.5,0,0,0-1-.2Z"/>
  </g>
</svg>
