<svg xmlns="http://www.w3.org/2000/svg" viewBox="0 0 32 32">
  <defs>
    <style>
      .cls-1 {
        fill: none;
        stroke: #333;
        stroke-linecap: round;
        stroke-linejoin: round;
        stroke-width: 1.2px;
      }
    </style>
  </defs>
  <title>simplySite_table_icon</title>
  <g>
    <line class="cls-1" x1="22.94" y1="12.6" x2="22.94" y2="14.2"/>
    <circle class="cls-1" cx="22.94" cy="11.38" r="0.67"/>
  </g>
  <g>
    <path class="cls-1" d="M17.78,5.37a12.86,12.86,0,0,0-2.12-.16c-5,0-7.19,2.21-7.19,7.4,0,4,1.45,7.46,3.87,9.16l1,.7,0,3.43L3.54,29"/>
    <path class="cls-1" d="M27.29,29.44,18,25.9l-.08-3.43,1-.68a8.42,8.42,0,0,0,2.86-3.7"/>
    <g>
      <rect class="cls-1" x="17.42" y="8.19" width="11.04" height="7.91" rx="0.89" ry="0.89"/>
      <path class="cls-1" d="M19.39,8V6.54A3.55,3.55,0,0,1,22.94,3h0a3.55,3.55,0,0,1,3.55,3.55V8.19"/>
    </g>
  </g>
</svg>
