<svg xmlns="http://www.w3.org/2000/svg" viewBox="0 0 32 32">
  <defs>
    <style>
      .cls-1 {
        fill: none;
        stroke: #333;
        stroke-linecap: round;
        stroke-linejoin: round;
        stroke-width: 1.2px;
      }

      .cls-2 {
        fill: #333;
      }
    </style>
  </defs>
  <title>simplySite_table_icon</title>
  <path class="cls-1" d="M27,7.17H16a3,3,0,0,0-3,3v5.43a3,3,0,0,0,3,3h3.18l3.67,3.67V18.66H27a3,3,0,0,0,3-3V10.2A3,3,0,0,0,27,7.17Z"/>
  <path class="cls-1" d="M19,19.32a3,3,0,0,1-3,3H12.81L9.13,26V22.35H5a3,3,0,0,1-3-3V13.89a3,3,0,0,1,3-3h8"/>
  <path class="cls-2" d="M21.51,12a1,1,0,1,0,1,1,1,1,0,0,0-1-1Z"/>
  <path class="cls-2" d="M24.51,12a1,1,0,1,0,1,1,1,1,0,0,0-1-1Z"/>
  <path class="cls-2" d="M18.51,12a1,1,0,1,0,1,1,1,1,0,0,0-1-1Z"/>
</svg>
