<svg xmlns="http://www.w3.org/2000/svg" viewBox="0 0 32 32">
  <defs>
    <style>
      .cls-1 {
        fill: none;
        stroke: #333;
        stroke-linecap: round;
        stroke-linejoin: round;
        stroke-width: 1.2px;
      }
    </style>
  </defs>
  <title>simplySite_table_icon</title>
  <g id="settings-wheel-fill">
    <path class="cls-1" d="M19,7.61a4.59,4.59,0,0,1,.38-1m0,0-.74-.74a.72.72,0,0,1,0-1l.68-.68a.72.72,0,0,1,1,0l.64.64a4.69,4.69,0,0,1,1.26-.58V3.25a.73.73,0,0,1,.73-.73h1a.73.73,0,0,1,.73.73v.86a4.81,4.81,0,0,1,1.2.46L26.41,4a.73.73,0,0,1,1,0l.68.68a.73.73,0,0,1,0,1l-.55.55a4.64,4.64,0,0,1,.55,1.35H29a.72.72,0,0,1,.73.73v1A.72.72,0,0,1,29,10h-.92a4.71,4.71,0,0,1-.59,1.26l.52.52a.72.72,0,0,1,0,1l-.68.68a.73.73,0,0,1-1,0l-.62-.62"/>
  </g>
  <g id="settings-wheel-fill-2" data-name="settings-wheel-fill">
    <path class="cls-1" d="M24.94,17.41v.86a4.81,4.81,0,0,1,1.2.46l.58-.58a.73.73,0,0,1,1,0l.68.68a.73.73,0,0,1,0,1l-.55.55a4.64,4.64,0,0,1,.55,1.35h.86a.72.72,0,0,1,.73.73v1a.72.72,0,0,1-.73.73h-.92a4.71,4.71,0,0,1-.59,1.26l.52.52a.72.72,0,0,1,0,1l-.68.68a.73.73,0,0,1-1,0L26,27.06a4.71,4.71,0,0,1-1,.38v.86a.73.73,0,0,1-.73.73h-1a.73.73,0,0,1-.73-.73v-.92a4.77,4.77,0,0,1-1.11-.49l-.67.67a.72.72,0,0,1-1,0L19,26.88a.73.73,0,0,1,0-1l.7-.7a4.61,4.61,0,0,1-.4-1h-.92a.72.72,0,0,1-.73-.73v-1a.73.73,0,0,1,.73-.73"/>
  </g>
  <g id="settings-wheel-fill-3" data-name="settings-wheel-fill">
    <path class="cls-1" d="M11.16,23.34v1.18a1,1,0,0,1-1,1H8.82a1,1,0,0,1-1-1V23.24a6.57,6.57,0,0,1-1.53-.69l-.93.92a1,1,0,0,1-1.42,0L3,22.53a1,1,0,0,1,0-1.42l1-1a6.36,6.36,0,0,1-.55-1.33H2.18a1,1,0,0,1-1-1V16.48a1,1,0,0,1,1-1H3.37A6.32,6.32,0,0,1,3.91,14l-1-1a1,1,0,0,1,0-1.41l.95-.94a1,1,0,0,1,1.41,0l.88.89.58-.5"/>
  </g>
  <polygon class="cls-1" points="25.28 8.13 6.47 8.13 9.53 23.34 12.03 22.77 16 26.18 15.21 22.04 24.82 19.84 25.28 8.13"/>
</svg>
