<svg xmlns="http://www.w3.org/2000/svg" viewBox="0 0 32 32">
  <defs>
    <style>
      .cls-1 {
        fill: none;
        stroke: #333;
        stroke-linecap: round;
        stroke-linejoin: round;
        stroke-width: 1.2px;
      }
    </style>
  </defs>
  <title>simplySite_table_icon</title>
  <g id="settings-wheel-fill">
    <path class="cls-1" d="M4.56,23.66l-1-1a1,1,0,0,1,0-1.47l1-1A6.6,6.6,0,0,1,4,18.84H2.7a1,1,0,0,1-1-1m0,0V16.41a1,1,0,0,1,1-1H3.92a6.56,6.56,0,0,1,.55-1.49L3.41,12.82a1,1,0,0,1,0-1.47l1-1a1,1,0,0,1,1.47,0l.92.92a6.71,6.71,0,0,1,1.81-.83V9.15a1,1,0,0,1,1-1H11a1,1,0,0,1,1,1v1.23a6.88,6.88,0,0,1,1.72.66l.83-.83a1,1,0,0,1,1.47,0l1,1a1,1,0,0,1,0,1.47l-.79.79A6.64,6.64,0,0,1,17,15.38h1.23a1,1,0,0,1,1,1V17.8"/>
  </g>
  <g id="settings-wheel-fill-2" data-name="settings-wheel-fill">
    <path class="cls-1" d="M30.7,7.33v1A.72.72,0,0,1,30,9h-.92a4.71,4.71,0,0,1-.59,1.26l.52.52a.72.72,0,0,1,0,1l-.68.68a.73.73,0,0,1-1,0l-.62-.62a4.71,4.71,0,0,1-1,.38v.86a.73.73,0,0,1-.73.73h-1a.73.73,0,0,1-.73-.73v-.92a4.77,4.77,0,0,1-1.11-.49l-.67.67a.72.72,0,0,1-1,0l-.68-.68a.73.73,0,0,1,0-1l.7-.7A4.61,4.61,0,0,1,20,9h-.92a.72.72,0,0,1-.73-.73v-1a.73.73,0,0,1,.73-.73H20a4.59,4.59,0,0,1,.38-1l-.74-.74a.72.72,0,0,1,0-1l.68-.68a.72.72,0,0,1,1,0l.64.64a4.69,4.69,0,0,1,1.26-.58V2.25a.73.73,0,0,1,.73-.73h1a.73.73,0,0,1,.73.73v.86a4.81,4.81,0,0,1,1.2.46L27.41,3a.73.73,0,0,1,1,0l.68.68a.73.73,0,0,1,0,1l-.55.55a4.64,4.64,0,0,1,.55,1.35H30A.72.72,0,0,1,30.7,7.33Z"/>
  </g>
  <g>
    <line class="cls-1" x1="13.99" y1="20.02" x2="18.01" y2="20.02"/>
    <line class="cls-1" x1="13.99" y1="30.07" x2="18.01" y2="30.07"/>
    <line class="cls-1" x1="13.99" y1="25.04" x2="18.01" y2="25.04"/>
    <line class="cls-1" x1="13.99" y1="30.07" x2="13.99" y2="20.02"/>
    <polyline class="cls-1" points="11.73 19.97 7.71 19.97 7.71 24.99 11.73 24.99 11.73 30.02 7.71 30.02"/>
    <polyline class="cls-1" points="20.27 30.07 20.27 20.02 24.29 20.02 24.29 30.07 20.27 30.07"/>
  </g>
</svg>
