<svg xmlns="http://www.w3.org/2000/svg" viewBox="0 0 90 90">
  <defs>
    <style>
      .cls-1 {
        fill: none;
        stroke: #333;
        stroke-linecap: round;
        stroke-linejoin: round;
        stroke-width: 2.5px;
      }

      .cls-2 {
        fill: #333;
      }
    </style>
  </defs>
  <title>simplySite_allfeatures_icon</title>
  <g>
    <path class="cls-1" d="M80.46,31V67.3a3.89,3.89,0,0,1-3.89,3.89H13A3.89,3.89,0,0,1,9.06,67.3V23.9A3.9,3.9,0,0,1,13,20H48.45"/>
    <circle class="cls-2" cx="22.47" cy="27.54" r="2.59"/>
    <circle class="cls-2" cx="28.96" cy="27.54" r="2.59"/>
    <circle class="cls-2" cx="65.7" cy="20.94" r="2.59"/>
    <path class="cls-2" d="M18.38,28.55a2.6,2.6,0,1,1,.2-1,2.6,2.6,0,0,1-.2,1"/>
    <line class="cls-1" x1="59.93" y1="34.59" x2="80.3" y2="34.59"/>
    <line class="cls-1" x1="9.89" y1="34.59" x2="54" y2="34.59"/>
    <line class="cls-1" x1="9.89" y1="41.59" x2="80.3" y2="41.59"/>
    <polygon class="cls-1" points="82.48 29.98 65.86 29.98 54.96 38.14 54.96 29.98 48.91 29.98 48.91 2.41 82.48 2.41 82.48 29.98"/>
    <rect class="cls-2" x="63.1" y="6.19" width="5.19" height="10.34" rx="2.59" ry="2.59"/>
  </g>
</svg>
