<svg xmlns="http://www.w3.org/2000/svg" viewBox="0 0 32 32">
  <defs>
    <style>
      .cls-1 {
        fill: #333;
      }

      .cls-2 {
        fill: none;
        stroke: #333;
        stroke-linecap: round;
        stroke-linejoin: round;
        stroke-width: 1.2px;
      }
    </style>
  </defs>
  <title>simplySite_table_icon</title>
  <path class="cls-1" d="M3.43,5.18a1,1,0,1,0,1,1,1,1,0,0,0-1-1Z"/>
  <line class="cls-2" x1="6.58" y1="6.21" x2="11.45" y2="6.21"/>
  <path class="cls-1" d="M3.43,9.18a1,1,0,1,0,1,1,1,1,0,0,0-1-1Z"/>
  <line class="cls-2" x1="6.58" y1="10.21" x2="11.45" y2="10.21"/>
  <path class="cls-1" d="M3.43,13.18a1,1,0,1,0,1,1,1,1,0,0,0-1-1Z"/>
  <line class="cls-2" x1="6.58" y1="14.21" x2="11.45" y2="14.21"/>
  <path class="cls-1" d="M3.43,17.18a1,1,0,1,0,1,1,1,1,0,0,0-1-1Z"/>
  <line class="cls-2" x1="6.58" y1="18.21" x2="11.45" y2="18.21"/>
  <path class="cls-1" d="M3.43,21.18a1,1,0,1,0,1,1,1,1,0,0,0-1-1Z"/>
  <line class="cls-2" x1="6.58" y1="22.21" x2="11.45" y2="22.21"/>
  <path class="cls-1" d="M3.43,25.18a1,1,0,1,0,1,1,1,1,0,0,0-1-1Z"/>
  <line class="cls-2" x1="6.58" y1="26.21" x2="11.45" y2="26.21"/>
  <path class="cls-1" d="M20.43,5.18a1,1,0,1,0,1,1,1,1,0,0,0-1-1Z"/>
  <line class="cls-2" x1="23.58" y1="6.21" x2="28.45" y2="6.21"/>
  <path class="cls-1" d="M20.43,9.18a1,1,0,1,0,1,1,1,1,0,0,0-1-1Z"/>
  <line class="cls-2" x1="23.58" y1="10.21" x2="28.45" y2="10.21"/>
  <path class="cls-1" d="M20.43,13.18a1,1,0,1,0,1,1,1,1,0,0,0-1-1Z"/>
  <line class="cls-2" x1="23.58" y1="14.21" x2="28.45" y2="14.21"/>
  <path class="cls-1" d="M20.43,17.18a1,1,0,1,0,1,1,1,1,0,0,0-1-1Z"/>
  <line class="cls-2" x1="23.58" y1="18.21" x2="28.45" y2="18.21"/>
  <path class="cls-1" d="M20.43,21.18a1,1,0,1,0,1,1,1,1,0,0,0-1-1Z"/>
  <line class="cls-2" x1="23.58" y1="22.21" x2="28.45" y2="22.21"/>
  <path class="cls-1" d="M20.43,25.18a1,1,0,1,0,1,1,1,1,0,0,0-1-1Z"/>
  <line class="cls-2" x1="23.58" y1="26.21" x2="28.45" y2="26.21"/>
  <line class="cls-2" x1="16" y1="3.14" x2="16" y2="28.86"/>
</svg>
