<svg xmlns="http://www.w3.org/2000/svg" xmlns:xlink="http://www.w3.org/1999/xlink" width="48" height="48" viewBox="0 0 48 48">
  <metadata><?xpacket begin="﻿" id="W5M0MpCehiHzreSzNTczkc9d"?>
<x:xmpmeta xmlns:x="adobe:ns:meta/" x:xmptk="Adobe XMP Core 5.6-c138 79.159824, 2016/09/14-01:09:01        ">
   <rdf:RDF xmlns:rdf="http://www.w3.org/1999/02/22-rdf-syntax-ns#">
      <rdf:Description rdf:about=""/>
   </rdf:RDF>
</x:xmpmeta>
                                                                                                    
                                                                                                    
                                                                                                    
                                                                                                    
                                                                                                    
                                                                                                    
                                                                                                    
                                                                                                    
                                                                                                    
                                                                                                    
                                                                                                    
                                                                                                    
                                                                                                    
                                                                                                    
                                                                                                    
                                                                                                    
                                                                                                    
                                                                                                    
                                                                                                    
                                                                                                    
                           
<?xpacket end="w"?></metadata>
<defs>
    <style>
      .cls-1 {
        fill-rule: evenodd;
        filter: url(#filter);
      }
    </style>
    <filter id="filter" x="0" y="0" width="48" height="48" filterUnits="userSpaceOnUse">
      <feFlood result="flood" flood-color="#fff"/>
      <feComposite result="composite" operator="in" in2="SourceGraphic"/>
      <feBlend result="blend" in2="SourceGraphic"/>
    </filter>
  </defs>
  <path id="Forma_1" data-name="Forma 1" class="cls-1" d="M47,0H1A1,1,0,0,0,0,1V17a1,1,0,0,0,1,1H6V29a1,1,0,1,0,2,0V24H23a1,1,0,0,0,0-2H8V18h5a1,1,0,0,0,1-1V13a1,1,0,1,0-2,0v3H2V2H34V5a1,1,0,0,0,2,0V2H46V41a1,1,0,0,0,2,0V1A1,1,0,0,0,47,0Zm0,46H42V35a1,1,0,0,0-1-1H36V24h4v5a1,1,0,1,0,2,0V7a1,1,0,1,0-2,0v3H31a1,1,0,0,0,0,2h9V22H35a1,1,0,0,0-1,1V35a1,1,0,0,0,1,1h5V46H2V36H13a1,1,0,0,0,1-1V30h4V40H9a1,1,0,1,0,0,2H23a1,1,0,1,0,0-2H20V29a1,1,0,0,0-1-1H13a1,1,0,0,0-1,1v5H2V23a1,1,0,1,0-2,0V47a1,1,0,0,0,1,1H47A1,1,0,0,0,47,46ZM25,34a1,1,0,1,0,0,2h3v5a1,1,0,0,0,1,1h6a1,1,0,1,0,0-2H30V18h5a1,1,0,0,0,0-2H20V8h3a1,1,0,1,0,0-2H7A1,1,0,0,0,6,7v4a1,1,0,0,0,2,0V8H18v9a1,1,0,0,0,1,1h9V34H25Z"/>
</svg>
