<svg xmlns="http://www.w3.org/2000/svg" xmlns:xlink="http://www.w3.org/1999/xlink" width="48" height="48" viewBox="0 0 48 48">
  <metadata><?xpacket begin="﻿" id="W5M0MpCehiHzreSzNTczkc9d"?>
<x:xmpmeta xmlns:x="adobe:ns:meta/" x:xmptk="Adobe XMP Core 5.6-c138 79.159824, 2016/09/14-01:09:01        ">
   <rdf:RDF xmlns:rdf="http://www.w3.org/1999/02/22-rdf-syntax-ns#">
      <rdf:Description rdf:about=""/>
   </rdf:RDF>
</x:xmpmeta>
                                                                                                    
                                                                                                    
                                                                                                    
                                                                                                    
                                                                                                    
                                                                                                    
                                                                                                    
                                                                                                    
                                                                                                    
                                                                                                    
                                                                                                    
                                                                                                    
                                                                                                    
                                                                                                    
                                                                                                    
                                                                                                    
                                                                                                    
                                                                                                    
                                                                                                    
                                                                                                    
                           
<?xpacket end="w"?></metadata>
<defs>
    <style>
      .cls-1 {
        fill-rule: evenodd;
        filter: url(#filter);
      }
    </style>
    <filter id="filter" x="0" y="0" width="48" height="48" filterUnits="userSpaceOnUse">
      <feFlood result="flood" flood-color="#fff"/>
      <feComposite result="composite" operator="in" in2="SourceGraphic"/>
      <feBlend result="blend" in2="SourceGraphic"/>
    </filter>
  </defs>
  <path id="Forma_1" data-name="Forma 1" class="cls-1" d="M15.252,18.711a0.8,0.8,0,0,0-.659-0.435l-6.73-.448a0.786,0.786,0,0,0-.8.506l-4.851,12.4a0.8,0.8,0,0,0,1.225.931l4.027-3.019L9.81,29.114a0.8,0.8,0,0,0,.9-0.5,51.952,51.952,0,0,1,4.5-9.115A0.8,0.8,0,0,0,15.252,18.711Zm-5.788,8.7-2.036-.407a0.8,0.8,0,0,0-.637.145L4.728,28.7l3.613-9.235,4.83,0.322A54,54,0,0,0,9.464,27.413ZM30.171,40.139l-0.449-6.731a0.8,0.8,0,0,0-1.224-.625,52.016,52.016,0,0,1-9.114,4.5,0.8,0.8,0,0,0-.5.9l0.469,2.345-3.02,4.027a0.8,0.8,0,0,0,.64,1.28,0.842,0.842,0,0,0,.292-0.053l12.4-4.852A0.8,0.8,0,0,0,30.171,40.139ZM19.3,43.271l1.547-2.063a0.8,0.8,0,0,0,.144-0.637l-0.407-2.035a53.952,53.952,0,0,0,7.628-3.707l0.322,4.83ZM23.2,24h-5.39a0.8,0.8,0,0,0-.7.412L10.345,36.567a0.8,0.8,0,0,0,.7,1.188,0.789,0.789,0,0,0,.413-0.116l12.155-7.357A0.8,0.8,0,0,0,24,29.6V24.8A0.8,0.8,0,0,0,23.2,24Zm-0.8,5.15-9.19,5.562,5.07-9.111H22.4v3.55Zm25.56-28.38A0.8,0.8,0,0,0,47.228.038c-0.266-.021-26.607-1.86-38.009,28.006a0.8,0.8,0,0,0,.182.851l3.8,3.8a0.8,0.8,0,0,0,1.266-.181l3.811-6.92H22.4v3.559l-6.961,4.395A0.8,0.8,0,0,0,15.3,34.8l3.8,3.8a0.8,0.8,0,0,0,.566.234,0.782,0.782,0,0,0,.285-0.053C49.82,27.377,47.982,1.033,47.959.769Zm-4.2,14.193c-2.807,6.946-9.23,16.388-23.9,22.138l-2.728-2.727,6.487-4.1A0.8,0.8,0,0,0,24,29.6V24.8a0.8,0.8,0,0,0-.8-0.8H17.808a0.8,0.8,0,0,0-.7.415l-3.525,6.4L10.9,28.133C20.909,2.6,42.244,1.551,46.391,1.61A35.45,35.45,0,0,1,43.763,14.962ZM13.7,35.33a0.8,0.8,0,0,0-.722-0.313,0.8,0.8,0,0,0-.314-0.722A5,5,0,0,0,8.4,33.463a5.38,5.38,0,0,0-3.594,3L0.074,46.867a0.8,0.8,0,0,0,1.059,1.059l10.4-4.73a5.377,5.377,0,0,0,3-3.593A5,5,0,0,0,13.7,35.33ZM12.986,39.21a3.79,3.79,0,0,1-2.11,2.531L2.413,45.588l3.847-8.465a3.786,3.786,0,0,1,2.531-2.11A3.628,3.628,0,0,1,9.68,34.9a3.373,3.373,0,0,1,1.429.313l-0.761,1.348a0.8,0.8,0,0,0,1.09,1.09l1.348-.763A3.467,3.467,0,0,1,12.986,39.21ZM47.959,0.77A0.8,0.8,0,0,0,47.228.039,35.72,35.72,0,0,0,30.78,3.47a0.8,0.8,0,0,0-.231,1.291L43.236,17.449a0.8,0.8,0,0,0,.566.234,0.867,0.867,0,0,0,.142-0.012,0.8,0.8,0,0,0,.586-0.453A35.705,35.705,0,0,0,47.959.77ZM43.542,15.491L32.507,4.455A35.58,35.58,0,0,1,46.392,1.606,35.509,35.509,0,0,1,43.542,15.491Zm-8.213-2.822a6.9,6.9,0,1,0,0,9.757A6.906,6.906,0,0,0,35.329,12.669ZM34.2,21.3a5.3,5.3,0,1,1,0-7.495A5.305,5.305,0,0,1,34.2,21.3ZM32.04,19.138a2.249,2.249,0,1,1,0-3.181,0.8,0.8,0,1,0,1.131-1.131,3.847,3.847,0,1,0,0,5.444A0.8,0.8,0,0,0,32.04,19.138Z"/>
</svg>
