<svg xmlns="http://www.w3.org/2000/svg" width="50" height="52" viewBox="0 0 50 52">
  <metadata><?xpacket begin="﻿" id="W5M0MpCehiHzreSzNTczkc9d"?>
<x:xmpmeta xmlns:x="adobe:ns:meta/" x:xmptk="Adobe XMP Core 5.6-c138 79.159824, 2016/09/14-01:09:01        ">
   <rdf:RDF xmlns:rdf="http://www.w3.org/1999/02/22-rdf-syntax-ns#">
      <rdf:Description rdf:about=""/>
   </rdf:RDF>
</x:xmpmeta>
                                                                                                    
                                                                                                    
                                                                                                    
                                                                                                    
                                                                                                    
                                                                                                    
                                                                                                    
                                                                                                    
                                                                                                    
                                                                                                    
                                                                                                    
                                                                                                    
                                                                                                    
                                                                                                    
                                                                                                    
                                                                                                    
                                                                                                    
                                                                                                    
                                                                                                    
                                                                                                    
                           
<?xpacket end="w"?></metadata>
<defs>
    <style>
      .cls-1 {
        fill-rule: evenodd;
      }
    </style>
  </defs>
  <path id="Forma_1" data-name="Forma 1" class="cls-1" d="M27.679,46.621h-6.25a0.9,0.9,0,0,0-.893.9V51.1a0.9,0.9,0,0,0,.893.9h6.25a0.9,0.9,0,0,0,.893-0.9V47.517A0.9,0.9,0,0,0,27.679,46.621ZM10.714,24.207H2.679A2.687,2.687,0,0,0,0,26.9V39.448a2.687,2.687,0,0,0,2.679,2.69h8.037V24.207ZM7.143,43.931H3.571A7.166,7.166,0,0,0,10.714,51.1H18.75V47.517H10.714A3.583,3.583,0,0,1,7.143,43.931ZM44.625,22.414H47.3V22.378C46.821,9.826,37.027,0,25,0S3.179,9.826,2.7,22.378v0.036H6.268C6.723,11.852,14.938,3.586,25,3.586s18.277,8.266,18.732,18.828h0.893Zm2.7,1.793H39.286V42.138h8.036A2.687,2.687,0,0,0,50,39.448V26.9A2.687,2.687,0,0,0,47.322,24.207Zm-12.5,9.862H33.036V31.828a0.893,0.893,0,1,0-1.786,0v2.241H27.466l4.546-7.607a0.894,0.894,0,1,0-1.531-.923L25.124,34.5a0.9,0.9,0,0,0,.765,1.358H31.25v2.69a0.893,0.893,0,1,0,1.786,0v-2.69h1.786A0.9,0.9,0,0,0,34.821,34.069ZM14.779,37.75a0.9,0.9,0,0,0,.4,1.7h8.036a0.9,0.9,0,0,0,0-1.793H18.246c2.2-1.663,4.968-4.465,4.968-8.069A4.462,4.462,0,0,0,15.4,26.621a0.895,0.895,0,1,0,1.339,1.186,2.677,2.677,0,0,1,4.688,1.779C21.429,34.342,14.845,37.717,14.779,37.75Z"/>
</svg>
