<svg xmlns="http://www.w3.org/2000/svg" xmlns:xlink="http://www.w3.org/1999/xlink" width="47" height="47" viewBox="0 0 47 47">
  <metadata><?xpacket begin="﻿" id="W5M0MpCehiHzreSzNTczkc9d"?>
<x:xmpmeta xmlns:x="adobe:ns:meta/" x:xmptk="Adobe XMP Core 5.6-c138 79.159824, 2016/09/14-01:09:01        ">
   <rdf:RDF xmlns:rdf="http://www.w3.org/1999/02/22-rdf-syntax-ns#">
      <rdf:Description rdf:about=""/>
   </rdf:RDF>
</x:xmpmeta>
                                                                                                    
                                                                                                    
                                                                                                    
                                                                                                    
                                                                                                    
                                                                                                    
                                                                                                    
                                                                                                    
                                                                                                    
                                                                                                    
                                                                                                    
                                                                                                    
                                                                                                    
                                                                                                    
                                                                                                    
                                                                                                    
                                                                                                    
                                                                                                    
                                                                                                    
                                                                                                    
                           
<?xpacket end="w"?></metadata>
<defs>
    <style>
      .cls-1 {
        fill-rule: evenodd;
        filter: url(#filter);
      }
    </style>
    <filter id="filter" x="0" y="0" width="47" height="47" filterUnits="userSpaceOnUse">
      <feFlood result="flood" flood-color="#fff"/>
      <feComposite result="composite" operator="in" in2="SourceGraphic"/>
      <feBlend result="blend" in2="SourceGraphic"/>
    </filter>
  </defs>
  <path class="cls-1" d="M45.97,21.258a3.438,3.438,0,0,1-.706-1.206,3.522,3.522,0,0,1,.3-1.413,3.823,3.823,0,0,0,.288-2.4,3.856,3.856,0,0,0-1.666-1.8,3.487,3.487,0,0,1-1.056-.94,3.5,3.5,0,0,1-.146-1.424,3.844,3.844,0,0,0-.475-2.386,3.851,3.851,0,0,0-2.13-1.191,3.5,3.5,0,0,1-1.3-.573,3.487,3.487,0,0,1-.573-1.3,3.85,3.85,0,0,0-1.191-2.13,3.835,3.835,0,0,0-2.385-.475,3.472,3.472,0,0,1-1.425-.146,3.476,3.476,0,0,1-.94-1.056,3.855,3.855,0,0,0-1.8-1.665,3.844,3.844,0,0,0-2.406.286,3.554,3.554,0,0,1-1.413.3A3.475,3.475,0,0,1,25.74,1.03,3.881,3.881,0,0,0,23.5,0,3.886,3.886,0,0,0,21.259,1.03a3.453,3.453,0,0,1-1.206.706,3.514,3.514,0,0,1-1.413-.3,3.84,3.84,0,0,0-2.4-.288,3.865,3.865,0,0,0-1.8,1.666,3.486,3.486,0,0,1-.94,1.055,3.532,3.532,0,0,1-1.425.146,3.824,3.824,0,0,0-2.386.475A3.852,3.852,0,0,0,8.5,6.615a3.5,3.5,0,0,1-.573,1.3,3.5,3.5,0,0,1-1.3.573,3.858,3.858,0,0,0-2.13,1.191,3.845,3.845,0,0,0-.475,2.386,3.521,3.521,0,0,1-.146,1.425,3.5,3.5,0,0,1-1.055.94,3.862,3.862,0,0,0-1.666,1.8,3.833,3.833,0,0,0,.288,2.4,3.528,3.528,0,0,1,.3,1.413,3.45,3.45,0,0,1-.706,1.206A3.882,3.882,0,0,0,0,23.5a3.885,3.885,0,0,0,1.031,2.241,3.452,3.452,0,0,1,.706,1.207l1.451-.228A4.346,4.346,0,0,0,2.2,24.855,2.937,2.937,0,0,1,1.469,23.5,2.935,2.935,0,0,1,2.2,22.142a4.358,4.358,0,0,0,.984-1.863,4.451,4.451,0,0,0-.367-2.119,2.9,2.9,0,0,1-.279-1.471,2.93,2.93,0,0,1,1.11-1.051,4.388,4.388,0,0,0,1.522-1.475,4.422,4.422,0,0,0,.306-2.117,2.924,2.924,0,0,1,.195-1.5A2.925,2.925,0,0,1,7.047,9.9a4.419,4.419,0,0,0,1.914-.939A4.41,4.41,0,0,0,9.9,7.045a2.921,2.921,0,0,1,.65-1.372,2.912,2.912,0,0,1,1.5-.195,4.435,4.435,0,0,0,2.117-.306A4.392,4.392,0,0,0,15.641,3.65a2.918,2.918,0,0,1,1.05-1.109,2.9,2.9,0,0,1,1.471.279,4.47,4.47,0,0,0,2.119.367A4.349,4.349,0,0,0,22.144,2.2,2.931,2.931,0,0,1,23.5,1.468a2.936,2.936,0,0,1,1.356.734,4.354,4.354,0,0,0,1.863.984,4.486,4.486,0,0,0,2.119-.367,2.892,2.892,0,0,1,1.473-.279,2.928,2.928,0,0,1,1.05,1.109,4.4,4.4,0,0,0,1.475,1.523,4.41,4.41,0,0,0,2.117.306,2.936,2.936,0,0,1,1.5.195,2.928,2.928,0,0,1,.65,1.372,4.408,4.408,0,0,0,.939,1.914,4.4,4.4,0,0,0,1.913.939,2.93,2.93,0,0,1,1.371.65,2.915,2.915,0,0,1,.195,1.5,4.432,4.432,0,0,0,.307,2.117,4.386,4.386,0,0,0,1.522,1.475,2.936,2.936,0,0,1,1.11,1.051,2.913,2.913,0,0,1-.279,1.471,4.458,4.458,0,0,0-.367,2.119,4.358,4.358,0,0,0,.984,1.862,2.948,2.948,0,0,1,.734,1.357,2.94,2.94,0,0,1-.735,1.357,4.366,4.366,0,0,0-.984,1.862l1.452,0.228a3.446,3.446,0,0,1,.706-1.207A3.889,3.889,0,0,0,47,23.5,3.89,3.89,0,0,0,45.97,21.258ZM39.953,37.1a4.4,4.4,0,0,0-1.913.939,4.408,4.408,0,0,0-.94,1.913,2.915,2.915,0,0,1-.65,1.371,2.945,2.945,0,0,1-1.5.194,4.446,4.446,0,0,0-2.118.307,4.39,4.39,0,0,0-1.475,1.522,2.93,2.93,0,0,1-1.051,1.111,2.9,2.9,0,0,1-1.472-.279,4.52,4.52,0,0,0-2.119-.367,4.359,4.359,0,0,0-1.862.983,2.933,2.933,0,0,1-1.356.736,2.938,2.938,0,0,1-1.357-.736,4.368,4.368,0,0,0-1.862-.983,4.524,4.524,0,0,0-2.119.367,2.912,2.912,0,0,1-1.472.279,2.927,2.927,0,0,1-1.05-1.111,4.4,4.4,0,0,0-1.475-1.522,4.424,4.424,0,0,0-2.116-.306,2.936,2.936,0,0,1-1.5-.2,2.922,2.922,0,0,1-.65-1.371,4.412,4.412,0,0,0-.94-1.914A4.405,4.405,0,0,0,7.046,37.1a2.911,2.911,0,0,1-1.371-.65l-1.188.865A3.856,3.856,0,0,0,6.617,38.5a3.5,3.5,0,0,1,1.3.574,3.49,3.49,0,0,1,.574,1.3,3.852,3.852,0,0,0,1.19,2.13,3.847,3.847,0,0,0,2.387.475,3.592,3.592,0,0,1,1.425.145,3.494,3.494,0,0,1,.939,1.056,3.866,3.866,0,0,0,1.8,1.666,3.845,3.845,0,0,0,2.4-.288,3.458,3.458,0,0,1,1.413-.3,3.442,3.442,0,0,1,1.206.706A3.886,3.886,0,0,0,23.5,47a3.891,3.891,0,0,0,2.241-1.03,3.44,3.44,0,0,1,1.207-.706,3.444,3.444,0,0,1,1.413.3,3.822,3.822,0,0,0,2.4.288,3.863,3.863,0,0,0,1.8-1.667,3.506,3.506,0,0,1,.939-1.055,3.478,3.478,0,0,1,1.425-.146,3.862,3.862,0,0,0,2.386-.475,3.855,3.855,0,0,0,1.19-2.13,3.487,3.487,0,0,1,.574-1.3,3.473,3.473,0,0,1,1.3-.573,3.857,3.857,0,0,0,2.13-1.191l-1.187-.864A2.927,2.927,0,0,1,39.953,37.1ZM5.875,33.78V32.311a0.734,0.734,0,0,0-.734-0.735H3.672v1.469H4.406V33.78a0.734,0.734,0,1,1-1.469,0V29.374a0.734,0.734,0,0,1,1.469,0v0.734H5.875V29.374a2.2,2.2,0,1,0-4.406,0V33.78A2.2,2.2,0,1,0,5.875,33.78Zm0.734-6.61v6.61a2.2,2.2,0,1,0,4.406,0V27.17H9.547v6.61a0.734,0.734,0,1,1-1.469,0V27.17H6.609Zm5.141,2.2v6.61h1.469V34.514h1.469v1.469h1.469v-6.61A2.2,2.2,0,1,0,11.75,29.374Zm2.938,0v3.672H13.219V29.374A0.734,0.734,0,0,1,14.687,29.374Zm7.344,0v6.61H23.5V34.514h1.469v1.469h1.469v-6.61A2.2,2.2,0,1,0,22.031,29.374Zm2.2-.734a0.734,0.734,0,0,1,.734.734v3.672H23.5V29.374A0.735,0.735,0,0,1,24.234,28.64ZM16.891,27.9v8.079h1.469V33.67l1.63,2.037a0.734,0.734,0,0,0,.574.276H21.3V34.514H20.915L19.128,32.28a2.57,2.57,0,0,0-.4-5.109h-1.1A0.734,0.734,0,0,0,16.891,27.9Zm1.469,0.735h0.367a1.1,1.1,0,0,1,0,2.2H18.359v-2.2Zm11.75,2.8-1.521-3.8a0.742,0.742,0,0,0-.821-0.449,0.734,0.734,0,0,0-.6.721v8.079h1.469V31.718l1.521,3.8a0.736,0.736,0,0,0,.681.463,0.776,0.776,0,0,0,.14-0.013,0.734,0.734,0,0,0,.6-0.721V27.17H30.109v4.266Zm5.141-2.8h1.469V27.17H32.312V28.64h1.469v7.344H35.25V28.64Zm5.875,0V27.17H38.187a0.734,0.734,0,0,0-.734.734v7.345a0.734,0.734,0,0,0,.734.734h2.938V34.514h-2.2v-2.2h2.2V30.843h-2.2v-2.2h2.2Zm0.734-.735v7.345a0.734,0.734,0,0,0,.734.734h2.938V34.514h-2.2v-2.2h2.2V30.843h-2.2v-2.2h2.2V27.17H42.594A0.734,0.734,0,0,0,41.859,27.9Zm0-4.406a18.359,18.359,0,0,0-36.719,0,18.592,18.592,0,0,0,.148,2.294l1.457-.182A17.12,17.12,0,0,1,6.609,23.5a16.891,16.891,0,1,1,33.645,2.113l1.457,0.182A18.335,18.335,0,0,0,41.859,23.5ZM34.712,38.033l-0.9-1.162a16.875,16.875,0,0,1-20.626,0l-0.9,1.162A18.341,18.341,0,0,0,34.712,38.033ZM16.156,15.421H14.687v1.468h0.734v7.344h1.469V16.155A0.735,0.735,0,0,0,16.156,15.421Zm4.039,0a2.573,2.573,0,0,0-2.57,2.57v3.672a2.57,2.57,0,0,0,5.14,0V17.991A2.573,2.573,0,0,0,20.2,15.421Zm1.1,6.242a1.1,1.1,0,0,1-2.2,0V17.991a1.1,1.1,0,0,1,2.2,0v3.672Zm4.773-6.242a2.573,2.573,0,0,0-2.57,2.57v3.672a2.57,2.57,0,0,0,5.141,0V17.991A2.573,2.573,0,0,0,26.07,15.421Zm1.1,6.242a1.1,1.1,0,0,1-2.2,0V17.991a1.1,1.1,0,0,1,2.2,0v3.672Zm3.748,1.508L33.858,17.3l1.314,0.657-2.937,5.875Zm-0.811-4.813h1.469v1.469H30.109V18.358ZM34.516,21.3h1.469v1.468H34.516V21.3Z"/>
</svg>
