<svg xmlns="http://www.w3.org/2000/svg" width="106" height="94" viewBox="0 0 106 94">
  <metadata><?xpacket begin="﻿" id="W5M0MpCehiHzreSzNTczkc9d"?>
<x:xmpmeta xmlns:x="adobe:ns:meta/" x:xmptk="Adobe XMP Core 5.6-c138 79.159824, 2016/09/14-01:09:01        ">
   <rdf:RDF xmlns:rdf="http://www.w3.org/1999/02/22-rdf-syntax-ns#">
      <rdf:Description rdf:about=""/>
   </rdf:RDF>
</x:xmpmeta>
                                                                                                    
                                                                                                    
                                                                                                    
                                                                                                    
                                                                                                    
                                                                                                    
                                                                                                    
                                                                                                    
                                                                                                    
                                                                                                    
                                                                                                    
                                                                                                    
                                                                                                    
                                                                                                    
                                                                                                    
                                                                                                    
                                                                                                    
                                                                                                    
                                                                                                    
                                                                                                    
                           
<?xpacket end="w"?></metadata>
<defs>
    <style>
      .cls-1, .cls-2 {
        fill: #fff;
      }

      .cls-1, .cls-3 {
        fill-rule: evenodd;
      }

      .cls-3 {
        fill: #f51321;
      }
    </style>
  </defs>
  <path class="cls-1" d="M78,51.825H92.683V57L106,47,92.683,37v5.176H78v9.649Z"/>
  <rect id="Rounded_Rectangle_22" data-name="Rounded Rectangle 22" class="cls-2" width="94" height="94" rx="2" ry="2"/>
  <path id="Forma_1" data-name="Forma 1" class="cls-3" d="M71.029,61.759l-5.543-3.7-4.928-3.284a2.183,2.183,0,0,0-2.931.476l-3.049,3.92a2.172,2.172,0,0,1-2.773.575c-2.069-1.151-4.516-2.234-9.914-7.639S35.4,44.266,34.25,42.2a2.171,2.171,0,0,1,.575-2.772l3.92-3.049a2.183,2.183,0,0,0,.476-2.931l-3.184-4.776-3.8-5.695a2.183,2.183,0,0,0-2.939-.661l-4.379,2.627a5.35,5.35,0,0,0-2.429,3.144c-1.2,4.365-1.439,14,14,29.429S61.554,72.7,65.919,71.506a5.349,5.349,0,0,0,3.144-2.429L71.69,64.7A2.183,2.183,0,0,0,71.029,61.759Zm-20.581-32A14.672,14.672,0,0,1,65.1,44.415a0.862,0.862,0,0,0,1.724,0,16.4,16.4,0,0,0-16.38-16.379A0.862,0.862,0,1,0,50.448,29.76Zm0,5.172a9.494,9.494,0,0,1,9.483,9.483,0.862,0.862,0,0,0,1.724,0A11.22,11.22,0,0,0,50.448,33.208,0.862,0.862,0,1,0,50.448,34.932Zm0,5.172a4.316,4.316,0,0,1,4.311,4.31,0.862,0.862,0,0,0,1.724,0,6.042,6.042,0,0,0-6.035-6.034A0.862,0.862,0,1,0,50.448,40.1Z"/>
</svg>
