<svg width="41" height="40" viewBox="0 0 41 40" fill="none" xmlns="http://www.w3.org/2000/svg">
<path d="M19.9318 40C19.0824 40 18.2003 39.9673 17.3509 39.8149C12.0693 39.1506 7.41937 36.439 4.13064 32.2029C0.841921 27.9668 -0.519306 22.7288 0.177642 17.4472C0.841921 12.1439 3.5426 7.46124 7.74606 4.15073C11.9604 0.916459 17.1658 -0.531887 22.4038 0.175951C25.8776 0.655103 29.1228 1.96188 31.8888 4.0745C32.4006 4.44476 32.4768 5.18527 32.1066 5.67531C31.7363 6.19802 30.9958 6.27425 30.5167 5.8931C28.0773 3.99828 25.2024 2.84396 22.0988 2.39747C17.4489 1.79853 12.7989 3.06175 9.10729 5.92577C7.26382 7.33539 5.72211 9.10078 4.57357 11.1173C3.42503 13.1338 2.69302 15.3603 2.42094 17.665C1.20128 27.3569 8.0292 36.243 17.634 37.5062C22.284 38.1052 26.9339 36.842 30.6256 33.9779C32.469 32.5683 34.0107 30.8029 35.1593 28.7864C36.3078 26.7699 37.0398 24.5434 37.3119 22.2387C37.5297 20.4528 37.497 18.6669 37.203 16.9245C37.0941 16.3255 37.5406 15.6939 38.1286 15.6286C38.7167 15.5197 39.3483 15.9662 39.4245 16.5542C39.7621 18.5253 39.7948 20.529 39.577 22.5763C38.9127 27.8905 36.2229 32.5731 32.0086 35.8728C28.5347 38.617 24.3312 40 19.9427 40H19.9318Z" fill="url(#paint0_linear_540_44)"/>
<path d="M19.9318 40C19.0824 40 18.2003 39.9673 17.3509 39.8149C12.0693 39.1506 7.41937 36.439 4.13064 32.2029C0.841921 27.9668 -0.519306 22.7288 0.177642 17.4472C0.841921 12.1439 3.5426 7.46124 7.74606 4.15073C11.9604 0.916459 17.1658 -0.531887 22.4038 0.175951C25.8776 0.655103 29.1228 1.96188 31.8888 4.0745C32.4006 4.44476 32.4768 5.18527 32.1066 5.67531C31.7363 6.19802 30.9958 6.27425 30.5167 5.8931C28.0773 3.99828 25.2024 2.84396 22.0988 2.39747C17.4489 1.79853 12.7989 3.06175 9.10729 5.92577C7.26382 7.33539 5.72211 9.10078 4.57357 11.1173C3.42503 13.1338 2.69302 15.3603 2.42094 17.665C1.20128 27.3569 8.0292 36.243 17.634 37.5062C22.284 38.1052 26.9339 36.842 30.6256 33.9779C32.469 32.5683 34.0107 30.8029 35.1593 28.7864C36.3078 26.7699 37.0398 24.5434 37.3119 22.2387C37.5297 20.4528 37.497 18.6669 37.203 16.9245C37.0941 16.3255 37.5406 15.6939 38.1286 15.6286C38.7167 15.5197 39.3483 15.9662 39.4245 16.5542C39.7621 18.5253 39.7948 20.529 39.577 22.5763C38.9127 27.8905 36.2229 32.5731 32.0086 35.8728C28.5347 38.617 24.3312 40 19.9427 40H19.9318Z" fill="url(#paint1_linear_540_44)"/>
<path d="M37.5401 17.1532H37.3223C36.3966 17.1205 35.5472 16.674 34.9592 15.9662C34.3711 15.2583 34.0336 14.3654 34.1098 13.4724C34.2187 11.5776 35.8413 10.0966 37.7688 10.2381C39.6527 10.347 41.0902 11.9805 40.9813 13.9189C40.9486 14.8445 40.5021 15.7048 39.8052 16.2929C39.1735 16.8482 38.4004 17.1423 37.551 17.1423L37.5401 17.1532ZM36.4293 13.6249C36.4293 13.9624 36.5382 14.2238 36.7233 14.4743C36.9085 14.6921 37.2025 14.8445 37.4965 14.8445C37.7905 14.8445 38.0846 14.7356 38.3459 14.5505C38.5637 14.3654 38.7162 14.0713 38.7162 13.7664C38.7488 13.1021 38.237 12.5794 37.649 12.5359C36.9847 12.4596 36.4293 12.9824 36.4293 13.614V13.6249Z" fill="#DF4050"/>
<path d="M33.1405 17.262C32.8465 16.3691 32.4436 15.6285 31.9209 14.9534C31.409 14.2891 30.7448 13.8426 30.0369 13.505C29.2964 13.1674 28.4906 13.0259 27.5976 13.0259C26.7046 13.0259 25.8661 13.1783 25.1256 13.505C24.3851 13.7991 23.7644 14.2455 23.209 14.8771C22.6972 15.4761 22.2834 16.2493 21.9893 17.1858C21.6953 18.0788 21.5864 19.1568 21.5864 20.3765C21.5864 21.4873 21.7389 22.4891 21.9893 23.3821C22.2834 24.2751 22.6863 25.0918 23.209 25.6907C23.7208 26.355 24.3851 26.8015 25.1256 27.1391C25.8661 27.4767 26.672 27.6182 27.5649 27.6182C28.4579 27.6182 29.2637 27.4658 30.0043 27.1391C30.7448 26.8015 31.3655 26.355 31.9209 25.7234C32.4327 25.1245 32.8465 24.3077 33.1405 23.4148C33.4345 22.5218 33.5434 21.4873 33.5434 20.3656C33.6197 19.1351 33.4345 18.1005 33.1405 17.2402V17.262ZM27.6085 15.1494C28.3817 15.1494 29.0895 15.3672 29.6013 15.8137C30.1567 16.2275 30.6032 16.8591 30.8537 17.5996C31.115 18.3401 31.2566 19.2331 31.3328 20.2349C31.3328 21.2804 31.1477 22.1624 30.8537 22.9465C30.5596 23.7306 30.1567 24.3622 29.6013 24.7651C29.0459 25.1789 28.3817 25.4294 27.6085 25.4294C26.8353 25.4294 26.171 25.2116 25.6157 24.7651C25.0603 24.3513 24.6138 23.7197 24.3633 22.9792C24.0693 22.1951 23.9604 21.2695 23.9604 20.3003C23.9604 19.2549 24.1129 18.3728 24.3633 17.6214C24.6574 16.8809 25.0603 16.2493 25.6157 15.8355C26.0948 15.389 26.7918 15.1276 27.6085 15.1276V15.1494Z" fill="url(#paint2_linear_540_44)"/>
<path d="M21.5869 19.048C20.9226 18.6778 20.291 18.4927 19.5179 18.4927C18.6685 18.4927 17.9715 18.6778 17.3726 19.0154L20.7266 13.0369H18.0695C17.035 14.8555 15.0095 18.6887 14.5957 19.5381C13.67 21.8032 13.9314 23.7416 14.4868 25.0701C14.857 25.9195 15.5213 26.5185 16.2618 26.9976C17.0023 27.4114 17.8517 27.6619 18.7773 27.6619C19.6268 27.6619 20.3999 27.4768 21.1404 27.1065C21.8809 26.7362 22.5017 26.1809 22.9155 25.473C23.3946 24.7652 23.6124 23.9158 23.6124 22.9793C23.6124 22.1299 23.4273 21.3458 23.0244 20.6706C22.7304 20.0063 22.2076 19.4401 21.5869 19.0372V19.048ZM21.1404 24.3623C20.9226 24.7761 20.5851 25.0701 20.1386 25.2879C19.7357 25.5057 19.2565 25.6255 18.7773 25.6255C18.2655 25.6255 17.8517 25.473 17.4161 25.2552C17.0132 25.0374 16.6756 24.6999 16.4143 24.3296C16.1965 23.9593 16.044 23.4802 16.044 23.0664V22.6961C16.044 22.2823 16.1965 21.8467 16.4143 21.5091C16.6321 21.1389 16.9696 20.8449 17.4161 20.6597C17.819 20.4746 18.2655 20.3222 18.7773 20.3222C19.2892 20.3222 19.703 20.431 20.1386 20.6597C20.5415 20.8449 20.8791 21.1824 21.1404 21.5527C21.3582 21.923 21.5107 22.4021 21.5107 22.9248C21.5107 23.4802 21.4018 23.9702 21.1404 24.3732V24.3623Z" fill="url(#paint3_linear_540_44)"/>
<path d="M14.3564 19.1568C13.9534 18.8193 13.4743 18.5579 12.9516 18.449C12.614 18.3401 12.2873 18.2965 11.9497 18.2965L15.1622 13.0259H7.52845V15.2147H11.8081L8.7481 20.0498L8.71544 20.0825L8.90056 20.2349H8.93323C9.15103 20.126 9.41238 20.0825 9.67374 20.0171C9.96776 19.9845 10.2618 19.9082 10.7083 19.9082C11.4814 19.9082 12.1457 20.126 12.6249 20.5725C13.104 21.0517 13.3218 21.6506 13.3218 22.4673C13.3218 23.0663 13.1694 23.5781 12.9516 24.0246C12.7338 24.4384 12.3635 24.8087 11.917 25.07C11.5141 25.2878 11.035 25.4403 10.5123 25.4403C9.98954 25.4403 9.51039 25.2878 9.0748 25.07C8.59565 24.8522 8.22539 24.5146 8.0076 24.2206L7.97493 24.1117L6.79883 26.0065L6.8315 26.0392C7.31065 26.5184 7.86603 26.8886 8.56298 27.15C9.25993 27.444 9.96776 27.5638 10.632 27.5638C11.5577 27.5638 12.4071 27.3787 13.1367 26.9648C13.8772 26.551 14.5415 25.963 14.9444 25.2225C15.4236 24.482 15.6414 23.589 15.6414 22.5871C15.6414 21.8031 15.4889 21.1061 15.2711 20.5072C15.0533 19.9518 14.7157 19.538 14.3455 19.1677L14.3564 19.1568Z" fill="url(#paint4_linear_540_44)"/>
<defs>
<linearGradient id="paint0_linear_540_44" x1="33.947" y1="17.9046" x2="1.1904" y2="22.805" gradientUnits="userSpaceOnUse">
<stop stop-color="#DF4050"/>
<stop offset="0.95" stop-color="#722378"/>
</linearGradient>
<linearGradient id="paint1_linear_540_44" x1="19.8555" y1="7.05831" x2="19.8555" y2="13.8644" gradientUnits="userSpaceOnUse">
<stop stop-color="#762378"/>
<stop offset="1" stop-color="#762378" stop-opacity="0"/>
</linearGradient>
<linearGradient id="paint2_linear_540_44" x1="21.5864" y1="20.3329" x2="33.5652" y2="20.3329" gradientUnits="userSpaceOnUse">
<stop stop-color="#722378"/>
<stop offset="1" stop-color="#DF4050"/>
</linearGradient>
<linearGradient id="paint3_linear_540_44" x1="14.0076" y1="20.3548" x2="23.6233" y2="20.3548" gradientUnits="userSpaceOnUse">
<stop stop-color="#722378"/>
<stop offset="1" stop-color="#DF4050"/>
</linearGradient>
<linearGradient id="paint4_linear_540_44" x1="6.78794" y1="20.2894" x2="15.6522" y2="20.2894" gradientUnits="userSpaceOnUse">
<stop stop-color="#722378"/>
<stop offset="1" stop-color="#DF4050"/>
</linearGradient>
</defs>
</svg>
