<svg xmlns="http://www.w3.org/2000/svg" viewBox="0 0 34 44" width="34" height="44">
	<style>
		tspan { white-space:pre }
		.shp0 { fill: #021b6d } 
	</style>
	<g id="Layer_2">
		<g id="Layer_1-2">
			<path id="Layer" fill-rule="evenodd" class="shp0" d="M33.74 6.59L33.74 34.07L16.87 43.18L0 34.07L0 6.59L1.18 6.59C1.89 6.59 2.59 6.45 3.25 6.18C3.9 5.9 4.5 5.5 5 5C5.5 4.5 5.9 3.9 6.18 3.25C6.45 2.59 6.59 1.89 6.59 1.18L6.59 0L27.15 0L27.15 1.18C27.15 1.89 27.29 2.59 27.56 3.25C27.84 3.9 28.24 4.5 28.74 5C29.24 5.5 29.84 5.9 30.49 6.18C31.15 6.45 31.85 6.59 32.56 6.59L33.74 6.59ZM16.87 29.87C18.22 29.87 19.55 29.6 20.8 29.09C22.05 28.57 23.18 27.81 24.13 26.86C25.09 25.91 25.84 24.77 26.36 23.53C26.88 22.28 27.15 20.95 27.15 19.6C27.15 15.44 24.65 11.69 20.81 10.1C16.97 8.5 12.55 9.38 9.6 12.32C6.66 15.26 5.78 19.68 7.37 23.52C8.96 27.36 12.71 29.87 16.87 29.87ZM16.87 11.67C17.91 11.67 18.94 11.88 19.9 12.28C20.86 12.68 21.73 13.26 22.47 14C23.2 14.74 23.79 15.61 24.18 16.57C24.58 17.53 24.79 18.56 24.79 19.6C24.79 22.81 22.86 25.7 19.89 26.93C16.93 28.15 13.52 27.47 11.25 25.2C8.98 22.93 8.31 19.52 9.54 16.56C10.77 13.6 13.66 11.67 16.87 11.67ZM21.17 18.1L19.51 16.43L15.68 20.26L14.23 18.81L12.56 20.48L15.68 23.59L21.17 18.1Z" />
		</g>
	</g>
</svg>