<svg xmlns="http://www.w3.org/2000/svg" viewBox="0 0 44 38" width="44" height="38">
	<style>
		tspan { white-space:pre }
		.shp0 { fill: #021b6d } 
	</style>
	<g id="Layer_2">
		<g id="Layer_1-2">
			<path id="Layer" class="shp0" d="M20.71 0C19.48 0.07 18.27 0.24 17.07 0.52C15.87 0.79 14.7 1.16 13.57 1.63C12.43 2.1 11.34 2.67 10.3 3.32C9.26 3.97 8.28 4.71 7.36 5.53L13.11 11.28C13.64 10.83 14.21 10.43 14.81 10.07C15.4 9.71 16.03 9.4 16.67 9.13C17.31 8.86 17.98 8.65 18.65 8.48C19.33 8.32 20.02 8.2 20.71 8.14L20.71 0Z" />
			<path id="Layer" class="shp0" d="M11.29 13.11L5.54 7.35C4.72 8.27 3.98 9.25 3.33 10.29C2.67 11.33 2.11 12.42 1.63 13.55C1.16 14.69 0.79 15.86 0.52 17.06C0.24 18.26 0.07 19.47 0 20.7L8.14 20.7C8.2 20.01 8.32 19.32 8.48 18.64C8.65 17.97 8.87 17.31 9.13 16.66C9.4 16.02 9.72 15.4 10.08 14.81C10.44 14.21 10.84 13.64 11.29 13.11L11.29 13.11Z" />
			<path id="Layer" class="shp0" d="M35.86 20.7L44 20.7C43.93 19.47 43.76 18.26 43.48 17.06C43.21 15.86 42.84 14.69 42.37 13.55C41.89 12.42 41.33 11.33 40.67 10.29C40.02 9.25 39.28 8.27 38.46 7.35L32.71 13.11C33.16 13.64 33.56 14.21 33.92 14.81C34.28 15.4 34.6 16.02 34.86 16.67C35.13 17.31 35.35 17.97 35.51 18.64C35.68 19.32 35.8 20.01 35.86 20.7L35.86 20.7Z" />
			<path id="Layer" class="shp0" d="M35.86 23.28C35.82 23.71 35.76 24.15 35.69 24.58C35.61 25 35.51 25.43 35.39 25.85C35.27 26.27 35.13 26.68 34.97 27.09C34.81 27.49 34.64 27.89 34.44 28.28C35.1 29.28 35.64 30.14 36 30.71C36.24 31.08 36.41 31.48 36.51 31.91C36.61 32.33 36.64 32.77 36.59 33.21C36.54 33.64 36.42 34.07 36.23 34.46C36.04 34.86 35.78 35.21 35.47 35.52C35.39 35.6 35.31 35.67 35.23 35.74C35.15 35.81 35.06 35.88 34.97 35.94C34.88 36 34.79 36.06 34.7 36.12C34.6 36.17 34.51 36.22 34.41 36.27L35.75 37.61C35.81 37.67 35.88 37.72 35.95 37.77C36.02 37.82 36.09 37.86 36.17 37.89C36.25 37.92 36.33 37.95 36.42 37.96C36.5 37.98 36.58 37.99 36.67 37.99C36.75 37.99 36.84 37.98 36.92 37.96C37 37.95 37.08 37.92 37.16 37.89C37.24 37.86 37.32 37.82 37.39 37.77C37.46 37.72 37.52 37.67 37.58 37.61C38.53 36.67 39.39 35.64 40.15 34.53C40.91 33.43 41.57 32.26 42.12 31.04C42.67 29.82 43.1 28.55 43.42 27.25C43.73 25.95 43.93 24.62 44 23.28L35.86 23.28Z" />
			<path id="Layer" class="shp0" d="M8.14 23.28L0 23.28C0.07 24.61 0.27 25.94 0.59 27.24C0.9 28.54 1.34 29.8 1.89 31.02C2.43 32.24 3.09 33.41 3.85 34.51C4.61 35.61 5.47 36.64 6.42 37.58C6.48 37.64 6.54 37.69 6.61 37.74C6.68 37.79 6.76 37.83 6.84 37.86C6.92 37.89 7 37.92 7.08 37.93C7.16 37.95 7.25 37.96 7.33 37.96C7.42 37.96 7.5 37.95 7.58 37.93C7.67 37.92 7.75 37.89 7.83 37.86C7.91 37.83 7.98 37.79 8.05 37.74C8.12 37.69 8.19 37.64 8.25 37.58L12.16 33.67C12.28 33.55 12.37 33.41 12.44 33.25C12.5 33.09 12.54 32.92 12.54 32.76C12.54 32.59 12.5 32.42 12.44 32.26C12.37 32.1 12.28 31.96 12.16 31.84C11.59 31.27 11.07 30.65 10.61 30C10.15 29.34 9.75 28.64 9.41 27.91C9.07 27.18 8.79 26.43 8.58 25.65C8.37 24.87 8.23 24.08 8.16 23.28L8.14 23.28Z" />
			<path id="Layer" class="shp0" d="M36.64 5.53C35.72 4.71 34.74 3.97 33.7 3.32C32.66 2.67 31.57 2.1 30.43 1.63C29.3 1.16 28.13 0.79 26.93 0.52C25.73 0.24 24.52 0.07 23.29 0L23.29 8.14C23.98 8.2 24.67 8.32 25.35 8.48C26.02 8.65 26.68 8.86 27.33 9.13C27.97 9.39 28.59 9.71 29.18 10.07C29.78 10.43 30.35 10.83 30.88 11.28L36.64 5.53Z" />
			<path id="Layer" class="shp0" d="M24.86 19.15C24.08 18.43 23.06 18.01 22 18.02C20.94 18.02 19.92 18.44 19.17 19.19C18.42 19.94 18 20.96 18 22.02C18 23.08 18.42 24.1 19.17 24.85C21.14 26.88 30.94 33.13 32.05 33.88C32.3 34.04 32.59 34.1 32.88 34.07C33.17 34.04 33.45 33.91 33.65 33.7C33.86 33.5 33.99 33.22 34.02 32.93C34.05 32.64 33.99 32.35 33.83 32.1C33.12 31 26.86 21.14 24.86 19.15Z" />
		</g>
	</g>
</svg>