<svg xmlns="http://www.w3.org/2000/svg" viewBox="0 0 37 44" width="37" height="44">
	<style>
		tspan { white-space:pre }
		.shp0 { fill: #021b6d } 
	</style>
	<g id="Layer_2">
		<g id="Layer_1-2">
			<path id="Layer" class="shp0" d="M31.2 1.65C30.13 1.36 29.05 1.11 27.96 0.89C26.88 0.68 25.78 0.5 24.68 0.36C23.58 0.22 22.48 0.12 21.37 0.06C20.27 0 19.16 -0.02 18.05 0C16.94 -0.02 15.83 0 14.72 0.06C13.62 0.12 12.51 0.22 11.41 0.36C10.31 0.5 9.22 0.68 8.13 0.89C7.04 1.11 5.96 1.36 4.89 1.65C1.83 2.58 0 3.8 0 4.91C0 6.02 1.83 7.23 4.89 8.16L4.89 8.16C5.96 8.45 7.04 8.7 8.13 8.92C9.22 9.13 10.31 9.31 11.41 9.45C12.51 9.59 13.62 9.69 14.72 9.75C15.83 9.81 16.94 9.83 18.05 9.81C19.16 9.83 20.27 9.81 21.37 9.75C22.48 9.69 23.58 9.59 24.68 9.45C25.78 9.31 26.88 9.13 27.96 8.92C29.05 8.7 30.13 8.45 31.2 8.16C34.26 7.23 36.08 6.01 36.08 4.91C36.08 3.81 34.26 2.58 31.2 1.65Z" />
			<path id="Layer" fill-rule="evenodd" class="shp0" d="M36.14 30.22L36.14 38.15C36.14 39.76 32.32 41.51 26.85 42.39C26.13 42.5 25.4 42.6 24.67 42.68C23.95 42.77 23.22 42.84 22.49 42.89C21.76 42.95 21.03 42.99 20.3 43.01C19.56 43.04 18.83 43.05 18.1 43.05C16.99 43.07 15.88 43.05 14.77 42.99C13.66 42.93 12.56 42.83 11.46 42.69C10.36 42.55 9.26 42.38 8.17 42.16C7.08 41.95 6 41.69 4.93 41.4C1.88 40.47 0.05 39.25 0.05 38.15L0.05 30.22C3.58 32.55 10.98 33.78 18.05 33.78C25.11 33.78 32.51 32.55 36.14 30.22ZM21.21 39.16C21.48 39.21 21.77 39.13 21.98 38.96C22.19 38.78 22.32 38.51 22.32 38.23C22.32 37.96 22.19 37.69 21.98 37.51C21.77 37.34 21.48 37.26 21.21 37.31L14.88 37.31C14.61 37.26 14.32 37.34 14.11 37.51C13.9 37.69 13.77 37.96 13.77 38.23C13.77 38.51 13.9 38.78 14.11 38.96C14.32 39.13 14.61 39.21 14.88 39.16L21.21 39.16Z" />
			<path id="Layer" fill-rule="evenodd" class="shp0" d="M36.14 19.16L36.14 27C36.14 28.11 34.26 29.33 31.26 30.26C30.19 30.55 29.11 30.8 28.02 31.02C26.93 31.23 25.84 31.41 24.74 31.55C23.64 31.69 22.53 31.79 21.43 31.85C20.32 31.91 19.21 31.93 18.1 31.91C16.99 31.93 15.88 31.91 14.77 31.85C13.66 31.79 12.56 31.69 11.46 31.55C10.36 31.41 9.26 31.23 8.17 31.02C7.08 30.8 6 30.55 4.93 30.26C1.88 29.33 0.05 28.11 0.05 27L0.05 19.16C3.58 21.49 10.98 22.72 18.05 22.72C25.11 22.72 32.51 21.49 36.14 19.16ZM21.96 27.69C22.17 27.51 22.29 27.25 22.29 26.98C22.29 26.71 22.17 26.45 21.96 26.27C21.75 26.09 21.48 26.01 21.21 26.05L14.88 26.05C14.61 26.01 14.34 26.09 14.13 26.27C13.92 26.45 13.8 26.71 13.8 26.98C13.8 27.25 13.92 27.51 14.13 27.69C14.34 27.87 14.61 27.95 14.88 27.91L21.21 27.91C21.48 27.95 21.75 27.87 21.96 27.69Z" />
			<path id="Layer" fill-rule="evenodd" class="shp0" d="M36.09 8.11L36.09 16C36.09 17.11 34.21 18.32 31.21 19.25C30.14 19.54 29.06 19.8 27.97 20.01C26.88 20.23 25.79 20.41 24.69 20.55C23.59 20.69 22.48 20.79 21.38 20.85C20.27 20.91 19.16 20.93 18.05 20.91C16.94 20.93 15.83 20.91 14.72 20.85C13.61 20.79 12.51 20.69 11.41 20.55C10.3 20.41 9.21 20.23 8.12 20.01C7.03 19.8 5.95 19.54 4.88 19.25C1.83 18.32 0 17.11 0 16L0 8.11C3.58 10.44 11 11.67 18.05 11.67C25.11 11.67 32.51 10.44 36.09 8.11ZM21.61 16.96C21.74 16.92 21.86 16.86 21.96 16.77C22.07 16.69 22.15 16.58 22.21 16.46C22.28 16.34 22.31 16.21 22.32 16.07C22.31 15.93 22.28 15.8 22.21 15.68C22.15 15.56 22.07 15.45 21.96 15.37C21.86 15.28 21.74 15.22 21.61 15.18C21.48 15.14 21.34 15.12 21.21 15.14L14.88 15.14C14.75 15.13 14.61 15.14 14.48 15.18C14.35 15.22 14.23 15.28 14.13 15.37C14.03 15.46 13.95 15.56 13.88 15.68C13.82 15.8 13.79 15.94 13.78 16.07C13.79 16.2 13.82 16.34 13.88 16.46C13.95 16.58 14.03 16.68 14.13 16.77C14.23 16.86 14.35 16.92 14.48 16.96C14.61 17 14.75 17.01 14.88 17L21.21 17C21.34 17.02 21.48 17 21.61 16.96Z" />
		</g>
	</g>
</svg>