<svg xmlns="http://www.w3.org/2000/svg" viewBox="0 0 49 39" width="49" height="39">
	<style>
		tspan { white-space:pre }
		.shp0 { fill: #021b6d } 
	</style>
	<g id="Layer_1-2">
		<path id="Layer" class="shp0" d="M41.7 9.34C41.45 7.22 40.56 5.23 39.15 3.62C37.75 2.02 35.89 0.87 33.83 0.34C31.76 -0.19 29.58 -0.09 27.58 0.63C25.57 1.36 23.83 2.67 22.58 4.4L23.26 4.4C25.15 4.4 27.04 4.71 28.83 5.31C30.63 5.92 32.31 6.82 33.82 7.96C35.32 9.11 36.63 10.5 37.69 12.07C38.75 13.64 39.55 15.37 40.05 17.2C40.62 17.33 41.17 17.5 41.71 17.7C42.26 17.91 42.78 18.15 43.29 18.43C43.8 18.72 44.28 19.03 44.74 19.38C45.21 19.73 45.64 20.12 46.05 20.53L46.49 20.98C47.44 20.03 48.09 18.82 48.35 17.5C48.62 16.18 48.48 14.81 47.97 13.56C47.46 12.32 46.59 11.26 45.48 10.5C44.36 9.75 43.05 9.35 41.7 9.34L41.7 9.34Z" />
		<path id="Layer" class="shp0" d="M37.36 20.11C36.94 16.67 35.27 13.49 32.67 11.19C30.08 8.89 26.73 7.62 23.25 7.62C19.78 7.62 16.43 8.89 13.84 11.19C11.24 13.49 9.57 16.67 9.15 20.11C6.67 20.03 4.27 20.96 2.49 22.68C0.7 24.4 -0.3 26.78 -0.3 29.25C-0.3 31.73 0.7 34.11 2.49 35.83C4.27 37.55 6.67 38.48 9.15 38.4L37.36 38.4C39.84 38.48 42.24 37.55 44.02 35.83C45.81 34.11 46.81 31.73 46.81 29.26C46.81 26.78 45.81 24.4 44.02 22.68C42.24 20.96 39.84 20.03 37.36 20.11L37.36 20.11Z" />
	</g>
</svg>